<svg width="47" height="46" viewBox="0 0 47 46" fill="none" xmlns="http://www.w3.org/2000/svg">
<circle cx="23.5071" cy="23.0071" r="23" fill="#356D55" fill-opacity="0.2"/>
<path d="M12.5071 21.6547C11.7602 21.6547 11.1547 22.2602 11.1547 23.0071C11.1547 23.754 11.7602 24.3595 12.5071 24.3595V21.6547ZM35.4634 23.9634C35.9915 23.4352 35.9915 22.5789 35.4634 22.0508L26.8567 13.4441C26.3286 12.916 25.4723 12.916 24.9441 13.4441C24.416 13.9723 24.416 14.8286 24.9441 15.3567L32.5945 23.0071L24.9441 30.6574C24.416 31.1856 24.416 32.0419 24.9441 32.57C25.4723 33.0982 26.3286 33.0982 26.8567 32.57L35.4634 23.9634ZM12.5071 24.3595H34.5071V21.6547H12.5071V24.3595Z" fill="#007040"/>
</svg>
