<svg width="13" height="14" viewBox="0 0 13 14" fill="none" xmlns="http://www.w3.org/2000/svg">
<path d="M4.0649 4.25543C4.0649 4.30631 4.0649 4.35719 4.11858 4.40808C4.17226 4.45896 4.22594 4.45896 4.27962 4.45896H9.86232C9.916 4.45896 9.94284 4.45896 9.99652 4.40808C10.0502 4.35719 10.077 4.30631 10.077 4.25543V3.44128C10.077 3.3904 10.0502 3.36496 9.99652 3.31407C9.94284 3.26319 9.916 3.23775 9.86232 3.23775H4.27962C4.22594 3.23775 4.17226 3.26319 4.11858 3.31407C4.0649 3.36496 4.0649 3.3904 4.0649 3.44128V4.25543ZM4.27962 6.49432C4.22594 6.49432 4.17226 6.49432 4.11858 6.44344C4.0649 6.39255 4.0649 6.34167 4.0649 6.29078V5.47664C4.0649 5.42576 4.0649 5.40031 4.11858 5.34943C4.17226 5.29855 4.22594 5.2731 4.27962 5.2731H9.86232C9.916 5.2731 9.94284 5.29855 9.99652 5.34943C10.0502 5.40031 10.077 5.42576 10.077 5.47664V6.29078C10.077 6.34167 10.0502 6.39255 9.99652 6.44344C9.94284 6.49432 9.916 6.49432 9.86232 6.49432H4.27962ZM12.3047 10.565C12.4121 10.565 12.4926 10.5142 12.5463 10.4378C12.6 10.3615 12.6537 10.2597 12.6537 10.158V0.795316C12.6537 0.693548 12.6 0.59178 12.5195 0.515455C12.4389 0.439129 12.3316 0.388245 12.2242 0.388245H2.77659C2.18611 0.388245 1.67615 0.59178 1.24671 0.998852C0.817274 1.40592 0.629395 1.86388 0.629395 2.4236V11.3792C0.629395 11.9389 0.817274 12.4223 1.24671 12.8294C1.67615 13.2364 2.18611 13.4145 2.77659 13.4145H12.2242C12.3316 13.4145 12.4389 13.3891 12.5195 13.3128C12.6 13.2364 12.6537 13.1347 12.6537 13.0075V12.6004C12.6537 12.4986 12.6 12.4223 12.5463 12.346C12.4926 12.2696 12.4121 12.2188 12.3047 12.1933C12.2511 12.0407 12.2242 11.7863 12.2242 11.3792C12.2242 10.9976 12.2511 10.7177 12.3047 10.565ZM11.2043 10.565C11.1506 10.794 11.1506 11.0739 11.1506 11.3792C11.1506 11.7099 11.1506 11.9898 11.2043 12.1933H2.77659C2.53503 12.1933 2.32031 12.117 2.15927 11.9643C1.99823 11.8117 1.91771 11.6082 1.91771 11.3792C1.91771 11.1756 1.99823 10.9721 2.15927 10.8195C2.32031 10.6668 2.53503 10.565 2.77659 10.565H11.2043ZM11.3654 1.60946V9.34382H2.77659C2.45451 9.34382 2.18611 9.42015 1.91771 9.52192V2.4236C1.91771 2.22007 1.99823 2.01653 2.15927 1.86388C2.32031 1.71123 2.53503 1.60946 2.77659 1.60946H11.3654Z" fill="#777C90"/>
</svg>
