<svg width="27" height="26" viewBox="0 0 27 26" fill="none" xmlns="http://www.w3.org/2000/svg">
<path fill-rule="evenodd" clip-rule="evenodd" d="M2.81349 23.7735C1.6353 22.5953 1.63529 20.685 2.81349 19.5068L19.88 2.44015C21.0582 1.26194 22.9685 1.26194 24.1467 2.44015C25.3249 3.61835 25.3249 5.5286 24.1467 6.70681L7.08013 23.7735C5.90193 24.9517 3.99169 24.9517 2.81349 23.7735Z" fill="#356D55"/>
<path fill-rule="evenodd" clip-rule="evenodd" d="M24.1465 23.7734C22.9683 24.9516 21.0581 24.9516 19.8799 23.7734L2.81332 6.70675C1.63511 5.52854 1.63512 3.61829 2.81332 2.44008C3.99152 1.26188 5.90175 1.26187 7.07995 2.44008L24.1465 19.5067C25.3247 20.6849 25.3247 22.5952 24.1465 23.7734Z" fill="#356D55"/>
</svg>
