<svg width="16" height="16" viewBox="0 0 16 16" fill="none" xmlns="http://www.w3.org/2000/svg">
<path d="M13.5996 15.2L0.799613 2.4C0.362282 1.96267 0.362282 1.23733 0.799613 0.8C1.23694 0.362667 1.96227 0.362667 2.39961 0.8L15.1995 13.6C15.6369 14.0373 15.6369 14.7627 15.1995 15.2C14.7622 15.6373 14.0369 15.6373 13.5996 15.2Z" fill="#292D32"/>
<path d="M0.800457 15.2C0.363126 14.7627 0.363125 14.0373 0.800457 13.6L13.6004 0.8C14.0377 0.362667 14.7631 0.362667 15.2004 0.8C15.6377 1.23733 15.6377 1.96267 15.2004 2.4L2.40045 15.2C1.96312 15.6373 1.23779 15.6373 0.800457 15.2Z" fill="#292D32"/>
</svg>
