<svg width="15" height="14" viewBox="0 0 15 14" fill="none" xmlns="http://www.w3.org/2000/svg">
<path d="M10.6273 4.49028C10.7369 4.49028 10.8465 4.54508 10.9287 4.62727C11.0109 4.70947 11.0657 4.81907 11.0657 4.92866V5.36705C11.0657 5.50404 11.0109 5.61364 10.9287 5.69584C10.8465 5.77803 10.7369 5.80543 10.6273 5.80543H4.4899C4.35291 5.80543 4.24331 5.77803 4.16112 5.69584C4.07892 5.61364 4.05152 5.50404 4.05152 5.36705V4.92866C4.05152 4.81907 4.07892 4.70947 4.16112 4.62727C4.24331 4.54508 4.35291 4.49028 4.4899 4.49028H10.6273ZM7.99698 7.12059C8.10658 7.12059 8.21617 7.17539 8.29837 7.25758C8.38057 7.33978 8.43537 7.44938 8.43537 7.55897V7.99736C8.43537 8.13435 8.38057 8.24395 8.29837 8.32615C8.21617 8.40834 8.10658 8.43574 7.99698 8.43574H4.4899C4.35291 8.43574 4.24331 8.40834 4.16112 8.32615C4.07892 8.24395 4.05152 8.13435 4.05152 7.99736V7.55897C4.05152 7.44938 4.07892 7.33978 4.16112 7.25758C4.24331 7.17539 4.35291 7.12059 4.4899 7.12059H7.99698ZM7.5586 0.764008C8.81895 0.764008 9.99711 1.038 11.0657 1.53118C12.1342 2.05176 12.9836 2.73674 13.6138 3.61351C14.244 4.49028 14.5728 5.42185 14.5728 6.46301C14.5728 7.50418 14.244 8.46314 13.6138 9.33991C12.9836 10.2167 12.1342 10.9017 11.0657 11.3948C9.99711 11.9154 8.81895 12.162 7.5586 12.162C6.68183 12.162 5.83246 12.0524 5.01049 11.7784C3.80493 12.6278 2.54457 13.0388 1.20202 13.0388C1.06502 13.0388 0.955426 13.0114 0.84583 12.9292C0.736234 12.8744 0.654036 12.7648 0.599238 12.6552C0.54444 12.5456 0.517041 12.4086 0.54444 12.2716C0.571839 12.162 0.626637 12.0524 0.708835 11.9702C0.791032 11.888 0.955426 11.6688 1.20202 11.34C1.55821 10.8469 1.8322 10.3811 1.99659 9.91529C1.01022 8.90153 0.54444 7.75077 0.54444 6.46301C0.54444 5.42185 0.84583 4.49028 1.47601 3.61351C2.10619 2.73674 2.95556 2.05176 4.02412 1.53118C5.09268 1.038 6.27084 0.764008 7.5586 0.764008ZM7.5586 10.8469C8.57236 10.8469 9.53133 10.6551 10.4081 10.2715C11.2849 9.88789 11.9698 9.33991 12.4904 8.65494C12.9836 7.99736 13.2576 7.25758 13.2576 6.46301C13.2576 5.69584 12.9836 4.95606 12.4904 4.27109C11.9698 3.61351 11.2849 3.06553 10.4081 2.68194C9.53133 2.29835 8.57236 2.07916 7.5586 2.07916C6.51743 2.07916 5.58587 2.29835 4.7091 2.68194C3.83233 3.06553 3.11995 3.61351 2.62677 4.27109C2.10619 4.95606 1.85959 5.69584 1.85959 6.46301C1.85959 7.39458 2.21578 8.24395 2.95556 9.01112L3.50354 9.6139L3.22955 10.3811C3.06515 10.7647 2.90076 11.1209 2.68157 11.5044C3.22955 11.34 3.75013 11.0661 4.24331 10.6825L4.79129 10.3263L5.42147 10.5181C6.10645 10.7373 6.81882 10.8469 7.5586 10.8469Z" fill="#777C90"/>
</svg>
