<svg width="17" height="11" viewBox="0 0 17 11" fill="none" xmlns="http://www.w3.org/2000/svg">
<path d="M16.2815 5.24374C16.3911 5.46294 16.4733 5.68213 16.4733 5.90132C16.4733 6.14791 16.3911 6.3671 16.2815 6.5589C15.4869 7.90145 14.4183 8.97001 13.0758 9.73719C11.7058 10.5592 10.1989 10.9427 8.58233 10.9427C6.93839 10.9427 5.45884 10.5592 4.08889 9.73719C2.71894 8.97001 1.65037 7.90145 0.8832 6.5589C0.746204 6.3671 0.691406 6.14791 0.691406 5.90132C0.691406 5.68213 0.746204 5.46294 0.8832 5.24374C1.65037 3.92859 2.71894 2.86002 4.08889 2.06545C5.45884 1.27088 6.93839 0.859894 8.58233 0.859894C10.1989 0.859894 11.7058 1.27088 13.0758 2.06545C14.4183 2.86002 15.4869 3.92859 16.2815 5.24374ZM8.58233 9.62759C9.95229 9.62759 11.24 9.2988 12.3908 8.61383C13.5416 7.95625 14.4731 7.05208 15.1581 5.90132C14.7197 5.21634 14.1991 4.61356 13.5964 4.06558C12.9936 3.5176 12.3086 3.07922 11.5414 2.75043C12.0346 3.43541 12.3086 4.20258 12.3086 5.02455C12.3086 5.70953 12.1168 6.3397 11.788 6.88769C11.4592 7.46307 10.9935 7.92885 10.4455 8.25764C9.87009 8.58643 9.23991 8.75082 8.58233 8.75082C7.89736 8.75082 7.26718 8.58643 6.7192 8.25764C6.14382 7.92885 5.67803 7.46307 5.34925 6.88769C5.02046 6.3397 4.85606 5.70953 4.85606 5.02455C4.85606 4.42177 4.99306 3.81899 5.29445 3.27101C5.29445 3.7094 5.43144 4.06558 5.73283 4.36697C6.03422 4.66836 6.39041 4.80536 6.82879 4.80536C7.23978 4.80536 7.59597 4.66836 7.89736 4.36697C8.19875 4.06558 8.36314 3.7094 8.36314 3.27101C8.36314 2.86002 8.19875 2.50384 7.92476 2.20245C6.6644 2.31204 5.54104 2.69563 4.49988 3.35321C3.45871 4.01079 2.60934 4.86016 2.00656 5.90132C2.66414 7.05208 3.59571 7.95625 4.74647 8.61383C5.89723 9.2988 7.18498 9.62759 8.58233 9.62759Z" fill="#1F2041" fill-opacity="0.5"/>
</svg>
