<svg width="29" height="21" viewBox="0 0 29 21" fill="none" xmlns="http://www.w3.org/2000/svg">
<path d="M14.185 14.9153C14.6482 12.633 16.666 10.9153 19.085 10.9153C21.5039 10.9153 23.5217 12.633 23.9849 14.9153H28.085V16.9153H23.9849C23.5217 19.1975 21.5039 20.9153 19.085 20.9153C16.666 20.9153 14.6482 19.1975 14.185 16.9153H0.0849609V14.9153L14.185 14.9153ZM13.9849 6.91528C13.5217 9.19752 11.5039 10.9153 9.08496 10.9153C6.666 10.9153 4.64825 9.19752 4.18498 6.91528H0.0849609V4.91528H4.18498C4.64825 2.63304 6.666 0.915283 9.08496 0.915283C11.5039 0.915283 13.5217 2.63304 13.9849 4.91528L28.085 4.91528V6.91528L13.9849 6.91528ZM6.08496 5.91528C6.08496 7.57214 7.42811 8.91528 9.08496 8.91528C10.7418 8.91528 12.085 7.57214 12.085 5.91528C12.085 4.25843 10.7418 2.91528 9.08496 2.91528C7.42811 2.91528 6.08496 4.25843 6.08496 5.91528ZM22.085 15.9153C22.085 14.2584 20.7418 12.9153 19.085 12.9153C17.4281 12.9153 16.085 14.2584 16.085 15.9153C16.085 17.5721 17.4281 18.9153 19.085 18.9153C20.7418 18.9153 22.085 17.5721 22.085 15.9153Z" fill="#007040"/>
</svg>
