<svg width="93" height="73" viewBox="0 0 93 73" fill="none" xmlns="http://www.w3.org/2000/svg">
<g clip-path="url(#clip0_1179_23662)">
<path d="M36.2321 49.0671C35.3326 49.0671 34.4532 49.3358 33.7052 49.839C32.9573 50.3423 32.3743 51.0576 32.0301 51.8944C31.6858 52.7313 31.5957 53.6522 31.7712 54.5406C31.9467 55.4291 32.3799 56.2451 33.016 56.8857C33.6521 57.5262 34.4625 57.9624 35.3448 58.1391C36.2271 58.3158 37.1416 58.2251 37.9727 57.8785C38.8038 57.5318 39.5141 56.9448 40.0139 56.1916C40.5137 55.4385 40.7804 54.553 40.7804 53.6471C40.7789 52.4329 40.2992 51.2689 39.4466 50.4103C38.5939 49.5517 37.4379 49.0687 36.2321 49.0671ZM36.2321 56.4143C35.5095 56.4024 34.8198 56.1081 34.3087 55.5935C33.7977 55.0789 33.5054 54.3844 33.4936 53.6567C33.4936 53.1094 33.6548 52.5744 33.9568 52.1194C34.2587 51.6643 34.6879 51.3096 35.19 51.1002C35.6922 50.8908 36.2447 50.836 36.7777 50.9427C37.3108 51.0495 37.8005 51.313 38.1848 51.7C38.5691 52.087 38.8308 52.5801 38.9368 53.1169C39.0429 53.6536 38.9884 54.21 38.7805 54.7157C38.5725 55.2213 38.2202 55.6535 37.7683 55.9575C37.3164 56.2616 36.7851 56.4239 36.2416 56.4239L36.2321 56.4143Z" fill="#008FBE"/>
<path d="M36.2321 14.7288C35.0265 14.7298 33.8705 15.2124 33.0178 16.0706C32.1651 16.9289 31.6853 18.0928 31.6838 19.3068V40.7408C31.6838 41.9555 32.163 43.1204 33.016 43.9793C33.869 44.8382 35.0258 45.3208 36.2321 45.3208C37.4384 45.3208 38.5953 44.8382 39.4482 43.9793C40.3012 43.1204 40.7804 41.9555 40.7804 40.7408V19.3068C40.7789 18.0928 40.2992 16.9289 39.4465 16.0706C38.5938 15.2124 37.4378 14.7298 36.2321 14.7288ZM38.9801 40.7408C38.9801 41.4747 38.6906 42.1785 38.1752 42.6975C37.6599 43.2164 36.9609 43.5079 36.2321 43.5079C35.5033 43.5079 34.8043 43.2164 34.289 42.6975C33.7736 42.1785 33.4841 41.4747 33.4841 40.7408V19.3068C33.4841 18.5729 33.7736 17.8691 34.289 17.3502C34.8043 16.8312 35.5033 16.5397 36.2321 16.5397C36.9609 16.5397 37.6599 16.8312 38.1752 17.3502C38.6906 17.8691 38.9801 18.5729 38.9801 19.3068V40.7408Z" fill="#008FBE"/>
<path d="M0 36.4846C0 56.6193 16.273 73 36.2759 73C43.714 72.9863 50.9691 70.6758 57.0624 66.3801C63.1557 62.0845 67.7941 56.0103 70.3518 48.9771L70.428 48.7663L92.5128 37.2684C92.6598 37.1922 92.7831 37.0766 92.8692 36.9345C92.9553 36.7924 93.0008 36.6291 93.0008 36.4626C93.0008 36.2961 92.9553 36.1328 92.8692 35.9907C92.7831 35.8485 92.6598 35.733 92.5128 35.6568L70.4375 24.18L70.3614 23.9673C68.1303 17.7652 64.2673 12.2902 59.1854 8.12778C54.1035 3.96532 47.9937 1.27184 41.5093 0.335314C41.2732 0.301841 41.0336 0.363606 40.8426 0.507165C40.6515 0.650724 40.5245 0.864455 40.4892 1.10184C40.4686 1.21582 40.4712 1.33281 40.4967 1.44577C40.5222 1.55873 40.5702 1.66533 40.6377 1.75913C40.7101 1.85872 40.8016 1.94262 40.9069 2.00583C41.0122 2.06904 41.129 2.11027 41.2504 2.12707C47.5079 3.02656 53.3968 5.65028 58.2664 9.7084C63.136 13.7665 66.7969 19.1011 68.8446 25.1228C68.9204 25.3429 69.077 25.5253 69.2823 25.6326L90.1378 36.4712L69.2823 47.3214C69.077 47.4286 68.9204 47.6111 68.8446 47.8311C66.5012 54.6507 62.105 60.565 56.2676 64.7512C50.4303 68.9373 43.4422 71.187 36.2759 71.1871C17.2663 71.1871 1.80028 55.619 1.80028 36.4846C1.80115 28.8361 4.30956 21.4018 8.9361 15.3358C13.5626 9.26988 20.0485 4.91163 27.3867 2.93767C27.6177 2.87592 27.8147 2.72433 27.9347 2.51625C28.0546 2.30817 28.0875 2.06064 28.0262 1.82812C27.9648 1.5956 27.8143 1.39714 27.6077 1.27639C27.401 1.15564 27.1552 1.12249 26.9243 1.18424C19.2027 3.26181 12.3781 7.84796 7.50969 14.2309C2.64133 20.6138 0.00152272 28.4364 0 36.4846Z" fill="black"/>
<path d="M34.6735 1.57386e-06C34.3835 -0.000186318 34.0938 0.0164493 33.8057 0.0498257C33.6844 0.0640418 33.5671 0.102359 33.4606 0.162556C33.3541 0.222753 33.2605 0.303634 33.1853 0.400511C33.1154 0.490082 33.064 0.592892 33.0342 0.70284C33.0045 0.812787 32.997 0.927632 33.0121 1.04056C33.0243 1.16097 33.0602 1.27774 33.1177 1.38402C33.1752 1.4903 33.2532 1.58396 33.3471 1.65953C33.4392 1.73435 33.5452 1.78985 33.659 1.82276C33.7727 1.85567 33.8918 1.86533 34.0093 1.85116C34.2286 1.82667 34.4491 1.81451 34.6697 1.81475C34.7879 1.81475 34.905 1.7913 35.0142 1.74575C35.1234 1.7002 35.2226 1.63343 35.3062 1.54927C35.3898 1.4651 35.4561 1.36518 35.5013 1.2552C35.5466 1.14523 35.5698 1.02737 35.5698 0.908333C35.5698 0.789301 35.5466 0.671435 35.5013 0.561463C35.4561 0.451492 35.3898 0.351569 35.3062 0.267401C35.2226 0.183232 35.1234 0.116466 35.0142 0.0709147C34.905 0.025363 34.7879 0.00191788 34.6697 0.00191789L34.6735 1.57386e-06Z" fill="black"/>
</g>
<defs>
<clipPath id="clip0_1179_23662">
<rect width="93" height="73" fill="white"/>
</clipPath>
</defs>
</svg>
