<svg width="135" height="25" viewBox="0 0 135 25" fill="none" xmlns="http://www.w3.org/2000/svg">
<path d="M57.7277 0.5C50.214 0.5 46.3398 5.1533 46.3398 11.9916C46.3398 15.3098 47.2555 18.1119 49.056 20.1184C53.8574 17.2814 58.4664 13.5401 61.1787 8.99935L59.6937 8.06016C56.6928 11.6578 53.1918 14.0175 51.3951 14.5841C50.4333 11.9683 50.7103 9.38745 52.8032 7.59832C54.4345 6.20505 57.039 5.18435 60.817 4.54787C62.2598 4.30336 63.3101 4.34217 63.7563 6.39909C64.4335 9.52717 64.5373 13.7807 62.7445 16.5479C60.9902 19.2568 57.9739 20.0524 55.0077 19.4741C54.0728 20.5647 52.9071 21.663 52.13 22.3655C53.6881 23.0834 55.554 23.4715 57.7239 23.4715C65.2337 23.4715 69.1117 18.8221 69.1117 11.9877C69.1156 5.1533 65.2375 0.5 57.7277 0.5Z" fill="white"/>
<path d="M21.2484 1.41602H18.9708C14.1079 1.41602 9.97592 3.02662 7.54831 9.8882L7.17512 10.9943C4.5436 18.8416 2.82388 20.5299 0 21.2362L0.561699 24.5001C4.25506 24.1663 8.07153 23.755 11.5418 13.9904L13.0383 9.82999C14.5426 6.1741 15.7699 5.11847 18.5207 5.11847L19.0516 5.13012V22.8002H24.33V4.4199C24.33 2.43671 23.2913 1.41602 21.2484 1.41602Z" fill="white"/>
<path d="M32.8976 13.4548H43.5353V9.89208H32.8976V5.11847H44.1316L44.1508 1.41602H30.7008C28.658 1.41602 27.623 2.43283 27.623 4.41602V22.8002H44.8241V18.7989H32.8976V13.4548Z" fill="white"/>
<path d="M134.885 1.49752L134.862 1.41602H116.93V5.11847H123.328V22.8002H128.602V5.11847H133.107C133.684 5.09907 134.142 4.87785 134.469 4.45483C134.973 3.8067 135.131 2.65405 134.885 1.49752Z" fill="white"/>
<path d="M109.119 3.23608L100.648 13.4043L99.382 15.3098L99.5744 13.2257V1.52845C99.0319 1.39649 98.4625 1.33052 97.9239 1.33052C97.0737 1.33052 94.2998 1.54009 94.2998 4.21021V22.6915C94.8769 22.8428 95.3809 22.9165 95.8349 22.9165C97.1083 22.9165 98.1509 22.3305 99.4359 20.8907L107.792 10.9864L109.123 9.02651L108.981 11.262V22.7962H114.259V1.55173C113.671 1.39649 113.151 1.32275 112.663 1.32275C111.301 1.32275 110.208 1.91266 109.119 3.23608Z" fill="white"/>
<path d="M84.1548 18.7951L84.1009 18.8067H77.0528V13.4548H83.9932C85.7899 13.4548 86.8633 14.5454 86.8633 16.2414C86.8594 18.372 85.4013 18.7834 84.1548 18.7951ZM77.0528 5.11847H83.7855C84.982 5.11847 86.1938 5.949 86.1938 7.52856C86.1938 9.10036 85.3628 9.88044 83.7893 9.89208H77.0528V5.11847ZM87.0172 11.5376L86.7171 11.5066C88.2329 11.0214 90.5105 10.0745 90.5105 7.09001C90.5105 3.22843 88.1367 1.41602 83.0391 1.41602H74.8483C72.8093 1.41602 71.7705 2.43283 71.7705 4.41602V22.8002H83.7662C92.0571 22.8002 92.0571 18.1275 92.0571 16.5868C92.0609 13.3656 89.1601 11.786 87.0172 11.5376Z" fill="white"/>
</svg>
