<svg width="20" height="19" viewBox="0 0 20 19" fill="none" xmlns="http://www.w3.org/2000/svg">
<path fill-rule="evenodd" clip-rule="evenodd" d="M2.33069 1.5717C3.35876 0.13241 5.46701 0.0459147 6.60952 1.39615L8.43671 3.55556C8.96671 4.18192 9.03923 5.07616 8.61708 5.77974L7.20949 8.12572C7.32233 8.31037 7.47523 8.53072 7.67083 8.78204C8.01963 9.23021 8.46532 9.72775 8.96235 10.2248C9.79937 11.0618 10.7364 11.8521 11.5431 12.3862L13.8434 11.006C14.5469 10.5839 15.4412 10.6564 16.0675 11.1864L18.3312 13.1018C19.6285 14.1995 19.5454 16.2253 18.1625 17.2131C16.0298 18.7364 13.1635 19.0987 10.8152 17.6654C9.19623 16.6773 7.21247 15.2825 5.43774 13.5077C3.7924 11.8624 2.59273 10.1568 1.75601 8.73798C0.377651 6.40075 0.861998 3.62787 2.33069 1.5717ZM5.14636 2.63421C4.81099 2.23786 4.19213 2.26325 3.89035 2.68574C2.74857 4.28423 2.50386 6.23299 3.40697 7.76435C4.17973 9.0747 5.28467 10.6441 6.79303 12.1524C8.42636 13.7858 10.2756 15.0907 11.8137 16.0294C13.3985 16.9966 15.4315 16.8084 17.0485 15.6534C17.4146 15.3919 17.4366 14.8556 17.0931 14.5649L14.8295 12.6496L12.0296 14.3295C11.7332 14.5073 11.3639 14.5118 11.0633 14.3411C9.96285 13.7162 8.6766 12.6496 7.60706 11.5801C7.06707 11.0401 6.56595 10.4831 6.15827 9.95923C5.76194 9.44999 5.41118 8.91831 5.22258 8.43487C5.11478 8.15854 5.14101 7.84786 5.29362 7.59351L6.97356 4.79362L5.14636 2.63421Z" fill="white"/>
</svg>
