<svg width="24" height="25" viewBox="0 0 24 25" fill="none" xmlns="http://www.w3.org/2000/svg">
<path fill-rule="evenodd" clip-rule="evenodd" d="M17.3495 15.506H16.2908L15.9228 15.1406C17.2228 13.6246 18.0135 11.6593 18.0135 9.50598C18.0135 4.71931 14.1335 0.839314 9.34684 0.839314C4.56018 0.839314 0.680176 4.71931 0.680176 9.50598C0.680176 14.2926 4.56018 18.1726 9.34684 18.1726C11.5002 18.1726 13.4642 17.3833 14.9802 16.0846L15.3482 16.45V17.506L22.0122 24.1606L24.0002 22.1726L17.3495 15.506ZM9.34684 15.506C6.03218 15.506 3.34684 12.8206 3.34684 9.50598C3.34684 6.19265 6.03218 3.50598 9.34684 3.50598C12.6602 3.50598 15.3468 6.19265 15.3468 9.50598C15.3468 12.8206 12.6602 15.506 9.34684 15.506Z" fill="#D9D9D9"/>
</svg>
