<svg width="14" height="14" viewBox="0 0 14 14" fill="none" xmlns="http://www.w3.org/2000/svg">
<path d="M6.81938 0.106354C8.02494 0.106354 9.1757 0.435142 10.2169 1.03792C11.258 1.6407 12.08 2.46267 12.6828 3.50384C13.2856 4.545 13.6143 5.69576 13.6143 6.90132C13.6143 8.13428 13.2856 9.25764 12.6828 10.2988C12.08 11.34 11.258 12.1893 10.2169 12.7921C9.1757 13.3949 8.02494 13.6963 6.81938 13.6963C5.58642 13.6963 4.46306 13.3949 3.4219 12.7921C2.38073 12.1893 1.53136 11.34 0.928583 10.2988C0.325804 9.25764 0.0244141 8.13428 0.0244141 6.90132C0.0244141 5.69576 0.325804 4.545 0.928583 3.50384C1.53136 2.46267 2.38073 1.6407 3.4219 1.03792C4.46306 0.435142 5.58642 0.106354 6.81938 0.106354ZM6.81938 12.3811C7.80575 12.3811 8.70992 12.1345 9.55929 11.6414C10.3813 11.1482 11.0662 10.4906 11.5594 9.64122C12.0526 8.81925 12.2992 7.88769 12.2992 6.90132C12.2992 5.91495 12.0526 5.01078 11.5594 4.16141C11.0662 3.33944 10.3813 2.65447 9.55929 2.16128C8.70992 1.6681 7.80575 1.42151 6.81938 1.42151C5.83301 1.42151 4.90145 1.6681 4.07947 2.16128C3.2301 2.65447 2.57253 3.33944 2.07934 4.16141C1.58616 5.01078 1.33957 5.91495 1.33957 6.90132C1.33957 7.88769 1.58616 8.81925 2.07934 9.64122C2.57253 10.4906 3.2301 11.1482 4.07947 11.6414C4.90145 12.1345 5.83301 12.3811 6.81938 12.3811ZM8.51812 9.53163C8.57292 9.58643 8.65512 9.61383 8.76471 9.58643C8.84691 9.58643 8.92911 9.53163 8.98391 9.44943L9.47709 8.73706C9.53189 8.68226 9.53189 8.60006 9.53189 8.49047C9.53189 8.40827 9.47709 8.32607 9.42229 8.27127L7.58655 6.95612V3.06545C7.58655 2.98325 7.53176 2.90106 7.47696 2.84626C7.42216 2.79146 7.33996 2.73666 7.25776 2.73666H6.381C6.2714 2.73666 6.1892 2.79146 6.1344 2.84626C6.07961 2.90106 6.05221 2.98325 6.05221 3.06545V7.5589C6.05221 7.66849 6.07961 7.77809 6.1892 7.83289L8.51812 9.53163Z" fill="#777C90"/>
</svg>
