<svg width="14" height="15" viewBox="0 0 14 15" fill="none" xmlns="http://www.w3.org/2000/svg">
<path d="M6.78125 0.71875C7.98438 0.71875 9.13281 1.04688 10.1719 1.64844C11.2109 2.25 12.0312 3.07031 12.6328 4.10938C13.2344 5.14844 13.5625 6.29688 13.5625 7.5C13.5625 8.73047 13.2344 9.85156 12.6328 10.8906C12.0312 11.9297 11.2109 12.7773 10.1719 13.3789C9.13281 13.9805 7.98438 14.2812 6.78125 14.2812C5.55078 14.2812 4.42969 13.9805 3.39062 13.3789C2.35156 12.7773 1.50391 11.9297 0.902344 10.8906C0.300781 9.85156 0 8.73047 0 7.5C0 6.29688 0.300781 5.14844 0.902344 4.10938C1.50391 3.07031 2.35156 2.25 3.39062 1.64844C4.42969 1.04688 5.55078 0.71875 6.78125 0.71875ZM6.78125 12.9688C7.76562 12.9688 8.66797 12.7227 9.51562 12.2305C10.3359 11.7383 11.0195 11.082 11.5117 10.2344C12.0039 9.41406 12.25 8.48438 12.25 7.5C12.25 6.51562 12.0039 5.61328 11.5117 4.76562C11.0195 3.94531 10.3359 3.26172 9.51562 2.76953C8.66797 2.27734 7.76562 2.03125 6.78125 2.03125C5.79688 2.03125 4.86719 2.27734 4.04688 2.76953C3.19922 3.26172 2.54297 3.94531 2.05078 4.76562C1.55859 5.61328 1.3125 6.51562 1.3125 7.5C1.3125 8.48438 1.55859 9.41406 2.05078 10.2344C2.54297 11.082 3.19922 11.7383 4.04688 12.2305C4.86719 12.7227 5.79688 12.9688 6.78125 12.9688ZM8.47656 10.125C8.53125 10.1797 8.61328 10.207 8.72266 10.1797C8.80469 10.1797 8.88672 10.125 8.94141 10.043L9.43359 9.33203C9.48828 9.27734 9.48828 9.19531 9.48828 9.08594C9.48828 9.00391 9.43359 8.92188 9.37891 8.86719L7.54688 7.55469V3.67188C7.54688 3.58984 7.49219 3.50781 7.4375 3.45312C7.38281 3.39844 7.30078 3.34375 7.21875 3.34375H6.34375C6.23438 3.34375 6.15234 3.39844 6.09766 3.45312C6.04297 3.50781 6.01562 3.58984 6.01562 3.67188V8.15625C6.01562 8.26562 6.04297 8.375 6.15234 8.42969L8.47656 10.125Z" fill="#356D55"/>
</svg>
