<svg width="68" height="68" viewBox="0 0 68 68" fill="none" xmlns="http://www.w3.org/2000/svg">
<g clip-path="url(#clip0_3037_7382)">
<path d="M34 0C15.2457 0 0 15.2457 0 34C0 52.7543 15.2457 68 34 68C52.7543 68 68 52.7543 68 34C68 15.2457 52.7543 0 34 0ZM34 65.7799C16.4721 65.7799 2.22009 51.5279 2.22009 34C2.22009 16.4721 16.4721 2.22009 34 2.22009C51.5279 2.22009 65.7799 16.4721 65.7799 34C65.7799 51.5279 51.5279 65.7799 34 65.7799Z" fill="#121127"/>
<path d="M53.343 34.9464C53.8708 34.6359 54.0571 33.9683 53.7466 33.4405C53.6535 33.2697 53.5138 33.13 53.343 33.0368L25.1494 16.751C24.9786 16.6578 24.7923 16.5957 24.5905 16.5957C24.2023 16.5957 23.8297 16.7975 23.6279 17.1546C23.5348 17.3254 23.4727 17.5117 23.4727 17.7135V50.2852C23.4727 50.6733 23.69 51.0304 24.0316 51.2322C24.3731 51.4341 24.7923 51.4341 25.1338 51.2322L53.3275 34.9464H53.343ZM25.7083 19.6076L50.5795 33.9994L25.7083 48.3601V19.6076Z" fill="#007040"/>
</g>
<defs>
<clipPath id="clip0_3037_7382">
<rect width="68" height="68" fill="white"/>
</clipPath>
</defs>
</svg>
