<svg width="44" height="44" viewBox="0 0 44 44" fill="none" xmlns="http://www.w3.org/2000/svg">
<g clip-path="url(#clip0_814_3715)">
<path d="M22 44C34.1503 44 44 34.1503 44 22C44 9.84974 34.1503 0 22 0C9.84974 0 0 9.84974 0 22C0 34.1503 9.84974 44 22 44Z" fill="#D80027"/>
<path d="M12.0398 13.3887L13.9391 19.2324H20.0836L15.1164 22.8504L17.0156 28.6941L12.0398 25.0848L7.06406 28.6941L8.97188 22.8504L3.99609 19.2324H10.1406L12.0398 13.3887Z" fill="#FFDA44"/>
<path d="M26.0819 34.074L24.6296 32.2865L22.4812 33.1201L23.7272 31.1865L22.2749 29.3904L24.5007 29.9834L25.7554 28.0498L25.8757 30.3529L28.1101 30.9459L25.953 31.7709L26.0819 34.074Z" fill="#FFDA44"/>
<path d="M28.9694 28.8318L29.6569 26.6318L27.7749 25.2998L30.078 25.2654L30.7569 23.0654L31.5046 25.2482L33.8077 25.2225L31.9601 26.5975L32.6991 28.7803L30.8171 27.4482L28.9694 28.8318Z" fill="#FFDA44"/>
<path d="M32.8626 16.1476L31.8485 18.2187L33.4985 19.8257L31.2212 19.4991L30.2071 21.5616L29.8118 19.2929L27.5259 18.9663L29.5712 17.8921L29.1759 15.6147L30.8259 17.2218L32.8626 16.1476Z" fill="#FFDA44"/>
<path d="M26.1422 9.87402L25.9704 12.1686L28.1102 13.0365L25.8672 13.5865L25.704 15.8896L24.4922 13.9303L22.2493 14.4803L23.736 12.7186L22.5157 10.7678L24.6555 11.6357L26.1422 9.87402Z" fill="#FFDA44"/>
</g>
<defs>
<clipPath id="clip0_814_3715">
<rect width="44" height="44" fill="white"/>
</clipPath>
</defs>
</svg>
