<svg width="44" height="44" viewBox="0 0 44 44" fill="none" xmlns="http://www.w3.org/2000/svg">
<g clip-path="url(#clip0_814_3712)">
<path d="M22 44C34.1503 44 44 34.1503 44 22C44 9.84974 34.1503 0 22 0C9.84974 0 0 9.84974 0 22C0 34.1503 9.84974 44 22 44Z" fill="#F0F0F0"/>
<path d="M44 21.9998C44 12.5406 38.0297 4.47661 29.6521 1.36816V42.6315C38.0297 39.523 44 31.459 44 21.9998Z" fill="#D80027"/>
<path d="M0 21.9998C0 31.459 5.97034 39.523 14.3479 42.6314V1.36816C5.97034 4.47661 0 12.5406 0 21.9998Z" fill="#0052B4"/>
</g>
<defs>
<clipPath id="clip0_814_3712">
<rect width="44" height="44" fill="white"/>
</clipPath>
</defs>
</svg>
