<svg width="44" height="44" viewBox="0 0 44 44" fill="none" xmlns="http://www.w3.org/2000/svg">
<g clip-path="url(#clip0_814_3713)">
<path d="M1.36841 29.6522C4.47685 38.0298 12.5408 44.0001 22 44.0001C31.4593 44.0001 39.5232 38.0298 42.6316 29.6522L22 27.7393L1.36841 29.6522Z" fill="#FFDA44"/>
<path d="M22 0C12.5408 0 4.47685 5.97025 1.36841 14.3479L22 16.2608L42.6316 14.3478C39.5232 5.97025 31.4593 0 22 0Z" fill="black"/>
<path d="M1.36838 14.3477C0.484086 16.731 0 19.3087 0 21.9998C0 24.6908 0.484086 27.2686 1.36838 29.6519H42.6317C43.516 27.2686 44 24.6908 44 21.9998C44 19.3087 43.516 16.731 42.6316 14.3477H1.36838Z" fill="#D80027"/>
</g>
<defs>
<clipPath id="clip0_814_3713">
<rect width="44" height="44" fill="white"/>
</clipPath>
</defs>
</svg>
