<svg width="44" height="44" viewBox="0 0 44 44" fill="none" xmlns="http://www.w3.org/2000/svg">
<g clip-path="url(#clip0_814_3711)">
<path d="M22 44C34.1503 44 44 34.1503 44 22C44 9.84974 34.1503 0 22 0C9.84974 0 0 9.84974 0 22C0 34.1503 9.84974 44 22 44Z" fill="#F0F0F0"/>
<path d="M29.1454 16.2608H26.267C26.2909 16.5772 26.3043 16.8963 26.3043 17.2173C26.3043 19.3455 25.7724 21.4082 24.845 22.8766C24.5589 23.3294 24.0782 23.969 23.4347 24.4004V16.2607H20.5652V24.4004C19.9218 23.969 19.4409 23.3295 19.1549 22.8766C18.2274 21.4082 17.6956 19.3455 17.6956 17.2173C17.6956 16.8963 17.7091 16.5771 17.7328 16.2608H14.8545C14.836 16.5756 14.8259 16.8944 14.8259 17.2173C14.8259 23.1174 17.9771 27.7391 21.9998 27.7391C26.0226 27.7391 29.1737 23.1174 29.1737 17.2173C29.1739 16.8944 29.1638 16.5756 29.1454 16.2608Z" fill="#D80027"/>
<path d="M9.08707 10.5218H11.9566V12.4348H14.8261V10.5218H17.6957V12.4348H20.5652V10.5218H23.4348V12.4348H26.3043V10.5218H29.1738V12.4348H32.0434V10.5218H34.9129V12.4348H41.8169C38.2586 5.0759 30.7222 0 22.0001 0C13.2781 0 5.74161 5.0759 2.18311 12.4348H9.08707V10.5218Z" fill="#6DA544"/>
<path d="M34.9132 31.5654V33.4785H32.0436V31.5654H29.1741V33.4785H26.3046V31.5654H23.435V33.4785H20.5655V31.5654H17.6959V33.4785H14.8264V31.5654H11.9566V33.4785H9.08707V31.5654H2.18311C5.74161 38.9243 13.278 44.0002 22.0001 44.0002C30.7223 44.0002 38.2586 38.9243 41.8171 31.5654H34.9132Z" fill="#D80027"/>
</g>
<defs>
<clipPath id="clip0_814_3711">
<rect width="44" height="44" fill="white"/>
</clipPath>
</defs>
</svg>
