<svg width="38" height="39" viewBox="0 0 38 39" fill="none" xmlns="http://www.w3.org/2000/svg">
<g clip-path="url(#clip0_2003_710)">
<path d="M19 38.5C29.4934 38.5 38 29.9934 38 19.5C38 9.00659 29.4934 0.5 19 0.5C8.50659 0.5 0 9.00659 0 19.5C0 29.9934 8.50659 38.5 19 38.5Z" fill="#F0F0F0"/>
<path d="M36.8181 26.1086C37.5819 24.0503 37.9999 21.824 37.9999 19.5C37.9999 17.1759 37.5819 14.9496 36.8181 12.8913H1.18166C0.417952 14.9496 -0.00012207 17.1759 -0.00012207 19.5C-0.00012207 21.824 0.417952 24.0503 1.18166 26.1086L18.9999 27.7608L36.8181 26.1086Z" fill="#0052B4"/>
<path d="M19.0001 38.4999C27.1694 38.4999 34.1337 33.3438 36.8183 26.1086H1.18188C3.86645 33.3438 10.8308 38.4999 19.0001 38.4999Z" fill="#D80027"/>
</g>
<defs>
<clipPath id="clip0_2003_710">
<rect width="38" height="38" fill="white" transform="translate(0 0.5)"/>
</clipPath>
</defs>
</svg>
