<svg width="44" height="44" viewBox="0 0 44 44" fill="none" xmlns="http://www.w3.org/2000/svg">
<g clip-path="url(#clip0_814_3714)">
<path d="M22 44C34.1503 44 44 34.1503 44 22C44 9.84974 34.1503 0 22 0C9.84974 0 0 9.84974 0 22C0 34.1503 9.84974 44 22 44Z" fill="#F0F0F0"/>
<path d="M4.54774 8.60596C2.81962 10.8543 1.51655 13.4458 0.757812 16.261H12.2028L4.54774 8.60596Z" fill="#0052B4"/>
<path d="M43.2419 16.2609C42.4832 13.4458 41.18 10.8543 39.452 8.60596L31.7971 16.2609H43.2419Z" fill="#0052B4"/>
<path d="M0.757812 27.7393C1.51664 30.5544 2.81971 33.1458 4.54774 35.3941L12.2025 27.7393H0.757812Z" fill="#0052B4"/>
<path d="M35.394 4.54783C33.1456 2.81971 30.5542 1.51664 27.739 0.757812V12.2027L35.394 4.54783Z" fill="#0052B4"/>
<path d="M8.60596 39.4522C10.8543 41.1803 13.4458 42.4833 16.2609 43.2422V31.7974L8.60596 39.4522Z" fill="#0052B4"/>
<path d="M16.2608 0.757812C13.4457 1.51664 10.8543 2.81971 8.60596 4.54774L16.2608 12.2026V0.757812Z" fill="#0052B4"/>
<path d="M27.739 43.2422C30.5542 42.4833 33.1456 41.1803 35.3939 39.4522L27.739 31.7974V43.2422Z" fill="#0052B4"/>
<path d="M31.7971 27.7393L39.452 35.3942C41.18 33.1459 42.4832 30.5544 43.2419 27.7393H31.7971Z" fill="#0052B4"/>
<path d="M43.8138 19.1305H24.8697H24.8696V0.186227C23.9302 0.0639375 22.9726 0 22 0C21.0273 0 20.0698 0.0639375 19.1305 0.186227V19.1303V19.1304H0.186227C0.0639375 20.0698 0 21.0274 0 22C0 22.9727 0.0639375 23.9302 0.186227 24.8695H19.1303H19.1304V43.8138C20.0698 43.9361 21.0273 44 22 44C22.9726 44 23.9302 43.9361 24.8695 43.8138V24.8697V24.8696H43.8138C43.9361 23.9302 44 22.9727 44 22C44 21.0274 43.9361 20.0698 43.8138 19.1305Z" fill="#D80027"/>
<path d="M27.7393 27.7393L37.5564 37.5565C38.0079 37.1052 38.4386 36.6333 38.8496 36.1441L30.4447 27.7393H27.7393V27.7393Z" fill="#D80027"/>
<path d="M16.2608 27.7393H16.2607L6.4436 37.5563C6.89495 38.0078 7.36683 38.4386 7.85599 38.8495L16.2608 30.4445V27.7393Z" fill="#D80027"/>
<path d="M16.2607 16.2608V16.2606L6.44358 6.44336C5.99206 6.8947 5.56134 7.36659 5.15039 7.85574L13.5553 16.2607H16.2607V16.2608Z" fill="#D80027"/>
<path d="M27.7393 16.2608L37.5565 6.44349C37.1052 5.99198 36.6333 5.56126 36.1441 5.15039L27.7393 13.5553V16.2608Z" fill="#D80027"/>
</g>
<defs>
<clipPath id="clip0_814_3714">
<rect width="44" height="44" fill="white"/>
</clipPath>
</defs>
</svg>
