<svg width="226" height="39" viewBox="0 0 226 39" fill="none" xmlns="http://www.w3.org/2000/svg">
<path d="M190.118 28.0173C192.867 28.0173 194.906 26.0265 194.906 22.8144C194.906 19.6024 192.867 17.6115 190.118 17.6115C187.401 17.6115 185.329 19.6024 185.329 22.8144C185.329 25.993 187.401 28.0173 190.118 28.0173ZM190.118 13.5574C195.351 13.5574 199.325 17.1877 199.325 22.8144C199.325 28.4411 195.351 32.0714 190.118 32.0714C184.852 32.0714 180.948 28.4411 180.948 22.8144C180.948 17.1877 184.858 13.5574 190.118 13.5574ZM174.414 26.1325C174.414 24.9112 173.465 24.0357 171.865 24.0357H167.961V28.2292H171.865C173.459 28.2292 174.414 27.3537 174.414 26.1325ZM170.981 17.3996H167.955V21.1024H170.981C172.575 21.1024 173.324 20.3329 173.324 19.251C173.324 18.1692 172.581 17.3996 170.981 17.3996ZM178.844 26.4447C178.844 29.5174 176.328 31.5807 172.559 31.5807H163.661V14.0481H171.578C175.281 14.0481 177.792 15.8661 177.792 18.7659C177.792 20.3385 177.076 21.4928 175.688 22.2233C177.689 22.8813 178.844 24.387 178.844 26.4447ZM160.835 14.0481V17.5781H155.706V31.5863H151.357V17.5725H146.194V14.0481H160.835ZM138.928 13.5574C140.658 13.5574 142.257 13.9756 143.787 14.8177V19.2176H143.413C141.954 18.1357 140.528 17.6115 139.134 17.6115C136.282 17.6115 134.14 19.6024 134.14 22.8144C134.14 26.0265 136.282 28.0173 139.27 28.0173C140.902 28.0173 142.36 27.4597 143.651 26.3053H144.058V30.8112C142.529 31.6476 140.864 32.0714 139.064 32.0714C133.733 32.0714 129.758 28.6809 129.758 22.8144C129.758 17.0483 133.733 13.5574 138.928 13.5574ZM122.915 22.8144C122.915 19.4239 120.811 17.645 118.365 17.645C115.92 17.645 113.816 19.4239 113.816 22.8144C113.816 26.205 115.92 27.9839 118.365 27.9839C120.806 27.9839 122.915 26.1994 122.915 22.8144ZM127.329 22.8144C127.329 28.7534 123.457 32.0714 119.379 32.0714C117.34 32.0714 115.508 31.235 114.184 29.6959V38.3562H109.836V14.0481H113.539V16.736C114.933 14.6727 117.037 13.5574 119.379 13.5574C123.457 13.5574 127.329 16.8754 127.329 22.8144ZM93.8496 20.7177H102.173C101.935 18.2361 100.541 16.9814 98.3341 16.9814C96.1217 16.9814 94.3919 18.3086 93.8496 20.7177ZM106.246 23.6509H93.714C94.0882 26.863 96.1922 28.2627 99.0119 28.2627C101.018 28.2627 102.954 27.5991 104.852 26.2719H105.259V30.4989C103.117 31.6142 100.807 32.0714 98.8059 32.0714C93.611 32.0714 89.4301 28.8928 89.4301 22.8144C89.4301 16.736 93.508 13.5574 98.3992 13.5574C103.052 13.5574 106.349 16.3512 106.381 21.766C106.381 22.1843 106.349 22.8144 106.246 23.6509ZM81.9361 14.0481H86.285V31.5863H62.4742V14.0481H66.8232V28.0564H72.1916V14.0481H76.5405V28.0564H81.9415V14.0481H81.9361ZM55.1211 14.0481H59.7087L49.7907 38.3618H45.0675L49.0098 28.8259L42.3508 14.0481H47.0739L51.2873 24.2141L55.1211 14.0481ZM41.5103 31.5807H36.1093L29.895 23.1992V31.5807H25.546V14.0481H29.895V21.1415L35.5345 14.0481H40.7999L34.0379 21.978L41.5103 31.5807ZM8.45931 21.978H14.8092L11.6478 13.1392L8.45931 21.978ZM18.2418 31.5807L16.1703 25.8146H7.09823L5.02679 31.5807H0L9.51131 7.12769H13.8603L23.3716 31.5807H18.2418Z" fill="#108CEB"/>
<path d="M211.576 14.0528C215.349 14.0528 218.408 10.907 218.408 7.02641C218.408 3.14583 215.349 0 211.576 0C207.802 0 204.743 3.14583 204.743 7.02641C204.743 10.907 207.802 14.0528 211.576 14.0528Z" fill="#FFC857"/>
<path d="M220.686 24.9849C223.621 24.9849 226 22.5381 226 19.5199C226 16.5017 223.621 14.0549 220.686 14.0549C217.751 14.0549 215.372 16.5017 215.372 19.5199C215.372 22.5381 217.751 24.9849 220.686 24.9849Z" fill="#FE596C"/>
<path d="M212.433 31.5828C214.32 31.5828 215.849 30.0099 215.849 28.0696C215.849 26.1293 214.32 24.5564 212.433 24.5564C210.546 24.5564 209.017 26.1293 209.017 28.0696C209.017 30.0099 210.546 31.5828 212.433 31.5828Z" fill="#0091FA"/>
</svg>
