<svg width="226" height="57" viewBox="0 0 226 57" fill="none" xmlns="http://www.w3.org/2000/svg">
<g clip-path="url(#clip0_4001_633)">
<path d="M65.7844 14.9344C65.2867 15.4322 65.2867 16.1789 65.7844 16.5523C66.282 17.0501 67.0285 17.0501 67.4018 16.5523C67.8994 16.0545 67.8994 15.3078 67.4018 14.9344C66.9041 14.4366 66.1576 14.4366 65.7844 14.9344Z" fill="#FEFEFE"/>
<path d="M77.2308 14.1877H72.2542L71.01 15.6812C70.7612 15.9301 70.8856 16.0546 71.1344 16.179L72.7518 16.9257L77.3552 14.81C77.7284 14.6856 77.604 14.1877 77.2308 14.1877ZM58.693 38.5808H52.5966C50.9792 39.5764 50.4816 39.8253 48.3665 40.6965C48.2421 40.6965 48.1177 40.9454 48.2421 41.0698L53.7164 56.3777H56.8267L51.8501 42.3144C55.0849 42.3144 62.9231 41.4432 67.1532 34.5982C65.7846 36.5895 62.6742 38.5808 58.693 38.5808ZM67.402 16.5524C66.9043 17.0502 66.1578 17.0502 65.7846 16.5524C65.2869 16.0546 65.2869 15.3078 65.7846 14.9345C66.2823 14.4367 67.0287 14.4367 67.402 14.9345C66.4067 13.9388 64.7893 13.9388 63.9184 14.9345C63.0475 15.9301 62.9231 17.4236 63.9184 18.4192C64.9137 19.4148 66.5311 19.4148 67.402 18.4192C68.2729 17.4236 68.3973 15.9301 67.402 14.9345C67.7752 15.4323 67.7752 16.0546 67.402 16.5524ZM55.3338 44.4301L59.5639 56.3777H62.6742L58.1953 43.8078C57.4488 44.0567 56.4535 44.1812 55.3338 44.4301ZM59.5639 29.4956C59.9371 28.9978 60.1859 28.5 60.5592 27.8777C60.4348 27.7532 60.3103 27.8777 60.1859 28.0022C53.8408 34.7227 47.7445 35.5939 43.0167 35.5939H35.8006C35.5518 35.5939 35.4274 35.345 35.5518 35.096C41.1505 27.3799 47.2468 21.2816 51.8501 17.4236L39.7819 27.5043C38.7866 28.2511 37.6669 28.7489 36.1739 28.7489H20.9953C20.6221 28.7489 20.7465 29.1222 20.7465 29.3712C21.7418 32.607 24.7277 35.5939 29.7043 35.5939L26.0963 39.203C25.9719 39.3275 25.9719 39.7008 26.3451 39.7008H39.9063C49.6107 39.7008 55.707 35.4694 59.5639 29.4956Z" fill="#00985F"/>
<path d="M194.927 56.3777H206V22.1528H194.927V34.7227H184.476V22.1528H173.403V56.3777H184.476V43.4345H194.927V56.3777ZM63.9184 18.4192C62.9231 17.4236 62.9231 15.9301 63.9184 14.9345C64.9137 13.9389 66.5311 13.9389 67.402 14.9345C68.2729 15.9301 68.3973 17.4236 67.402 18.4192C66.4067 19.4148 64.7893 19.4148 63.9184 18.4192ZM67.0288 34.5983C71.2589 27.7533 72.7518 16.9258 72.7518 16.9258L71.1344 16.179C70.8856 16.0546 70.8856 15.9301 71.01 15.6812L72.2542 14.1878C71.5077 12.6943 68.7706 10.2052 64.7893 10.2052C62.4254 10.2052 60.3104 10.8275 58.4441 12.0721C58.4441 12.0721 55.707 13.9389 51.8502 17.2991C47.2468 21.2817 41.1505 27.2555 35.5518 34.9716C35.4274 35.2205 35.5518 35.4694 35.8007 35.4694H43.0167C47.7445 35.4694 53.8408 34.5983 60.186 27.8777C60.3104 27.7533 60.4348 27.7533 60.5592 27.7533C60.6836 27.8777 60.6836 28.0022 60.6836 28.1266C59.6883 30.6157 57.2 35.4694 52.5967 38.4563H58.693C62.7987 38.4563 65.7846 36.5895 67.0288 34.5983ZM60.808 42.8122L65.5358 56.2533H78.9726C76.2355 47.9148 73.2495 40.1987 70.388 33.1048C68.1485 37.9585 66.0334 40.3231 60.808 42.8122ZM20 56.3777H33.5612L38.1645 42.0655H24.9766C23.3592 46.2969 21.7418 51.0262 20 56.3777ZM38.289 25.6376L45.1318 20.0371C46.6248 16.0546 48.1177 12.0721 49.6107 8.71179C50.3572 10.4541 51.1037 12.321 51.8502 14.1878C55.5826 11.0764 57.9465 9.20961 61.0569 8.33843C59.1906 4.23144 57.8221 1.24454 57.2 0H42.0214C40.7773 2.73799 35.9251 12.8188 30.202 26.3843H35.6763C36.796 26.3843 37.6669 26.2598 38.289 25.6376ZM122.144 52.5197L122.891 56.2533H131.849V22.1528H120.776V45.9236C119.781 47.0437 117.914 48.2882 116.173 48.2882C113.062 48.2882 111.445 46.5459 111.445 43.31V22.1528H100.372V45.9236C99.3766 47.0437 97.2615 48.2882 95.3953 48.2882C92.5338 48.2882 90.9164 46.5459 90.9164 43.31V22.1528H79.8435V44.8035C79.8435 53.0175 83.4515 57.1245 90.9164 57.1245C96.2662 57.1245 99.501 55.1332 101.989 52.5197C103.731 55.631 106.841 57.1245 111.445 57.1245C116.795 57 119.781 55.1332 122.144 52.5197ZM157.354 45.7991C156.359 46.9192 154.741 48.1638 152.004 48.1638C149.018 48.1638 147.401 45.4258 147.401 40.0742C147.401 33.4782 149.142 30.2424 152.751 30.2424C154.866 30.2424 155.861 30.3668 157.354 30.7402V45.7991ZM148.147 57H148.52C153.497 57 156.856 55.2576 158.722 52.5197L159.344 56.2533H168.427V23.5218C164.819 22.4017 160.589 21.4061 152.875 21.4061C141.802 21.4061 135.83 28.1266 135.83 40.5721C135.83 52.0218 140.06 57 148.147 57Z" fill="#DC000F"/>
</g>
<defs>
<clipPath id="clip0_4001_633">
<rect width="186" height="57" fill="white" transform="translate(20)"/>
</clipPath>
</defs>
</svg>
