<svg width="226" height="33" viewBox="0 0 226 33" fill="none" xmlns="http://www.w3.org/2000/svg">
<path d="M32.9779 33C28.2468 33 24.3268 31.35 21.2179 28.325C18.1089 25.1625 16.4868 21.175 16.4868 16.5C16.4868 11.825 18.1089 7.8375 21.0827 4.8125C24.3268 1.65 28.2468 0 32.8427 0C36.7627 0 40.142 0.9625 42.7103 3.025C45.4137 5.0875 47.171 7.5625 47.982 10.3125L48.1172 10.725L46.3599 11.1375C43.9268 11.6875 41.4937 11 39.6013 9.075C39.1958 8.6625 38.7903 8.3875 38.3847 8.1125C36.8978 7.0125 35.0054 6.4625 32.9779 6.4625C30.1392 6.4625 27.9765 7.425 26.2192 9.35C24.462 11.275 23.651 13.6125 23.651 16.3625C23.651 19.1125 24.5972 21.45 26.2192 23.5125C27.9765 25.4375 30.2744 26.4 32.9779 26.4C35.1406 26.4 36.8978 25.85 38.3847 24.8875C38.7903 24.6125 39.1958 24.2 39.6013 23.925C41.4937 22 44.062 21.3125 46.4951 22L48.1172 22.4125L47.982 22.825C47.171 25.575 45.4137 28.05 42.8454 30.1125C40.142 32.0375 36.7627 33 32.9779 33Z" fill="#78B997"/>
<path d="M66.6356 33C61.9045 33 57.9845 31.35 54.8756 28.325C51.7666 25.1625 50.1445 21.175 50.1445 16.5C50.1445 11.825 51.7666 7.8375 54.8756 4.8125C58.1197 1.65 62.0397 0 66.6356 0C71.2314 0 75.2866 1.65 78.2604 4.675C81.3694 7.8375 82.8563 11.6875 82.8563 16.3625C82.8563 21.0375 81.2342 25.025 78.2604 28.1875C75.2866 31.35 71.3666 33 66.6356 33ZM66.6356 6.4625C63.7969 6.4625 61.499 7.425 59.7418 9.35C57.9845 11.275 57.1735 13.6125 57.1735 16.5C57.1735 19.3875 58.1197 21.725 59.7418 23.65C61.499 25.575 63.7969 26.5375 66.6356 26.5375C69.4742 26.5375 71.7721 25.575 73.5294 23.65C75.2866 21.725 76.0976 19.3875 76.0976 16.5C76.0976 13.75 75.1514 11.275 73.5294 9.35C71.7721 7.425 69.4742 6.4625 66.6356 6.4625Z" fill="#78B997"/>
<path d="M119.759 32.7251H119.353C115.703 32.7251 112.865 29.7001 112.865 26.1251V12.9251L103.403 26.2626L93.9407 12.9251V26.1251C93.9407 29.8376 90.9669 32.7251 87.4524 32.7251H87.0469V0.412598H93.5351L103.403 14.9876L113.27 0.412598H119.759V32.7251Z" fill="#78B997"/>
<path d="M132.059 32.7251H125.166V0.412598H148.55V0.825098C148.55 4.1251 145.847 6.8751 142.603 6.8751H132.059V13.8876H146.252V14.3001C146.252 17.6001 143.549 20.3501 140.305 20.3501H131.924V32.7251H132.059Z" fill="#78B997"/>
<path d="M176.801 32.7251H153.146V0.412598H176.936V0.825098C176.936 4.1251 174.233 6.8751 170.989 6.8751H160.04V26.4001H170.989C174.233 26.4001 176.936 29.1501 176.936 32.4501V32.7251H176.801Z" fill="#78B997"/>
<path d="M209.378 32.7251H205.187C202.754 32.7251 200.591 31.4876 199.24 29.4251L194.374 20.2126H188.291V32.7251H181.397V0.412598H196.942C204.782 0.412598 208.026 5.3626 208.026 10.3126C208.026 12.9251 207.756 18.2876 201.943 20.0751L209.378 32.7251ZM188.426 13.7501H196.671C198.158 13.7501 201.402 13.4751 201.402 10.3126C201.402 7.2876 198.564 6.7376 196.942 6.7376H188.561V13.7501H188.426Z" fill="#78B997"/>
<path d="M168.961 20.2125H162.067V19.8C162.067 16.4999 164.771 13.8875 167.88 13.8875H174.774V14.3C174.774 17.6 172.07 20.2125 168.961 20.2125Z" fill="#78B997"/>
</svg>
