<svg width="226" height="107" viewBox="0 0 226 107" fill="none" xmlns="http://www.w3.org/2000/svg">
<g clip-path="url(#clip0_4001_637)">
<path d="M82.4873 37.0948C82.0543 34.634 81.3994 32.2175 80.5305 29.8747C79.6808 27.5147 78.6202 25.2361 77.3614 23.0663C76.9233 22.3241 76.2667 21.735 75.4812 21.3794C74.6958 21.0238 73.8196 20.9189 72.9723 21.0791C70.5485 21.5974 68.1655 22.2907 65.842 23.1533C63.4934 23.9807 61.2105 24.9837 59.0128 26.1538C58.248 26.5658 57.6309 27.2059 57.2474 27.985C56.864 28.7641 56.7333 29.6433 56.8737 30.5001C57.3063 32.9618 57.964 35.3786 58.8385 37.7202C59.6698 40.0798 60.7146 42.3587 61.96 44.5287C62.3986 45.2788 63.0595 45.8744 63.8514 46.2331C64.6432 46.5919 65.527 46.6962 66.3807 46.5316C68.8043 46.0124 71.1873 45.3192 73.5111 44.4574C75.8615 43.6282 78.1469 42.6253 80.3482 41.4569C81.1159 41.044 81.735 40.4014 82.1186 39.619C82.5022 38.8367 82.6312 37.954 82.4873 37.0948Z" fill="#F25046"/>
<path d="M109.345 25.37C107.062 24.3701 104.708 23.5418 102.301 22.8921C99.9076 22.2035 97.466 21.6928 94.9968 21.3641C94.1332 21.2599 93.2585 21.4273 92.4945 21.8431C91.7306 22.2588 91.1153 22.9023 90.7345 23.6838C89.6526 25.9372 88.7801 28.2852 88.1279 30.698C87.4324 33.101 86.9603 35.563 86.7177 38.0527C86.6393 38.9185 86.833 39.7871 87.2718 40.5378C87.7105 41.2884 88.3726 41.8837 89.1658 42.2407C91.4468 43.2468 93.7981 44.0856 96.201 44.7503C98.596 45.4343 101.037 45.9449 103.506 46.2783C104.371 46.3842 105.247 46.2176 106.012 45.8018C106.778 45.3859 107.395 44.7416 107.776 43.9586C108.858 41.7052 109.73 39.3572 110.382 36.9444C111.078 34.5414 111.55 32.0794 111.793 29.5897C111.878 28.7188 111.688 27.8431 111.248 27.0861C110.809 26.329 110.143 25.7288 109.345 25.37Z" fill="#FABC22"/>
<path d="M141.439 37.0948C141.006 34.634 140.351 32.2175 139.482 29.8747C138.632 27.5147 137.572 25.2361 136.313 23.0663C135.875 22.3241 135.218 21.735 134.433 21.3794C133.647 21.0238 132.771 20.9189 131.924 21.0791C129.5 21.5974 127.117 22.2907 124.794 23.1533C122.445 23.9807 120.162 24.9837 117.964 26.1538C117.194 26.5611 116.57 27.1993 116.181 27.9787C115.791 28.7582 115.656 29.6399 115.794 30.5001C116.226 32.9618 116.884 35.3786 117.758 37.7202C118.59 40.0798 119.634 42.3587 120.88 44.5287C121.322 45.2788 121.986 45.8731 122.781 46.2291C123.576 46.5852 124.462 46.6853 125.316 46.5158C127.74 45.9966 130.123 45.3034 132.447 44.4416C134.797 43.6124 137.083 42.6095 139.284 41.4411C140.052 41.0315 140.672 40.3923 141.058 39.613C141.445 38.8338 141.578 37.9533 141.439 37.0948Z" fill="#06C92E"/>
<path d="M168.296 25.37C163.711 23.408 158.887 22.061 153.948 21.3641C153.085 21.2599 152.21 21.4273 151.446 21.8431C150.682 22.2588 150.067 22.9023 149.686 23.6838C148.604 25.9372 147.732 28.2852 147.08 30.698C146.384 33.101 145.912 35.563 145.669 38.0527C145.591 38.9185 145.785 39.7871 146.223 40.5378C146.662 41.2884 147.324 41.8837 148.117 42.2407C150.398 43.2468 152.75 44.0856 155.153 44.7503C157.548 45.4343 159.989 45.9449 162.457 46.2783C163.322 46.3842 164.199 46.2176 164.964 45.8018C165.73 45.3859 166.346 44.7416 166.728 43.9586C167.825 41.6964 168.711 39.3377 169.374 36.9127C170.069 34.5097 170.541 32.0477 170.784 29.558C170.859 28.6877 170.66 27.8158 170.213 27.0646C169.767 26.3134 169.097 25.7208 168.296 25.37Z" fill="#00C2FC"/>
<path d="M8.54566 83.7404C8.55004 83.9377 8.5136 84.1337 8.43862 84.3163C8.36364 84.4988 8.25173 84.6639 8.10992 84.8012C7.97193 84.9422 7.8066 85.0535 7.62406 85.1284C7.44151 85.2032 7.24559 85.2401 7.0483 85.2367H4.49723C4.29994 85.2401 4.10402 85.2032 3.92147 85.1284C3.73892 85.0535 3.57359 84.9422 3.43561 84.8012C3.29379 84.6639 3.18189 84.4988 3.10691 84.3163C3.03193 84.1337 2.99548 83.9377 2.99986 83.7404V77.2882C2.99665 77.0908 3.03319 76.8948 3.1073 76.7118C3.18141 76.5288 3.29159 76.3626 3.43128 76.223C3.57096 76.0834 3.73731 75.9734 3.92043 75.8993C4.10355 75.8252 4.29971 75.7887 4.49723 75.7919H5.28949C5.65439 75.3018 5.9602 74.7703 6.20058 74.2086C6.4742 73.5376 6.69667 72.8468 6.86608 72.1423C7.0483 71.3981 7.19882 70.6223 7.31766 69.8227C7.4365 69.0231 7.52365 68.2393 7.57911 67.4476L7.7534 65.0884C7.77583 64.6813 7.95462 64.2984 8.25253 64.0197C8.39587 63.8798 8.56571 63.77 8.75209 63.6966C8.93847 63.6232 9.13763 63.5877 9.33792 63.5922H20.4295C20.627 63.589 20.8232 63.6255 21.0063 63.6995C21.1894 63.7736 21.3558 63.8837 21.4955 64.0233C21.6352 64.1629 21.7453 64.3291 21.8194 64.5121C21.8936 64.6951 21.9301 64.8911 21.9269 65.0884V75.7919H23.3846C23.5814 75.787 23.7771 75.8224 23.9597 75.8959C24.1423 75.9694 24.3079 76.0795 24.4463 76.2194C24.5868 76.3594 24.6978 76.5261 24.7726 76.7097C24.8475 76.8932 24.8847 77.09 24.882 77.2882V83.7404C24.883 83.9372 24.845 84.1322 24.7702 84.3142C24.6953 84.4962 24.585 84.6616 24.4458 84.8008C24.3065 84.9399 24.141 85.0501 23.9589 85.1249C23.7767 85.1997 23.5816 85.2377 23.3846 85.2367H20.8019C20.6035 85.2393 20.4066 85.2022 20.2229 85.1274C20.0392 85.0526 19.8723 84.9417 19.7323 84.8012C19.5931 84.6624 19.4834 84.4968 19.4099 84.3145C19.3363 84.1322 19.3005 83.9369 19.3045 83.7404V81.302H8.54566V83.7404ZM15.9849 69.1023H13.2992L13.22 69.8069C13.0998 71.059 12.8611 72.2969 12.5069 73.504C12.2669 74.3077 11.9233 75.0767 11.4849 75.7919H15.9691L15.9849 69.1023Z" fill="#0073E6"/>
<path d="M32.4957 74.4145C32.6252 74.8111 32.8319 75.1783 33.1038 75.4948C33.3757 75.8114 33.7076 76.0711 34.0802 76.2591C34.8792 76.6664 35.7663 76.8703 36.663 76.8529C37.2436 76.8584 37.8237 76.8187 38.398 76.7341C38.8947 76.6572 39.3811 76.5244 39.8479 76.3383C40.1272 76.2361 40.4219 76.1825 40.7194 76.18C41.0012 76.1644 41.2814 76.2309 41.5261 76.3715C41.7708 76.512 41.9695 76.7205 42.0979 76.9716L42.7238 78.2304C42.8346 78.4484 42.8891 78.6906 42.8822 78.935C42.8946 79.1951 42.8355 79.4537 42.7112 79.6826C42.5869 79.9115 42.4022 80.102 42.1771 80.2334C41.2102 80.8014 40.1593 81.2129 39.0635 81.4525C38.0638 81.6451 37.0473 81.7379 36.0292 81.7296C34.6796 81.747 33.3378 81.5218 32.0679 81.0646C30.9435 80.6601 29.9197 80.0178 29.0665 79.1817C28.2133 78.3455 27.5508 77.3351 27.1242 76.2195C26.643 75.0238 26.393 73.7478 26.3874 72.4591C26.3788 71.2197 26.613 69.9906 27.0767 68.8411C27.5216 67.7353 28.1783 66.7268 29.0098 65.8723C29.8614 64.9988 30.887 64.3137 32.0204 63.8615C33.2809 63.3639 34.6264 63.1165 35.9817 63.1331C37.0918 63.1293 38.193 63.3306 39.2299 63.7269C40.2517 64.103 41.1876 64.68 41.9823 65.4238C42.777 66.1676 43.4143 67.0631 43.8567 68.0573C44.3432 69.1311 44.5867 70.2988 44.5697 71.4774C44.5829 72.0703 44.5485 72.6633 44.4667 73.2508C44.3925 73.5606 44.2202 73.8382 43.9755 74.0424C43.7487 74.2669 43.4467 74.3995 43.1278 74.4145H32.4957ZM38.6753 70.4561C38.6709 70.1421 38.6042 69.8321 38.4791 69.544C38.354 69.2559 38.173 68.9955 37.9465 68.7778C37.6635 68.5036 37.3264 68.2916 36.9567 68.1553C36.5869 68.0189 36.1928 67.9613 35.7994 67.9861C34.9899 67.9296 34.1852 68.1502 33.5177 68.6115C32.946 69.1066 32.5281 69.755 32.3135 70.4799L38.6753 70.4561Z" fill="#0073E6"/>
<path d="M52.7775 81.3022C52.5802 81.3057 52.3843 81.2688 52.2018 81.194C52.0192 81.1191 51.8539 81.0078 51.7159 80.8668C51.5741 80.7295 51.4622 80.5644 51.3872 80.3818C51.3122 80.1993 51.2758 80.0032 51.2802 79.806V69.5141H47.6596C47.4573 69.5174 47.2566 69.479 47.0699 69.4014C46.8831 69.3237 46.7144 69.2085 46.5742 69.0629C46.4349 68.9241 46.3252 68.7585 46.2517 68.5762C46.1782 68.3939 46.1423 68.1986 46.1463 68.002V65.0887C46.142 64.891 46.1778 64.6945 46.2515 64.511C46.3252 64.3275 46.4354 64.1608 46.5753 64.021C46.7152 63.8812 46.882 63.7711 47.0656 63.6975C47.2492 63.6238 47.4459 63.5881 47.6437 63.5924H60.8348C61.0315 63.5884 61.2269 63.6242 61.4093 63.6977C61.5918 63.7711 61.7575 63.8808 61.8964 64.0199C62.0369 64.1598 62.1479 64.3265 62.2228 64.5101C62.2976 64.6937 62.3348 64.8904 62.3322 65.0887V68.002C62.3343 68.1988 62.297 68.3939 62.2224 68.576C62.1478 68.758 62.0374 68.9233 61.8979 69.0621C61.7583 69.2008 61.5923 69.3102 61.4097 69.3837C61.2271 69.4573 61.0316 69.4936 60.8348 69.4904H57.1825V79.7822C57.1857 79.9789 57.1494 80.1743 57.0758 80.3567C57.0021 80.5392 56.8927 80.705 56.7538 80.8445C56.615 80.984 56.4496 81.0943 56.2674 81.1688C56.0852 81.2433 55.8899 81.2806 55.693 81.2785L52.7775 81.3022Z" fill="#0073E6"/>
<path d="M76.6799 69.3399C75.8425 68.8927 74.9116 68.6486 73.9624 68.6274C73.4926 68.6265 73.0262 68.7068 72.5839 68.8649C72.1325 69.0236 71.7176 69.2712 71.3638 69.5932C70.9885 69.9261 70.6864 70.3331 70.4765 70.7887C70.2295 71.3108 70.1022 71.8815 70.1041 72.4591C70.0995 73.0073 70.2215 73.5491 70.4606 74.0424C70.8931 74.9449 71.6604 75.6434 72.5997 75.99C73.0477 76.1595 73.523 76.2453 74.002 76.2433C74.9848 76.2253 75.9417 75.9258 76.7591 75.3804C77.0797 75.1492 77.4649 75.0246 77.8603 75.0241C78.1 75.022 78.3366 75.0786 78.5493 75.189C78.762 75.2994 78.9444 75.4603 79.0804 75.6575L80.3005 77.2408C80.5077 77.5111 80.6192 77.8425 80.6174 78.1829C80.6226 78.4285 80.5676 78.6716 80.4571 78.8911C80.3466 79.1105 80.184 79.2995 79.9836 79.4417C79.0187 80.2869 77.8959 80.9326 76.6799 81.3417C75.7049 81.6157 74.6979 81.7595 73.6851 81.7692C72.278 81.795 70.8775 81.5698 69.5495 81.1042C68.3926 80.6941 67.3326 80.05 66.436 79.2121C65.5704 78.3852 64.8993 77.3767 64.4712 76.2592C64.0094 75.0463 63.7835 73.7566 63.8057 72.4591C63.7968 71.2219 64.0226 69.9943 64.4712 68.8411C64.8999 67.7278 65.5493 66.7126 66.3805 65.8565C67.2214 64.9886 68.2329 64.3039 69.3515 63.8456C70.5656 63.3503 71.8667 63.1026 73.1781 63.1173C74.2429 63.1058 75.3057 63.212 76.3471 63.434C77.4171 63.6983 78.4312 64.1514 79.3418 64.7719C79.5964 64.898 79.8124 65.0902 79.9671 65.3284C80.1218 65.5666 80.2096 65.842 80.2212 66.1257C80.2203 66.3922 80.1374 66.652 79.9836 66.8698L78.8427 68.762C78.7157 69.0056 78.5229 69.2088 78.2863 69.3487C78.0497 69.4886 77.7787 69.5596 77.5038 69.5536C77.2156 69.5525 76.9322 69.479 76.6799 69.3399Z" fill="#0073E6"/>
<path d="M89.8709 72.8392V79.806C89.8753 80.0032 89.8388 80.1993 89.7639 80.3818C89.6889 80.5644 89.577 80.7295 89.4352 80.8668C89.2972 81.0078 89.1318 81.1191 88.9493 81.194C88.7668 81.2688 88.5708 81.3057 88.3735 81.3022H85.458C85.2612 81.3044 85.0659 81.2671 84.8837 81.1925C84.7015 81.118 84.5361 81.0077 84.3972 80.8683C84.2584 80.7288 84.1489 80.5629 84.0753 80.3805C84.0017 80.198 83.9654 80.0027 83.9686 79.806V65.0887C83.9644 64.8909 84.0002 64.6944 84.0737 64.5108C84.1472 64.3272 84.2569 64.1602 84.3964 64.0199C84.5353 63.8808 84.701 63.7711 84.8835 63.6977C85.0659 63.6242 85.2614 63.5884 85.458 63.5924H88.3735C88.5711 63.5892 88.7672 63.6257 88.9503 63.6998C89.1335 63.7738 89.2998 63.8839 89.4395 64.0235C89.5792 64.1631 89.6894 64.3293 89.7635 64.5123C89.8376 64.6953 89.8741 64.8913 89.8709 65.0887V71.3033L94.4422 64.5741C94.6498 64.2826 94.9207 64.0417 95.2345 63.8695C95.5491 63.6852 95.9077 63.5895 96.2723 63.5924H99.0294C99.2358 63.5864 99.441 63.6251 99.6311 63.7057C99.8211 63.7863 99.9915 63.907 100.131 64.0595C100.41 64.3451 100.567 64.7288 100.566 65.1283C100.562 65.4556 100.451 65.7727 100.249 66.0308L96.0743 71.5725L98.0074 74.2088C98.5021 74.9981 99.2509 75.5956 100.131 75.903C100.588 75.9526 101.014 76.1597 101.335 76.4888C101.564 76.881 101.667 77.3345 101.628 77.7872V80.1622C101.624 80.4858 101.5 80.7963 101.279 81.0331C101.076 81.2743 100.797 81.4391 100.487 81.5002C100.281 81.5002 100.083 81.5477 99.9009 81.5635C99.7186 81.5793 99.5206 81.5635 99.3067 81.5635C98.8117 81.5628 98.318 81.5124 97.8331 81.4131C97.2955 81.2956 96.7778 81.101 96.2961 80.8351C95.7311 80.5253 95.2135 80.1361 94.7591 79.6793C94.1624 79.0947 93.6312 78.447 93.1746 77.7476L89.8709 72.8392Z" fill="#0073E6"/>
<path d="M118.669 81.3022C118.472 81.3055 118.276 81.2689 118.092 81.1949C117.909 81.1208 117.743 81.0107 117.603 80.8711C117.464 80.7316 117.353 80.5653 117.279 80.3823C117.205 80.1994 117.169 80.0034 117.172 79.806V72.0554L111.539 80.3126C111.341 80.5923 111.094 80.8337 110.81 81.0252C110.523 81.2113 110.186 81.3077 109.844 81.3022H106.461C106.262 81.3049 106.065 81.2678 105.882 81.193C105.698 81.1182 105.531 81.0073 105.391 80.8668C105.252 80.728 105.142 80.5624 105.069 80.3801C104.995 80.1978 104.959 80.0025 104.963 79.806V65.0887C104.959 64.891 104.995 64.6945 105.068 64.511C105.142 64.3275 105.252 64.1608 105.392 64.021C105.532 63.8812 105.699 63.7712 105.883 63.6975C106.066 63.6238 106.263 63.5881 106.461 63.5924H109.368C109.566 63.5881 109.763 63.6238 109.946 63.6975C110.13 63.7712 110.297 63.8812 110.437 64.021C110.577 64.1608 110.687 64.3275 110.76 64.511C110.834 64.6945 110.87 64.891 110.866 65.0887V72.8392L116.53 64.5424C116.727 64.2693 116.968 64.0311 117.243 63.8378C117.52 63.648 117.85 63.5509 118.186 63.5607H121.609C121.806 63.5564 122.003 63.5922 122.187 63.6658C122.37 63.7395 122.537 63.8495 122.677 63.9894C122.817 64.1292 122.927 64.2958 123.001 64.4793C123.074 64.6628 123.11 64.8593 123.106 65.057V79.806C123.11 80.0025 123.074 80.1978 123.001 80.3801C122.927 80.5624 122.817 80.728 122.678 80.8668C122.538 81.0073 122.371 81.1182 122.188 81.193C122.004 81.2678 121.807 81.3049 121.609 81.3022H118.669Z" fill="#0073E6"/>
<path d="M141.146 81.3021C140.949 81.3055 140.753 81.2687 140.57 81.1938C140.388 81.1189 140.222 81.0076 140.084 80.8666C139.942 80.7293 139.831 80.5642 139.756 80.3817C139.681 80.1991 139.644 80.0031 139.649 79.8058V72.0553L134.016 80.3125C133.82 80.5939 133.573 80.8357 133.287 81.025C133 81.212 132.663 81.3085 132.32 81.3021H128.969C128.772 81.3055 128.576 81.2687 128.393 81.1938C128.211 81.1189 128.045 81.0076 127.907 80.8666C127.765 80.7293 127.654 80.5642 127.579 80.3817C127.504 80.1991 127.467 80.0031 127.472 79.8058V65.0885C127.468 64.8911 127.505 64.6951 127.579 64.5121C127.653 64.3291 127.763 64.1629 127.903 64.0233C128.043 63.8837 128.209 63.7736 128.392 63.6996C128.575 63.6255 128.771 63.589 128.969 63.5922H131.884C132.081 63.5882 132.277 63.624 132.459 63.6975C132.641 63.771 132.807 63.8806 132.946 64.0197C133.087 64.1596 133.198 64.3263 133.272 64.5099C133.347 64.6935 133.384 64.8903 133.382 65.0885V72.839L138.975 64.5422C139.174 64.271 139.415 64.0332 139.688 63.8376C139.965 63.6478 140.295 63.5507 140.631 63.5606H144.061C144.258 63.5566 144.454 63.5924 144.636 63.6658C144.818 63.7393 144.984 63.8489 145.123 63.9881C145.262 64.1284 145.372 64.2953 145.446 64.4789C145.519 64.6626 145.555 64.8591 145.551 65.0568V79.8058C145.554 80.0025 145.518 80.1978 145.444 80.3803C145.37 80.5628 145.261 80.7286 145.122 80.8681C144.983 81.0076 144.818 81.1178 144.636 81.1924C144.454 81.2669 144.258 81.3042 144.061 81.3021H141.146ZM140.274 55.8338C140.604 55.8107 140.935 55.8581 141.245 55.9728C141.555 56.0874 141.837 56.2667 142.073 56.4988C142.49 56.978 142.708 57.5981 142.683 58.2326C142.67 58.7586 142.523 59.2727 142.257 59.7269C141.991 60.181 141.614 60.5603 141.162 60.8293C139.799 61.6264 138.229 61.996 136.654 61.8901C134.451 61.8901 132.867 61.5365 131.9 60.8293C131.465 60.5431 131.108 60.1544 130.859 59.6973C130.61 59.2403 130.478 58.729 130.474 58.2088C130.449 57.5784 130.658 56.9609 131.06 56.475C131.29 56.2423 131.568 56.0623 131.875 55.9475C132.181 55.8326 132.509 55.7857 132.835 55.81C133.316 55.7441 133.805 55.8602 134.205 56.1355C134.605 56.4109 134.888 56.8256 134.998 57.2984C135.116 57.6286 135.305 57.9287 135.553 58.1771C135.86 58.4327 136.255 58.5577 136.654 58.5255C136.833 58.5403 137.013 58.5169 137.182 58.4569C137.352 58.3968 137.507 58.3015 137.636 58.1771C137.864 57.9206 138.038 57.622 138.151 57.2984C138.27 56.8857 138.504 56.5151 138.825 56.2296C139.242 55.9234 139.759 55.7824 140.274 55.8338Z" fill="#0073E6"/>
<path d="M163.67 79.8058C163.674 80.0031 163.638 80.1991 163.563 80.3817C163.488 80.5642 163.376 80.7293 163.234 80.8667C163.096 81.0076 162.931 81.1189 162.748 81.1938C162.566 81.2687 162.37 81.3055 162.173 81.3021H159.257C159.06 81.3055 158.864 81.2687 158.681 81.1938C158.499 81.1189 158.333 81.0076 158.195 80.8667C158.054 80.7293 157.942 80.5642 157.867 80.3817C157.792 80.1991 157.755 80.0031 157.76 79.8058V65.0885C157.756 64.8911 157.793 64.6951 157.867 64.5121C157.941 64.3291 158.051 64.1629 158.191 64.0233C158.331 63.8837 158.497 63.7737 158.68 63.6996C158.863 63.6255 159.059 63.589 159.257 63.5922H162.054C162.404 63.5997 162.748 63.6845 163.062 63.8406C163.376 63.9966 163.651 64.22 163.868 64.4947L168.392 69.609L172.543 64.5423C172.766 64.2691 173.034 64.0361 173.335 63.8535C173.634 63.6821 173.973 63.5945 174.318 63.6002H176.956C177.154 63.5969 177.35 63.6335 177.533 63.7075C177.716 63.7816 177.882 63.8917 178.022 64.0312C178.162 64.1708 178.272 64.3371 178.346 64.5201C178.42 64.703 178.457 64.899 178.453 65.0964V79.8058C178.458 80.0031 178.421 80.1991 178.346 80.3817C178.271 80.5642 178.159 80.7293 178.018 80.8667C177.88 81.0076 177.714 81.1189 177.532 81.1938C177.349 81.2687 177.153 81.3055 176.956 81.3021H174.041C173.843 81.3055 173.647 81.2687 173.465 81.1938C173.282 81.1189 173.117 81.0076 172.979 80.8667C172.837 80.7293 172.725 80.5642 172.65 80.3817C172.575 80.1991 172.539 80.0031 172.543 79.8058V72.6015L169.224 76.4174C169.097 76.5653 168.941 76.6842 168.764 76.7662C168.588 76.8481 168.396 76.8912 168.202 76.8924C168.009 76.8943 167.818 76.8567 167.641 76.7818C167.464 76.7068 167.304 76.5963 167.172 76.457L163.67 72.6411V79.8058Z" fill="#0073E6"/>
<path d="M196.509 81.3022C196.312 81.3033 196.116 81.2653 195.934 81.1905C195.752 81.1157 195.587 81.0055 195.447 80.8663C195.308 80.7272 195.198 80.5618 195.123 80.3798C195.048 80.1978 195.01 80.0028 195.011 79.806V72.0554L189.386 80.3126C189.186 80.5906 188.94 80.8316 188.657 81.0252C188.37 81.2113 188.033 81.3077 187.691 81.3022H184.3C184.106 81.3002 183.914 81.2598 183.735 81.1834C183.557 81.107 183.395 80.996 183.26 80.857C183.124 80.7179 183.018 80.5535 182.946 80.3731C182.874 80.1927 182.839 80 182.842 79.806V65.0887C182.838 64.8909 182.874 64.6944 182.947 64.5108C183.021 64.3272 183.13 64.1602 183.27 64.0199C183.409 63.8808 183.575 63.7712 183.757 63.6977C183.939 63.6242 184.135 63.5884 184.332 63.5924H187.247C187.445 63.5892 187.641 63.6257 187.824 63.6998C188.007 63.7738 188.173 63.8839 188.313 64.0235C188.453 64.1631 188.563 64.3293 188.637 64.5123C188.711 64.6953 188.748 64.8913 188.744 65.0887V72.8392L194.346 64.5424C194.539 64.2696 194.778 64.0314 195.051 63.8378C195.33 63.6463 195.663 63.5492 196.002 63.5607H199.424C199.622 63.5575 199.818 63.594 200.001 63.6681C200.184 63.7421 200.35 63.8522 200.49 63.9918C200.63 64.1314 200.74 64.2976 200.814 64.4806C200.888 64.6636 200.925 64.8596 200.921 65.057V79.806C200.926 80.0032 200.889 80.1993 200.814 80.3818C200.739 80.5644 200.627 80.7295 200.486 80.8668C200.348 81.0078 200.182 81.1191 200 81.194C199.817 81.2688 199.621 81.3057 199.424 81.3022H196.509Z" fill="#0073E6"/>
<path d="M211.158 87.6751C211.163 87.8718 211.127 88.0673 211.054 88.2498C210.98 88.4322 210.87 88.5977 210.73 88.736C210.59 88.8764 210.423 88.9873 210.239 89.0621C210.056 89.1369 209.859 89.1741 209.66 89.1714H206.753C206.554 89.1741 206.357 89.1369 206.174 89.0621C205.99 88.9873 205.823 88.8764 205.683 88.736C205.543 88.5977 205.433 88.4322 205.359 88.2498C205.286 88.0673 205.25 87.8718 205.255 87.6751V65.0886C205.251 64.8909 205.287 64.6944 205.361 64.5109C205.434 64.3274 205.544 64.1607 205.684 64.0209C205.824 63.8811 205.991 63.771 206.175 63.6974C206.358 63.6237 206.555 63.588 206.753 63.5923H209.858C210.03 63.5891 210.2 63.6204 210.359 63.6845C210.518 63.7487 210.663 63.8442 210.784 63.9654C210.906 64.0866 211.001 64.231 211.065 64.39C211.129 64.549 211.161 64.7192 211.158 64.8906C211.749 64.36 212.431 63.9391 213.17 63.6477C214.107 63.2756 215.109 63.0953 216.117 63.1173C217.236 63.1036 218.344 63.3332 219.365 63.7902C220.329 64.222 221.182 64.8662 221.861 65.6744C222.56 66.5278 223.097 67.5018 223.446 68.5482C223.835 69.7142 224.028 70.9369 224.016 72.1662C224.026 73.4519 223.792 74.7279 223.327 75.9266C222.892 77.0609 222.234 78.0971 221.394 78.9746C220.549 79.8586 219.529 80.5569 218.399 81.025C217.159 81.537 215.827 81.7902 214.485 81.7692C213.886 81.7683 213.287 81.7233 212.695 81.6346C212.172 81.5608 211.662 81.4225 211.174 81.223L211.158 87.6751ZM211.158 75.5941C211.546 75.8279 211.964 76.0064 212.401 76.1245C212.899 76.228 213.407 76.2732 213.915 76.2591C214.449 76.3037 214.986 76.2223 215.482 76.0215C215.979 75.8207 216.422 75.5062 216.775 75.1033C217.398 74.2981 217.726 73.3029 217.702 72.2849C217.727 71.3423 217.416 70.4215 216.822 69.6882C216.501 69.326 216.102 69.0421 215.654 68.8582C215.206 68.6743 214.723 68.5953 214.24 68.6274C213.643 68.6529 213.059 68.8077 212.528 69.0811C211.997 69.3545 211.533 69.7399 211.166 70.2107L211.158 75.5941Z" fill="#0073E6"/>
</g>
<defs>
<clipPath id="clip0_4001_637">
<rect width="221" height="86" fill="white" transform="translate(3 21)"/>
</clipPath>
</defs>
</svg>
