<svg width="226" height="40" viewBox="0 0 226 40" fill="none" xmlns="http://www.w3.org/2000/svg">
<g clip-path="url(#clip0_4001_641)">
<mask id="mask0_4001_641" style="mask-type:luminance" maskUnits="userSpaceOnUse" x="12" y="0" width="202" height="40">
<path d="M214 0.588379H12V39.4119H214V0.588379Z" fill="white"/>
</mask>
<g mask="url(#mask0_4001_641)">
<path d="M94.2563 8.96924L103.254 31.0069H99.0988L97.0059 25.7804H86.9772L84.9149 31.0069H80.9507L89.8185 8.96924H94.2563ZM88.3825 22.1626H95.57L91.9801 13.1258L88.3825 22.1626Z" fill="#8168F0"/>
<path d="M121.899 12.5947H110.251V31.0069H106.348V8.96924H125.81V31.0069H121.906V12.5947H121.899Z" fill="#8168F0"/>
<path d="M147.603 12.5948H140.231V31.007H136.329V12.5948H129.081V8.97705H147.603V12.5948Z" fill="#8168F0"/>
<path d="M164.85 21.4698H154.791V27.3891H166.347V31.0069H150.887V8.96924H166.003V12.587H154.791V17.8444H164.85V21.4698Z" fill="#8168F0"/>
<path d="M77.653 21.4698H67.5936V27.3891H79.15V31.0069H63.6904V8.96924H78.8062V12.587H67.5936V17.8444H77.653V21.4698Z" fill="#8168F0"/>
<path d="M174.9 31.0069H170.998V8.96924H174.9V18.2214H178.177L185.204 8.96924H189.955L181.614 19.4531L191.299 31.0069H186.304L178.368 21.4698H174.9V31.0069Z" fill="#8168F0"/>
<path d="M204.992 8.96924L213.989 31.0069H209.835L207.741 25.7804H197.713L195.651 31.0069H191.687L200.555 8.96924H204.992ZM199.118 22.1626H206.306L202.716 13.1258L199.118 22.1626Z" fill="#8168F0"/>
<path d="M44.7516 12.9548H45.4551C47.8335 12.9548 49.7654 14.9111 49.7654 17.3198V22.6799C49.7654 25.0886 47.8335 27.045 45.4551 27.045H39.8048C38.4648 27.045 37.8282 27.7348 37.8282 29.0465V34.7685C37.8282 37.1772 35.8965 39.1336 33.518 39.1336H28.225C25.8466 39.1336 23.9147 37.1772 23.9147 34.7685C23.9147 34.7685 23.9147 30.4826 23.9147 29.0465C23.9147 27.6217 23.2224 27.045 21.9271 27.045H16.3103C13.9318 27.0337 12 25.0774 12 22.6686V17.3085C12 14.8998 13.9318 12.9435 16.3103 12.9435H21.9494C23.2001 12.9435 23.937 12.2311 23.937 10.908V5.23123C23.937 2.82255 25.8689 0.866211 28.2473 0.866211H33.5403C35.9188 0.866211 37.8506 2.82255 37.8506 5.23123V10.9193C37.8506 12.3102 38.3531 12.9548 39.7936 12.9548H40.7873L37.8841 16.9692C35.6619 16.7883 33.8864 14.8998 33.8864 12.6043V6.90485C33.8864 5.51393 33.3617 4.88066 31.8877 4.88066H29.8777C28.6271 4.88066 27.9011 5.55917 27.9011 6.90485V12.6043C27.9011 15.0129 25.9694 16.9692 23.5909 16.9692H17.9629C16.5113 16.9692 15.9641 17.9304 15.9641 19.0048V21.0176C15.9641 22.2276 16.69 23.0305 17.9406 23.0305H23.5909C25.9694 23.0305 27.9011 24.9869 27.9011 27.3955V33.1062C27.9011 34.3954 28.5377 35.1191 29.8553 35.1191H31.8764C33.1271 35.1191 33.8753 34.3502 33.8753 33.0836V27.3955C33.8753 24.9869 35.8072 23.0305 38.1856 23.0305H43.8359C45.1982 23.0305 45.8123 22.3294 45.8123 20.995V18.9822C45.8123 17.6025 45.0976 16.9692 43.7912 16.9692H41.8482L44.7516 12.9548Z" fill="#8168F0"/>
<mask id="mask1_4001_641" style="mask-type:alpha" maskUnits="userSpaceOnUse" x="12" y="0" width="38" height="40">
<path d="M44.7516 12.9548H45.4551C47.8335 12.9548 49.7654 14.9111 49.7654 17.3198V22.6799C49.7654 25.0886 47.8335 27.045 45.4551 27.045H39.8048C38.4648 27.045 37.8282 27.7348 37.8282 29.0465V34.7685C37.8282 37.1772 35.8965 39.1336 33.518 39.1336H28.225C25.8466 39.1336 23.9147 37.1772 23.9147 34.7685C23.9147 34.7685 23.9147 30.4826 23.9147 29.0465C23.9147 27.6217 23.2224 27.045 21.9271 27.045H16.3103C13.9318 27.0337 12 25.0774 12 22.6686V17.3085C12 14.8998 13.9318 12.9435 16.3103 12.9435H21.9494C23.2001 12.9435 23.937 12.2311 23.937 10.908V5.23123C23.937 2.82255 25.8689 0.866211 28.2473 0.866211H33.5403C35.9188 0.866211 37.8506 2.82255 37.8506 5.23123V10.9193C37.8506 12.3102 38.3531 12.9548 39.7936 12.9548H40.7873L37.8841 16.9692C35.6619 16.7883 33.8864 14.8998 33.8864 12.6043V6.90485C33.8864 5.51393 33.3617 4.88066 31.8877 4.88066H29.8777C28.6271 4.88066 27.9011 5.55917 27.9011 6.90485V12.6043C27.9011 15.0129 25.9694 16.9692 23.5909 16.9692H17.9629C16.5113 16.9692 15.9641 17.9304 15.9641 19.0048V21.0176C15.9641 22.2276 16.69 23.0305 17.9406 23.0305H23.5909C25.9694 23.0305 27.9011 24.9869 27.9011 27.3955V33.1062C27.9011 34.3954 28.5377 35.1191 29.8553 35.1191H31.8764C33.1271 35.1191 33.8753 34.3502 33.8753 33.0836V27.3955C33.8753 24.9869 35.8072 23.0305 38.1856 23.0305H43.8359C45.1982 23.0305 45.8123 22.3294 45.8123 20.995V18.9822C45.8123 17.6025 45.0976 16.9692 43.7912 16.9692H41.8482L44.7516 12.9548Z" fill="#8168F0"/>
</mask>
<g mask="url(#mask1_4001_641)">
<mask id="mask2_4001_641" style="mask-type:alpha" maskUnits="userSpaceOnUse" x="-9" y="17" width="56" height="45">
<path d="M9.77345 55.6221C23.9534 63.753 39.4848 63.1967 44.4636 54.3794C49.4425 45.5622 41.9835 31.823 27.8036 23.6921C13.6236 15.5612 -1.90776 16.1175 -6.88664 24.9347C-11.8655 33.7519 -4.40654 47.4911 9.77345 55.6221Z" fill="#FF1F78"/>
</mask>
<g mask="url(#mask2_4001_641)">
<path d="M9.77345 55.6221C23.9534 63.753 39.4848 63.1967 44.4636 54.3794C49.4425 45.5622 41.9835 31.823 27.8036 23.6921C13.6236 15.5612 -1.90776 16.1175 -6.88664 24.9347C-11.8655 33.7519 -4.40654 47.4911 9.77345 55.6221Z" fill="url(#paint0_radial_4001_641)"/>
</g>
<mask id="mask3_4001_641" style="mask-type:alpha" maskUnits="userSpaceOnUse" x="8" y="-19" width="60" height="44">
<path d="M29.6509 17.6462C45.0229 26.4942 61.2308 27.0575 65.8521 18.9045C70.4735 10.7514 61.7583 -3.03069 46.3863 -11.8787C31.0142 -20.7267 14.8064 -21.2901 10.185 -13.137C5.56368 -4.98392 14.2788 8.79816 29.6509 17.6462Z" fill="#4AD6FC"/>
</mask>
<g mask="url(#mask3_4001_641)">
<path d="M29.6509 17.6462C45.0229 26.4942 61.2308 27.0575 65.8521 18.9045C70.4735 10.7514 61.7583 -3.03069 46.3863 -11.8787C31.0142 -20.7267 14.8064 -21.2901 10.185 -13.137C5.56368 -4.98392 14.2788 8.79816 29.6509 17.6462Z" fill="url(#paint1_radial_4001_641)"/>
</g>
<mask id="mask4_4001_641" style="mask-type:alpha" maskUnits="userSpaceOnUse" x="15" y="-29" width="92" height="51">
<path d="M56.3133 19.9539C81.1916 24.9428 103.411 18.5979 105.942 5.78228C108.473 -7.03336 90.3564 -21.4668 65.4782 -26.4556C40.5999 -31.4445 18.3805 -25.0996 15.8497 -12.284C13.3189 0.531632 31.4351 14.965 56.3133 19.9539Z" fill="white"/>
</mask>
<g mask="url(#mask4_4001_641)">
<path d="M56.3133 19.9539C81.1916 24.9428 103.411 18.5979 105.942 5.78228C108.473 -7.03336 90.3564 -21.4668 65.4782 -26.4556C40.5999 -31.4445 18.3805 -25.0996 15.8497 -12.284C13.3189 0.531632 31.4351 14.965 56.3133 19.9539Z" fill="url(#paint2_radial_4001_641)"/>
</g>
</g>
</g>
</g>
<defs>
<radialGradient id="paint0_radial_4001_641" cx="0" cy="0" r="1" gradientUnits="userSpaceOnUse" gradientTransform="translate(18.7885 39.6571) rotate(119.452) scale(18.3345 29.596)">
<stop stop-color="#FF1F78"/>
<stop offset="1" stop-color="#FF1F78" stop-opacity="0"/>
</radialGradient>
<radialGradient id="paint1_radial_4001_641" cx="0" cy="0" r="1" gradientUnits="userSpaceOnUse" gradientTransform="translate(38.0186 2.88374) rotate(119.546) scale(16.969 32.1142)">
<stop stop-color="#4AD6FC"/>
<stop offset="1" stop-color="#4AD6FC" stop-opacity="0"/>
</radialGradient>
<radialGradient id="paint2_radial_4001_641" cx="0" cy="0" r="1" gradientUnits="userSpaceOnUse" gradientTransform="translate(60.8958 -3.25086) rotate(101.171) scale(23.6529 45.9426)">
<stop stop-color="white"/>
<stop offset="1" stop-color="white" stop-opacity="0"/>
</radialGradient>
<clipPath id="clip0_4001_641">
<rect width="202" height="40" fill="white" transform="translate(12)"/>
</clipPath>
</defs>
</svg>
