<svg width="226" height="107" viewBox="0 0 226 107" fill="none" xmlns="http://www.w3.org/2000/svg">
<g clip-path="url(#clip0_4001_624)">
<path d="M78.8489 23.5566C78.4303 22.9719 77.8676 22.5036 77.2145 22.1964C76.5613 21.8892 75.8397 21.7535 75.1186 21.8021C73.674 21.8663 72.2509 21.9519 70.8063 22.0375C70.6603 22.0482 70.522 22.1064 70.4128 22.2031C70.3036 22.2999 70.2297 22.4297 70.2025 22.5724C67.0113 40.2025 64.6827 56.0781 63.0655 71.1193C62.8519 72.7366 63.2854 74.3726 64.273 75.6766C64.713 76.2712 65.2788 76.7631 65.9306 77.1179C66.5824 77.4727 67.3045 77.6818 68.0463 77.7306L72.3587 77.9873H72.4018C72.5646 77.9824 72.72 77.9189 72.839 77.8087C72.958 77.6984 73.0325 77.549 73.0487 77.3882C74.558 62.347 76.7789 46.2575 79.7545 28.1567C80.0779 26.3808 79.7545 24.7548 78.8489 23.5566ZM78.5039 27.9427C75.5499 45.8081 73.3721 61.7266 71.8628 76.618C70.6122 76.5324 69.3832 76.4682 68.1541 76.404C67.5936 76.3658 67.0482 76.2061 66.5565 75.9363C66.0648 75.6664 65.6386 75.2929 65.308 74.8421C64.5419 73.8158 64.2023 72.5367 64.3592 71.2691C65.9548 56.399 68.2619 40.716 71.3884 23.3212C72.639 23.2571 75.3774 23.1073 75.3774 23.1073C75.8555 23.0967 76.3287 23.2046 76.7542 23.4213C77.1796 23.638 77.5439 23.9566 77.8139 24.3482C78.5039 25.2682 78.7411 26.5306 78.5039 27.9427ZM191.812 35.7308C191.014 34.661 189.332 33.6126 187.801 33.3986C185.171 33.0349 177.904 32.5856 173.01 32.5C170.077 32.5 167.576 34.8749 167.188 38.0201C167.102 38.8331 165.226 50.6222 164.773 54.7943C164.385 58.453 167.016 60.293 169.819 60.293C169.819 60.293 176.438 60.2716 179.004 60.2289C178.702 61.9405 178.249 64.4438 178.012 65.7703L173.29 66.0271C173.335 65.7579 173.363 65.4865 173.376 65.2141C173.376 63.3098 171.997 61.8121 170.228 61.8121L163.889 62.0047C163.732 62.016 163.583 62.0789 163.466 62.1836C163.349 62.2882 163.27 62.4285 163.242 62.5824C162.768 65.4494 162.272 68.3164 161.776 71.2049C161.474 72.9165 161.798 74.4998 162.682 75.6552C163.088 76.1972 163.619 76.6352 164.23 76.9329C164.842 77.2306 165.516 77.3793 166.196 77.3668C166.283 77.3668 174.562 76.9389 181.527 76.1687C184.265 75.8691 187.068 73.1947 187.888 70.0709C188.944 66.0913 189.699 62.4112 190.561 55.2223C190.777 53.3608 190.497 52.1627 189.505 50.9645C189.047 50.4135 188.47 49.9717 187.817 49.6717C187.164 49.3717 186.451 49.2213 185.731 49.2315H176.287C176.417 48.5254 177.128 44.289 177.258 43.4546C178.465 43.476 181.872 43.5616 181.872 43.5616C181.813 43.8284 181.791 44.102 181.807 44.3746C181.893 46.2361 183.403 47.7552 185.149 47.7765L191.165 47.8407C191.329 47.844 191.488 47.7866 191.612 47.6799C191.735 47.5731 191.814 47.4245 191.833 47.2631C192.222 44.8453 192.588 42.3206 192.955 39.7532C193.049 39.0408 192.996 38.317 192.799 37.6256C192.603 36.9341 192.267 36.2895 191.812 35.7308ZM191.618 39.582C191.294 41.9141 190.949 44.2249 190.604 46.4714L185.149 46.4072C184.093 46.3858 183.187 45.4658 183.144 44.3318C183.122 43.9253 183.403 43.0909 183.403 43.0909C183.429 42.9892 183.433 42.8831 183.414 42.7797C183.396 42.6764 183.355 42.5782 183.295 42.4918C183.233 42.4069 183.152 42.3374 183.059 42.2891C182.965 42.2408 182.861 42.215 182.756 42.2137C182.756 42.2137 178.099 42.1067 176.675 42.0639C176.508 42.0611 176.346 42.1214 176.222 42.2326C176.098 42.3439 176.021 42.4977 176.007 42.663C175.899 43.3476 174.95 49.0389 174.821 49.8305C174.808 49.9286 174.814 50.0283 174.84 50.1238C174.866 50.2194 174.911 50.3088 174.972 50.3868C175.036 50.4604 175.116 50.5195 175.205 50.5601C175.294 50.6007 175.391 50.6219 175.49 50.6222H185.71C186.233 50.6112 186.752 50.7193 187.227 50.9381C187.701 51.1569 188.119 51.4807 188.448 51.8845C189.095 52.6548 189.397 53.4036 189.203 55.0725C188.362 62.1759 187.586 65.8131 186.551 69.7286C185.882 72.2533 183.511 74.564 181.354 74.7993C174.433 75.591 166.39 75.9975 166.39 75.9975C165.269 76.0403 164.342 75.6552 163.717 74.8207C163.091 73.9863 162.854 72.7881 163.07 71.483C163.544 68.7871 163.997 66.0913 164.45 63.4168L170.185 63.2243C171.199 63.2243 171.975 64.1229 171.997 65.2355C171.963 65.717 171.899 66.1959 171.802 66.669C171.787 66.7719 171.795 66.8769 171.825 66.9766C171.855 67.0763 171.906 67.1685 171.975 67.2467C172.04 67.3232 172.124 67.3827 172.218 67.42C172.312 67.4573 172.413 67.4712 172.514 67.4606L178.573 67.1397C178.723 67.1251 178.865 67.0633 178.977 66.9632C179.09 66.8632 179.167 66.7301 179.198 66.5834C179.435 65.3638 180.125 61.4698 180.449 59.6512C180.464 59.5498 180.458 59.4464 180.432 59.3471C180.406 59.2479 180.361 59.1549 180.298 59.0735C180.229 58.9995 180.146 58.9404 180.053 58.8999C179.96 58.8594 179.86 58.8384 179.759 58.8381C177.948 58.9023 169.776 58.9237 169.776 58.9237C167.49 58.9237 165.83 57.2976 166.067 54.8799C166.498 50.7719 168.396 39.0043 168.482 38.1699C168.784 35.7094 170.724 33.8693 172.967 33.8693C179.586 33.9977 184.891 34.4042 187.586 34.7679C188.685 34.8963 190.044 35.7094 190.669 36.5224C191.424 37.4424 191.769 38.3838 191.618 39.582ZM164.795 32.3502C164.673 32.2146 164.503 32.1304 164.32 32.1149L159.404 31.9223C156.537 31.9223 154.079 34.34 153.669 37.5708C152.504 46.8993 151.125 56.4846 149.443 66.9043L144.85 67.0327C146.467 56.7414 147.826 47.2631 148.99 38.0629C149.206 36.3298 148.817 34.661 147.869 33.42C147.429 32.8235 146.859 32.333 146.202 31.9848C145.545 31.6366 144.818 31.4398 144.074 31.4088C142.608 31.3874 141.163 31.3446 139.718 31.3018C139.555 31.3019 139.398 31.3604 139.275 31.4665C139.152 31.5727 139.072 31.7194 139.05 31.8795C137.584 43.8611 135.816 56.6772 133.422 72.2105C133.163 73.9435 133.508 75.5482 134.392 76.7891C134.799 77.3738 135.344 77.851 135.979 78.1791C136.614 78.5073 137.32 78.6765 138.036 78.672H138.209C143.168 78.5008 148.171 78.2868 153.108 78.0301C155.954 77.8589 158.628 75.2273 159.189 72.0393C161.668 58.0465 163.544 45.2305 164.967 32.8423C164.959 32.6651 164.899 32.4941 164.795 32.3502ZM157.895 71.8253C157.442 74.3928 155.264 76.5966 153.022 76.725C148.106 76.9817 143.103 77.1957 138.166 77.3668L138.036 77.3882C137.527 77.3913 137.024 77.27 136.573 77.035C136.122 76.7999 135.736 76.4583 135.449 76.0403C134.781 75.0989 134.522 73.8151 134.737 72.4672C137.066 57.1693 138.834 44.503 140.279 32.6926C141.529 32.714 142.78 32.7568 144.052 32.7781C144.599 32.7933 145.136 32.9346 145.618 33.1908C146.101 33.447 146.517 33.8112 146.834 34.2545C147.567 35.2173 147.869 36.5224 147.696 37.9131C146.51 47.3272 145.109 57.0409 143.448 67.6318C143.428 67.7264 143.431 67.8245 143.458 67.9176C143.484 68.0108 143.533 68.0962 143.599 68.1667C143.661 68.238 143.737 68.2958 143.822 68.3364C143.908 68.3769 144.001 68.3993 144.095 68.402C146.079 68.3378 148.063 68.295 150.025 68.2309C150.176 68.22 150.32 68.1595 150.433 68.0588C150.547 67.9581 150.623 67.823 150.65 67.6746C152.375 57.0409 153.777 47.2631 154.963 37.7633C155.286 35.2173 157.183 33.2916 159.404 33.2916L163.587 33.4628C162.164 45.5728 160.31 58.1535 157.895 71.8253ZM56.7694 47.7765L62.9793 47.7338C63.1387 47.7295 63.2914 47.6691 63.41 47.5632C63.5285 47.4573 63.6052 47.313 63.6261 47.1561C64.0574 44.3104 64.5317 41.4434 65.0061 38.5764C65.2864 36.8219 64.9414 35.1745 64.0142 33.9763C63.1518 32.8209 61.8365 32.2219 60.2409 32.2219C56.446 32.2219 49.999 32.4786 44.975 32.9921C42.1504 33.2702 38.5711 35.9233 38.0105 39.0257C35.9621 50.2798 34 65.7276 34 69.4932C34 70.4132 34.1294 72.6812 35.3368 74.1361C36.3503 75.3556 37.9674 75.7621 39.3905 76.0189C43.5951 76.7464 51.1633 77.3454 54.4192 77.3454H54.6779C57.8906 77.3026 59.6803 75.6124 60.284 72.0393C61.0818 67.3108 62.6127 54.4306 62.7421 53.4036C62.9146 52.1627 62.699 51.1999 62.1383 50.5152C61.5777 49.8305 60.6075 49.4668 59.3353 49.4668L49.5246 49.4882C49.3626 49.4913 49.2068 49.5508 49.0845 49.6565C48.9623 49.7621 48.8815 49.907 48.8562 50.0659C48.8562 50.0659 48.2309 54.1311 47.9506 56.0353C47.8832 56.5501 47.921 57.073 48.0618 57.573C48.2026 58.0729 48.4434 58.5396 48.7699 58.9451C49.0409 59.285 49.3803 59.5651 49.7663 59.7677C50.1524 59.9703 50.5768 60.0909 51.0124 60.1219L51.4867 60.1433C51.3789 60.7851 50.6674 64.6792 50.3871 66.2411C49.2874 66.1983 45.5356 65.9629 44.8672 65.9201C45.2553 62.0475 47.4762 46.8137 48.0584 43.6044C49.0718 43.6044 52.7805 43.5616 53.5136 43.5402C53.4489 43.9895 53.4273 44.3746 53.4273 44.3746C53.4704 46.2361 54.9582 47.7765 56.7694 47.7765ZM47.5193 42.1923C47.3686 42.1952 47.2237 42.2502 47.1095 42.3479C46.9954 42.4455 46.9191 42.5797 46.894 42.7272C46.5059 44.3104 43.6382 64.0801 43.5304 66.4978C43.523 66.5864 43.5334 66.6755 43.5609 66.7601C43.5883 66.8447 43.6324 66.923 43.6905 66.9906C43.7486 67.0582 43.8197 67.1138 43.8995 67.154C43.9793 67.1943 44.0664 67.2185 44.1557 67.2253C44.9966 67.2681 49.6971 67.5676 50.9693 67.6318C51.1316 67.6334 51.2894 67.5787 51.4153 67.4771C51.5413 67.3755 51.6276 67.2335 51.6592 67.0755C52.0042 65.1499 52.8451 60.4856 52.9745 59.5656C52.9933 59.4709 52.9895 59.3732 52.9632 59.2803C52.937 59.1874 52.8892 59.1019 52.8236 59.0307C52.7634 58.9577 52.6878 58.8988 52.6021 58.8581C52.5164 58.8175 52.4227 58.796 52.3277 58.7953L51.0771 58.7526C50.8284 58.7338 50.5865 58.6631 50.3673 58.5451C50.148 58.4271 49.9564 58.2645 49.8049 58.0679C49.601 57.8142 49.4501 57.5227 49.3613 57.2104C49.2724 56.8981 49.2473 56.5713 49.2874 56.2493C49.5462 54.4092 49.8265 52.719 50.1068 50.8789L59.3569 50.8575C60.1978 50.8575 60.8015 51.0501 61.1249 51.4352C61.4484 51.8203 61.5346 52.4194 61.4268 53.2538C61.2974 54.3022 59.7665 67.1611 58.9687 71.8467C58.4728 74.7779 57.2222 75.9975 54.6564 76.0189H54.4192C51.228 76.0189 43.7676 75.4198 39.6277 74.7138C38.3555 74.4998 37.0834 74.1789 36.3503 73.2802C35.6171 72.3816 35.3368 70.7556 35.3368 69.536C35.3368 66.1769 37.1265 51.3068 39.3258 39.3252C39.7786 36.8433 42.8188 34.661 45.1044 34.4256C50.0852 33.9335 56.4891 33.6554 60.2409 33.6554C61.0603 33.6554 62.203 33.8693 62.9793 34.8749C63.6692 35.7735 63.9064 37.0145 63.6908 38.4052C63.238 41.0797 62.8068 43.7542 62.3971 46.4072H56.7479C55.6913 46.4072 54.8073 45.4658 54.7857 44.289C54.8073 44.0965 55.1307 42.1281 55.1307 42.1281C55.1307 42.1281 48.6837 42.1495 47.5193 42.1923ZM96.2278 41.2722C94.1363 41.2936 92.0448 41.2936 89.9317 41.315C89.781 41.3179 89.6361 41.373 89.5219 41.4706C89.4077 41.5683 89.3315 41.7024 89.3064 41.8499C88.983 43.6044 86.0506 65.2355 85.8134 67.8671C85.7995 68.0508 85.8531 68.2332 85.9643 68.3806C86.0227 68.4487 86.0954 68.5032 86.1774 68.5402C86.2594 68.5772 86.3486 68.5957 86.4387 68.5946C88.5302 68.6588 90.6001 68.6802 92.6916 68.723C92.856 68.7233 93.0143 68.6616 93.1344 68.5503C93.2546 68.4391 93.3275 68.2866 93.3385 68.1239C93.4894 66.3908 96.4003 44.717 96.8531 42.0639C96.8719 41.9692 96.868 41.8715 96.8418 41.7786C96.8156 41.6857 96.7678 41.6002 96.7022 41.529C96.6562 41.4456 96.587 41.3771 96.5029 41.3316C96.4188 41.2861 96.3233 41.2655 96.2278 41.2722ZM92.1526 67.375C90.4923 67.3322 88.8536 67.3108 87.1933 67.268C87.6893 63.0745 89.9748 46.1505 90.5139 42.6416C92.1742 42.6202 93.8344 42.5988 95.4947 42.5988C94.8263 46.9849 92.5838 63.695 92.1526 67.375ZM105.65 32.9921C105.226 32.3913 104.661 31.9021 104.004 31.5666C103.346 31.2311 102.616 31.0594 101.877 31.0665C96.9178 31.1093 91.8507 31.1949 86.8915 31.3232C83.9806 31.3874 81.3069 34.0405 80.7894 37.3568C78.892 49.7664 77.3826 61.0205 76.1536 71.7825C75.9523 73.3928 76.3679 75.0193 77.318 76.3398C77.7582 76.951 78.3322 77.4552 78.9969 77.8147C79.6617 78.1741 80.3998 78.3794 81.156 78.4152C86.2015 78.6506 91.2039 78.8003 96.0337 78.9073H96.1416C98.9446 78.9073 101.489 76.3398 101.899 73.0449C103.429 60.9563 105.09 48.9319 106.642 37.7206C106.944 35.9447 106.578 34.2758 105.65 32.9921ZM105.392 37.5494C103.818 48.7394 102.157 60.7851 100.648 72.8737C100.303 75.5054 98.3409 77.5808 96.1631 77.5808H96.0769C91.247 77.4738 86.2662 77.3026 81.2207 77.0887C80.6524 77.0603 80.0983 76.9028 79.6011 76.6283C79.1039 76.3538 78.6768 75.9696 78.3529 75.5054C77.6079 74.4784 77.2842 73.2087 77.4473 71.9537C78.6548 61.1917 80.1641 49.9375 82.0616 37.5708C82.4928 34.8749 84.6059 32.714 86.913 32.6712C91.8723 32.5642 96.9178 32.4786 101.92 32.4144C102.449 32.4139 102.97 32.5401 103.439 32.7822C103.909 33.0243 104.312 33.3752 104.615 33.8051C105.345 34.9097 105.623 36.2488 105.392 37.5494ZM134.328 33.1205C133.903 32.5152 133.34 32.019 132.684 31.673C132.027 31.3269 131.297 31.141 130.554 31.1307C127.363 31.0879 124.172 31.0451 120.981 31.0237C121.11 30.0823 121.455 27.5148 121.455 27.5148C121.671 25.739 121.304 24.0273 120.377 22.7649C119.957 22.1603 119.397 21.6642 118.745 21.318C118.092 20.9719 117.365 20.7857 116.625 20.7751H112.313C112.155 20.7827 112.004 20.8443 111.886 20.9496C111.768 21.0548 111.69 21.1973 111.666 21.3528C110.911 26.9157 106.233 60.9135 104.745 72.403C104.505 74.0271 104.881 75.6818 105.801 77.0459C106.75 78.3296 108.108 79.0571 109.618 79.0571C110.847 79.0571 120.808 79.0357 124.474 78.9929C127.32 78.9501 129.951 76.297 130.447 72.9593C132.473 59.3944 134.047 48.2259 135.406 37.8061C135.681 36.1643 135.294 34.4809 134.328 33.1205ZM134.134 37.6778C132.797 48.0975 131.223 59.2447 129.196 72.8095C128.786 75.5268 126.716 77.6664 124.474 77.7092C119.644 77.7947 114.599 77.8161 109.639 77.7947C109.09 77.7892 108.55 77.6521 108.066 77.395C107.582 77.138 107.167 76.7687 106.858 76.3184C106.146 75.3342 105.844 74.0505 106.038 72.5956C107.505 61.1703 112.141 27.5576 112.874 22.1873H116.604C117.142 22.1897 117.672 22.3237 118.146 22.5774C118.62 22.8312 119.023 23.1969 119.321 23.6422C120.032 24.6264 120.334 25.9743 120.14 27.4078C120.14 27.4078 119.73 30.4674 119.579 31.6656C119.562 31.8562 119.616 32.0464 119.73 32.2005C119.788 32.2707 119.86 32.328 119.942 32.3686C120.024 32.4092 120.113 32.4321 120.205 32.4358C123.633 32.4572 127.083 32.4786 130.511 32.5428C131.054 32.554 131.586 32.6915 132.066 32.9442C132.545 33.1969 132.958 33.5577 133.271 33.9977C134.026 34.9391 134.328 36.2657 134.134 37.6778ZM125.164 41.2509C125.164 41.2509 120.679 41.2295 118.868 41.2295C118.708 41.2337 118.556 41.2942 118.437 41.4C118.319 41.5059 118.242 41.6502 118.221 41.8071C118.07 42.9839 114.599 68.1453 114.599 68.1453C114.585 68.3356 114.638 68.5247 114.75 68.6802C114.81 68.7531 114.885 68.812 114.971 68.8527C115.057 68.8934 115.15 68.9148 115.245 68.9155C117.337 68.9155 119.407 68.8941 121.498 68.8941C121.657 68.8866 121.808 68.825 121.926 68.7197C122.043 68.6144 122.121 68.472 122.145 68.3164C122.382 66.7759 125.466 44.61 125.789 41.9997C125.803 41.905 125.796 41.8086 125.771 41.7165C125.745 41.6244 125.699 41.5387 125.638 41.4648C125.58 41.3971 125.507 41.3428 125.425 41.3059C125.343 41.2689 125.254 41.2501 125.164 41.2509ZM120.959 67.5462C119.321 67.5462 117.66 67.5676 116.022 67.5676C116.022 67.5676 119.105 45.1235 119.45 42.556C121.067 42.556 124.431 42.5774 124.431 42.5774C123.849 46.8993 121.455 63.9945 120.959 67.5462Z" fill="#C74A1B"/>
<path d="M78.504 27.9429C75.5716 45.8083 73.3723 61.7267 71.8629 76.6181C70.6124 76.5325 69.3833 76.4684 68.1543 76.4042C67.5942 76.3636 67.0498 76.203 66.5584 75.9333C66.067 75.6637 65.6404 75.2914 65.3081 74.8423C64.5326 73.8205 64.1919 72.5375 64.3594 71.2692C65.955 56.3992 68.2621 40.7161 71.3886 23.3214C72.6392 23.2572 75.3775 23.1074 75.3775 23.1074C75.8556 23.0968 76.3289 23.2047 76.7543 23.4214C77.1798 23.6381 77.544 23.9567 77.814 24.3484C78.4825 25.2684 78.7196 26.5307 78.504 27.9429ZM191.618 39.5821C191.295 41.9143 190.95 44.225 190.605 46.4716L185.149 46.4074C184.093 46.386 183.187 45.466 183.144 44.332C183.123 43.9255 183.403 43.091 183.403 43.091C183.429 42.9893 183.433 42.8832 183.415 42.7799C183.396 42.6765 183.355 42.5783 183.295 42.492C183.233 42.407 183.153 42.3376 183.059 42.2893C182.965 42.241 182.862 42.2151 182.756 42.2138C182.756 42.2138 178.099 42.1068 176.676 42.064C176.508 42.0613 176.346 42.1216 176.222 42.2328C176.098 42.344 176.021 42.4978 176.007 42.6631C175.921 43.3478 174.951 49.039 174.821 49.8307C174.803 49.9287 174.806 50.0297 174.832 50.126C174.859 50.2223 174.906 50.3116 174.972 50.387C175.037 50.4606 175.116 50.5197 175.205 50.5603C175.295 50.6009 175.392 50.622 175.49 50.6223H185.71C186.233 50.6114 186.752 50.7194 187.227 50.9382C187.702 51.1571 188.119 51.4808 188.448 51.8847C189.095 52.6549 189.419 53.4038 189.203 55.0726C188.362 62.176 187.586 65.8133 186.551 69.7287C185.904 72.2534 183.511 74.5641 181.355 74.7995C174.433 75.5911 166.391 75.9977 166.391 75.9977C165.269 76.0404 164.342 75.6553 163.717 74.8209C163.092 73.9865 162.854 72.7883 163.07 71.4832C163.544 68.7873 163.997 66.0914 164.45 63.417L170.185 63.2244C171.199 63.2244 171.975 64.1016 171.997 65.2356C171.964 65.7171 171.899 66.196 171.803 66.6691C171.783 66.8766 171.845 67.0836 171.975 67.2468C172.041 67.3233 172.124 67.3828 172.218 67.4201C172.312 67.4574 172.414 67.4714 172.514 67.4608L178.573 67.1398C178.723 67.1252 178.865 67.0634 178.978 66.9634C179.09 66.8633 179.167 66.7302 179.198 66.5835C179.436 65.364 180.126 61.47 180.449 59.6513C180.464 59.5499 180.458 59.4465 180.433 59.3473C180.407 59.2481 180.361 59.155 180.298 59.0736C180.229 58.9997 180.146 58.9406 180.053 58.9001C179.961 58.8596 179.86 58.8385 179.759 58.8383C177.948 58.9025 169.776 58.9239 169.776 58.9239C167.49 58.9239 165.83 57.2978 166.067 54.8801C166.498 50.7721 168.396 39.0044 168.482 38.17C168.784 35.7095 170.703 33.8695 172.967 33.8695C179.565 33.9979 184.891 34.4044 187.586 34.7467C188.686 34.8751 190.044 35.6881 190.669 36.5012C191.402 37.464 191.769 38.384 191.618 39.5821ZM157.895 71.8255C157.442 74.393 155.243 76.5967 153.022 76.7251C148.106 76.9819 143.104 77.1958 138.166 77.367L138.037 77.3884C137.527 77.3939 137.023 77.2737 136.571 77.0384C136.12 76.8031 135.734 76.4602 135.449 76.0404C134.781 75.099 134.522 73.8153 134.738 72.4674C137.066 57.1908 138.834 44.5031 140.279 32.6927C141.53 32.7141 142.78 32.7569 144.052 32.7783C144.603 32.7931 145.142 32.9341 145.628 33.1902C146.115 33.4464 146.535 33.8106 146.855 34.2546C147.589 35.2174 147.89 36.5225 147.718 37.9133C146.532 47.3274 145.13 57.041 143.47 67.6319C143.45 67.7265 143.453 67.8246 143.479 67.9178C143.506 68.0109 143.554 68.0964 143.621 68.1668C143.681 68.2398 143.757 68.2987 143.843 68.3394C143.928 68.38 144.022 68.4015 144.117 68.4022C146.101 68.338 148.084 68.2952 150.047 68.231C150.197 68.2164 150.339 68.1546 150.451 68.0545C150.564 67.9545 150.641 67.8214 150.672 67.6747C152.397 57.041 153.82 47.2632 154.984 37.7635C155.308 35.2174 157.227 33.2918 159.426 33.2918L163.609 33.463C162.164 45.5729 160.31 58.1536 157.895 71.8255ZM47.5195 42.1924C47.3719 42.1943 47.2293 42.2463 47.1156 42.3397C47.0018 42.4331 46.9237 42.5624 46.8942 42.7059C46.5061 44.2892 43.6383 64.0588 43.509 66.4766C43.5016 66.5651 43.512 66.6542 43.5394 66.7388C43.5669 66.8234 43.611 66.9017 43.6691 66.9694C43.7272 67.037 43.7982 67.0925 43.8781 67.1328C43.9579 67.173 44.045 67.1973 44.1343 67.204C44.9752 67.2468 49.6757 67.5463 50.9478 67.5891C51.1102 67.5907 51.2679 67.536 51.3939 67.4344C51.5199 67.3329 51.6062 67.1908 51.6378 67.0328C51.9828 65.1072 52.8237 60.443 52.9531 59.5229C52.9719 59.4283 52.968 59.3306 52.9418 59.2377C52.9156 59.1448 52.8678 59.0593 52.8022 58.9881C52.7437 58.9132 52.6684 58.8529 52.5823 58.812C52.4962 58.7712 52.4017 58.7509 52.3063 58.7527L51.0557 58.7099C50.807 58.6911 50.5651 58.6205 50.3458 58.5025C50.1266 58.3845 49.935 58.2219 49.7835 58.0252C49.5753 57.774 49.4218 57.4827 49.3327 57.1697C49.2437 56.8567 49.2209 56.5288 49.266 56.2066C49.5248 54.3666 49.8051 52.6763 50.0854 50.8363L59.3354 50.8149C60.1764 50.8149 60.7801 51.0074 61.1035 51.3926C61.427 51.7777 61.5132 52.3768 61.4054 53.2112C61.276 54.2596 59.7451 67.1184 58.9473 71.8041C58.4514 74.7353 57.2008 75.9549 54.6349 75.9763H54.3978C51.2066 75.9763 43.7462 75.3772 39.6063 74.6711C38.3341 74.4358 37.0619 74.1148 36.3288 73.2376C35.5957 72.3604 35.3154 70.7129 35.3154 69.4933C35.3154 66.1342 37.1051 51.2642 39.3044 39.2826C39.7572 36.8007 42.7974 34.6183 45.083 34.383C50.0638 33.8909 56.4677 33.6127 60.2195 33.6127C61.0388 33.6127 62.1816 33.8267 62.9579 34.8323C63.6478 35.7309 63.885 36.9719 63.6694 38.3626C63.2382 41.037 62.7854 43.7115 62.3757 46.3646L56.748 46.4074C55.6915 46.4074 54.8074 45.466 54.7859 44.2892C54.8074 44.0966 55.1309 42.1282 55.1309 42.1282C55.1309 42.1282 48.6623 42.1496 47.5195 42.1924ZM96.228 41.2724C94.1364 41.2938 92.0449 41.2938 89.9319 41.3152C89.7812 41.3181 89.6362 41.3731 89.522 41.4708C89.4079 41.5684 89.3317 41.7026 89.3066 41.8501C88.9831 43.6045 86.0507 65.2356 85.8135 67.8673C85.7968 68.0446 85.851 68.2214 85.9645 68.3594C86.0228 68.4275 86.0956 68.4819 86.1776 68.5189C86.2596 68.5559 86.3488 68.5745 86.4388 68.5733C88.5088 68.6375 90.6003 68.6589 92.6918 68.7017C92.8561 68.7021 93.0145 68.6404 93.1346 68.5291C93.2547 68.4178 93.3277 68.2653 93.3387 68.1026C93.4896 66.3696 96.4004 44.6957 96.8532 42.0212C96.8669 41.9266 96.8605 41.8301 96.8345 41.738C96.8085 41.6459 96.7635 41.5602 96.7023 41.4864C96.647 41.4148 96.5748 41.3579 96.4921 41.3206C96.4093 41.2833 96.3186 41.2667 96.228 41.2724ZM105.392 37.5495C103.818 48.7395 102.157 60.7853 100.648 72.8739C100.303 75.5055 98.341 77.5809 96.1848 77.5809H96.0986C91.2687 77.474 86.2879 77.3028 81.2424 77.0888C80.6791 77.0622 80.1295 76.9076 79.636 76.6368C79.1425 76.366 78.7183 75.9862 78.3962 75.5269C77.6416 74.5044 77.3169 73.2309 77.4906 71.9753C78.6981 61.2132 80.2074 49.9591 82.1049 37.5923C82.5361 34.8965 84.6492 32.7355 86.9563 32.6927C91.9156 32.5857 96.9611 32.5002 101.963 32.436C102.492 32.4354 103.014 32.5616 103.483 32.8037C103.952 33.0458 104.355 33.3968 104.659 33.8267C105.306 34.7895 105.586 36.116 105.392 37.5495ZM134.134 37.6779C132.797 48.0976 131.223 59.2448 129.196 72.8097C128.787 75.5269 126.717 77.6665 124.474 77.6879C119.644 77.7735 114.599 77.7949 109.639 77.7735C109.091 77.7646 108.552 77.626 108.069 77.3693C107.585 77.1125 107.17 76.745 106.858 76.2972C106.146 75.313 105.845 74.0292 106.039 72.5743C107.526 61.149 112.141 27.5363 112.874 22.166H116.604C117.142 22.1684 117.672 22.3024 118.146 22.5562C118.62 22.8099 119.023 23.1756 119.321 23.6209C120.032 24.6051 120.334 25.9531 120.14 27.3866C120.14 27.3866 119.73 30.4462 119.58 31.6443C119.566 31.739 119.572 31.8354 119.598 31.9275C119.624 32.0196 119.669 32.1053 119.73 32.1792C119.791 32.2522 119.866 32.3111 119.952 32.3518C120.038 32.3924 120.131 32.4139 120.226 32.4146C123.655 32.436 127.083 32.4574 130.533 32.5215C131.076 32.5327 131.608 32.6702 132.088 32.9229C132.567 33.1756 132.98 33.5365 133.293 33.9765C134.026 34.9393 134.328 36.2658 134.134 37.6779ZM125.164 41.251C125.164 41.251 120.679 41.2296 118.868 41.2296C118.709 41.2338 118.556 41.2943 118.437 41.4002C118.319 41.5061 118.242 41.6504 118.221 41.8073C118.07 42.9841 114.599 68.1454 114.599 68.1454C114.582 68.336 114.635 68.5262 114.75 68.6803C114.808 68.7552 114.883 68.8154 114.97 68.8563C115.056 68.8972 115.15 68.9175 115.246 68.9157C117.316 68.9157 119.407 68.8943 121.499 68.8943C121.657 68.8867 121.808 68.8251 121.926 68.7198C122.044 68.6146 122.121 68.4721 122.145 68.3166C122.383 66.7761 125.466 44.6101 125.789 41.9998C125.803 41.9052 125.797 41.8087 125.771 41.7166C125.745 41.6246 125.7 41.5388 125.638 41.465C125.58 41.3972 125.507 41.343 125.425 41.306C125.343 41.2691 125.254 41.2503 125.164 41.251Z" fill="#F47920"/>
<path d="M96.3142 9.43558C93.1573 10.2281 90.0594 11.2361 87.0425 12.4524C88.8056 13.2973 90.6289 14.0124 92.4977 14.592C93.9423 12.4952 95.2576 10.7407 96.3142 9.43558ZM143.794 12.6449C140.532 11.2978 137.174 10.1964 133.746 9.35C134.802 10.6551 136.225 12.538 137.842 14.8701C139.88 14.2775 141.869 13.5336 143.794 12.6449ZM136.225 15.3408C134.654 13.064 132.963 10.8714 131.158 8.77231C126.207 7.74557 121.166 7.20096 116.108 7.14624V15.0413C118.825 15.1054 121.304 15.9827 123.223 17.566C127.614 17.1987 131.964 16.4542 136.225 15.3408ZM94.1148 15.0841C98.5403 16.3213 103.074 17.138 107.656 17.5232C109.596 15.0199 112.982 15.0199 114.318 15.0199H114.534V7.14624C109.271 7.18336 104.025 7.75692 98.88 8.8579C97.8666 10.0347 96.1417 12.1742 94.1148 15.0841ZM105.737 25.1828C105.909 24.0061 106.146 22.38 106.297 21.0963C106.371 20.4478 106.515 19.8093 106.729 19.192C101.791 18.6999 97.1551 17.8227 93.0799 16.5818C91.134 19.4489 89.3489 22.4203 87.7325 25.4824C93.0367 25.3968 102.05 25.2256 105.737 25.1828ZM140.71 84.5132C138.123 84.5988 135.6 84.6843 133.228 84.7271C128.096 84.8127 122.21 84.9197 116.108 84.9411V87.7653C123.719 87.8295 130.943 88.8137 136.958 90.504C138.166 88.7281 139.438 86.7169 140.71 84.5132ZM124.776 19.1492C126.073 20.8744 126.877 22.9143 127.105 25.0545C128.463 25.0972 130.49 25.1614 132.689 25.2042C135.492 25.2898 138.877 25.3754 142.435 25.4824C140.865 22.5169 139.145 19.6319 137.282 16.8385C133.191 17.9755 129.005 18.7488 124.776 19.1492ZM144.246 25.5466C151.491 25.7605 159.167 26.0173 164.105 26.2954C159.232 21.1604 153.044 16.8171 145.885 13.565C143.637 14.7083 141.292 15.6534 138.877 16.3892C140.841 19.338 142.633 22.3955 144.246 25.5466ZM133.724 97.6501C136.985 96.842 140.184 95.8053 143.298 94.5478C141.458 93.691 139.555 92.9757 137.605 92.4082C136.118 94.5692 134.759 96.345 133.724 97.6501ZM85.5116 25.5038H85.9429C87.6199 22.2658 89.4771 19.1229 91.5058 16.0897C89.2582 15.3601 87.0793 14.4365 84.9941 13.3296C82.8402 14.2747 80.745 15.3464 78.7196 16.539C80.1302 16.9721 81.4115 17.7437 82.4498 18.7855C84.0885 20.4544 85.1666 22.8293 85.5116 25.5038ZM138.576 90.9747C140.883 91.6932 143.126 92.6021 145.281 93.6919C151.362 90.9961 156.795 87.53 161.302 83.4434C155.308 83.8071 148.774 84.1708 142.586 84.4276C141.249 86.8453 139.869 89.0277 138.576 90.9747ZM92.1743 84.6201C91.2255 84.5774 90.2768 84.556 89.3712 84.5132C90.6649 86.7597 91.9586 88.8137 93.1877 90.611C99.3113 88.8351 106.75 87.8081 114.534 87.7653V84.9411H111.903C104.659 84.9411 98.2116 84.8555 92.1743 84.6201ZM116.13 89.4342V99.8753C121.181 99.8218 126.214 99.2771 131.158 98.2492C132.085 97.1581 133.854 94.9757 135.988 91.9589C130.231 90.3756 123.353 89.4984 116.13 89.4342ZM87.4738 84.449C78.7412 84.1067 71.8413 83.7857 69.2539 83.6573C73.7388 87.6797 79.1077 91.0817 85.1235 93.7347C87.1866 92.6732 89.336 91.7857 91.549 91.0817C90.2552 89.1347 88.8537 86.9095 87.4738 84.449ZM87.1503 94.5906C90.1275 95.783 93.1818 96.7766 96.2926 97.5646C95.2792 96.3022 93.9855 94.612 92.5408 92.5152C90.698 93.0832 88.8969 93.7766 87.1503 94.5906ZM98.88 98.1636C104.025 99.2634 109.271 99.837 114.534 99.8753V89.4342C107.117 89.4984 100.044 90.4184 94.1795 92.0659C96.2495 94.9757 97.9744 97.0939 98.88 98.1636Z" fill="#00AB4E"/>
<path d="M115.332 2.4819C138.468 2.4819 158.801 12.1314 170.207 26.6163C171.306 26.6805 172.363 26.7233 173.398 26.766C161.798 10.7834 140.106 0 115.332 0C90.7294 0 69.1675 10.6337 57.5024 26.4237C58.6452 26.3809 59.7233 26.3381 60.672 26.2953C72.143 12.003 92.3466 2.4819 115.332 2.4819ZM115.332 104.497C93.7697 104.497 74.6658 96.1096 62.9145 83.2721C61.7286 83.1866 60.5858 83.1224 59.4646 83.0582C71.4962 97.4575 92.0447 107 115.332 107C138.748 107 159.404 97.3719 171.393 82.8014C170.293 82.887 169.15 82.9512 167.964 83.0368C156.235 96.024 137.023 104.497 115.332 104.497Z" fill="#00AB4E"/>
</g>
<defs>
<clipPath id="clip0_4001_624">
<rect width="159" height="107" fill="white" transform="translate(34)"/>
</clipPath>
</defs>
</svg>
