<svg width="226" height="40" viewBox="0 0 226 40" fill="none" xmlns="http://www.w3.org/2000/svg">
<g clip-path="url(#clip0_4001_636)">
<path d="M85.0305 10.1114H88.715L86.8818 4.43646L85.0305 10.1114ZM85.0501 0.709961H88.7543L94.1542 15.6239H90.4893L89.6225 12.9709H84.1048L83.2577 15.6239H79.6714L85.0501 0.709961Z" fill="#00997B"/>
<path d="M104.326 15.6239V3.81538H98.8475V15.6239H95.4771V0.709961H107.695V15.6239H104.326Z" fill="#00997B"/>
<path d="M113.786 3.79488H109.214V0.709961H121.767V3.79488H117.175V15.6239H113.786V3.79488Z" fill="#00997B"/>
<path d="M123.286 0.709961H134.243V3.79488H126.657V6.40848H133.829V9.5139H126.657V12.5185H134.243V15.6239H123.286V0.709961Z" fill="#00997B"/>
<path d="M139.86 8.40415H139.841V15.6239H136.472V0.709961H139.841V7.60178H139.86L144.67 0.709961H148.57L143.407 7.68375L148.788 15.6239H144.768L139.86 8.40415Z" fill="#00997B"/>
<path d="M150.819 0.709961H154.071V10.3778L160.14 0.709961H163.391V15.6239H160.14V5.95607L154.071 15.6239H150.819V0.709961Z" fill="#00997B"/>
<path d="M91.2202 24.5317H84.4597V36.3607H81.0908V21.4468H91.2202V24.5317Z" fill="#00997B"/>
<path d="M98.6891 33.7275C100.803 33.7275 102.532 32.0818 102.532 28.9149C102.532 25.748 100.799 24.0991 98.6891 24.0991C96.5795 24.0991 94.846 25.7464 94.846 28.9149C94.846 32.0833 96.5795 33.7275 98.6875 33.7275H98.6891ZM98.6875 36.6295C94.2933 36.6295 91.2793 33.5635 91.2793 28.9149C91.2793 24.2662 94.2994 21.2002 98.6875 21.2002C103.076 21.2002 106.097 24.2646 106.097 28.9149C106.097 33.5651 103.062 36.6295 98.6875 36.6295Z" fill="#00997B"/>
<path d="M111.324 24.4135V28.2393H113.551C115.126 28.2393 116.369 27.8688 116.369 26.3067C116.369 24.7445 115.126 24.4151 113.551 24.4151L111.324 24.4135ZM113.451 21.4515C117.157 21.4515 119.935 22.3973 119.935 26.3067C119.935 30.216 117.157 31.1934 113.451 31.1934H111.324V36.3575H107.953V21.4468L113.451 21.4515Z" fill="#00997B"/>
<path d="M132.607 31.9171C132.607 35.27 129.79 36.6273 127.207 36.6273C123.031 36.6273 121.139 34.3857 120.882 31.2582H124.193C124.344 32.9039 125.376 33.6653 126.892 33.6653C128.331 33.6653 129.041 32.967 129.041 31.7327C129.041 30.6623 128.311 30.0239 126.872 30.0239H125.178V27.4088H126.688C127.969 27.4088 128.896 26.8129 128.896 25.804C128.896 24.6107 127.929 24.0968 126.884 24.0968C125.447 24.0968 124.264 24.9402 124.205 26.422H120.902C121.217 23.4584 123.286 21.1963 127.011 21.1963C130.086 21.1963 132.233 22.7191 132.233 25.2491C132.233 26.8949 131.543 27.7382 130.341 28.416C131.839 29.034 132.606 29.9593 132.606 31.914" fill="#00997B"/>
<path d="M143.586 33.2538V24.5523H139.742L139.605 27.6183C139.466 30.1894 139.072 32.0321 138.186 33.2538H143.586ZM133.503 39.3433V33.2538H134.311C135.987 33.2538 136.183 30.7443 136.34 26.6709L136.538 21.4453H146.957V33.2538H148.828V39.3433H145.657V36.3608H136.674V39.3433H133.503Z" fill="#00997B"/>
<path d="M154.209 24.4135V28.2393H156.436C158.013 28.2393 159.254 27.8688 159.254 26.3067C159.254 24.7445 158.013 24.4151 156.436 24.4151L154.209 24.4135ZM156.338 21.4515C160.042 21.4515 162.82 22.3973 162.82 26.3067C162.82 30.216 160.042 31.1934 156.338 31.1934H154.209V36.3575H150.84V21.4468L156.338 21.4515Z" fill="#00997B"/>
<path d="M166.645 30.8467H170.33L168.498 25.1718L166.645 30.8467ZM166.665 21.4453H170.369L175.769 36.3608H172.104L171.237 33.7141H165.72L164.873 36.3687H161.288L166.665 21.4453Z" fill="#00997B"/>
<path d="M180.465 33.3993H183.618C185.057 33.3993 185.787 32.7687 185.787 31.7126C185.787 30.6564 185.057 30.0259 183.618 30.0259H180.465V33.3993ZM180.465 27.4091H183.442C184.624 27.4091 185.273 26.8117 185.273 25.8864C185.273 24.9611 184.624 24.4062 183.442 24.4062H180.465V27.4091ZM177.096 21.4426H183.322C186.457 21.4426 188.781 22.1835 188.781 25.311C188.781 26.6887 188.191 27.6976 187.087 28.4164C188.426 28.9114 189.352 29.9597 189.352 31.7709C189.352 35.1238 187.046 36.3581 183.578 36.3581H177.092L177.096 21.4426Z" fill="#00997B"/>
<path d="M60.805 11.5699V0.587402H47.5332V11.5699H37.0112V25.426H47.5332V36.4101H60.805V25.426H71.327V11.5699H60.805ZM49.1067 30.4987V23.7204H38.4427V13.2818H49.1067V6.50346L60.4969 18.5042L49.1067 30.4987Z" fill="#00997B"/>
</g>
<defs>
<clipPath id="clip0_4001_636">
<rect width="153" height="40" fill="white" transform="translate(37)"/>
</clipPath>
</defs>
</svg>
