<svg width="226" height="69" viewBox="0 0 226 69" fill="none" xmlns="http://www.w3.org/2000/svg">
<path d="M27 38.2617C29.9654 45.256 36.868 50.1624 44.9125 50.1624C41.9471 43.1651 35.0444 38.2617 27 38.2617Z" fill="#12B36A"/>
<path d="M44.9141 50.162C50.8235 50.162 55.9118 46.6321 58.2076 41.5579C52.2995 41.5579 47.2114 45.0878 44.9141 50.162Z" fill="#12B36A"/>
<path fill-rule="evenodd" clip-rule="evenodd" d="M44.9142 40.3812C52.9753 40.3812 59.5105 33.8143 59.5105 25.7105C59.5105 17.6099 52.9753 11.04 44.9142 11.04C36.8515 11.04 30.3179 17.6099 30.3179 25.7105C30.3179 33.8143 36.8515 40.3812 44.9142 40.3812ZM44.9142 33.0469C48.944 33.0469 52.2115 29.7626 52.2115 25.7108C52.2115 21.659 48.944 18.3763 44.9142 18.3763C40.8827 18.3763 37.6152 21.659 37.6152 25.7108C37.6152 29.7626 40.8827 33.0469 44.9142 33.0469Z" fill="#FEBE10"/>
<path d="M138.825 25.711H144.93V49.497H138.825V40.2335H128.164V49.497H122.059V25.711H128.164V34.477H138.825V25.711ZM147.806 31.611H155.407V49.497H161.513V31.611H169.022V25.711H147.806V31.611ZM198.627 44.3234V49.3795C197.586 49.903 196.286 50.1639 194.767 50.1639C191.596 50.1639 189.999 48.7767 189.359 46.5425L189.257 46.6921C187.411 49.0225 184.856 50.1639 181.542 50.1639C178.369 50.1639 175.671 48.9751 173.4 46.5485C171.176 44.1221 170.041 41.1247 170.041 37.6041C170.041 34.0863 171.176 31.1363 173.4 28.7098C175.671 26.2848 178.369 25.0457 181.542 25.0457C184.709 25.0457 187.183 26.0925 189.008 28.2245V25.7125H195.113V42.538C195.113 43.9755 195.764 44.7158 197.066 44.7158C197.674 44.7142 198.194 44.5844 198.627 44.3234ZM189.257 37.6024C189.257 35.6551 188.642 34.0375 187.364 32.7997C186.134 31.5163 184.571 30.8967 182.678 30.8967C180.785 30.8967 179.223 31.5148 177.992 32.7997C176.762 34.0375 176.146 35.6551 176.146 37.6024C176.146 39.5544 176.762 41.1721 177.992 42.4571C179.223 43.6932 180.785 44.3113 182.678 44.3113C184.571 44.3113 186.134 43.6932 187.364 42.4571C188.642 41.1721 189.257 39.5544 189.257 37.6024ZM71.7591 25.711L71.5769 34.648C71.5344 38.2663 71.4038 40.0534 70.883 42.1C70.4062 44.0625 69.4952 44.6165 68.0664 44.6165C67.588 44.6165 67.1553 44.5722 66.8076 44.441V49.497C67.2843 49.758 68.0663 49.8877 69.1065 49.8877C73.3989 49.758 75.4807 47.7221 76.5222 44.0609C77.2587 41.4453 77.3893 39.4399 77.5199 36.4336L77.6565 31.6093H85.2379V49.4955H91.3433V25.7094H71.7591V25.711ZM101.164 39.2096C101.822 43.269 105.024 44.5982 108.273 44.5982C110.426 44.5982 112.683 43.7527 114.071 42.4876L117.836 46.2953C115.587 48.7981 112.457 50.1639 108.178 50.1639C102.188 50.1639 94.9616 46.6097 94.9616 37.6041C94.9616 28.6 101.92 25.0457 107.83 25.0457C115.305 25.0457 118.398 28.5756 118.398 32.5327C118.4 39.002 110.218 41.9901 101.164 39.2096ZM111.77 33.2332C111.77 31.3881 109.954 30.564 107.92 30.564C104.811 30.564 102.118 31.8826 101.299 35.2767C107.633 37.1157 111.77 35.7437 111.77 33.2332Z" fill="#003C96"/>
</svg>
