<svg width="226" height="40" viewBox="0 0 226 40" fill="none" xmlns="http://www.w3.org/2000/svg">
<g clip-path="url(#clip0_4001_631)">
<path d="M120.792 33.2879V6.71191H137.495V12.8795H127.752V33.2879H120.792Z" fill="#E6000E"/>
<path d="M158.501 33.2879V22.8795H148.154V33.2879H141.194V6.71191H148.154V16.6282H158.501V6.71191H165.462V33.2879H158.501Z" fill="#E6000E"/>
<path d="M205.87 33.2879V12.8795H197.732V6.71191H221V12.8795H212.831V33.2879H205.87Z" fill="#E6000E"/>
<path d="M187.49 33.2879V18.136L176.403 33.2879H170.578V6.71191H177.549V21.6962L188.438 6.71191H194.45V33.2879H187.49Z" fill="#E6000E"/>
<path d="M80.78 33.2879V17.4868L73.8299 25.8323L66.8799 17.4868V33.2879H59.9194V6.71191H66.7861L73.8299 15.8533L80.8737 6.71191H87.7405V33.2879H80.78Z" fill="#E6000E"/>
<path d="M100.963 23.9371H107.434L104.194 15.5601L100.963 23.9371ZM111.06 33.2879L109.612 29.5601H98.7752L97.3373 33.2879H90.3247L101.078 6.71191H107.517L118.219 33.2879H111.06Z" fill="#E6000E"/>
<path d="M6 12.1079C6 8.88191 7.25026 5.84446 9.53198 3.55067C11.8137 1.25687 14.8352 0 18.0442 0H45.8624V6.15868H18.0442C16.4709 6.15868 14.9914 6.77664 13.8662 7.90783C12.741 9.03901 12.1263 10.5368 12.1263 12.1184L12.0846 22.4561C11.8033 25.2003 9.74036 27.4103 7.08356 27.8188L6 27.9759V12.1079Z" fill="#E6000E"/>
<path d="M6 40.0001V33.8414H33.8183C35.3915 33.8414 36.8814 33.213 37.9962 32.0923C39.1214 30.9611 39.7361 29.4738 39.7361 27.8922L39.7466 18.0886C39.7466 15.1664 41.9137 12.6317 44.7789 12.1918L45.8624 12.0242V27.8922C45.8624 31.1182 44.6017 34.1556 42.3304 36.4494C40.0487 38.7432 37.0273 40.0001 33.8183 40.0001H6Z" fill="#E6000E"/>
<path d="M29.5575 27.9969V20.0472L25.9317 24.3939L22.306 20.0472V27.9969H17.5029V12.3384H22.0559L25.9317 17.3763L29.8179 12.3384H34.3605V27.9969H29.5575Z" fill="#E6000E"/>
</g>
<defs>
<clipPath id="clip0_4001_631">
<rect width="215" height="40" fill="white" transform="translate(6)"/>
</clipPath>
</defs>
</svg>
