<svg width="226" height="27" viewBox="0 0 226 27" fill="none" xmlns="http://www.w3.org/2000/svg">
<g clip-path="url(#clip0_4001_643)">
<path d="M55.5088 21.3212H61.4495V5.83H69.3008V0.508057H55.5088V21.3212Z" fill="#8654CC"/>
<path d="M43.2858 4.81699C45.667 4.81699 47.0855 5.80938 47.4794 7.91044H38.6541C39.3356 5.94319 41.001 4.81699 43.2858 4.81699ZM43.2237 16.6811C40.3195 16.6811 38.5087 14.8699 38.3436 11.923H53.0753C53.0753 11.923 53.1668 10.8526 53.1668 9.75186C53.1668 3.50442 49.3197 0 43.2858 0C36.9119 0 32.478 4.48885 32.478 10.8828C32.478 17.3628 36.8498 21.823 43.2237 21.823C49.135 21.823 53.1064 18.5193 53.2289 13.6752H47.3225C46.9826 15.5804 45.5313 16.6811 43.2237 16.6811Z" fill="#8654CC"/>
<path d="M204.741 0.508057V5.83H210.899V21.3212H216.842V5.83H223V0.508057H204.741Z" fill="#8654CC"/>
<path d="M22.0412 0.508057L17.9538 13.2594L13.9759 0.508057H7.41736L4 21.3212H9.45044L11.5277 8.3739L15.5464 21.3212H20.2255L24.3865 8.14133L26.3836 21.3212H31.9256L28.5082 0.508057H22.0412Z" fill="#8654CC"/>
<path d="M78.0755 16.9789C76.5686 16.9789 75.8283 16.2653 75.8283 15.2267C75.8283 14.2455 76.3513 13.6227 77.979 13.175L83.119 11.7781V12.1635C83.1255 14.8381 80.9453 16.9789 78.0755 16.9789ZM80.2017 0C73.8589 0 70.2553 3.00265 70.4105 8.12389H76.5637C76.5931 5.95274 77.7355 4.91416 80.1968 4.91416C81.9504 4.91416 83.0585 5.62779 83.0585 6.69823C83.0585 7.38319 82.7823 7.65398 81.7037 7.94708L76.7484 9.25646C72.0089 10.5053 69.8843 12.4073 69.8843 15.5899C69.8843 19.3062 72.6871 21.8023 76.8121 21.8023C80.0154 21.8023 82.109 20.5534 83.1549 18.2039V21.326H88.8505V7.49469C88.8521 2.46903 85.5525 0 80.2017 0Z" fill="#8654CC"/>
<path d="M183.342 0.508057H176.783L172.163 8.23691H169.795V0.508057H163.853V21.3212H169.795V13.3518H172.129L177.092 21.3212H183.803L177.247 10.7059L183.342 0.508057Z" fill="#8654CC"/>
<path d="M128.113 16.9789C126.643 16.9789 125.897 16.2653 125.897 15.2267C125.897 14.2455 126.42 13.6497 128.053 13.2053L133.193 11.8083V12.1635C133.193 14.9894 131.003 16.9805 128.109 16.9805L128.113 16.9789ZM130.264 0C123.921 0 120.319 3.00265 120.473 8.12389H126.631C126.662 5.95274 127.805 4.91416 130.264 4.91416C132.023 4.91416 133.128 5.62779 133.128 6.69823C133.128 7.38319 132.85 7.65398 131.773 7.94708L126.816 9.25646C122.076 10.5053 119.952 12.4073 119.952 15.5899C119.952 19.3062 122.753 21.8023 126.88 21.8023C130.081 21.8023 132.175 20.5837 133.221 18.2039V21.326H138.916V7.49469C138.915 2.46903 135.621 0 130.264 0Z" fill="#8654CC"/>
<path d="M151.785 16.474C149.137 16.474 147.535 14.6899 147.535 10.9131C147.535 7.16655 149.17 5.32354 151.845 5.32354C154.37 5.32354 155.879 7.13788 155.879 10.9131C155.879 14.8381 154.431 16.474 151.783 16.474H151.785ZM153.445 0C150.598 0 148.474 1.39858 147.627 3.62867V0.506549H141.685V27H147.627V18.2628C148.506 20.4706 150.628 21.7959 153.445 21.7959C158.371 21.7959 161.667 18.1083 161.667 10.9131C161.667 3.71788 158.371 0 153.445 0Z" fill="#8654CC"/>
<path d="M108.712 0.508057L104.623 13.2594L100.645 0.508057H94.0868L90.6694 21.3212H96.1182L98.1971 8.3739L102.216 21.3212H106.895L111.056 8.14133L113.051 21.3212H118.593L115.178 0.508057H108.712Z" fill="#8654CC"/>
<path d="M193.533 4.81699C195.913 4.81699 197.333 5.80938 197.727 7.91044H188.902C189.583 5.94319 191.249 4.81699 193.533 4.81699ZM193.471 16.6811C190.596 16.6811 188.759 14.8699 188.591 11.923H203.323C203.323 11.923 203.414 10.8526 203.414 9.75186C203.414 3.50442 199.567 0 193.533 0C187.159 0 182.726 4.48885 182.726 10.8828C182.726 17.3644 187.097 21.8246 193.471 21.8246C199.383 21.8246 203.354 18.5209 203.477 13.6768H197.565C197.227 15.5804 195.781 16.6811 193.471 16.6811Z" fill="#8654CC"/>
</g>
<defs>
<clipPath id="clip0_4001_643">
<rect width="219" height="27" fill="white" transform="translate(4)"/>
</clipPath>
</defs>
</svg>
