<svg width="226" height="62" viewBox="0 0 226 62" fill="none" xmlns="http://www.w3.org/2000/svg">
<rect width="207" height="62" transform="translate(10)" fill="#014171"/>
<path fill-rule="evenodd" clip-rule="evenodd" d="M50.465 43L57.0088 27.9V43H66.8914V19H53.5366L47.1262 31L40.8495 19H27.4946V43H37.3772V27.9L44.0546 43H50.465ZM156.369 33.7C159.44 33.5 162.512 31.9 162.512 29.3V23.9V23.4C162.111 20.7 159.44 19.2 156.369 19H130.995V43H140.877V33.7H144.75L151.16 43H162.512L154.9 33.7H156.369ZM153.698 27.4C153.698 27.9 153.564 28.4 152.362 28.4H140.877V23.7H152.362C153.698 23.7 153.698 24.4 153.698 24.8V27.4ZM96.5391 23.7V19H70.8979V43H96.8062V38.3H80.7804V33.2H96.5391V28.5H80.7804V23.7H96.5391ZM108.826 23.7H99.4772V19H128.057V23.7H118.708V43H108.826V23.7ZM193.629 19H172.662C169.457 19.2 166.919 20.4 166.519 23.1V38.6C166.919 41.3 169.59 42.8 172.662 42.9H193.629C196.834 42.7 199.371 41.3 199.772 38.6V23.1C199.371 20.4 196.7 19.2 193.629 19ZM189.889 37.2C189.889 37.5 189.756 38.2 188.554 38.3H177.87C176.668 38.2 176.401 37.5 176.401 37.2V24.7C176.401 24.4 176.668 23.9 177.87 23.8H188.554C189.756 23.9 189.889 24.5 189.889 24.7V37.2Z" fill="#FFE500"/>
</svg>
