<svg width="226" height="75" viewBox="0 0 226 75" fill="none" xmlns="http://www.w3.org/2000/svg">
<g clip-path="url(#clip0_4001_625)">
<path fill-rule="evenodd" clip-rule="evenodd" d="M31.7516 37.3803C44.6552 18.6645 91.5741 3.4248 136.557 3.4248C140.372 3.4248 144.051 3.53325 147.592 3.75015C149.616 3.57175 151.652 3.57175 153.676 3.75015C188.342 7.1748 206.472 20.8734 195.248 37.2604C182.225 56.2159 134.98 71.507 89.6549 71.507L86.2276 71.3871H85.0624L86.1248 71.2673C43.4213 70.531 19.1736 55.6166 31.7516 37.3803ZM84.4455 71.4043H85.1309H84.771H84.4455ZM82.9717 71.4043H84.4455C83.9554 71.3624 83.4635 71.3452 82.9717 71.3529V71.4043Z" fill="white"/>
<mask id="mask0_4001_625" style="mask-type:luminance" maskUnits="userSpaceOnUse" x="23" y="0" width="181" height="76">
<path d="M23.2866 0H203.217V75.3425H23.2866V0Z" fill="white"/>
<path fill-rule="evenodd" clip-rule="evenodd" d="M31.7521 37.3803C44.6556 18.6645 91.5746 3.4248 136.557 3.4248C140.373 3.4248 144.051 3.53325 147.593 3.75015C149.617 3.57175 151.652 3.57175 153.676 3.75015C188.343 7.1748 206.473 20.8734 195.249 37.2604C182.225 56.2159 134.981 71.507 89.6554 71.507L86.2281 71.3871H85.0628L86.1253 71.2673C43.4218 70.531 19.1741 55.6166 31.7521 37.3803ZM84.4459 71.4043H85.1314H84.7715H84.4459ZM82.9722 71.4043H84.4459C83.9559 71.3624 83.464 71.3452 82.9722 71.3529V71.4043Z" fill="black"/>
</mask>
<g mask="url(#mask0_4001_625)">
<path d="M147.593 3.75L147.387 7.17466H147.884L147.593 3.75ZM89.6554 71.524L89.4669 74.9486H89.6554V71.524ZM86.1253 71.2671L86.5366 74.6918L86.1939 67.8425L86.1253 71.2671ZM84.703 71.4041L84.0347 74.8288H84.5145H84.9943L84.703 71.4041ZM82.9037 71.2842V67.8596L82.7323 74.7089L82.9037 71.2842ZM136.557 0C114.338 0.0325282 92.2537 3.44491 71.0626 10.1199C62.19 12.9029 53.6416 16.6285 45.5639 21.2329C38.3667 25.4281 32.5404 30.1884 28.9246 35.4452L34.5624 39.3836C38.4519 34.3293 43.3696 30.1565 48.9911 27.1404C56.6553 22.7821 64.7677 19.2629 73.1875 16.6438C93.6895 10.1783 115.058 6.87548 136.557 6.84932V0ZM147.799 0.325342C144.2 0.119863 140.447 0 136.557 0V6.84932C140.316 6.84932 143.926 6.95776 147.387 7.17466L147.799 0.325342ZM153.968 0.325342C151.75 0.120139 149.519 0.120139 147.302 0.325342L147.884 7.17466C149.709 7.01378 151.544 7.01378 153.368 7.17466L153.968 0.325342ZM198.076 39.1952C199.597 37.1795 200.703 34.8826 201.329 32.4372C201.956 29.9918 202.091 27.4465 201.726 24.9486C200.644 20.1108 197.813 15.8426 193.775 12.9623C185.55 6.45548 171.498 2.10616 153.985 0.393836L153.316 7.24315C170.453 8.95548 182.842 13.0822 189.525 18.3733C192.256 20.2332 194.198 23.0403 194.975 26.25C195.179 27.8711 195.056 29.5166 194.615 31.0898C194.174 32.663 193.422 34.1322 192.404 35.411L198.076 39.1952ZM89.6554 75C112.042 74.9519 134.29 71.4873 155.63 64.726C164.573 61.9133 173.19 58.1534 181.334 53.5103C187.871 49.9919 193.58 45.1168 198.076 39.2123L192.438 35.3425C188.511 40.434 183.554 44.6408 177.89 47.6884C170.168 52.0596 161.998 55.5901 153.522 58.2192C132.863 64.7586 111.326 68.1077 89.6554 68.1507V75ZM86.2281 74.8801L89.484 75L89.8439 68.1507L86.4166 68.048L86.2281 74.8801ZM85.0629 74.8801H86.2281L86.3995 68.0308H85.2514L85.0629 74.8801ZM85.7997 68.0308L84.8401 68.1336L85.4741 74.9829L86.6223 74.863L85.7997 68.0308ZM28.9246 35.4452C25.3432 40.6336 24.1094 46.0445 25.6516 51.2329C27.1939 56.4212 31.0838 60.4966 36.4132 63.8014C47.0033 70.3938 64.4994 74.3493 86.1082 74.7432L86.2453 67.8938C65.0992 67.5 49.0768 63.613 39.9775 57.9795C35.4535 55.1884 33.0202 52.1747 32.1634 49.2979C31.3066 46.4212 31.8549 43.2534 34.5624 39.3836L28.9246 35.4452ZM85.2342 67.9795H84.5488L84.326 74.8288H85.0457L85.2342 67.9795ZM85.2342 74.8288H85.457L84.823 67.9795H84.6516L85.2342 74.8288ZM85.0629 74.8288H85.2342L84.6516 67.9795H84.4974L85.0629 74.8288ZM84.0347 74.8288L85.3713 68.0993L84.7887 68.0137L84.0347 74.8288ZM82.8009 74.8288H84.326L84.5488 67.9795H83.1265L82.8009 74.8288ZM84.8572 67.9795C84.2294 67.9432 83.6001 67.9432 82.9723 67.9795V74.8288C83.3261 74.8072 83.6809 74.8072 84.0347 74.8288L84.8572 67.9795Z" fill="white"/>
</g>
<mask id="mask1_4001_625" style="mask-type:luminance" maskUnits="userSpaceOnUse" x="28" y="3" width="171" height="69">
<path d="M28.4272 3.08203H198.573V71.5752H28.4272V3.08203Z" fill="white"/>
</mask>
<g mask="url(#mask1_4001_625)">
<path d="M31.7519 37.3798C44.6555 18.664 91.5744 3.42432 136.557 3.42432C181.54 3.42432 207.381 18.664 194.46 37.3798C181.54 56.0956 134.672 71.3524 89.758 71.3524C44.844 71.3524 18.8312 56.1127 31.7519 37.3798Z" fill="#0080C5"/>
<path d="M82.9722 71.3527C83.5744 71.3329 84.1772 71.373 84.7715 71.4725C95.7729 70.565 106.654 64.6232 112.875 47.4999L112.995 47.2773C113.957 47.1665 114.905 46.9542 115.822 46.6438C118.295 46.0876 120.592 44.931 122.511 43.2765C124.43 41.6219 125.911 39.5202 126.824 37.1575C129.308 30.3081 124.545 27.791 120.466 27.2259H120.243L120.363 26.9006C128.52 2.51705 148.57 3.30472 153.676 3.76705C188.343 7.1917 206.473 20.8903 195.249 37.2773C182.225 56.2328 134.981 71.5239 89.6553 71.5239C87.4961 71.4725 85.2341 71.4725 82.9722 71.3527Z" fill="#7BC043"/>
<path d="M115.599 43.5956C117.519 42.688 119.026 39.8627 119.9 37.4997L120.02 37.1572C120.929 34.5716 121.837 30.9586 120.02 30.3935C119.764 30.2979 119.501 30.2234 119.232 30.1709L118.324 32.5339L116.388 37.6709L114.674 42.2942L114.108 43.8866C114.423 43.8636 114.731 43.7823 115.017 43.6469C115.212 43.682 115.413 43.6642 115.599 43.5956Z" fill="#7BC043"/>
<path d="M112.652 30.1709C109.362 30.1709 107.323 35.462 106.757 37.1572C105.626 40.4278 105.506 43.4757 107.665 44.0066L112.652 30.1709ZM115.599 43.5956C117.519 42.6881 119.027 39.8627 119.9 37.4997L120.02 37.1572C120.929 34.5716 121.837 30.9586 120.02 30.3935C119.764 30.2979 119.501 30.2235 119.232 30.1709L118.324 32.534L116.388 37.6709L114.674 42.2942L114.108 43.8867C114.423 43.8636 114.731 43.7823 115.017 43.647C115.212 43.682 115.413 43.6643 115.599 43.5956ZM113.783 27.123C120.02 9.86272 130.919 3.98943 141.886 3.15039C146.079 3.27596 150.043 3.50427 153.779 3.83532C148.638 3.37299 128.623 2.58532 120.466 26.9689L120.363 27.2942H120.586C124.784 27.8593 129.531 30.3422 126.926 37.2257C126.034 39.5978 124.561 41.7088 122.642 43.3659C120.724 45.0229 118.42 46.1733 115.942 46.712C114.914 46.9346 113.903 47.1572 113.097 47.2771L112.995 47.4997C106.757 64.76 95.9955 70.6333 84.8912 71.4723C80.6871 71.3582 76.7229 71.1298 72.9987 70.7874C78.1395 71.2326 98.1546 71.9175 106.311 47.6538L106.414 47.3113C102.233 46.7463 97.3492 44.1607 99.9539 37.1572C102.559 30.1538 109.139 27.7908 113.783 27.2257V27.123ZM60.8662 47.0887C57.816 45.8559 56.2223 43.0305 58.1416 37.6196C59.083 34.724 60.8709 32.1766 63.2746 30.3058C65.6783 28.4349 68.5877 27.3263 71.6278 27.123C76.6144 27.123 79.9046 29.9483 77.1799 37.2771C77.0826 37.6342 76.9324 37.9747 76.7344 38.2874L76.0489 39.9997H64.2763C63.2482 43.1675 64.0364 45.1367 68.6803 44.5203C67.8407 46.5237 63.4709 47.9449 60.8662 47.0887ZM71.2679 35.9586C72.9815 31.8661 71.9705 30.8216 70.6167 30.8216C69.263 30.8216 67.1895 31.6093 65.6301 35.5477L65.4073 36.1127L71.2679 35.9586ZM166.442 39.3833C168.156 35.4278 169.51 32.534 171.429 28.5442L177.101 27.534C177.556 31.6156 177.67 35.7279 177.444 39.8285C180.123 35.8649 183.078 32.0942 186.286 28.5442L192.404 27.534C191.598 31.147 189.336 38.6983 187.074 45.7018C184.486 47.664 181.76 49.4379 178.918 51.01C180.837 45.1367 183.219 38.0305 183.904 36.2155L177.889 44.6915H173.383V43.784L173.503 36.2155L173.383 36.5579C173.057 37.4655 172.029 40.1709 171.669 41.0785L170.658 43.6983L169.407 46.6435H168.944C166.442 46.6435 164.986 44.0408 165.774 40.7703C165.868 40.3032 166.018 39.849 166.22 39.4175L166.442 39.3833ZM36.7384 41.0956C36.7384 40.873 36.8412 40.6504 36.8412 40.4107L41.4852 27.397C44.1816 25.5228 46.9853 23.8076 49.8819 22.26L45.118 35.9586H49.9847L52.5894 28.7326L59.6153 27.397L52.5894 46.9175H46.0263L48.511 39.7086H43.85L41.1424 46.9689H40.0114C37.5267 46.9689 36.053 44.2634 36.7384 41.0956ZM95.9955 41.3182C94.7687 43.1213 93.1289 44.6057 91.2125 45.6481C89.296 46.6905 87.1583 47.2607 84.9769 47.3113C80.213 47.3113 76.4088 44.1607 78.9621 37.1572C79.9283 34.3363 81.7212 31.8709 84.1079 30.0814C86.4947 28.292 89.3648 27.2612 92.3455 27.123C96.9894 27.123 100.914 30.2737 98.3431 37.1572C97.707 38.6272 96.9202 40.0273 95.9955 41.3353V41.3182ZM85.5766 37.0374C84.4285 40.0853 83.5374 43.8011 86.0222 43.8011C88.5069 43.8011 90.4433 40.1881 91.4715 37.3627C92.1898 35.6514 92.5344 33.8067 92.4825 31.9518C92.431 31.547 92.2227 31.1785 91.9023 30.9256C91.5819 30.6727 91.1749 30.5554 90.7689 30.599C88.4041 30.6161 86.5877 34.2463 85.5766 37.0545V37.0374ZM136.677 43.5785L138.836 37.8251H138.493C138.151 37.8251 137.688 37.7052 137.465 37.7052C136.554 37.6726 135.659 37.9446 134.92 38.4781C134.181 39.0116 133.642 39.776 133.387 40.6504C132.598 43.236 133.849 43.6812 134.758 43.6812C135.666 43.6812 136.677 43.5956 136.677 43.5956V43.5785ZM140.104 34.3319C141.235 31.1641 139.761 30.599 138.39 30.599C136.468 30.5824 134.556 30.8892 132.736 31.5066L133.061 28.0819C135.424 27.435 137.86 27.0955 140.31 27.0716C144.628 27.0716 148.484 28.3045 145.982 35.0853L141.886 46.2326C138.942 46.8464 135.948 47.1903 132.941 47.26C129.514 47.26 124.664 46.4723 126.824 40.599C128.863 35.1367 134.415 34.2463 137.585 34.2463C138.192 34.2257 138.8 34.2601 139.402 34.349H140.07L140.104 34.3319ZM152.802 43.6812C153.145 43.6812 153.368 43.8011 153.71 43.8011C155.629 43.8011 157.789 41.0956 159.04 37.3627C159.142 37.1401 159.142 36.9175 159.262 36.6949C160.736 31.849 159.142 30.7189 157.891 30.7189H156.315L155.749 32.4312L152.322 41.5751L151.997 42.3627L151.654 43.2703C152.012 43.4461 152.384 43.5894 152.768 43.6983L152.802 43.6812ZM153.487 47.1915H152.905C152.059 47.155 151.222 46.9993 150.42 46.7292L148.158 52.8251L148.038 53.0476H146.907C144.422 53.0476 142.949 50.462 143.737 47.1915C143.857 46.849 143.857 46.6264 143.96 46.284L144.08 46.0613L150.54 28.3387C153.335 27.5945 156.215 27.2147 159.108 27.2086C163.992 27.2086 168.396 29.8113 165.688 37.26C165.14 38.6749 164.458 40.0339 163.649 41.3182C162.59 43.0694 161.108 44.5265 159.338 45.5558C157.569 46.585 155.569 47.1534 153.522 47.2086L153.487 47.1915Z" fill="white"/>
</g>
</g>
<defs>
<clipPath id="clip0_4001_625">
<rect width="177" height="75" fill="white" transform="translate(25)"/>
</clipPath>
</defs>
</svg>
