<svg width="226" height="61" viewBox="0 0 226 61" fill="none" xmlns="http://www.w3.org/2000/svg">
<mask id="mask0_4001_635" style="mask-type:luminance" maskUnits="userSpaceOnUse" x="20" y="10" width="187" height="40">
<path d="M206.73 10H20V50H206.73V10Z" fill="white"/>
</mask>
<g mask="url(#mask0_4001_635)">
<path d="M170.42 18.3001C170.33 17.7001 170.21 17.6201 170.03 17.6201H151.23C148.32 17.6201 146.06 17.9701 145.97 18.4201L140.56 48.5601C140.56 48.7301 140.73 48.8601 140.94 48.9301C142.569 49.3625 144.257 49.5346 145.94 49.4401H164.23C164.4 49.4401 164.55 49.2801 164.68 49.0801C165.227 48.0271 165.586 46.8866 165.74 45.7101C165.981 44.6277 166.055 43.5149 165.96 42.4101C165.86 41.7801 165.74 41.6901 165.54 41.6901H152.37L153.26 36.7501H164.05C164.21 36.7501 164.36 36.6001 164.48 36.4101C164.992 35.4042 165.33 34.3189 165.48 33.2001C165.715 32.1744 165.782 31.1174 165.68 30.0701C165.59 29.4701 165.48 29.3901 165.29 29.3901H154.58L155.38 24.9801H168.77C168.864 24.9642 168.953 24.9246 169.029 24.8652C169.104 24.8058 169.163 24.7284 169.2 24.6401C169.722 23.6383 170.061 22.5512 170.2 21.4301C170.434 20.4043 170.505 19.348 170.41 18.3001" fill="#FF0000"/>
<path d="M125.19 48.5001C125.27 48.7001 125.3 48.7701 125.62 48.9101C127.478 49.3382 129.385 49.5197 131.29 49.4501C133.367 49.5525 135.449 49.3776 137.48 48.9301C137.77 48.8201 137.97 48.7301 137.87 48.4501L130.04 31.3501L141.86 18.6401C142.05 18.4201 141.98 18.3101 141.8 18.2001C141.15 17.8101 138.91 17.5901 136.34 17.5901C134.634 17.5108 132.926 17.6826 131.27 18.1001C131.077 18.1786 130.906 18.302 130.77 18.4601L120.27 29.7101L122.27 18.4801C122.27 18.2301 122 18.1401 121.75 18.0501C120.092 17.6714 118.389 17.52 116.69 17.6001C115.169 17.5603 113.65 17.7183 112.17 18.0701C111.94 18.1601 111.74 18.2501 111.69 18.5001L106.34 48.5001C106.34 48.7501 106.4 48.8201 106.58 48.9001C108.169 49.3514 109.82 49.5439 111.47 49.4701C113.181 49.5574 114.894 49.3786 116.55 48.9401C116.71 48.8601 116.84 48.8101 116.89 48.6301L119.43 34.4201L125.19 48.5001Z" fill="#FF0000"/>
<path d="M206.2 18.0499C204.542 17.6712 202.839 17.5198 201.14 17.5999C199.619 17.561 198.1 17.719 196.62 18.0699C196.482 18.1155 196.356 18.1906 196.25 18.2899L183.25 34.3499L183.55 33.1299L186.2 18.4999C186.2 18.2499 185.93 18.1599 185.68 18.0699C184.022 17.6912 182.319 17.5398 180.62 17.6199C179.103 17.5799 177.586 17.7379 176.11 18.0899C175.88 18.1799 175.67 18.2699 175.63 18.5199L170.24 48.5199C170.24 48.7699 170.3 48.8399 170.48 48.9199C172.069 49.3704 173.72 49.5629 175.37 49.4899C177.081 49.578 178.794 49.3992 180.45 48.9599C180.551 48.9225 180.643 48.8646 180.72 48.7899L193.65 32.8899L193.35 34.0799L190.76 48.4999C190.71 48.7499 190.82 48.8199 191 48.8999C192.589 49.3513 194.24 49.5437 195.89 49.4699C197.601 49.5572 199.314 49.3784 200.97 48.9399C201.13 48.8599 201.26 48.8099 201.31 48.6299L206.72 18.4999C206.72 18.2499 206.45 18.1599 206.2 18.0699" fill="#FF0000"/>
<path d="M194.14 9.99999C193.181 9.97837 192.225 10.0963 191.3 10.35C191.03 10.44 190.75 10.59 190.7 10.78L188.7 20.21C188.7 20.29 188.7 20.34 188.83 20.41C189.26 20.5914 189.724 20.6768 190.19 20.66C190.652 20.6766 191.114 20.6226 191.56 20.5C191.729 20.4592 191.875 20.3554 191.97 20.21L197.53 11.05C197.572 10.9708 197.583 10.8787 197.561 10.7917C197.539 10.7048 197.485 10.6293 197.41 10.58C196.388 10.121 195.268 9.92176 194.15 9.99999" fill="#FF0000"/>
<path d="M109.13 9.99999C108.171 9.97837 107.215 10.0963 106.29 10.35C106.03 10.44 105.75 10.59 105.69 10.78L103.69 20.21C103.69 20.29 103.69 20.34 103.82 20.41C104.25 20.5902 104.714 20.6755 105.18 20.66C105.639 20.6756 106.097 20.6216 106.54 20.5C106.624 20.4813 106.704 20.446 106.774 20.3962C106.844 20.3464 106.904 20.2831 106.95 20.21L112.51 11.05C112.552 10.9708 112.563 10.8787 112.541 10.7917C112.519 10.7048 112.465 10.6293 112.39 10.58C111.368 10.121 110.248 9.92176 109.13 9.99999Z" fill="#FF0000"/>
<path d="M103.39 29.1401C103.83 42.1401 93.2702 50.0001 82.9902 50.0001C74.4202 50.0001 69.0602 45.5901 68.8002 37.7001C68.3902 25.6101 77.3402 16.5701 89.1502 16.5701C98.8402 16.5701 103.15 22.3001 103.39 29.1401ZM79.4902 36.5901C79.5902 39.5901 80.8002 42.2401 84.4902 42.2401C89.6502 42.2401 93.0002 36.3701 92.7902 30.1101C92.6802 26.9301 91.2502 24.3301 87.6602 24.3301C81.6602 24.3301 79.3802 31.7401 79.5402 36.5901" fill="#FF0000"/>
<path d="M35.6401 49.75C34.6401 49.8601 33.6401 49.9501 32.6401 50C32.6401 50 19.8801 44.43 20.0401 32.46C20.1601 23.17 24.4801 20.46 24.4801 20.46C26.6043 21.4143 28.5334 22.7536 30.1701 24.41C31.4898 25.879 32.5819 27.5374 33.4101 29.33C34.5482 24.7209 37.1306 20.5966 40.7801 17.56C49.8801 9.3201 59.7201 10.01 59.7201 10.01C61.1117 13.5883 61.8369 17.3908 61.8601 21.23C62.0201 36.36 52.8601 47.28 38.5601 49.37C37.5601 49.51 36.6401 49.64 35.6701 49.75" fill="#FF0000"/>
<path d="M34.6503 49.1201C38.2773 48.6528 41.759 47.4013 44.8536 45.4527C47.9482 43.5041 50.5814 40.905 52.5702 37.8361C54.5591 34.7672 55.8558 31.3021 56.3705 27.6815C56.8851 24.0609 56.6052 20.3716 55.5503 16.8701C51.0392 17.0762 46.667 18.4946 42.894 20.9759C39.121 23.4572 36.0866 26.9097 34.1103 30.9701C33.3696 32.6889 32.7579 34.4605 32.2803 36.2701C32.2695 36.3381 32.2528 36.4051 32.2303 36.4701C32.0803 36.9301 31.9903 37.0801 31.9403 37.0501C31.127 41.0925 31.3263 45.2734 32.5203 49.2201C33.2315 49.224 33.9425 49.1906 34.6503 49.1201Z" fill="url(#paint0_linear_4001_635)"/>
<path d="M34.6513 49.1201C38.2783 48.6528 41.76 47.4013 44.8546 45.4527C47.9492 43.5041 50.5824 40.905 52.5712 37.8361C54.5601 34.7672 55.8568 31.3021 56.3715 27.6815C56.8861 24.0609 56.6062 20.3716 55.5513 16.8701C51.0402 17.0762 46.668 18.4946 42.895 20.9759C39.122 23.4572 36.0876 26.9097 34.1113 30.9701C33.3706 32.6889 32.7589 34.4605 32.2813 36.2701C32.2705 36.3381 32.2538 36.4051 32.2313 36.4701C32.0813 36.9301 31.9913 37.0801 31.9413 37.0501C31.128 41.0925 31.3273 45.2734 32.5213 49.2201C33.2325 49.224 33.9435 49.1906 34.6513 49.1201Z" fill="url(#paint1_linear_4001_635)"/>
<path d="M32.5303 49.22C31.3363 45.2732 31.1371 41.0924 31.9503 37.05C31.9076 36.256 31.9647 35.4598 32.1203 34.68C32.2803 33.61 32.4503 32.68 32.6503 31.68C30.8479 29.0609 28.4169 26.936 25.5803 25.5C24.3096 27.4734 23.4792 29.6975 23.1457 32.0208C22.8122 34.3441 22.9834 36.7121 23.6478 38.9632C24.3121 41.2144 25.4539 43.2958 26.9954 45.0658C28.5369 46.8358 30.4418 48.2527 32.5803 49.22H32.5303Z" fill="url(#paint2_linear_4001_635)"/>
</g>
<defs>
<linearGradient id="paint0_linear_4001_635" x1="45.2954" y1="31.4455" x2="50.0201" y2="50.9307" gradientUnits="userSpaceOnUse">
<stop stop-color="#00A03A"/>
<stop offset="0.25" stop-color="#30AA31"/>
<stop offset="0.78" stop-color="#93C01F"/>
<stop offset="1" stop-color="#93C01F"/>
</linearGradient>
<linearGradient id="paint1_linear_4001_635" x1="45.2964" y1="31.4455" x2="50.0211" y2="50.9307" gradientUnits="userSpaceOnUse">
<stop stop-color="#00A03A"/>
<stop offset="0.25" stop-color="#30AA31"/>
<stop offset="0.78" stop-color="#93C01F"/>
<stop offset="1" stop-color="#93C01F"/>
</linearGradient>
<linearGradient id="paint2_linear_4001_635" x1="26.4425" y1="28.5866" x2="32.2025" y2="49.6272" gradientUnits="userSpaceOnUse">
<stop stop-color="#00A03A"/>
<stop offset="0.25" stop-color="#30AA31"/>
<stop offset="0.78" stop-color="#93C01F"/>
<stop offset="1" stop-color="#93C01F"/>
</linearGradient>
</defs>
</svg>
