<svg width="226" height="60" viewBox="0 0 226 60" fill="none" xmlns="http://www.w3.org/2000/svg">
<g clip-path="url(#clip0_4001_638)">
<mask id="mask0_4001_638" style="mask-type:luminance" maskUnits="userSpaceOnUse" x="12" y="0" width="202" height="60">
<path d="M214 0H12V60H214V0Z" fill="white"/>
</mask>
<g mask="url(#mask0_4001_638)">
<path d="M214 53.0787C214 54.4817 212.883 55.604 211.487 55.604H166.49C165.094 55.604 163.977 54.4817 163.977 53.0787V7.52925C163.977 6.12627 165.094 5.00391 166.49 5.00391H211.464C212.86 5.00391 213.976 6.12627 213.976 7.52925L214 53.0787Z" fill="#F47524"/>
<path d="M170.608 19.7349H181.218C183.521 19.7349 185.266 20.2727 186.406 21.3717C187.546 22.4706 188.127 24.0139 188.127 26.0248C188.127 28.0825 187.499 29.6959 186.243 30.865C184.987 32.0342 183.079 32.6187 180.496 32.6187H177.006V40.1714H170.608V19.7349ZM177.006 28.48H178.589C179.821 28.48 180.706 28.2696 181.194 27.8487C181.683 27.4512 181.939 26.8666 181.939 26.2353C181.962 25.6273 181.729 25.0194 181.287 24.5985C180.846 24.1542 180.031 23.9204 178.845 23.9204H177.006V28.48ZM189.524 19.7349H196.457L199.319 28.1526L202.134 19.7349H208.626L201.855 35.5182C201.436 36.5003 200.947 37.4589 200.412 38.3709C199.947 39.049 199.319 39.5868 198.575 39.9141C197.76 40.3116 196.643 40.5221 195.224 40.5221C194.479 40.5221 193.177 40.4052 191.338 40.1947V35.9859C192.432 36.1028 193.2 36.1495 193.712 36.1495C195.178 36.1495 196.085 35.6118 196.411 34.5127L189.524 19.7349Z" fill="white"/>
<path d="M143.084 50.8807V35.1909H126.611V39.7271C126.611 43.8659 126.053 47.5837 124.913 50.8573H122.888V59.9999H127.774V55.5572H140.315V59.9999H145.201V50.8573H143.084V50.8807ZM137.011 50.8807H130.753C131.683 46.7653 132.125 43.2813 132.125 40.4754V40.2182H137.011V50.8807Z" fill="#0F87C9"/>
<path d="M116.048 30.187C115.885 31.3094 115.304 32.3148 114.419 33.0163C112.511 34.4427 109.906 34.4427 107.998 33.0163C107.113 32.3382 106.532 31.3328 106.369 30.2104H108.672C109.045 31.3795 109.882 31.9407 111.139 31.9407C112.488 31.9407 113.349 31.3562 113.721 30.2104L116.048 30.187Z" fill="#0F87C9"/>
<path d="M120.492 35.1909V55.5806H114.791V44.3803L107.486 55.5806H101.716V35.1909H107.463V46.4613L114.815 35.1909H120.492Z" fill="#0F87C9"/>
<path d="M81.8462 35.1909H98.1095V39.5401H87.9422V42.7903H97.3651V46.9524H87.9422V50.9508H98.4122V55.5806H81.8462V35.1909Z" fill="#0F87C9"/>
<path d="M77.0535 36.8276C75.9599 35.7521 74.308 35.1909 72.0977 35.1909H62V55.5806H68.0959V48.028H71.423C73.8659 48.028 75.704 47.4434 76.8906 46.2977C78.0772 45.1519 78.6821 43.5385 78.6821 41.4575C78.6821 39.4466 78.147 37.9033 77.0535 36.8276ZM72.0744 43.2579C71.6091 43.6788 70.7715 43.8893 69.5849 43.8893H68.0959V39.3296H69.8409C70.9809 39.3296 71.772 39.5635 72.1675 40.0077C72.5863 40.452 72.819 41.0366 72.7957 41.6445C72.7957 42.2525 72.5397 42.8604 72.0744 43.2579Z" fill="#0F87C9"/>
<path d="M40.8037 35.1909H59.3006V40.2182H53.0884V55.5806H47.0159V40.2182H40.8037V35.1909Z" fill="#0F87C9"/>
<path d="M124.656 4.98047H130.729V12.0888H137.337V4.98047H143.432V25.3H137.337V17.0693H130.729V25.3H124.656V4.98047Z" fill="#0F87C9"/>
<path d="M116.141 0C116.001 1.12237 115.397 2.12783 114.512 2.80592C113.605 3.53079 112.465 3.92829 111.302 3.88153C110.138 3.90491 108.998 3.53079 108.091 2.80592C107.206 2.12783 106.625 1.12237 106.485 0H108.789C109.161 1.14575 109.975 1.73032 111.255 1.73032C112.604 1.73032 113.465 1.14575 113.838 0H116.141Z" fill="#0F87C9"/>
<path d="M120.585 4.98047V25.3H114.884V14.1465L107.602 25.3H101.855V4.98047H107.579V16.2276L114.931 4.98047H120.585Z" fill="#0F87C9"/>
<path d="M92.5721 4.98047H85.9409L78.5654 25.3H84.7543L85.7315 21.9563H92.5948L93.5723 25.3H99.9243L92.5721 4.98047ZM87.0111 17.5604L89.1517 10.265L91.292 17.5604H87.0111Z" fill="#0F87C9"/>
<path d="M76.5181 25.3H70.4689V9.98433H65.7225V16.2276C65.7225 18.7997 65.5829 20.6937 65.3269 21.8862C65.1175 23.0085 64.4661 23.9673 63.4889 24.5518C62.5117 25.113 60.9528 25.3935 58.8123 25.3935C58.0445 25.3935 57.2768 25.3234 56.5322 25.1832V21.0444H57.4396C58.2539 21.0444 58.8356 20.8573 59.1613 20.4832C59.487 20.1091 59.6731 19.431 59.6731 18.4255V4.98047H76.5181V25.3Z" fill="#0F87C9"/>
<path d="M35.7319 4.98047H41.7813V12.0888H48.4122V4.98047H54.4848V25.3H48.4122V17.0693H41.7813V25.3H35.7319V4.98047Z" fill="#0F87C9"/>
<path d="M29.7989 7.36547C28.0306 5.565 25.5179 4.65308 22.2605 4.65308C19.073 4.65308 16.5835 5.565 14.8153 7.43562C13.0005 9.25949 12 12.4863 12 15.7832C12 18.1683 12.5817 19.5011 13.4891 21.0677C14.2801 22.5409 15.5132 23.7568 17.0023 24.5284C18.4448 25.2532 20.2829 25.6273 22.4932 25.6273C24.7035 25.6273 26.4951 25.2064 27.9376 24.3647C29.3801 23.5463 30.5434 22.307 31.288 20.8105C32.0557 19.2907 32.4513 17.3499 32.4513 14.9648C32.428 11.738 31.5671 9.18929 29.7989 7.36547ZM25.3085 19.618C24.5872 20.4832 23.5867 20.9275 22.2838 20.9275C20.9809 20.9275 20.0037 20.4832 19.2824 19.5946C18.5612 18.7061 18.1889 17.233 18.1889 15.1753C18.1889 13.1176 18.5612 11.6211 19.3057 10.7326C20.027 9.84404 21.1205 9.35301 22.2605 9.39974C23.5402 9.39974 24.5406 9.84404 25.2852 10.7326C26.0297 11.6211 26.402 13.0007 26.402 14.9181C26.3787 17.1628 26.0297 18.7528 25.3085 19.618Z" fill="#0F87C9"/>
<path fill-rule="evenodd" clip-rule="evenodd" d="M153.694 26.9136C155.508 26.9136 156.997 28.4101 156.997 30.234C156.997 32.0578 155.508 33.5543 153.694 33.5543C151.879 33.5543 150.39 32.0578 150.39 30.234C150.39 28.4101 151.855 26.9136 153.694 26.9136Z" fill="#0F87C9"/>
<path fill-rule="evenodd" clip-rule="evenodd" d="M153.694 23.3593C154.345 23.3593 154.996 23.4996 155.578 23.7802V6.03274C155.578 5.07405 154.81 5.00391 153.856 5.00391H153.507C152.554 5.00391 151.786 5.07405 151.786 6.03274V23.7802C152.39 23.4996 153.042 23.3593 153.694 23.3593Z" fill="#0F87C9"/>
<path fill-rule="evenodd" clip-rule="evenodd" d="M153.694 37.2253C153.042 37.2253 152.39 37.085 151.809 36.8044V54.5051C151.809 55.4638 152.576 55.5808 153.53 55.5808H153.88C154.833 55.5808 155.601 55.4404 155.601 54.5051V36.8044C154.996 37.085 154.345 37.2253 153.694 37.2253Z" fill="#0F87C9"/>
</g>
</g>
<defs>
<clipPath id="clip0_4001_638">
<rect width="202" height="60" fill="white" transform="translate(12)"/>
</clipPath>
</defs>
</svg>
