<svg width="226" height="32" viewBox="0 0 226 32" fill="none" xmlns="http://www.w3.org/2000/svg">
<g clip-path="url(#clip0_4001_632)">
<g clip-path="url(#clip1_4001_632)">
<path fill-rule="evenodd" clip-rule="evenodd" d="M60.5732 0.0831186C57.4743 -0.25241 54.3504 0.406858 51.6309 1.97031C48.9114 3.53375 46.7297 5.92463 45.3857 8.81431C44.0417 11.704 43.6015 14.9506 44.1254 18.1079C44.6494 21.2652 46.1118 24.1782 48.3117 26.4465C50.5117 28.7148 53.3411 30.2271 56.4111 30.7754C59.4811 31.3237 62.6409 30.8812 65.4563 29.5087C68.2717 28.1362 70.6045 25.9011 72.1339 23.1105C73.6633 20.3199 74.3144 17.111 73.9975 13.9247C73.6489 10.3829 72.1236 7.07274 69.6784 4.55163C67.2333 2.03053 64.0178 0.452453 60.5732 0.0831186ZM60.0844 23.7054C58.4178 23.9352 56.723 23.6224 55.2382 22.811C53.7534 21.9996 52.5533 20.7304 51.8065 19.1817C51.0597 17.633 50.8038 15.8827 51.0748 14.1768C51.3457 12.4709 52.1299 10.8952 53.3171 9.67103C54.5043 8.44689 56.0348 7.63591 57.6936 7.35206C59.3523 7.06821 61.0559 7.32576 62.5649 8.08852C64.0739 8.85128 65.3125 10.0809 66.1065 11.6046C66.9005 13.1282 67.2101 14.8693 66.9917 16.5832C66.7626 18.3859 65.9616 20.0606 64.7129 21.3482C63.4643 22.6357 61.8375 23.4642 60.0844 23.7054ZM82.0645 0.696444C81.5414 0.697731 81.0252 0.818877 80.5533 1.05107C80.0815 1.28326 79.666 1.62065 79.337 2.03869C79.008 2.45674 78.7738 2.94491 78.6514 3.46771C78.5291 3.9905 78.5217 4.53475 78.6297 5.06086C78.9607 6.76529 80.5095 7.92988 82.1967 7.92988H91.988L76.7505 28.6571C76.6378 28.8101 76.5688 28.9923 76.5513 29.1834C76.5337 29.3745 76.5682 29.5668 76.651 29.7388C76.7338 29.9108 76.8616 30.0557 77.02 30.1573C77.1785 30.2588 77.3613 30.313 77.548 30.3138H101.449C103.136 30.3138 104.685 29.1495 105.016 27.4448C105.124 26.9187 105.117 26.3746 104.995 25.8518C104.873 25.3291 104.639 24.8409 104.31 24.4229C103.981 24.0048 103.566 23.6673 103.094 23.435C102.622 23.2026 102.106 23.0813 101.583 23.0798H89.6531L104.879 2.36867C104.993 2.21417 105.062 2.03012 105.08 1.83719C105.098 1.64426 105.063 1.45008 104.979 1.27642C104.895 1.10277 104.766 0.956511 104.606 0.854066C104.446 0.751621 104.262 0.697039 104.073 0.696444H82.0645ZM177.573 0.77988C176.782 0.973292 176.078 1.4385 175.579 2.09859C175.08 2.75867 174.815 3.57411 174.828 4.41006V16.4535L155.843 0.923916C155.694 0.802437 155.514 0.726627 155.326 0.705208C155.137 0.683789 154.946 0.717631 154.775 0.80284C154.604 0.888049 154.459 1.02116 154.359 1.18687C154.258 1.35258 154.205 1.54415 154.205 1.73954V26.6066C154.192 27.4426 154.457 28.258 154.957 28.9181C155.456 29.5782 156.159 30.0434 156.951 30.2368C157.464 30.353 157.997 30.3492 158.509 30.2255C159.021 30.1019 159.5 29.8617 159.91 29.5225C160.32 29.1834 160.65 28.754 160.877 28.2661C161.104 27.7781 161.221 27.244 161.221 26.7032V14.5556L180.206 30.0854C180.355 30.2068 180.534 30.2826 180.723 30.304C180.912 30.3254 181.103 30.2915 181.274 30.2064C181.445 30.1212 181.589 29.9881 181.69 29.8225C181.79 29.6569 181.844 29.4654 181.843 29.2701V4.31228C181.844 3.7716 181.726 3.23768 181.499 2.74989C181.272 2.2621 180.942 1.83288 180.532 1.49388C180.122 1.15488 179.644 0.914738 179.132 0.791164C178.619 0.66759 178.087 0.663734 177.573 0.77988ZM128.141 7.23751C136.171 7.23751 142.171 11.5996 142.171 15.5014C142.171 19.4033 136.171 23.7654 128.141 23.7654C120.11 23.7654 114.11 19.4033 114.11 15.5014C114.11 11.5996 120.11 7.23751 128.141 7.23751ZM128.141 0.00436706C116.517 0.00436706 107.095 6.9427 107.095 15.5014C107.095 24.0602 116.517 30.9985 128.141 30.9985C139.764 30.9985 149.186 24.0602 149.186 15.5014C149.186 6.9427 139.764 0.00436706 128.141 0.00436706Z" fill="#0069FF"/>
</g>
</g>
<defs>
<clipPath id="clip0_4001_632">
<rect width="226" height="31.0141" fill="white"/>
</clipPath>
<clipPath id="clip1_4001_632">
<rect width="137.84" height="31.0141" fill="white" transform="translate(44)"/>
</clipPath>
</defs>
</svg>
