<svg width="226" height="28" viewBox="0 0 226 28" fill="none" xmlns="http://www.w3.org/2000/svg">
<g clip-path="url(#clip0_4001_642)">
<path d="M23.5162 7.60702L20.4997 10.7363L17.4821 7.60702C15.8159 5.87998 15.8159 3.0755 17.4821 1.2947C17.8769 0.884654 18.3468 0.559151 18.8646 0.337008C19.3825 0.114865 19.938 0.000488281 20.4991 0.000488281C21.0602 0.000488281 21.6158 0.114865 22.1336 0.337008C22.6515 0.559151 23.1214 0.884654 23.5162 1.2947C25.1824 3.0755 25.1824 5.87998 23.5162 7.60702Z" fill="#5FAF2D"/>
<path d="M17.4821 16.4538L20.4986 13.3257L23.5162 16.4538C25.1824 18.1809 25.1824 20.9865 23.5162 22.7662C23.1214 23.1762 22.6515 23.5017 22.1336 23.7239C21.6158 23.946 21.0602 24.0604 20.4991 24.0604C19.938 24.0604 19.3825 23.946 18.8646 23.7239C18.3468 23.5017 17.8769 23.1762 17.4821 22.7662C15.8159 20.9854 15.8159 18.1809 17.4821 16.4538Z" fill="#005A28"/>
<path d="M24.7642 15.214L21.7466 12.031L24.7631 8.90171C25.158 8.4915 25.6279 8.16585 26.1459 7.94361C26.6639 7.72136 27.2195 7.60693 27.7808 7.60693C28.342 7.60693 28.8977 7.72136 29.4156 7.94361C29.9336 8.16585 30.4036 8.4915 30.7984 8.90171C32.4635 10.6288 32.4635 13.4332 30.7984 15.214C30.4036 15.6241 29.9337 15.9496 29.4158 16.1717C28.8979 16.3939 28.3424 16.5082 27.7813 16.5082C27.2202 16.5082 26.6647 16.3939 26.1468 16.1717C25.6289 15.9496 25.159 15.6241 24.7642 15.214Z" fill="#1EAF37"/>
<path d="M16.2833 8.90183L19.301 12.0311L16.2844 15.1604C15.8896 15.5706 15.4196 15.8962 14.9016 16.1185C14.3837 16.3407 13.828 16.4552 13.2668 16.4552C12.7055 16.4552 12.1499 16.3407 11.6319 16.1185C11.114 15.8962 10.644 15.5706 10.2491 15.1604C8.58297 13.4333 8.58297 10.6289 10.2491 8.84807C11.8609 7.17591 14.6193 7.17591 16.2833 8.90183Z" fill="#AAE641"/>
<path d="M185.316 11.0601H180.893V22.1201H177.251V11.0601H172.829V7.39099H185.316V11.0601ZM61.0774 16.3465H71.6909C71.7972 15.8322 71.8498 15.3077 71.8477 14.7819C71.8477 10.4665 68.8812 7.01355 64.7202 7.01355C60.2977 7.01355 57.2801 10.4127 57.2801 14.7819C57.2801 19.1521 60.2454 22.5513 64.9793 22.5513C67.6855 22.5513 69.8178 21.4179 71.1192 19.422L68.205 17.6412C67.581 18.5047 66.4364 19.0983 65.0316 19.0983C63.1585 19.0983 61.5969 18.2886 61.0774 16.3465ZM61.0262 13.3796C61.4422 11.4913 62.7948 10.4116 64.7202 10.4116C66.2284 10.4116 67.789 11.2751 68.205 13.3796H61.0262ZM82.5646 7.01355C80.5358 7.01355 79.0264 7.82331 77.9864 9.17179V7.44475H74.3448V28.0001H77.9864V20.3931C79.0264 21.7415 80.4835 22.5513 82.5646 22.5513C86.362 22.5513 89.4319 19.1521 89.4319 14.7819C89.4841 10.4127 86.362 7.01355 82.5646 7.01355ZM81.8883 18.8822C79.6504 18.8822 77.9864 17.21 77.9864 14.7281C77.9864 12.2462 79.6504 10.574 81.8883 10.574C84.1251 10.574 85.7902 12.2462 85.7902 14.7292C85.7902 17.21 84.1774 18.8822 81.8883 18.8822ZM95.1023 16.3465H105.716C105.822 15.8322 105.874 15.3076 105.871 14.7819C105.871 10.4665 102.906 7.01355 98.745 7.01355C94.3226 7.01355 91.305 10.4127 91.305 14.7819C91.305 19.1521 94.2703 22.5513 99.0042 22.5513C101.71 22.5513 103.843 21.4179 105.144 19.422L102.23 17.6412C101.606 18.5047 100.461 19.0983 99.0565 19.0983C97.1834 19.0983 95.6218 18.2886 95.1023 16.3465ZM95.0511 13.3796C95.4671 11.4913 96.8197 10.4116 98.7439 10.4116C100.253 10.4116 101.815 11.2751 102.23 13.3796H95.0511ZM132.457 7.01355C130.376 7.01355 128.919 7.82331 127.879 9.17179V7.44475H124.238V28.0001H127.879V20.3931C128.919 21.7415 130.376 22.5513 132.457 22.5513C136.255 22.5513 139.325 19.1521 139.325 14.7819C139.325 10.4127 136.204 7.01355 132.457 7.01355ZM131.781 18.8822C129.544 18.8822 127.879 17.21 127.879 14.7281C127.879 12.2462 129.544 10.574 131.781 10.574C134.018 10.574 135.683 12.2462 135.683 14.7292C135.683 17.21 134.018 18.8822 131.781 18.8822ZM144.995 16.3465H155.609C155.713 15.8615 155.765 15.3217 155.765 14.7819C155.765 10.4665 152.8 7.01355 148.638 7.01355C144.215 7.01355 141.198 10.4127 141.198 14.7819C141.198 19.1521 144.163 22.5513 148.898 22.5513C151.603 22.5513 153.735 21.4179 155.037 19.422L152.123 17.6412C151.499 18.5047 150.354 19.0983 148.949 19.0983C147.025 19.0983 145.463 18.2886 144.995 16.3465ZM145.776 5.88011C146.817 5.88011 147.649 5.01771 147.649 3.93803C147.649 2.85947 146.817 1.94219 145.776 1.94219C144.736 1.94219 143.851 2.85947 143.851 3.93803C143.851 5.01771 144.736 5.88011 145.776 5.88011ZM144.892 13.3796C145.308 11.4913 146.66 10.4116 148.586 10.4116C150.094 10.4116 151.655 11.2751 152.071 13.3796H144.892ZM151.083 5.88011C152.123 5.88011 152.956 5.01771 152.956 3.93803C152.956 2.85947 152.123 1.94219 151.083 1.94219C150.043 1.94219 149.157 2.85947 149.157 3.93803C149.21 5.01771 150.043 5.88011 151.083 5.88011ZM164.869 22.4975C167.627 22.4975 170.02 20.9855 171.216 18.6671L168.043 16.7788C167.471 17.966 166.274 18.7209 164.817 18.7209C162.633 18.7209 161.02 17.0487 161.02 14.7281C161.02 12.4086 162.633 10.7364 164.817 10.7364C166.274 10.7364 167.471 11.4913 168.043 12.6785L171.165 10.7902C170.02 8.52443 167.627 7.01355 164.869 7.01355C160.604 7.01355 157.429 10.4127 157.429 14.7819C157.429 19.1521 160.604 22.4975 164.869 22.4975ZM193.952 22.4975C198.115 22.4975 201.391 19.0983 201.391 14.7281C201.391 10.359 198.115 7.01355 193.952 7.01355C189.79 7.01355 186.512 10.4127 186.512 14.7819C186.512 19.1521 189.79 22.4975 193.952 22.4975ZM193.952 18.8284C191.819 18.8284 190.154 17.1563 190.154 14.7819C190.154 12.4086 191.819 10.7364 193.952 10.7364C196.137 10.7364 197.802 12.4086 197.802 14.7819C197.802 17.1563 196.137 18.8284 193.952 18.8284ZM117.629 22.1201H121.844L116.434 14.6743L121.636 7.44475H117.318L113.312 13.3796H112.064V7.44475H108.422V22.1201H112.064V16.3465H113.572L117.629 22.1201ZM212.786 22.1201H216.999L211.641 14.6743L216.843 7.44475H212.525L208.468 13.4334H207.219V7.44475H203.577V22.1201H207.219V16.3465H208.727L212.786 22.1201ZM54.8864 1.88843H40.1631V22.0641H44.0661V5.71883H51.0379V22.1201H54.9398V1.88843H54.8864Z" fill="#005A28"/>
</g>
<defs>
<clipPath id="clip0_4001_642">
<rect width="208" height="28" fill="white" transform="translate(9)"/>
</clipPath>
</defs>
</svg>
