<svg width="226" height="49" viewBox="0 0 226 49" fill="none" xmlns="http://www.w3.org/2000/svg">
<path fill-rule="evenodd" clip-rule="evenodd" d="M34 0.100098C20.8 0.100098 10 10.9001 10 24.1001C10 37.3001 20.8 48.1001 34 48.1001C47.2 48.1001 58 37.3001 58 24.1001C58.1 10.9001 47.3 0.100098 34 0.100098ZM34 5.1001C23.5 5.1001 15 13.6001 15 24.1001C15 34.6001 23.5 43.1001 34 43.1001C44.5 43.1001 53 34.6001 53 24.1001C53.1 13.7001 44.5 5.1001 34 5.1001Z" fill="#2AD1C5"/>
<path fill-rule="evenodd" clip-rule="evenodd" d="M34.9001 10.7002L39.9001 15.7002C38.4001 16.7002 36.7001 17.3002 34.9001 17.5002V10.7002ZM35.1001 31.7002V39.0002H33.1001V31.7002C31.8001 32.7002 30.3001 33.3002 28.5001 33.3002C27.6001 33.3002 26.8001 33.2002 26.0001 32.9002C27.6001 30.6002 30.2001 29.0002 33.2001 28.7002V31.6002L33.1001 31.7002H34.8001V28.7002C37.8001 29.0002 40.4001 30.5002 42.0001 32.9002C41.2001 33.2002 40.4001 33.3002 39.5001 33.3002C37.9001 33.2002 36.3001 32.7002 35.1001 31.7002ZM41.1001 17.0002L45.0001 20.9002C45.4001 21.4002 45.8001 21.9002 46.1001 22.5002H34.9001V19.3002C37.2001 19.1002 39.4001 18.2002 41.1001 17.0002ZM46.8001 24.1002C46.9001 24.7002 47.0001 25.2002 47.0001 25.8002C47.0001 28.4002 45.7001 30.7002 43.7001 32.0002C41.8001 29.1002 38.6001 27.2002 35.0001 26.9002V24.1002H46.8001ZM24.5001 32.1002C22.5001 30.8002 21.1001 28.5002 21.1001 25.9002C21.1001 25.3002 21.2001 24.7002 21.3001 24.2002H33.2001V27.0002C29.6001 27.2002 26.4001 29.2002 24.5001 32.1002ZM21.9001 22.4002C22.4001 21.5002 23.0001 20.7002 23.8001 20.1002L27.0001 16.9002C28.8001 18.2002 30.9001 19.0002 33.2001 19.2002V22.4002H21.9001ZM28.2001 15.7002L33.2001 10.7002V17.5002C31.4001 17.4002 29.6001 16.7002 28.2001 15.7002Z" fill="#2AD1C5"/>
<path fill-rule="evenodd" clip-rule="evenodd" d="M67.7 21.6H72.7V8H78.8V21.6H83.8V3.7H67.7V21.6ZM88 21.9C88.6 21.9 89.1 21.8 89.6 21.7C90.1 21.6 90.6 21.3 91 20.9C91.4 20.5 91.8 20 92.2 19.4C92.5 18.8 92.8 18 93.1 17C93.3 16 93.5 14.9 93.7 13.5C93.8 12.1 93.9 10.5 93.9 8.7V8H98.1V21.6H103.1V3.7H89.3V6.2C89.3 7.7 89.3 9.1 89.2 10.3C89.1 11.5 89.1 12.5 89 13.3C88.9 14.1 88.8 14.8 88.7 15.4C88.6 16 88.4 16.4 88.3 16.7C88.1 17 88 17.3 87.8 17.4C87.6 17.6 87.4 17.7 87.2 17.7C87 17.8 86.8 17.8 86.6 17.8C86.5 17.8 86.4 17.8 86.2 17.8C86.1 17.8 85.9 17.8 85.7 17.8C85.6 17.8 85.4 17.8 85.3 17.7L85 21.5C85.1 21.5 85.4 21.6 85.7 21.7C86 21.8 86.3 21.8 86.8 21.9C87.2 21.9 87.6 21.9 88 21.9ZM104.8 21.6H110L111.3 18.4H118.2L119.5 21.6H124.8L117.2 3.5H112.4L104.8 21.6ZM112.8 14.6L114.8 9.5L116.8 14.6H112.8ZM126.6 21.6H131.6V14.8H138V21.6H143V3.7H138V10.4H131.6V3.7H126.6V21.6ZM146.1 21.6H160.7V17.4H151.1V14.6H159.7V10.7H151.1V7.9H160.6V3.7H146.2V21.6H146.1ZM167.6 21.6H172.6V8H178V3.7H162.3V8H167.7V21.6H167.6ZM176.9 21.6H182.1L183.4 18.4H190.3L191.6 21.6H196.9L189.3 3.5H184.5L176.9 21.6ZM184.9 14.6L186.9 9.5L188.9 14.6H184.9ZM74.7 44.3C75.8 44.3 76.8 44.2 77.7 43.9C78.6 43.6 79.3 43.2 79.9 42.7C80.5 42.2 81 41.6 81.3 40.9C81.6 40.2 81.8 39.5 81.8 38.7C81.8 37.9 81.7 37.3 81.4 36.8C81.1 36.3 80.8 35.8 80.3 35.4C79.8 35 79.3 34.8 78.7 34.5C79.2 34.3 79.7 33.9 80.1 33.6C80.5 33.2 80.8 32.8 81 32.3C81.2 31.8 81.3 31.2 81.3 30.5C81.3 29.8 81.1 29.2 80.8 28.6C80.5 28 80 27.5 79.4 27.1C78.8 26.7 78.1 26.3 77.3 26.1C76.5 25.9 75.6 25.7 74.6 25.7C73.5 25.7 72.4 25.8 71.5 26.1C70.6 26.4 69.8 26.7 69 27.2C68.3 27.7 67.6 28.2 67 28.8L69.5 31.7C69.8 31.4 70.1 31.2 70.5 31C70.9 30.8 71.3 30.6 71.7 30.4C72.1 30.2 72.5 30.1 73 30C73.4 29.9 73.8 29.9 74.2 29.9C74.7 29.9 75.1 30 75.4 30.1C75.7 30.2 76 30.4 76.2 30.6C76.4 30.8 76.5 31.1 76.5 31.4C76.5 31.7 76.4 32 76.2 32.2C76 32.4 75.8 32.6 75.4 32.8C75 32.9 74.5 33 73.9 33H72.1V36.7H74C75 36.7 75.7 36.8 76.2 37.1C76.7 37.4 76.9 37.8 76.9 38.3C76.9 38.6 76.8 38.9 76.6 39.2C76.4 39.5 76.1 39.7 75.7 39.8C75.3 39.9 74.8 40 74.2 40C73.5 40 72.8 39.9 72.2 39.7C71.6 39.5 71 39.3 70.5 39C70 38.7 69.5 38.3 69.1 37.9L66.5 41.2C67 41.6 67.5 42.1 68.1 42.4C68.6 42.8 69.2 43.1 69.9 43.3C70.5 43.6 71.3 43.8 72.1 43.9C72.7 44.2 73.6 44.3 74.7 44.3ZM82.8 47.6H87.3L87.6 44H97.1V47.6H101.3L101.9 39.7H99.9V26H86.2V26.5C86.2 27.8 86.2 29.1 86.1 30.1C86 31.2 86 32.2 85.9 33.1C85.8 34 85.7 34.8 85.5 35.5C85.4 36.2 85.2 37 85 37.6C84.8 38.3 84.6 38.9 84.3 39.6H82.7V47.6H82.8ZM89.6 39.6C89.8 39 90 38.4 90.2 37.7C90.4 37.1 90.5 36.4 90.6 35.6C90.7 34.9 90.8 34.1 90.9 33.2C91 32.4 91 31.4 91 30.5V30.3H94.9V39.5H89.6V39.6ZM112.9 44.3C114 44.3 115.1 44.1 116 43.8C117 43.5 117.9 43 118.7 42.5C119.5 41.9 120.2 41.3 120.8 40.5C121.4 39.7 121.8 38.9 122.1 37.9C122.4 37 122.6 36 122.6 35C122.6 34 122.4 33 122.1 32C121.8 31.1 121.3 30.2 120.8 29.4C120.2 28.6 119.5 28 118.7 27.4C117.9 26.8 117 26.4 116 26.1C115 25.8 114 25.6 112.9 25.6C111.8 25.6 110.7 25.8 109.8 26.1C108.8 26.4 107.9 26.9 107.1 27.4C106.3 28 105.6 28.6 105 29.4C104.4 30.2 104 31 103.7 32C103.4 33 103.3 34 103.3 35C103.3 36 103.5 37 103.8 38C104.1 38.9 104.6 39.8 105.1 40.6C105.7 41.4 106.4 42 107.2 42.6C108 43.2 108.9 43.6 109.9 43.9C110.8 44.2 111.8 44.3 112.9 44.3ZM113 39.8C112.3 39.8 111.7 39.7 111.1 39.4C110.5 39.1 110.1 38.8 109.7 38.3C109.3 37.9 109 37.3 108.8 36.8C108.6 36.2 108.5 35.6 108.5 34.9C108.5 34.2 108.6 33.6 108.8 33C109 32.4 109.3 31.9 109.7 31.5C110.1 31.1 110.6 30.7 111.1 30.5C111.7 30.2 112.3 30.1 113 30.1C113.7 30.1 114.3 30.2 114.9 30.5C115.5 30.8 115.9 31.1 116.4 31.6C116.8 32 117.1 32.6 117.3 33.1C117.5 33.7 117.6 34.3 117.6 35C117.6 35.7 117.5 36.3 117.3 36.9C117.1 37.5 116.8 38 116.4 38.4C116 38.8 115.5 39.2 115 39.4C114.3 39.7 113.7 39.8 113 39.8ZM125.2 44H130.2V38.9H132.7C133.8 38.9 134.8 38.8 135.8 38.5C136.7 38.2 137.6 37.8 138.2 37.3C138.9 36.8 139.4 36.1 139.8 35.3C140.2 34.5 140.4 33.6 140.4 32.5C140.4 31.5 140.2 30.6 139.9 29.8C139.5 29 139 28.3 138.4 27.8C137.8 27.3 137 26.8 136 26.6C135.1 26.3 134.1 26.2 132.9 26.2H125.2V44ZM130.2 34.9V30.2H132.5C133.1 30.2 133.6 30.3 134 30.5C134.4 30.7 134.8 30.9 135 31.3C135.2 31.7 135.3 32.1 135.3 32.6C135.3 33.1 135.2 33.5 135 33.9C134.8 34.3 134.4 34.5 134 34.7C133.6 34.9 133.1 35 132.5 35H130.2V34.9ZM151.5 44.3C152.6 44.3 153.7 44.1 154.6 43.8C155.6 43.5 156.5 43 157.3 42.5C158.1 41.9 158.8 41.3 159.4 40.5C160 39.7 160.4 38.9 160.7 37.9C161 37 161.2 36 161.2 35C161.2 34 161 33 160.7 32C160.4 31.1 159.9 30.2 159.4 29.4C158.8 28.6 158.1 28 157.3 27.4C156.5 26.8 155.6 26.4 154.6 26.1C153.6 25.8 152.6 25.6 151.5 25.6C150.4 25.6 149.3 25.8 148.4 26.1C147.4 26.4 146.5 26.9 145.7 27.4C144.9 28 144.2 28.6 143.6 29.4C143 30.2 142.6 31 142.3 32C142 32.9 141.8 33.9 141.8 34.9C141.8 35.9 142 36.9 142.3 37.9C142.6 38.8 143.1 39.7 143.6 40.5C144.2 41.3 144.9 41.9 145.7 42.5C146.5 43.1 147.4 43.5 148.4 43.8C149.3 44.2 150.4 44.3 151.5 44.3ZM151.5 39.8C150.8 39.8 150.2 39.7 149.6 39.4C149 39.1 148.6 38.8 148.2 38.3C147.8 37.9 147.5 37.3 147.3 36.8C147.1 36.2 147 35.6 147 34.9C147 34.2 147.1 33.6 147.3 33C147.5 32.4 147.8 31.9 148.2 31.5C148.6 31.1 149.1 30.7 149.6 30.5C150.2 30.2 150.8 30.1 151.5 30.1C152.2 30.1 152.8 30.2 153.4 30.5C154 30.8 154.4 31.1 154.9 31.6C155.3 32 155.6 32.6 155.8 33.1C156 33.7 156.1 34.3 156.1 35C156.1 35.7 156 36.3 155.8 36.9C155.6 37.5 155.3 38 154.9 38.4C154.5 38.8 154 39.2 153.5 39.4C152.8 39.7 152.2 39.8 151.5 39.8ZM163.8 44H173.1C174.5 44 175.8 43.8 176.8 43.4C177.8 43 178.6 42.4 179.1 41.7C179.6 41 179.9 40.1 179.9 39.1C179.9 38.3 179.8 37.6 179.5 37C179.2 36.4 178.8 36 178.3 35.6C177.8 35.2 177.1 34.9 176.4 34.7C176.9 34.5 177.4 34.2 177.8 33.8C178.2 33.4 178.5 33 178.8 32.5C179 32 179.2 31.4 179.2 30.7C179.2 30.1 179.1 29.5 178.9 29C178.7 28.5 178.4 28.1 178.1 27.7C177.6 27.2 176.9 26.8 176.1 26.5C175.3 26.2 174.3 26.1 173.2 26.1H164V44H163.8ZM168.6 40V36.7H172.4C173.2 36.7 173.8 36.9 174.2 37.1C174.6 37.4 174.8 37.8 174.8 38.3C174.8 38.9 174.6 39.3 174.2 39.6C173.8 39.9 173.2 40 172.4 40H168.6ZM168.6 33.2V30H171.8C172.5 30 173.1 30.1 173.5 30.4C173.9 30.7 174.1 31 174.1 31.5C174.1 32.1 173.9 32.5 173.5 32.7C173.1 33 172.5 33.1 171.8 33.1H168.6V33.2ZM182.1 44H190C191.1 44 192.1 43.9 193 43.6C193.9 43.3 194.6 42.9 195.3 42.4C195.9 41.9 196.4 41.2 196.7 40.4C197 39.6 197.2 38.8 197.2 37.8C197.2 36.8 197 35.9 196.6 35.1C196.2 34.3 195.7 33.7 195 33.2C194.3 32.7 193.5 32.3 192.6 32.1C191.7 31.8 190.7 31.7 189.6 31.7H186.9V26H181.9V44H182.1ZM187.1 39.8V35.6H189.7C190.2 35.6 190.7 35.7 191.1 35.9C191.5 36.1 191.8 36.3 192 36.6C192.2 36.9 192.3 37.3 192.3 37.7C192.3 38.4 192.1 38.9 191.6 39.3C191.1 39.7 190.5 39.8 189.7 39.8H187.1ZM198.5 44H204.2L207.8 38.6H210V44H215V26H206.5C205.5 26 204.5 26.1 203.6 26.4C202.7 26.6 201.9 27 201.2 27.5C200.5 28 200 28.6 199.6 29.4C199.2 30.2 199 31.1 199 32.1C199 33 199.2 33.9 199.5 34.6C199.8 35.3 200.2 35.9 200.8 36.4C201.4 36.9 202 37.3 202.7 37.6L198.5 44ZM206.8 34.7C206.2 34.7 205.8 34.6 205.4 34.4C205 34.2 204.7 34 204.5 33.6C204.3 33.3 204.2 32.9 204.2 32.4C204.2 31.9 204.3 31.5 204.5 31.2C204.7 30.9 205 30.6 205.4 30.4C205.8 30.2 206.3 30.1 206.8 30.1H210.1V34.6H206.8V34.7Z" fill="#2AD1C5"/>
</svg>
