<svg width="226" height="48" viewBox="0 0 226 48" fill="none" xmlns="http://www.w3.org/2000/svg">
<g clip-path="url(#clip0_4001_646)">
<path d="M66.5775 9.64457C58.3486 9.64457 52.2289 14.904 52.2289 23.8903C52.2289 32.8766 58.3486 38.136 66.5775 38.136C74.8064 38.136 80.9261 32.8766 80.9261 23.8903C80.9261 14.904 74.8081 9.64457 66.5775 9.64457ZM66.5775 30.9034C62.1479 30.9034 60.2482 28.0543 60.2482 23.892C60.2482 19.7263 62.1462 16.8771 66.5775 16.8771C71.0088 16.8771 72.9084 19.7263 72.9084 23.8903C72.9084 28.056 71.0088 30.9034 66.5775 30.9034ZM123.762 37.26H97.5968V31.3423L111.734 17.5337H98.0193V10.5206H123.129V16.4383L108.991 30.2469H123.762V37.26ZM84.5141 0H92.3204V37.26H84.5141V0ZM172.505 10.74H177.146V14.2457H172.505C169.129 14.2457 167.229 16.4383 167.229 21.2606V37.26H163.22V21.2606C163.22 14.0263 167.019 10.74 172.505 10.74ZM200.991 10.74H205V26.9589C205 33.7526 199.937 38.3554 193.394 38.3554C186.852 38.3554 181.789 33.7543 181.789 26.9589V10.74H185.798V26.9589C185.798 31.5617 189.174 34.6303 193.394 34.6303C197.614 34.6303 200.991 31.5617 200.991 26.9589V10.74ZM141.063 9.64286C132.835 9.64286 126.717 14.9057 126.717 23.8903C126.717 32.8766 132.202 38.136 139.588 38.136C141.023 38.1422 142.439 37.8081 143.722 37.1609C145.005 36.5137 146.118 35.5716 146.972 34.4109L147.183 34.1914C147.394 34.1914 147.394 34.4109 147.394 34.4109V36.8229H155.412V23.8903C155.412 14.904 149.294 9.64286 141.063 9.64286ZM141.063 30.9034C136.634 30.9034 134.734 28.0543 134.734 23.892C134.734 19.7263 136.634 16.8771 141.063 16.8771C145.495 16.8771 147.394 19.7263 147.394 23.8903C147.606 28.056 145.495 30.9034 141.063 30.9034ZM35.3486 9.64457C27.1197 9.64457 21 14.904 21 23.8903V48H28.8081V34.8497C28.8081 34.6303 29.0176 34.6303 29.0176 34.6303C29.0176 34.6303 29.2289 34.6303 29.2289 34.8497C30.2852 36.6034 33.0281 38.5749 36.6144 38.5749C44 38.5749 49.4859 33.3154 49.4859 24.3291C49.4859 14.904 43.3662 9.64457 35.3486 9.64457ZM35.3486 30.9034C30.919 30.9034 29.0176 28.0543 29.0176 23.892C29.0176 19.7263 30.9173 16.8771 35.3486 16.8771C39.7782 16.8771 41.6796 19.7263 41.6796 23.8903C41.6796 28.056 39.5687 30.9034 35.3486 30.9034Z" fill="#5383C7"/>
</g>
<defs>
<clipPath id="clip0_4001_646">
<rect width="184" height="48" fill="white" transform="translate(21)"/>
</clipPath>
</defs>
</svg>
