<svg width="226" height="47" viewBox="0 0 226 47" fill="none" xmlns="http://www.w3.org/2000/svg">
<path fill-rule="evenodd" clip-rule="evenodd" d="M170.064 28.1204L167.626 16.9444C167.055 14.3232 165.889 13.6457 164.08 13.6457C162.274 13.6457 161.112 14.3232 160.548 16.9444L158.097 28.1204C156.742 34.341 154.409 36.5188 149.703 36.5188V35.8413C150.527 35.6209 151.322 34.1543 152.906 27.9314L155.685 16.8342C156.78 12.5198 159.263 9.74829 164.08 9.74829C168.902 9.74829 171.385 12.5198 172.472 16.8342L175.265 27.9314C176.846 34.1543 177.631 35.6209 178.467 35.8413V36.5188C173.758 36.5188 171.417 34.341 170.064 28.1204Z" fill="#00953B"/>
<path fill-rule="evenodd" clip-rule="evenodd" d="M90.7999 14.1696H86.2091V23.0201H90.7999C93.1738 23.0201 95.2411 21.3356 95.2411 18.5968C95.2411 15.8578 93.1738 14.1696 90.7999 14.1696ZM86.2229 27.8417C86.2229 34.8487 84.479 36.1749 79.7725 36.1612V35.4886C80.6338 35.2795 81.3178 34.8937 81.3178 27.575L81.314 17.169C81.314 12.0356 80.9795 11.1702 79.8151 10.9485V10.2722H91.8913C96.638 10.2722 100.248 13.8001 100.248 18.5968C100.248 23.3958 96.638 26.9224 91.8913 26.9224H86.2091L86.2229 27.8417Z" fill="#00953B"/>
<path fill-rule="evenodd" clip-rule="evenodd" d="M199.984 28.1204L199.524 26.2068H187.861L187.406 28.1204C185.936 34.341 183.905 36.5188 179.203 36.5188V35.8413C180.031 35.6209 180.855 34.1543 182.398 27.9314L185.184 16.8342C186.315 12.2981 188.953 9.74829 193.697 9.74829C198.437 9.74829 201.071 12.2981 202.2 16.8342L204.984 27.9314C206.529 34.1543 207.361 35.6209 208.184 35.8413V36.5188C203.479 36.5188 201.452 34.341 199.984 28.1204ZM197.533 17.25C196.857 14.3232 195.726 13.6457 193.697 13.6457C191.659 13.6457 190.531 14.3232 189.852 17.25L188.689 22.3822H198.699L197.533 17.25Z" fill="#00953B"/>
<path fill-rule="evenodd" clip-rule="evenodd" d="M104.831 17.0351C104.831 11.9017 104.697 11.1602 103.386 10.8133V10.1346H109.534V26.8061L109.837 26.9939L127.266 9.52466H127.942V27.5737C127.942 34.8939 128.627 35.2796 129.49 35.4875V36.1599C124.977 36.2151 123.239 34.9477 123.239 27.8831V19.61L122.938 19.4184L105.506 36.8938H104.831V17.0351Z" fill="#00953B"/>
<path fill-rule="evenodd" clip-rule="evenodd" d="M134.059 10.2417H153.169V15.6432H152.483C152.259 14.3633 150.905 14.1378 146.239 14.1378H140.505V27.7472C140.505 34.7556 138.764 36.1745 134.065 36.1607V35.4893C134.921 35.2803 135.589 34.8945 135.589 27.5745V17.1698C135.589 12.0351 135.227 11.1697 134.059 10.9493V10.2417Z" fill="#00953B"/>
<path fill-rule="evenodd" clip-rule="evenodd" d="M28.9126 9.69234C29.0145 9.81793 29.2606 10.1147 29.4999 10.3807C29.6498 10.536 32.3516 13.301 33.7552 14.7338C32.8004 12.9174 31.1163 9.70947 31.0065 9.53024C30.829 9.21743 30.6241 8.89893 30.5313 8.75394C29.9738 7.87146 28.9263 7.08145 27.7598 6.64307C27.8651 7.79953 28.2772 8.93317 28.9126 9.69234Z" fill="url(#paint0_radial_4001_622)"/>
<path fill-rule="evenodd" clip-rule="evenodd" d="M24.4902 26.7646C24.1433 26.8412 23.7792 26.9393 23.6075 26.9747C22.5932 27.2316 21.5228 27.9805 20.7363 28.9475C21.8754 29.2145 23.0912 29.1644 24.0013 28.8025C24.157 28.7431 24.5096 28.6061 24.8347 28.4599C25.042 28.3709 28.5096 26.6551 30.3035 25.7703C28.2852 26.1127 24.6985 26.7177 24.4902 26.7646Z" fill="url(#paint1_radial_4001_622)"/>
<path fill-rule="evenodd" clip-rule="evenodd" d="M38.9294 38.2765C38.8848 38.6329 38.8654 39.0096 38.8493 39.1774C38.7806 40.2208 39.1561 41.472 39.8477 42.5166C40.451 41.5166 40.7794 40.3543 40.7177 39.3795C40.7004 39.2024 40.6832 38.8325 40.6444 38.4764C40.6271 38.256 40.0605 34.4386 39.7697 32.4578C39.4733 34.4819 38.9444 38.0677 38.9294 38.2765Z" fill="url(#paint2_radial_4001_622)"/>
<path fill-rule="evenodd" clip-rule="evenodd" d="M48.6582 8.41783C48.5712 8.56167 48.3651 8.87791 48.1843 9.1907C48.0778 9.37451 46.2782 12.7971 45.3452 14.5689C46.7854 13.1031 49.321 10.5139 49.4664 10.3597C49.6976 10.0937 49.9393 9.79692 50.0458 9.67134C50.7211 8.86306 51.1505 7.63239 51.2192 6.38802L51.218 6.38574C50.1339 6.84124 49.1836 7.58786 48.6582 8.41783Z" fill="url(#paint3_radial_4001_622)"/>
<path fill-rule="evenodd" clip-rule="evenodd" d="M49.0703 25.5396C50.9021 26.4472 54.1578 28.0535 54.3525 28.1367C54.6766 28.2795 55.0349 28.4233 55.1906 28.4804C56.1658 28.872 57.4766 28.896 58.6765 28.5705C57.9141 27.6904 56.9065 27.0192 55.9542 26.776C55.7949 26.7349 55.4263 26.639 55.0749 26.5694C54.8585 26.5213 51.0418 25.8719 49.0703 25.5396Z" fill="url(#paint4_radial_4001_622)"/>
<path fill-rule="evenodd" clip-rule="evenodd" d="M51.7928 6.18408C51.5994 6.24344 51.4047 6.3222 51.2192 6.39526C51.1505 7.63963 50.7213 8.87145 50.0516 9.68086C49.9394 9.80644 49.6978 10.1033 49.4666 10.3693C49.3212 10.5234 46.7854 13.1126 45.3452 14.5784C45.0179 15.2086 44.7935 15.6287 44.7935 15.6287C43.9302 17.2624 43.264 19.1335 43.8638 21.0662C44.5175 22.9762 46.1569 24.0984 47.8237 24.9159C47.8237 24.9159 48.3319 25.1681 49.0704 25.5335C51.0418 25.8656 54.8575 26.5152 55.0749 26.5631C55.4264 26.6329 55.795 26.7287 55.9542 26.7699C56.9066 27.0129 57.9141 27.6843 58.6788 28.5645C58.8025 28.5314 58.9261 28.4983 59.0463 28.4583C62.1442 27.4091 63.8408 24.127 62.9547 21.0263C62.0949 18.4976 60.1224 18.8675 59.2134 16.0888C58.316 13.3147 60.1235 12.4573 59.3314 9.90461C58.4315 7.45926 56.1087 5.90894 53.6051 5.90894C53.0051 5.90894 52.3949 5.99799 51.7928 6.18408Z" fill="#D8D8D8"/>
<mask id="mask0_4001_622" style="mask-type:alpha" maskUnits="userSpaceOnUse" x="43" y="5" width="21" height="24">
<path fill-rule="evenodd" clip-rule="evenodd" d="M51.7928 6.18408C51.5994 6.24344 51.4047 6.3222 51.2192 6.39526C51.1505 7.63963 50.7213 8.87145 50.0516 9.68086C49.9394 9.80644 49.6978 10.1033 49.4666 10.3693C49.3212 10.5234 46.7854 13.1126 45.3452 14.5784C45.0179 15.2086 44.7935 15.6287 44.7935 15.6287C43.9302 17.2624 43.264 19.1335 43.8638 21.0662C44.5175 22.9762 46.1569 24.0984 47.8237 24.9159C47.8237 24.9159 48.3319 25.1681 49.0704 25.5335C51.0418 25.8656 54.8575 26.5152 55.0749 26.5631C55.4264 26.6329 55.795 26.7287 55.9542 26.7697C56.9066 27.0129 57.9141 27.6843 58.6788 28.5645C58.8025 28.5314 58.9261 28.4983 59.0463 28.4583C62.1442 27.4091 63.8408 24.127 62.9547 21.0263C62.0949 18.4976 60.1224 18.8675 59.2134 16.0888C58.316 13.3147 60.1235 12.4573 59.3314 9.90461C58.4315 7.45926 56.1087 5.90894 53.6051 5.90894C53.0051 5.90894 52.3949 5.99799 51.7928 6.18408Z" fill="white"/>
</mask>
<g mask="url(#mask0_4001_622)">
<path d="M63.5976 -2.06348L72.7942 26.5827L45.6947 35.473L36.498 6.82671L63.5976 -2.06348Z" fill="url(#paint5_radial_4001_622)"/>
</g>
<path fill-rule="evenodd" clip-rule="evenodd" d="M42.4196 26.1243C40.802 27.3309 40.2295 29.2341 39.972 31.0641C39.972 31.0641 39.8908 31.6257 39.7705 32.4329C40.0613 34.4135 40.628 38.2311 40.6451 38.4515C40.6841 38.8076 40.7012 39.1776 40.7183 39.3546C40.7802 40.3294 40.4516 41.4917 39.8483 42.4917C39.917 42.599 39.9879 42.7074 40.0659 42.8068C42.0155 45.4153 45.6765 46.0136 48.3542 44.2121C50.5076 42.615 49.538 40.8581 51.91 39.141C54.281 37.4264 55.6547 38.8853 57.8482 37.3372C60.392 35.3542 60.9551 31.7011 59.0639 29.0388C58.9494 28.8732 58.8143 28.7112 58.6794 28.5559C57.4773 28.8812 56.1665 28.8572 55.1911 28.4657C55.0353 28.4086 54.677 28.2648 54.3565 28.1221C54.163 28.0387 50.9014 26.4313 49.071 25.5249C48.368 25.405 47.9009 25.3228 47.9009 25.3228C47.2336 25.2086 46.5512 25.1277 45.8712 25.1277C44.6691 25.1277 43.4785 25.3764 42.4196 26.1243Z" fill="#D8D8D8"/>
<mask id="mask1_4001_622" style="mask-type:alpha" maskUnits="userSpaceOnUse" x="39" y="25" width="22" height="21">
<path fill-rule="evenodd" clip-rule="evenodd" d="M42.4196 26.1243C40.802 27.3309 40.2295 29.2341 39.972 31.0641C39.972 31.0641 39.8908 31.6257 39.7705 32.4329C40.0613 34.4135 40.628 38.2311 40.6451 38.4515C40.6841 38.8076 40.7012 39.1776 40.7183 39.3546C40.7802 40.3294 40.4516 41.4917 39.8483 42.4917C39.917 42.599 39.9879 42.7074 40.0659 42.8068C42.0155 45.4153 45.6765 46.0136 48.3542 44.2121C50.5076 42.615 49.538 40.8581 51.91 39.141C54.281 37.4264 55.6547 38.8853 57.8482 37.3372C60.392 35.3542 60.9551 31.7011 59.0639 29.0388C58.9494 28.8732 58.8143 28.7112 58.6794 28.5559C57.4773 28.8812 56.1665 28.8572 55.1911 28.4657C55.0353 28.4086 54.677 28.2648 54.3565 28.1221C54.163 28.0387 50.9014 26.4313 49.071 25.5249C48.368 25.405 47.9009 25.3228 47.9009 25.3228C47.2336 25.2086 46.5512 25.1277 45.8712 25.1277C44.6691 25.1277 43.4785 25.3764 42.4196 26.1243Z" fill="white"/>
</mask>
<g mask="url(#mask1_4001_622)">
<path d="M73.2857 40.0136L47.7801 58.6583L29.2642 33.099L54.7697 14.3308L73.2857 40.0136Z" fill="url(#paint6_radial_4001_622)"/>
</g>
<path fill-rule="evenodd" clip-rule="evenodd" d="M31.6748 25.5291C31.6748 25.5291 31.1161 25.6205 30.3033 25.7598C28.5105 26.6446 25.0418 28.3604 24.8346 28.4494C24.5094 28.5956 24.1568 28.7326 24.0012 28.792C23.091 29.1539 21.8798 29.204 20.7361 28.937C20.656 29.0374 20.5805 29.1412 20.5026 29.2428C18.6205 31.9039 19.1758 35.5572 21.7264 37.5402C23.9107 39.0858 25.2868 37.6314 27.6577 39.3428C30.0274 41.0598 29.0658 42.8213 31.2112 44.4196C33.9003 46.2211 37.551 45.6228 39.5041 43.0096C39.6279 42.8408 39.7399 42.6752 39.8476 42.4994C39.1562 41.4548 38.7806 40.2036 38.8493 39.1602C38.8653 38.9924 38.8847 38.6155 38.9295 38.2593C38.9443 38.0504 39.4732 34.4647 39.7698 32.4406C39.6679 31.7396 39.5957 31.2692 39.5957 31.2692C39.3336 29.4357 38.768 27.5327 37.1447 26.326C36.0892 25.5827 34.8987 25.334 33.7023 25.334C33.0199 25.334 32.3365 25.4127 31.6748 25.5291Z" fill="#D8D8D8"/>
<mask id="mask2_4001_622" style="mask-type:alpha" maskUnits="userSpaceOnUse" x="19" y="25" width="21" height="21">
<path fill-rule="evenodd" clip-rule="evenodd" d="M31.6748 25.5291C31.6748 25.5291 31.1161 25.6205 30.3033 25.7598C28.5105 26.6446 25.0418 28.3604 24.8346 28.4494C24.5094 28.5956 24.1568 28.7326 24.0012 28.792C23.091 29.1539 21.8798 29.204 20.7361 28.937C20.656 29.0374 20.5805 29.1412 20.5026 29.2428C18.6205 31.9039 19.1758 35.5572 21.7264 37.5402C23.9107 39.0858 25.2868 37.6314 27.6577 39.3428C30.0274 41.0598 29.0658 42.8213 31.2112 44.4196C33.9003 46.2211 37.551 45.6228 39.5041 43.0096C39.6279 42.8408 39.7399 42.6752 39.8476 42.4994C39.1562 41.4548 38.7806 40.2036 38.8493 39.1602C38.8653 38.9924 38.8847 38.6155 38.9295 38.2593C38.9443 38.0504 39.4732 34.4647 39.7698 32.4406C39.6679 31.7396 39.5957 31.2692 39.5957 31.2692C39.3336 29.4357 38.768 27.5327 37.1447 26.326C36.0892 25.5827 34.8987 25.334 33.7023 25.334C33.0199 25.334 32.3365 25.4127 31.6748 25.5291Z" fill="white"/>
</mask>
<g mask="url(#mask2_4001_622)">
<path d="M32.0836 58.9076L6.57812 40.2629L25.0941 14.5801L50.7223 33.2248L32.0836 58.9076Z" fill="url(#paint7_radial_4001_622)"/>
</g>
<path fill-rule="evenodd" clip-rule="evenodd" d="M19.8618 10.2297C19.0639 12.7824 20.8818 13.6398 19.9706 16.4128C19.0708 19.1891 17.0982 18.8239 16.2373 21.3503C15.3433 24.4533 17.0467 27.7308 20.1446 28.7811C20.3369 28.8417 20.5361 28.9021 20.7364 28.9444C21.5229 27.9774 22.5933 27.2286 23.6099 26.9716C23.7793 26.9363 24.1434 26.8381 24.4903 26.7615C24.6986 26.7147 28.2853 26.1073 30.3036 25.7672C30.9459 25.4521 31.3717 25.2387 31.3717 25.2387C33.0363 24.4235 34.6768 23.299 35.3271 21.3845C35.9257 19.4598 35.2652 17.5897 34.3952 15.9561C34.3952 15.9561 34.1341 15.4492 33.7552 14.7289C32.3528 13.2961 29.6499 10.5323 29.5 10.3759C29.2607 10.1099 29.0146 9.81304 28.9127 9.68746C28.2773 8.92827 27.8652 7.79465 27.7599 6.63819C27.6454 6.59023 27.524 6.55028 27.4061 6.51032C26.8005 6.32195 26.188 6.23291 25.587 6.23291C23.0845 6.23176 20.7593 7.78666 19.8618 10.2297Z" fill="#D8D8D8"/>
<mask id="mask3_4001_622" style="mask-type:alpha" maskUnits="userSpaceOnUse" x="16" y="6" width="20" height="23">
<path fill-rule="evenodd" clip-rule="evenodd" d="M19.8618 10.2297C19.0639 12.7824 20.8818 13.6398 19.9706 16.4128C19.0708 19.1891 17.0982 18.8239 16.2373 21.3503C15.3433 24.4533 17.0467 27.7308 20.1446 28.7811C20.3369 28.8417 20.5361 28.9021 20.7364 28.9444C21.5229 27.9774 22.5933 27.2286 23.6099 26.9716C23.7793 26.9363 24.1434 26.8381 24.4903 26.7615C24.6986 26.7147 28.2853 26.1073 30.3036 25.7672C30.9459 25.4521 31.3717 25.2387 31.3717 25.2387C33.0363 24.4235 34.6768 23.299 35.3271 21.3845C35.9257 19.4598 35.2652 17.5897 34.3952 15.9561C34.3952 15.9561 34.1341 15.4492 33.7552 14.7289C32.3528 13.2961 29.6499 10.5323 29.5 10.3759C29.2607 10.1099 29.0146 9.81304 28.9127 9.68746C28.2773 8.92827 27.8652 7.79465 27.7599 6.63819C27.6454 6.59023 27.524 6.55028 27.4061 6.51032C26.8005 6.32195 26.188 6.23291 25.587 6.23291C23.0845 6.23176 20.7593 7.78666 19.8618 10.2297Z" fill="white"/>
</mask>
<g mask="url(#mask3_4001_622)">
<path d="M6.57861 27.0777L15.8979 -1.69189L42.9975 7.1983L33.6781 35.968L6.57861 27.0777Z" fill="url(#paint8_radial_4001_622)"/>
</g>
<path fill-rule="evenodd" clip-rule="evenodd" d="M39.4776 2.01839C36.5583 2.01839 36.2962 0.0365319 33.6207 0C30.3866 0.116446 27.7741 2.73876 27.7375 5.99924C27.7306 6.20586 27.7409 6.41023 27.7593 6.61685C28.9258 7.05524 29.9733 7.84524 30.5308 8.72771C30.6236 8.8727 30.8285 9.19122 31.0059 9.50403C31.1158 9.68325 32.8021 12.8924 33.7546 14.7075C34.2503 15.2121 34.5811 15.5546 34.5811 15.5546C35.876 16.8812 37.4546 18.0856 39.4776 18.1141C41.5085 18.0856 43.0825 16.8812 44.3772 15.5546C44.3772 15.5546 44.7803 15.1494 45.3446 14.5637C46.2777 12.7919 48.0774 9.36931 48.1838 9.18551C48.3647 8.8727 48.5708 8.55647 48.6578 8.41263C49.1832 7.58267 50.1334 6.83605 51.2186 6.38053C51.2198 6.25495 51.2289 6.12481 51.2198 5.99924C51.1786 2.73876 48.5766 0.116446 45.3446 0C42.6636 0.0365319 42.4047 2.01839 39.4776 2.01839Z" fill="#D8D8D8"/>
<mask id="mask4_4001_622" style="mask-type:alpha" maskUnits="userSpaceOnUse" x="27" y="0" width="25" height="19">
<path fill-rule="evenodd" clip-rule="evenodd" d="M39.4776 2.01839C36.5583 2.01839 36.2962 0.0365319 33.6207 0C30.3866 0.116446 27.7741 2.73876 27.7375 5.99924C27.7306 6.20586 27.7409 6.41023 27.7593 6.61685C28.9258 7.05524 29.9733 7.84524 30.5308 8.72771C30.6236 8.8727 30.8285 9.19122 31.0059 9.50401C31.1158 9.68325 32.8021 12.8924 33.7546 14.7075C34.2503 15.2121 34.5811 15.5546 34.5811 15.5546C35.876 16.8812 37.4546 18.0856 39.4776 18.1141C41.5085 18.0856 43.0825 16.8812 44.3772 15.5546C44.3772 15.5546 44.7803 15.1494 45.3446 14.5637C46.2777 12.7919 48.0774 9.36931 48.1838 9.18551C48.3647 8.8727 48.5708 8.55647 48.6578 8.41263C49.1832 7.58267 50.1334 6.83605 51.2186 6.38053C51.2198 6.25495 51.2289 6.12481 51.2198 5.99924C51.1786 2.73876 48.5766 0.116446 45.3446 0C42.6636 0.0365319 42.4047 2.01839 39.4776 2.01839Z" fill="white"/>
</mask>
<g mask="url(#mask4_4001_622)">
<path d="M27.3018 -1.33447H52.4394V18.2981H27.3018V-1.33447Z" fill="url(#paint9_radial_4001_622)"/>
</g>
<defs>
<radialGradient id="paint0_radial_4001_622" cx="0" cy="0" r="1" gradientUnits="userSpaceOnUse" gradientTransform="translate(35.3746 18.9547) rotate(-75.3595) scale(12.1619 9.485)">
<stop stop-color="#F4ECE0"/>
<stop offset="0.5112" stop-color="#B48C80"/>
<stop offset="1" stop-color="#933F39"/>
</radialGradient>
<radialGradient id="paint1_radial_4001_622" cx="0" cy="0" r="1" gradientUnits="userSpaceOnUse" gradientTransform="translate(35.9345 26.3029) rotate(-165.493) scale(11.1363 5.64855)">
<stop stop-color="#F4EDEB"/>
<stop offset="0.5112" stop-color="#B49B9E"/>
<stop offset="1" stop-color="#785830"/>
</radialGradient>
<radialGradient id="paint2_radial_4001_622" cx="0" cy="0" r="1" gradientUnits="userSpaceOnUse" gradientTransform="translate(39.8393 25.3456) rotate(104.86) scale(9.08749 4.78138)">
<stop stop-color="#EFEBE0"/>
<stop offset="0.5112" stop-color="#AE9954"/>
<stop offset="1" stop-color="#91592F"/>
</radialGradient>
<radialGradient id="paint3_radial_4001_622" cx="0" cy="0" r="1" gradientUnits="userSpaceOnUse" gradientTransform="translate(43.8853 18.7599) rotate(75.7991) scale(12.2838 9.31675)">
<stop stop-color="#E2DDDB"/>
<stop offset="0.5112" stop-color="#9D8F8C"/>
<stop offset="1" stop-color="#2B2E2E"/>
</radialGradient>
<radialGradient id="paint4_radial_4001_622" cx="0" cy="0" r="1" gradientUnits="userSpaceOnUse" gradientTransform="translate(42.6078 25.3806) rotate(53.4147) scale(7.609 15.3882)">
<stop stop-color="#B4C9B6"/>
<stop offset="0.5112" stop-color="#889281"/>
<stop offset="1" stop-color="#194936"/>
</radialGradient>
<radialGradient id="paint5_radial_4001_622" cx="0" cy="0" r="1" gradientUnits="userSpaceOnUse" gradientTransform="translate(40.3434 22.1427) rotate(72.1179) scale(19.2512 18.7372)">
<stop stop-color="#8FD0F1"/>
<stop offset="0.5112" stop-color="#4B97D1"/>
<stop offset="1" stop-color="#0064AD"/>
</radialGradient>
<radialGradient id="paint6_radial_4001_622" cx="0" cy="0" r="1" gradientUnits="userSpaceOnUse" gradientTransform="translate(40.3515 22.9289) rotate(143.81) scale(19.1782 19.2188)">
<stop stop-color="#FFF0E2"/>
<stop offset="0.5112" stop-color="#FFD02A"/>
<stop offset="1" stop-color="#F59324"/>
</radialGradient>
<radialGradient id="paint7_radial_4001_622" cx="0" cy="0" r="1" gradientUnits="userSpaceOnUse" gradientTransform="translate(39.5467 23.1358) rotate(-143.81) scale(19.1789 19.2031)">
<stop stop-color="#EDE6F1"/>
<stop offset="0.5112" stop-color="#C2A4CE"/>
<stop offset="1" stop-color="#8D5BA4"/>
</radialGradient>
<radialGradient id="paint8_radial_4001_622" cx="0" cy="0" r="1" gradientUnits="userSpaceOnUse" gradientTransform="translate(39.0986 22.518) rotate(-72.118) scale(19.2498 18.7372)">
<stop stop-color="#F6F8E8"/>
<stop offset="0.5112" stop-color="#B2D138"/>
<stop offset="1" stop-color="#74BD43"/>
</radialGradient>
<radialGradient id="paint9_radial_4001_622" cx="0" cy="0" r="1" gradientUnits="userSpaceOnUse" gradientTransform="translate(39.8442 22.4846) scale(19.1335 14.9432)">
<stop stop-color="#FFF5E5"/>
<stop offset="0.5112" stop-color="#FAB678"/>
<stop offset="1" stop-color="#E91D26"/>
</radialGradient>
</defs>
</svg>
