<svg width="226" height="31" viewBox="0 0 226 31" fill="none" xmlns="http://www.w3.org/2000/svg">
<g clip-path="url(#clip0_4001_639)">
<path fill-rule="evenodd" clip-rule="evenodd" d="M4 5.08837L29.3521 10.3076L43.5914 4.80566L31.2842 18.0603L4 5.08837Z" fill="#E30613"/>
<path fill-rule="evenodd" clip-rule="evenodd" d="M128.36 7.6211L134.356 13.7537L145.281 6.44678L131.791 22.0609L128.36 7.6211Z" fill="#E30613"/>
<path fill-rule="evenodd" clip-rule="evenodd" d="M59.8772 18.615C59.6265 19.1471 59.3451 19.6661 59.0341 20.1699C58.7625 20.5903 58.4613 20.9935 58.1324 21.3769C57.7857 21.7776 57.393 22.1422 56.9614 22.4642C56.4443 22.8151 55.8959 23.1243 55.3221 23.3885C54.6767 23.6765 53.9966 23.8919 53.2962 24.03C52.4945 24.1797 51.6783 24.2526 50.8605 24.2475C49.7056 24.2806 48.555 24.0994 47.4764 23.7147C46.6557 23.4234 45.9466 22.9125 45.4388 22.2467C44.8742 21.4571 44.6028 20.5179 44.666 19.5719C44.666 19.3653 44.666 19.2457 44.666 19.2131C44.7197 18.6869 44.8255 18.1664 44.9821 17.6582C45.1278 17.144 45.3197 16.642 45.5559 16.1577C45.813 15.6528 46.1024 15.1626 46.4225 14.6898C47.2528 13.566 48.3663 12.6477 49.6661 12.0149C51.3266 11.2276 53.1783 10.853 55.041 10.9276C56.3646 10.8464 57.6845 11.1302 58.835 11.7431C59.6089 12.192 60.1731 12.8944 60.4159 13.7111C60.4818 13.9762 60.5288 14.245 60.5564 14.5158C60.5853 14.8051 60.5853 15.0963 60.5564 15.3856C60.5564 15.5596 60.5564 15.7336 60.5564 15.8967C60.5564 16.0598 60.4979 16.212 60.4862 16.3208H55.5211C55.6291 15.7311 55.5434 15.1249 55.2752 14.581C55.1304 14.395 54.9345 14.2484 54.708 14.1566C54.4814 14.0648 54.2325 14.0312 53.9871 14.0591C53.5348 14.0599 53.0864 14.1373 52.6639 14.2874C52.4379 14.354 52.2302 14.4653 52.055 14.6136C51.8373 14.784 51.6337 14.9694 51.446 15.1682C50.9219 15.815 50.5472 16.5554 50.3453 17.3429C50.1843 17.8501 50.0784 18.371 50.0291 18.8977C49.9518 19.3706 50.0379 19.8541 50.2751 20.2787C50.4234 20.5436 50.6523 20.7621 50.9334 20.9071C51.2145 21.0521 51.5353 21.1172 51.8559 21.0942C52.1847 21.1137 52.5142 21.0686 52.8229 20.9618C53.1317 20.855 53.4126 20.6889 53.6475 20.4744C53.9023 20.2495 54.1229 19.9934 54.3033 19.7133C54.5371 19.3699 54.7332 19.0056 54.8888 18.6259L59.8772 18.615ZM73.8589 23.8016H68.7534L71.4818 14.494H67.1491L64.4207 23.8016H59.3152L62.957 11.3625H77.5007L73.8589 23.8016ZM93.4263 17.5712C92.9765 19.2638 91.9696 20.7842 90.5457 21.9205C90.1159 22.2665 89.6534 22.5759 89.1639 22.8448C88.2559 23.3405 87.2731 23.707 86.2481 23.9321C85.7212 24.0409 85.2411 24.117 84.7961 24.1713C84.3299 24.2247 83.8605 24.2502 83.3909 24.2475C82.4225 24.2699 81.4558 24.1599 80.5219 23.9213C79.6792 23.7011 78.9047 23.2987 78.2619 22.7469C77.6281 22.159 77.2171 21.3958 77.0909 20.5723C76.9981 20.1063 76.9706 19.6312 77.0089 19.1587C77.0612 18.6145 77.1671 18.0758 77.3251 17.5495C77.6364 16.367 78.2064 15.2566 78.9996 14.2874C79.3575 13.8691 79.749 13.4766 80.1706 13.1131C80.9922 12.439 81.9411 11.9118 82.9693 11.5582C84.3627 11.094 85.8334 10.8621 87.3137 10.8732C88.2218 10.8679 89.1268 10.9703 90.007 11.1777C90.8687 11.3646 91.6709 11.7371 92.349 12.265C92.6791 12.5243 92.9601 12.833 93.1804 13.1784C93.4168 13.5464 93.5906 13.9462 93.6956 14.3636C93.827 14.876 93.8666 15.405 93.8127 15.9293C93.7537 16.4914 93.6441 17.0479 93.4849 17.5929L93.4263 17.5712ZM88.1568 17.5712C88.2963 17.1236 88.3903 16.665 88.4379 16.2012C88.489 15.9176 88.4792 15.6275 88.4088 15.3475C88.3385 15.0676 88.209 14.8034 88.028 14.5701C87.8145 14.3733 87.5569 14.2226 87.2736 14.1286C86.9902 14.0347 86.6881 13.9998 86.3886 14.0265C85.954 14.0159 85.5217 14.0886 85.1188 14.2402C84.7158 14.3917 84.3508 14.6188 84.0466 14.9072C83.3328 15.6701 82.8339 16.5854 82.5946 17.5712C82.4553 18.0225 82.3612 18.4847 82.3136 18.9521C82.217 19.5231 82.3594 20.1067 82.7117 20.5831C82.9197 20.7807 83.173 20.9322 83.4528 21.0264C83.7326 21.1205 84.0316 21.1548 84.3277 21.1268C84.763 21.1353 85.1956 21.0606 85.5985 20.9072C86.0015 20.7538 86.3661 20.525 86.6697 20.2352C87.3935 19.4772 87.8973 18.5603 88.1334 17.5712H88.1568ZM110.043 17.4733C109.692 18.945 108.928 20.3039 107.827 21.4118C106.727 22.5197 105.329 23.3368 103.778 23.7799C102.938 23.9962 102.073 24.1202 101.202 24.1496C100.399 24.1489 99.604 24.0049 98.8598 23.7255C98.6684 23.6537 98.4842 23.5664 98.3094 23.4646C98.1358 23.3609 97.9713 23.2445 97.8176 23.1166L96.3538 28.0966H91.2131L96.1782 11.1124H101.038L100.745 11.9932C102.059 11.1585 103.614 10.7114 105.207 10.7101C106.064 10.6286 106.93 10.761 107.714 11.0935C108.498 11.4261 109.173 11.9468 109.668 12.6021C110.261 13.5401 110.511 14.6309 110.382 15.7119C110.321 16.3067 110.208 16.8958 110.043 17.4733ZM104.797 17.4733C104.907 17.1181 104.982 16.7541 105.019 16.386C105.045 16.0764 105.021 15.765 104.949 15.4618C104.919 15.2466 104.842 15.0394 104.723 14.8526C104.604 14.6657 104.446 14.5031 104.258 14.3744C103.886 14.149 103.449 14.0352 103.005 14.0482C102.605 14.041 102.207 14.1076 101.834 14.2439C101.444 14.39 101.08 14.5917 100.757 14.842C100.376 15.1432 100.065 15.5131 99.8434 15.9293C99.5852 16.3973 99.3811 16.8893 99.2345 17.3972C99.2345 17.5712 99.1408 17.7669 99.1057 17.9626C99.0705 18.1584 99.0354 18.3432 99.0237 18.5172C98.9684 18.9839 99.0285 19.4562 99.1993 19.8981C99.3115 20.1886 99.5372 20.4292 99.8317 20.5723C100.197 20.733 100.598 20.8113 101.003 20.8006C101.438 20.8139 101.871 20.7423 102.274 20.5906C102.678 20.4389 103.042 20.2104 103.345 19.9198C104.048 19.2051 104.548 18.3377 104.797 17.3972V17.4733ZM124.704 14.5375H120.184L117.455 23.8451H112.361L115.09 14.5375H110.558L111.471 11.406H125.676L124.762 14.5375H124.704ZM157.175 23.3993H151.988V22.5838C151.323 22.9981 150.58 23.2932 149.798 23.4537C148.939 23.6504 148.06 23.7598 147.175 23.7799C146.339 23.8046 145.504 23.7017 144.704 23.4754C144.154 23.3402 143.675 23.0232 143.358 22.5838C142.978 22.0312 142.805 21.3776 142.866 20.7245C142.884 20.497 142.923 20.2715 142.983 20.0503C143.194 19.3119 143.596 18.6325 144.154 18.0714C144.694 17.549 145.344 17.1345 146.063 16.8536C146.737 16.5698 147.45 16.3723 148.182 16.2664L149.353 16.0707L150.712 15.9076L151.683 15.8097L152.854 15.6575C153.094 15.6329 153.325 15.5625 153.534 15.4509C153.666 15.3596 153.761 15.2292 153.803 15.0812L153.897 14.7985C153.903 14.7225 153.903 14.6461 153.897 14.5701C153.897 13.9395 153.463 13.6242 152.445 13.6242C152.087 13.6136 151.729 13.6428 151.379 13.7111C151.125 13.7616 150.891 13.8742 150.7 14.0373C150.505 14.2051 150.339 14.3994 150.208 14.6136C150.047 14.8902 149.917 15.1817 149.822 15.4835H144.903C145.05 15.0084 145.242 14.5463 145.477 14.1026C145.679 13.716 145.927 13.3513 146.215 13.0153C146.559 12.6539 146.953 12.3359 147.386 12.0693C147.885 11.7469 148.419 11.4736 148.978 11.2538C149.617 11.0211 150.28 10.8534 150.957 10.7536C151.767 10.6361 152.585 10.578 153.405 10.5796C154.233 10.5694 155.061 10.635 155.876 10.7753C156.473 10.8707 157.047 11.0621 157.574 11.3408C157.942 11.5242 158.264 11.7796 158.517 12.0892C158.769 12.3989 158.947 12.7556 159.037 13.1349C159.037 13.2762 159.037 13.4176 159.037 13.5589C159.049 13.7182 159.049 13.8781 159.037 14.0373C159.002 14.4414 158.928 14.8418 158.815 15.2334L157.211 20.5505C157.117 20.8767 157.047 21.1485 157 21.366C156.949 21.5516 156.913 21.7407 156.894 21.9314C156.906 21.9779 156.906 22.0263 156.894 22.0728C156.903 22.1789 156.943 22.2807 157.011 22.3664C157.132 22.4754 157.276 22.5605 157.433 22.6164L157.211 23.3667L157.175 23.3993ZM152.89 18.1584V18.0605L152.491 18.1475C152.279 18.1734 152.068 18.2097 151.859 18.2562L150.864 18.4084C150.544 18.4464 150.227 18.5045 149.915 18.5824C149.584 18.6539 149.259 18.7484 148.943 18.8651C148.76 18.9296 148.598 19.0384 148.475 19.1805C148.34 19.3514 148.248 19.5483 148.206 19.7567C148.206 19.822 148.206 19.8872 148.206 19.9198C148.198 20.1294 148.273 20.3344 148.416 20.4961C148.54 20.6127 148.693 20.6987 148.861 20.7462C149.098 20.8047 149.343 20.8304 149.587 20.8223C150.253 20.8019 150.897 20.5974 151.438 20.2352C152.164 19.7166 152.68 18.9845 152.901 18.1584H152.89ZM174.764 18.1584C174.53 18.694 174.257 19.2136 173.944 19.7133C173.677 20.1336 173.38 20.5368 173.054 20.9202C172.692 21.3261 172.279 21.691 171.825 22.0075C171.317 22.3708 170.767 22.6808 170.185 22.9318C169.544 23.2314 168.863 23.4507 168.159 23.5842C167.358 23.7344 166.542 23.8073 165.724 23.8016C164.568 23.8304 163.418 23.6456 162.34 23.258C161.524 22.9571 160.828 22.4291 160.349 21.7466C159.898 21.0944 159.636 20.3454 159.588 19.5719C159.576 19.3945 159.576 19.2165 159.588 19.0391C159.581 18.916 159.581 18.7926 159.588 18.6694C159.624 18.1471 159.718 17.6297 159.869 17.1254C160.009 16.6061 160.201 16.1002 160.443 15.614C160.698 15.1117 160.987 14.625 161.309 14.157C162.12 13.0295 163.223 12.1096 164.518 11.4821C166.178 10.6948 168.03 10.3202 169.892 10.3948C171.216 10.3137 172.536 10.5974 173.687 11.2103C174.458 11.6616 175.021 12.363 175.267 13.1784C175.332 13.4472 175.379 13.7196 175.408 13.9939C175.431 14.2834 175.431 14.5742 175.408 14.8637C175.408 15.0377 175.408 15.2008 175.408 15.3748C175.408 15.5487 175.349 15.6901 175.338 15.7988H170.431C170.534 15.2055 170.449 14.5971 170.185 14.0482C170.039 13.8613 169.841 13.7143 169.612 13.6225C169.383 13.5307 169.133 13.4975 168.885 13.5263C168.437 13.5325 167.994 13.6097 167.574 13.7546C167.35 13.832 167.14 13.9421 166.953 14.0808C166.74 14.2558 166.54 14.4448 166.356 14.6463C165.805 15.2866 165.406 16.0277 165.185 16.8209C165.032 17.3298 164.926 17.8501 164.869 18.3758C164.798 18.8522 164.883 19.3374 165.115 19.7676C165.258 20.0558 165.493 20.296 165.789 20.4555C166.084 20.6151 166.425 20.6862 166.766 20.6592C167.095 20.6788 167.424 20.6336 167.733 20.5268C168.042 20.42 168.323 20.254 168.558 20.0395C168.803 19.8071 169.023 19.5521 169.213 19.2783C169.449 18.9357 169.645 18.5713 169.799 18.191L174.764 18.1584ZM189.987 14.0373H185.502L182.773 23.345H177.68L180.408 14.0373H175.865L176.719 10.8732H190.924L190.01 14.0047L189.987 14.0373ZM204.542 18.2453H193.933C193.933 18.2997 193.933 18.365 193.933 18.4084C193.927 18.4772 193.927 18.5463 193.933 18.615C193.898 18.8386 193.898 19.0656 193.933 19.2892C193.964 19.4953 194.035 19.6943 194.144 19.8764C194.253 20.051 194.392 20.2088 194.554 20.3439C194.74 20.4837 194.955 20.5872 195.186 20.6484C195.457 20.7164 195.737 20.7493 196.017 20.7462C196.6 20.7452 197.175 20.6264 197.704 20.3983C197.946 20.2924 198.165 20.1448 198.348 19.9633C198.583 19.7236 198.783 19.4568 198.945 19.1696H204.109C203.839 19.6487 203.534 20.1101 203.196 20.5505C202.912 20.9096 202.586 21.2379 202.224 21.5291C201.868 21.8544 201.476 22.1425 201.053 22.3881C200.525 22.6699 199.973 22.9099 199.402 23.1057C197.994 23.5741 196.505 23.7989 195.01 23.769C193.893 23.7892 192.78 23.631 191.72 23.3015C191.308 23.1506 190.915 22.9573 190.549 22.7252C190.211 22.5074 189.911 22.2434 189.659 21.9423C189.412 21.649 189.215 21.3227 189.073 20.9746C188.928 20.5954 188.834 20.2009 188.792 19.8002C188.792 19.6589 188.792 19.4849 188.792 19.2892C188.792 19.0935 188.792 18.9086 188.792 18.7129C188.845 18.173 188.947 17.6383 189.097 17.1145C189.478 15.7806 190.199 14.5516 191.2 13.5314C192.201 12.5112 193.452 11.73 194.846 11.2538C195.532 11.0091 196.242 10.827 196.966 10.7101C197.719 10.5793 198.483 10.5138 199.249 10.5144C200.387 10.4754 201.52 10.6607 202.575 11.058C203.38 11.3704 204.071 11.8913 204.566 12.5586C204.77 12.9016 204.927 13.2669 205.034 13.6459C205.152 13.9985 205.219 14.3642 205.233 14.7332C205.258 15.0953 205.258 15.4585 205.233 15.8206C205.193 16.3583 205.09 16.8904 204.929 17.4081L204.659 18.3323L204.542 18.2453ZM200.022 15.6249C200.064 15.4715 200.091 15.315 200.104 15.1573C200.137 14.9624 200.121 14.763 200.058 14.5746C199.995 14.3861 199.887 14.2135 199.741 14.07C199.313 13.7269 198.76 13.5481 198.195 13.5698C197.74 13.5631 197.287 13.6181 196.849 13.7329C196.472 13.8546 196.128 14.0513 195.842 14.3092C195.608 14.5375 195.397 14.755 195.221 14.9616C195.036 15.1797 194.871 15.4126 194.729 15.6575L200.022 15.6249ZM222.622 17.0167C222.213 18.7098 221.262 20.2486 219.894 21.4312C218.884 22.2928 217.686 22.9419 216.381 23.3341C215.541 23.5518 214.676 23.6759 213.805 23.7038C213.002 23.7044 212.207 23.5604 211.463 23.2797C211.268 23.2023 211.081 23.1114 210.901 23.0079C210.737 22.91 210.573 22.7904 210.409 22.6708L208.922 27.6399H203.816L208.781 10.6557H213.606L213.325 11.5365C214.635 10.7021 216.186 10.2549 217.775 10.2534C218.634 10.1711 219.502 10.303 220.288 10.6355C221.074 10.9681 221.751 11.4893 222.248 12.1454C222.839 13.0723 223.093 14.1511 222.974 15.2225C222.924 15.8144 222.814 16.4005 222.646 16.9732L222.622 17.0167ZM217.365 17.0167C217.481 16.6628 217.556 16.2982 217.587 15.9293C217.625 15.6199 217.602 15.3065 217.517 15.0051C217.49 14.7903 217.416 14.5829 217.299 14.3958C217.182 14.2088 217.025 14.046 216.838 13.9177C216.461 13.6934 216.02 13.5797 215.573 13.5915C215.192 13.5921 214.815 13.6585 214.461 13.7873C214.076 13.9377 213.717 14.1391 213.395 14.3853C213.018 14.6901 212.708 15.0592 212.482 15.4726C212.19 15.9669 211.966 16.4928 211.814 17.0384C211.754 17.2274 211.707 17.4199 211.674 17.6147C211.64 17.7983 211.617 17.9834 211.603 18.1692C211.549 18.6324 211.609 19.101 211.779 19.5393C211.827 19.6868 211.908 19.8233 212.017 19.9395C212.126 20.0557 212.261 20.1491 212.411 20.2134C212.776 20.3754 213.178 20.4537 213.582 20.4418C214.017 20.453 214.45 20.3806 214.853 20.229C215.256 20.0774 215.621 19.85 215.924 19.561C216.627 18.8455 217.126 17.9784 217.376 17.0384L217.365 17.0167ZM29.2556 8.31795C28.3751 8.32011 27.5136 8.0796 26.7803 7.6269C26.047 7.17419 25.4748 6.52963 25.1362 5.77482C24.7976 5.02001 24.7078 4.18889 24.8782 3.38667C25.0486 2.58444 25.4715 1.8472 26.0933 1.26825C26.7152 0.689311 27.508 0.294706 28.3715 0.134393C29.235 -0.0259197 30.1303 0.055268 30.9441 0.367678C31.7579 0.680089 32.4535 1.20967 32.943 1.88939C33.4324 2.56911 33.6937 3.3684 33.6937 4.18607C33.6937 5.28003 33.2265 6.32935 32.3946 7.10392C31.5626 7.87848 30.4338 8.31507 29.2556 8.31795ZM53.2962 30.6736L22.4404 24.8346L6.15186 30.9998L20.5785 15.4726L53.2962 30.6954V30.6736ZM123.439 23.3341H130.161L127.093 10.808L123.439 23.3341ZM133.311 23.3341H140.032L143.709 10.8732L133.252 23.3123L133.311 23.3341Z" fill="#1551E5"/>
</g>
<defs>
<clipPath id="clip0_4001_639">
<rect width="219" height="31" fill="white" transform="translate(4)"/>
</clipPath>
</defs>
</svg>
