<svg width="226" height="45" viewBox="0 0 226 45" fill="none" xmlns="http://www.w3.org/2000/svg">
<g clip-path="url(#clip0_4001_627)">
<path fill-rule="evenodd" clip-rule="evenodd" d="M31 22.5267C31 10.0945 41.0463 0 53.484 0C65.9226 0 76.1283 10.0412 76.1283 22.4734C76.1283 34.9055 66.0285 45.0001 53.5909 45.0001C47.6372 45.0001 42.1628 42.6624 38.1225 38.837L47.6372 30.3366C49.2852 31.6115 51.3579 32.3554 53.5909 32.3554C59.0119 32.3554 63.4243 27.9457 63.4243 22.5267C63.4243 17.1073 59.0119 12.6978 53.5909 12.6978C48.1687 12.6978 43.7573 17.1073 43.7573 22.5267C43.7573 24.3861 44.2354 26.0862 45.1391 27.5737L35.5708 36.0745C32.7004 32.3023 31 27.6272 31 22.5267ZM57.6857 28.1479C57.4151 27.8377 57.4687 27.3206 57.7939 27.0622C59.3088 25.9248 60.1743 24.1672 60.1197 22.3061C60.1197 20.6519 59.4168 19.0492 58.1725 17.9121C57.8473 17.6017 57.8473 17.1364 58.1725 16.8265C58.4968 16.5164 58.9836 16.5164 59.3088 16.8265C60.877 18.2738 61.7425 20.2382 61.7425 22.3061C61.7425 24.6324 60.7155 26.8037 58.822 28.2511C58.7139 28.3546 58.4968 28.4063 58.3351 28.4063C58.0645 28.4063 57.8473 28.3546 57.6857 28.1479Z" fill="#23B250"/>
<path d="M108.8 35.1984C106.301 35.1984 104.13 34.7095 102.285 33.7317C100.464 32.7305 99.0281 31.4151 97.9775 29.7852C96.9501 28.1322 96.3197 26.3278 96.0862 24.3721H91.6732V34.7445H87.6455V10.2978H91.6732V20.6702H96.0862C96.3197 18.6912 96.9501 16.8867 97.9775 15.257C99.0281 13.6272 100.464 12.3233 102.285 11.3455C104.13 10.3443 106.301 9.84375 108.8 9.84375C111.555 9.84375 113.901 10.4375 115.839 11.6249C117.801 12.789 119.272 14.3373 120.252 16.2698C121.233 18.2022 121.723 20.286 121.723 22.5211C121.723 24.7562 121.233 26.84 120.252 28.7724C119.272 30.7049 117.801 32.2649 115.839 33.4523C113.901 34.6164 111.555 35.1984 108.8 35.1984ZM99.9738 22.5211C99.9738 24.1276 100.301 25.6177 100.955 26.9914C101.632 28.3417 102.636 29.4244 103.966 30.2393C105.297 31.0542 106.908 31.4616 108.8 31.4616C110.691 31.4616 112.302 31.0542 113.633 30.2393C114.964 29.4244 115.956 28.3417 116.61 26.9914C117.287 25.6177 117.626 24.1276 117.626 22.5211C117.626 20.9146 117.287 19.4362 116.61 18.0858C115.956 16.7122 114.964 15.6178 113.633 14.8029C112.302 13.9881 110.691 13.5806 108.8 13.5806C106.908 13.5806 105.297 13.9881 103.966 14.8029C102.636 15.6178 101.632 16.7122 100.955 18.0858C100.301 19.4362 99.9738 20.9146 99.9738 22.5211Z" fill="black"/>
<path d="M129.487 21.2638H123.673V17.981H139.049V21.2638H133.235V34.7444H129.487V21.2638Z" fill="black"/>
<path d="M149.942 35.1984C148.191 35.1984 146.591 34.8724 145.144 34.2206C143.696 33.5453 142.54 32.5442 141.676 31.2171C140.836 29.8667 140.416 28.2485 140.416 26.3626C140.416 24.4535 140.836 22.8353 141.676 21.5082C142.517 20.1578 143.591 19.1567 144.899 18.5048C146.206 17.8528 147.549 17.5269 148.926 17.5269C150.724 17.5269 152.23 17.8994 153.444 18.6445C154.682 19.3662 155.592 20.3325 156.176 21.5431C156.783 22.7305 157.087 24.0344 157.087 25.4546C157.087 26.2695 157.005 27.0379 156.841 27.7596H144.163C144.373 29.1799 145.085 30.2509 146.3 30.9726C147.514 31.6711 148.961 32.0204 150.642 32.0204C152.557 32.0204 154.332 31.6245 155.966 30.8329V34.0459C155.195 34.4184 154.285 34.6979 153.234 34.8841C152.183 35.0936 151.086 35.1984 149.942 35.1984ZM153.479 24.9656C153.503 24.8725 153.514 24.7329 153.514 24.5466C153.514 23.9645 153.363 23.3708 153.059 22.7656C152.779 22.1602 152.3 21.6595 151.623 21.2638C150.969 20.8446 150.117 20.6351 149.066 20.6351C147.759 20.6351 146.626 21.0193 145.669 21.7877C144.735 22.5559 144.233 23.6154 144.163 24.9656H153.479Z" fill="black"/>
<path d="M160.654 17.981H164.401V24.6165H167.168L172.001 17.981H176.275L170.18 26.2929L176.939 34.7444H172.632L167.098 27.7946H164.401V34.7444H160.654V17.981Z" fill="black"/>
<path d="M183.917 35.1984C182.282 35.1984 180.893 34.7561 179.749 33.8713C178.606 32.9633 178.033 31.6944 178.033 30.0646C178.033 28.1089 178.769 26.6886 180.24 25.8039C181.711 24.8959 183.474 24.4418 185.529 24.4418C186.905 24.4418 188.353 24.6048 189.871 24.9308V24.337C189.871 23.266 189.486 22.4046 188.716 21.7526C187.944 21.1008 186.859 20.7749 185.458 20.7749C183.403 20.7749 181.395 21.2056 179.434 22.0671V18.6445C181.629 17.8994 183.777 17.5269 185.878 17.5269C188.329 17.5269 190.233 18.1322 191.587 19.343C192.941 20.5537 193.618 22.393 193.618 24.8609V30.8678C193.618 31.6827 194.038 32.0901 194.88 32.0901C195.159 32.0901 195.533 32.0204 196 31.8806V34.5698C195.3 34.8492 194.506 34.9888 193.618 34.9888C192.007 34.9888 190.899 34.3719 190.291 33.1379L190.256 33.0332C188.506 34.4767 186.392 35.1984 183.917 35.1984ZM181.886 29.8202C181.886 30.6117 182.189 31.2287 182.797 31.6711C183.403 32.0901 184.151 32.2997 185.038 32.2997C185.949 32.2997 186.825 32.1367 187.665 31.8108C188.506 31.4615 189.241 30.9726 189.871 30.344V27.4802C188.564 27.2009 187.361 27.0611 186.263 27.0611C185.027 27.0611 183.987 27.2823 183.147 27.7247C182.306 28.1671 181.886 28.8656 181.886 29.8202Z" fill="black"/>
</g>
<defs>
<clipPath id="clip0_4001_627">
<rect width="165" height="45" fill="white" transform="translate(31)"/>
</clipPath>
</defs>
</svg>
