<svg width="227" height="27" viewBox="0 0 227 27" fill="none" xmlns="http://www.w3.org/2000/svg">
<path d="M6.90687 25.942L0 0.456762H4.53072L9.8384 20.0296L15.5261 0.454875L19.7494 0.456762L25.4569 20.1343L30.7881 0.461481L35.3188 0.454875L28.4082 25.9373L23.1562 25.9316L17.6401 6.89956L12.1165 25.9364L6.90687 25.942ZM38.4437 0.469974H42.7566V25.9241H38.4437V0.469974ZM51.9783 21.9321H62.4777V25.925H47.754V0.469974H51.9783V21.9321ZM75.7445 0.49923C79.2842 0.49923 82.229 1.73173 84.5495 4.16937C86.8992 6.60607 88.0873 9.62976 88.0873 13.2121C88.0873 16.7643 86.8983 19.7889 84.5476 22.2549C82.228 24.6916 79.2833 25.925 75.7436 25.925H65.6016V0.469974H75.7445V0.49923ZM75.7445 21.9614C78.1839 21.9614 80.1762 21.1394 81.6642 19.4954C83.2106 17.8515 83.9837 15.7366 83.9837 13.2414C83.9837 10.6867 83.2106 8.63224 81.6642 6.98733C80.1461 5.34336 78.1537 4.52138 75.7445 4.52138H69.8551V21.9614H75.7445ZM110.844 18.6536C110.844 20.7393 110.101 22.4719 108.584 23.8526C107.066 25.2333 105.281 25.9382 103.081 25.9382H92.0447V0.469974H102.277C104.389 0.469974 106.173 1.17494 107.631 2.49615C109.119 3.84756 109.833 5.52267 109.833 7.51959C109.833 9.75244 108.94 11.4559 107.215 12.7195C109.476 13.8944 110.844 16.0093 110.844 18.6536ZM96.2982 4.40625V11.1039H102.307C104.181 11.1039 105.609 9.63448 105.609 7.75458C105.609 5.87468 104.181 4.40625 102.307 4.40625H96.2982ZM103.11 22.002C105.073 22.002 106.62 20.4448 106.62 18.4479C106.62 16.45 105.073 14.8929 103.11 14.8929H96.2982V22.0312H103.11V22.002ZM119.083 21.9435H130.505V25.9382H114.86V0.469974H130.327V4.46476H119.083V11.0746H129.405V15.0401H119.083V21.9435ZM149.007 25.9382L143.534 16.6558H138.536V25.9382H134.313V0.469974H144.634C146.955 0.469974 148.918 1.2627 150.494 2.87836C152.1 4.4355 152.934 6.37391 152.934 8.66527C152.934 11.8966 150.881 14.8636 147.817 16.0386L153.677 25.9382H149.007ZM138.536 4.40625V12.9252H144.605C146.865 12.9252 148.65 11.0444 148.65 8.66527C148.65 6.3154 146.836 4.40625 144.605 4.40625H138.536ZM171.584 25.9382L166.14 16.6511H161.143V25.9382H156.919V0.456762H167.241C169.561 0.456762 171.524 1.24949 173.101 2.86703C174.707 4.42418 175.54 6.36447 175.54 8.65678C175.54 11.89 173.487 14.858 170.424 16.0339L176.283 25.9382H171.584ZM161.143 4.39492V12.9186H167.211C169.471 12.9186 171.256 11.0368 171.256 8.65678C171.256 6.30502 169.442 4.39492 167.211 4.39492H161.143ZM179.377 0.459593H183.601V25.9382H179.377V0.459593ZM192.822 21.9435H204.244V25.9382H188.598V0.469974H204.065V4.46476H192.822V11.0746H203.143V15.0401H192.822V21.9435ZM207.189 20.141L210.848 18.027C211.889 20.9054 214.001 22.3134 217.242 22.3134C220.455 22.3134 222.032 20.9639 222.032 18.967C222.032 17.91 221.586 17.1456 220.753 16.6171C219.919 16.0603 218.373 15.4431 216.172 14.7976C213.703 14.0634 212.484 13.5934 210.758 12.4779C209.093 11.3039 208.259 9.62976 208.259 7.34028C208.259 5.07912 209.063 3.31813 210.699 1.99692C212.305 0.645507 214.269 0 216.559 0C220.694 0 223.876 2.11394 225.542 5.60761L221.972 7.63378C220.901 5.28485 219.087 4.08066 216.559 4.08066C214.089 4.08066 212.513 5.31411 212.513 7.25157C212.513 9.13147 213.762 10.012 217.719 11.2152C218.7 11.5389 219.414 11.7739 219.86 11.9494C220.336 12.0967 220.96 12.3609 221.764 12.6836C222.597 13.0064 223.252 13.3886 223.638 13.7114C225.006 14.7683 226.463 16.5001 226.285 18.9377C226.285 21.2272 225.452 23.0769 223.757 24.4273C222.091 25.7788 219.89 26.4243 217.154 26.4243C212.156 26.395 208.527 24.0461 207.189 20.141Z" fill="#D903A3"/>
</svg>
