<svg width="226" height="34" viewBox="0 0 226 34" fill="none" xmlns="http://www.w3.org/2000/svg">
<g clip-path="url(#clip0_4001_630)">
<path fill-rule="evenodd" clip-rule="evenodd" d="M33.3793 17C33.3793 20.3623 32.4005 23.6491 30.5666 26.4447C28.7327 29.2403 26.1261 31.4193 23.0765 32.706C20.0269 33.9926 16.6711 34.3293 13.4337 33.6734C10.1962 33.0174 7.22238 31.3983 4.88829 29.0208C2.5542 26.6433 0.964668 23.6142 0.320694 20.3165C-0.323279 17.0189 0.00723139 13.6007 1.27043 10.4944C2.53363 7.38804 4.67278 4.73301 7.41738 2.86502C10.162 0.997039 13.3887 6.72863e-06 16.6896 6.72863e-06C18.8819 -0.00198084 21.053 0.436381 23.0788 1.29001C25.1046 2.14363 26.9452 3.39577 28.4954 4.97476C30.0455 6.55375 31.2748 8.4286 32.1128 10.492C32.9509 12.5555 33.3812 14.767 33.3793 17Z" fill="#FF5226"/>
<path fill-rule="evenodd" clip-rule="evenodd" d="M19.3899 27.7137V9.5804H17.2981C16.0741 9.49544 14.8588 9.84228 13.8563 10.5626C13.4762 10.8563 13.1711 11.239 12.9671 11.6783C12.7631 12.1176 12.6661 12.6006 12.6843 13.0862C12.6677 13.7847 12.8099 14.4777 13.0997 15.1111C13.4051 15.6861 13.8126 16.1985 14.3014 16.6222C14.9467 17.1625 15.6202 17.6669 16.319 18.1333L18.3069 19.5084L12.4618 27.7137H8.01123L13.5744 20.0071L16.1854 22.3946L14.1233 21.0648C13.0842 20.3743 12.0929 19.6119 11.1563 18.7831C10.3744 18.0993 9.72958 17.2681 9.25739 16.3351C8.80635 15.3628 8.58291 14.2973 8.60464 13.2222C8.58111 12.2759 8.76923 11.3365 9.15476 10.4752C9.54029 9.61384 10.1131 8.85313 10.8299 8.25062C12.6794 6.84124 14.9641 6.15488 17.2684 6.3164H23.4844V27.7137H19.3899Z" fill="white"/>
<path fill-rule="evenodd" clip-rule="evenodd" d="M52.9172 34C49.615 34 46.3871 33.0022 43.6418 31.1329C40.8966 29.2636 38.7574 26.6067 37.4951 23.4986C36.2328 20.3905 35.904 16.9708 36.5504 13.6723C37.1968 10.3738 38.7893 7.34479 41.1263 4.9685C43.4634 2.59222 46.44 0.975513 49.6794 0.322981C52.9188 -0.32955 56.2755 0.0114211 59.3246 1.30275C62.3737 2.59407 64.9782 4.77771 66.8085 7.57732C68.6388 10.3769 69.6127 13.6667 69.6068 17.0302C69.6049 19.2607 69.1716 21.469 68.3318 23.5289C67.4921 25.5889 66.2622 27.4601 64.7124 29.0359C63.1626 30.6117 61.3233 31.8612 59.2995 32.7129C57.2756 33.5646 55.1069 34.002 52.9172 34Z" fill="#FF5226"/>
<path fill-rule="evenodd" clip-rule="evenodd" d="M50.336 2.29688L31.7178 31.8995H40.248L51.0036 14.8391L50.7366 14.7182L47.7547 26.928L54.0745 28.0613L60.5575 19.7502L60.2014 19.5689L58.0058 29.0133L71.7729 26.3387L68.9542 21.624L64.0141 22.7875L64.5927 23.4675L66.8921 13.6151L61.5218 9.95821L54.475 18.9644L54.8311 19.1458L57.7239 7.32887L50.336 2.29688Z" fill="#FFDD00"/>
<path fill-rule="evenodd" clip-rule="evenodd" d="M50.336 2.29688L31.7178 31.8995H40.248L51.0036 14.8391L50.7365 14.7182L47.7547 26.928L54.0745 28.0613L60.5575 19.7502L60.2014 19.5689L58.0058 29.0133L63.5394 27.9253L66.8921 13.6151L61.5218 9.95821L54.475 18.9644L54.8311 19.1458L57.7239 7.32887L50.336 2.29688Z" fill="#FFDD00"/>
<path fill-rule="evenodd" clip-rule="evenodd" d="M76.001 27.7137L86.3856 6.31641H94.2928L95.9099 19.3422L103.847 6.31641H111.68V27.7137H104.069V16.2293L96.9632 27.7137H89.2933L87.8098 16.1235L82.1724 27.7137H76.001ZM135.342 23.4826C135.342 24.208 135.342 24.9031 135.342 25.6133C135.342 26.3235 135.342 27.0035 135.475 27.6684H128.34C128.165 27.3372 128.025 26.9876 127.924 26.6257C127.776 26.1341 127.681 25.6274 127.642 25.1146C126.871 26.0308 125.928 26.7809 124.868 27.3208C123.376 27.9534 121.764 28.2374 120.151 28.152C118.384 28.232 116.642 27.6993 115.211 26.6408C114.621 26.1814 114.148 25.5851 113.831 24.9017C113.513 24.2183 113.361 23.4676 113.386 22.712C113.344 22.0713 113.436 21.4288 113.655 20.827C113.875 20.2252 114.218 19.6779 114.662 19.2213C115.818 18.2876 117.214 17.7108 118.682 17.5591C121.011 17.1697 123.369 16.9927 125.729 17.0302H127.583V16.6222C127.598 16.2771 127.52 15.9344 127.358 15.631C127.196 15.3275 126.956 15.0747 126.663 14.8995C125.551 14.4143 124.337 14.2221 123.133 14.3404C121.551 14.3303 119.977 14.5542 118.459 15.0053C117.274 15.3362 116.113 15.7554 114.988 16.2595V11.5751C116.311 11.1067 117.664 10.733 119.038 10.4569C120.988 10.0327 122.978 9.82995 124.972 9.85241C126.851 9.81817 128.725 10.0315 130.55 10.4871C131.908 10.7696 133.137 11.4966 134.051 12.5573C134.94 13.7109 135.379 15.1588 135.283 16.6222V23.5582L135.342 23.4826ZM137.671 10.3813H144.777L145.193 13.4035C145.999 12.2885 147.078 11.4081 148.323 10.8497C149.653 10.2893 151.082 10.0166 152.521 10.0489C154.174 10.0157 155.815 10.3509 157.328 11.0311C158.725 11.6675 159.899 12.7215 160.695 14.0533C161.571 15.5814 161.998 17.3328 161.927 19.1004C161.994 20.8772 161.567 22.6371 160.695 24.1777C159.897 25.5077 158.724 26.5611 157.328 27.2C155.774 27.9016 154.087 28.2472 152.388 28.2124C151.059 28.2233 149.74 27.9772 148.501 27.4871C147.268 26.9231 146.196 26.0496 145.385 24.9484V32.232H137.612V10.3813H137.671ZM184.343 18.9946C184.321 17.3449 184.803 15.7292 185.722 14.3706C186.732 12.9562 188.109 11.8571 189.698 11.1973C191.634 10.3616 193.723 9.95463 195.825 10.0035C197.948 9.93124 200.058 10.3714 201.982 11.288C203.542 12.0491 204.78 13.3584 205.468 14.9751C206.176 16.7693 206.275 18.7532 205.75 20.6115H192.176C192.309 21.0975 192.54 21.5499 192.854 21.9401C193.168 22.3303 193.559 22.6498 194 22.8782C195.347 23.4482 196.802 23.7013 198.258 23.6186C199.483 23.624 200.705 23.5076 201.908 23.2711C202.96 23.0321 204 22.7396 205.023 22.3946V26.5502C203.97 27.0466 202.865 27.4217 201.73 27.6684C200.182 27.9876 198.605 28.1295 197.027 28.0915C192.739 28.0915 189.609 27.2906 187.428 25.6888C186.419 24.9102 185.609 23.8952 185.067 22.7299C184.525 21.5646 184.266 20.2833 184.313 18.9946H184.343ZM206.432 10.3813H226.059V14.9146H219.947V27.7137H212.144V14.8693H206.373V10.336L206.432 10.3813ZM163.41 10.3813V27.6684H171.139V20.1129L177.192 27.6684H186.538L178.32 17.6044L185.129 10.3813H178.468L171.139 18.224V10.3813H163.41ZM195.825 13.9173C195.366 13.894 194.906 13.9663 194.475 14.13C194.044 14.2937 193.65 14.5453 193.318 14.8693C192.68 15.4974 192.258 16.3191 192.116 17.2115H198.926C198.937 16.3642 198.665 15.5382 198.154 14.8693C197.869 14.5324 197.509 14.2701 197.104 14.1045C196.698 13.9388 196.26 13.8746 195.825 13.9173ZM153.975 18.9946C154.035 17.7771 153.625 16.584 152.833 15.6702C152.43 15.2359 151.938 14.8981 151.391 14.6812C150.845 14.4643 150.258 14.3737 149.673 14.416C148.509 14.3725 147.374 14.7956 146.513 15.5946C146.071 16.0333 145.728 16.5646 145.508 17.1517C145.288 17.7388 145.195 18.3676 145.237 18.9946C145.195 19.6282 145.285 20.2636 145.499 20.8597C145.714 21.4558 146.049 21.9993 146.483 22.4551C147.35 23.267 148.496 23.6963 149.673 23.6488C150.265 23.6926 150.859 23.6029 151.412 23.3861C151.966 23.1694 152.466 22.8308 152.877 22.3946C153.644 21.4387 154.035 20.2273 153.975 18.9946ZM127.583 20.2186H125.788C124.572 20.1547 123.353 20.2977 122.183 20.6417C121.849 20.7391 121.559 20.9527 121.364 21.2455C121.169 21.5382 121.081 21.8914 121.115 22.2435C121.097 22.5333 121.15 22.823 121.269 23.0868C121.388 23.3505 121.57 23.58 121.797 23.7546C122.323 24.067 122.924 24.224 123.533 24.208C124.388 24.2447 125.237 24.0519 125.996 23.6488C126.579 23.3073 127.085 22.8438 127.479 22.2888L127.583 20.2186Z" fill="black"/>
</g>
<defs>
<clipPath id="clip0_4001_630">
<rect width="226" height="34" fill="white"/>
</clipPath>
</defs>
</svg>
