<svg width="226" height="61" viewBox="0 0 226 61" fill="none" xmlns="http://www.w3.org/2000/svg">
<g clip-path="url(#clip0_4001_628)">
<path d="M75.5292 1.43253C67.8713 -2.07253 58.5409 0.998206 52.2123 9.07095C45.8374 1.04335 36.4765 -1.98225 28.8491 1.58259C19.4002 5.97093 16.1896 19.2116 21.6831 31.0895C26.2366 40.9447 35.1336 49.2431 41.9407 53.7205C45.5542 56.1629 48.9419 57.6757 51.4506 57.9746C51.7924 58.0198 52.122 58.0356 52.465 58.0356C55.4205 57.9893 59.7494 55.9982 64.3627 52.553C72.4541 46.7116 79.3661 38.623 82.8881 30.9102C88.2925 18.9871 84.9927 5.76109 75.5292 1.43253Z" fill="white"/>
<path d="M52.3602 16.769C47.7774 6.85408 37.9855 1.64102 30.5058 5.13144C23.0126 8.62064 20.6688 19.4811 25.2516 29.3972C32.0147 44.0299 49.7331 55.4882 53.0768 53.9302C56.4058 52.3723 59.1379 31.4029 52.3602 16.769Z" fill="#E2241D"/>
<path d="M79.2907 29.2312C83.8149 19.2857 81.3953 8.44238 73.8875 4.9971C66.3785 1.55182 56.6159 6.82466 52.093 16.7701C45.4043 31.4479 48.2707 52.4026 51.6144 53.9313C54.9593 55.4575 72.6179 43.9102 79.2907 29.2312Z" fill="#62A830"/>
<path d="M105.504 20.5886C105.504 18.6561 104.116 17.5032 101.713 17.5032C100.802 17.5032 99.8474 17.5337 98.9208 17.5642V23.6301C99.9658 23.6593 100.951 23.6898 101.713 23.6898C104.116 23.7045 105.504 22.5211 105.504 20.5886ZM110.819 20.9339C110.819 25.1868 107.431 27.6439 101.669 27.6439C99.8914 27.6439 96.2485 27.5097 93.7862 27.3291V4.44189H108.476V8.38249H98.9221V13.6236C99.8315 13.5943 100.758 13.5638 101.683 13.5638C107.431 13.5638 110.819 16.2613 110.819 20.9339ZM137.674 23.3751H132.435C132.852 22.5967 133.226 21.7879 133.554 20.979C133.972 19.9603 134.345 18.7915 134.614 17.5935C134.809 16.5907 134.944 15.572 135.017 14.5679H137.674V23.3751ZM144.884 23.3751H142.571V10.9286H130.897C130.971 12.2462 130.913 13.5504 130.778 14.7326C130.419 17.7582 129.583 20.8448 127.792 23.3604C126.822 23.3604 125.986 23.3897 125.986 23.3897V30.8049C125.986 30.8049 128.538 30.9696 130.419 31.044L130.659 26.9997H140.212L140.451 31.044C142.346 30.9696 144.884 30.8049 144.884 30.8049V23.3751ZM153.662 24.2742H152.139V19.6016C152.617 19.5711 153.095 19.5711 153.558 19.5711C155.274 19.5711 156.274 20.4544 156.274 21.9221C156.29 23.3751 155.305 24.2742 153.662 24.2742ZM153.558 16.171C153.081 16.171 152.602 16.171 152.139 16.2003V10.9299C150.289 10.9299 147.228 11.169 147.228 11.169V27.3157C149.064 27.5109 151.468 27.6304 153.647 27.6304C158.364 27.6304 161.156 25.504 161.156 21.9086C161.156 18.3292 158.38 16.171 153.558 16.171ZM122.373 10.8676L120.254 18.4024L118.686 23.419C118.686 23.419 117.656 19.1661 117.045 16.9335C116.537 15.0766 116 12.8453 115.401 11.0177C113.969 10.7481 112.282 10.8835 110.416 11.4374L115.238 26.8789L117.029 27.1485C116.85 27.8073 116.522 28.8419 116.134 29.4702C115.715 30.0997 115.163 30.6536 114.552 31.1026C114.044 31.4478 113.521 31.6723 113.043 31.7467L115.045 34.8931C117.328 34.5783 119.641 32.286 120.807 28.9761L127.015 11.6021L122.373 10.8676ZM99.1296 37.3941C102.713 37.3941 104.833 38.952 104.833 41.708C104.833 43.355 103.728 44.6885 101.818 45.1972C104.325 45.573 105.773 47.0699 105.773 49.2269C105.773 52.283 103.115 54.0947 98.623 54.0947C96.4732 54.0947 94.2489 53.4664 92.2334 51.7437L93.9498 48.9133C95.2194 50.0211 96.8016 50.4103 98.1603 50.4103C99.8328 50.4103 100.817 49.7808 100.817 48.7328C100.817 47.6543 99.9658 47.0553 98.5338 47.0553H96.3242V43.9699H97.9662C99.1454 43.9699 99.862 43.4612 99.862 42.5474C99.862 41.6324 99.1296 41.0797 97.8319 41.0797C96.9505 41.0797 95.5173 41.3042 94.3832 42.0374L93.1136 39.0277C95.0851 37.8589 97.2642 37.3941 99.1296 37.3941ZM139.511 45.7377C139.511 42.9353 138.182 41.2578 135.958 41.2578C133.748 41.2578 132.406 42.9366 132.406 45.7365C132.406 48.5376 133.734 50.1858 135.958 50.1858C138.182 50.1858 139.511 48.5388 139.511 45.7365V45.7377ZM127.419 45.7377C127.419 40.4941 130.554 37.3795 135.928 37.3795C141.317 37.3795 144.482 40.4941 144.482 45.7365C144.482 50.9788 141.317 54.0935 135.928 54.0935C130.554 54.0935 127.419 50.9788 127.419 45.7365V45.7377ZM176.666 45.7377C176.666 42.9353 175.338 41.2578 173.114 41.2578C170.889 41.2578 169.561 42.9366 169.561 45.7365C169.561 48.5376 170.889 50.1858 173.114 50.1858C175.338 50.1858 176.666 48.5388 176.666 45.7365V45.7377ZM164.574 45.7377C164.574 40.4941 167.709 37.3795 173.099 37.3795C178.473 37.3795 181.652 40.4941 181.652 45.7365C181.652 50.9788 178.488 54.0935 173.099 54.0935C167.709 54.0935 164.574 50.9788 164.574 45.7365V45.7377ZM193.355 48.6291C193.355 47.4896 192.475 46.7869 191.071 46.7869H188.729V50.5006C189.46 50.5298 190.22 50.5298 191.071 50.5298C192.475 50.5457 193.355 49.8125 193.355 48.6291ZM188.729 40.9443V44.4042H190.668C192.027 44.4042 192.818 43.7003 192.818 42.6523C192.818 41.6336 192.027 40.9297 190.668 40.9297H188.729V40.9443ZM198.207 49.0768C198.207 52.2232 195.55 54.0947 191.027 54.0947C187.952 54.0947 185.608 53.9751 183.876 53.7799V37.7101C185.518 37.5149 187.773 37.3953 190.625 37.3953C195.057 37.3953 197.626 39.1777 197.626 42.2192C197.626 43.6869 196.833 44.7946 195.342 45.5291C197.192 46.1879 198.207 47.431 198.207 49.0793V49.0768ZM119.119 49.8418H113.879C114.298 49.0622 114.67 48.2533 114.998 47.4445C115.443 46.3468 115.797 45.215 116.058 44.0602C116.253 43.0561 116.372 42.0374 116.461 41.0346H119.119V49.8418ZM126.329 49.8418H124.015V37.3929H112.342C112.415 38.7105 112.371 40.0147 112.222 41.1981C111.864 44.2237 111.029 47.309 109.236 49.8247C108.266 49.8247 107.475 49.8405 107.43 49.8698V57.2838C107.43 57.2838 109.982 57.4485 111.864 57.5241L112.103 53.4798H121.657L121.896 57.5241C123.792 57.4485 126.329 57.2838 126.329 57.2838V49.8418ZM153.528 50.5152C152.99 50.5152 152.348 50.5152 151.632 50.4847V43.4002C151.632 43.4002 151.826 43.1159 152.214 42.7719C152.901 42.1728 153.886 41.8422 154.572 41.7373C156.544 41.4835 157.395 42.8914 157.544 43.2501C157.753 43.8198 157.858 44.5091 157.858 45.3021C157.872 48.6132 156.23 50.5152 153.528 50.5152ZM156.693 37.4539C154.841 37.4539 152.976 38.0383 151.632 39.7902V37.7833C149.781 37.7833 146.72 38.0236 146.72 38.0236V60.7437C146.72 60.7437 149.587 60.923 151.632 60.9987V54.1081C152.542 54.1386 153.409 54.1691 154.006 54.1691C159.543 54.1691 162.843 50.9032 162.843 45.3009C162.843 40.3733 160.394 37.4527 156.693 37.4527V37.4539ZM204.134 48.8975C203.372 48.8991 202.642 49.2029 202.105 49.7422C201.567 50.2814 201.266 51.0119 201.267 51.773C201.266 52.15 201.34 52.5234 201.484 52.872C201.627 53.2206 201.838 53.5375 202.104 53.8047C202.37 54.0718 202.687 54.2839 203.035 54.4289C203.383 54.5739 203.756 54.649 204.134 54.6498C204.511 54.649 204.884 54.5739 205.232 54.4289C205.581 54.2839 205.897 54.0718 206.163 53.8047C206.429 53.5375 206.64 53.2206 206.784 52.872C206.927 52.5234 207.001 52.15 207 51.773C207.001 51.0119 206.7 50.2814 206.163 49.7422C205.625 49.2029 204.895 48.8991 204.134 48.8975ZM201.88 46.6966H206.447L206.597 32.2725C205.166 32.168 203.732 32.1082 202.298 32.0932C202.104 32.0932 201.909 32.1078 201.715 32.1225L201.88 46.6966Z" fill="black"/>
</g>
<defs>
<clipPath id="clip0_4001_628">
<rect width="188" height="61" fill="white" transform="translate(19)"/>
</clipPath>
</defs>
</svg>
