<svg width="226" height="34" viewBox="0 0 226 34" fill="none" xmlns="http://www.w3.org/2000/svg">
<path d="M20.8202 17.19C20.8202 21.19 17.1014 23.19 11.8519 23.19C5.31819 23.16 2.72939 20.21 2 16.24H7.29062C7.69127 18.52 9.10895 19.33 11.7388 19.33C14.3687 19.33 15.5399 18.42 15.5399 16.84C15.5399 15.68 14.9543 14.77 12.6121 14.77H9.26304V10.9H12.0676C14.2557 10.9 14.9132 10.23 14.9132 9.01C14.9132 7.79 14.04 6.72 11.482 6.72C9.69451 6.72 8.09192 7.21 7.69127 9.22H2.40065C3.0273 5.81 5.46202 3 11.5539 3C16.5877 3 20.1627 5 20.1627 8.66C20.2019 9.47208 19.986 10.2765 19.5437 10.9661C19.1014 11.6557 18.4537 12.1977 17.6869 12.52C18.6493 12.876 19.471 13.5198 20.0339 14.3589C20.5969 15.198 20.8722 16.1891 20.8202 17.19Z" fill="#1D1D1B"/>
<path d="M48.3244 17.58V27.2H43.1057V22.32H28.0351V27.2H22.8267V17.58H26.4017C27.09 17.02 27.5317 15.89 27.8605 13.93L29.6788 3H44.6774V17.58H48.3244ZM39.4587 17.58V7.74H34.1373L33.0381 14.17C32.9085 15.3707 32.5237 16.532 31.908 17.58H39.4587Z" fill="#1D1D1B"/>
<path d="M71.045 13.0811C71.045 19.0211 67.1001 23.1611 61.8814 23.1611C60.6531 23.1962 59.4343 22.9418 58.3289 22.4194C57.2234 21.8971 56.2641 21.1223 55.5327 20.1611V31.5211H50.3242V3.42114H55.5327V6.13115C56.2489 5.14543 57.2017 4.34501 58.3081 3.7995C59.4146 3.25399 60.6413 2.97992 61.8814 3.00114C67.0282 3.00114 71.045 7.11115 71.045 13.0811ZM65.7543 13.0811C65.7543 9.92115 63.597 7.78115 60.6794 7.78115C59.9782 7.77992 59.2841 7.91848 58.6399 8.1883C57.9957 8.45813 57.4151 8.85349 56.9339 9.35003C56.4527 9.84658 56.081 10.4338 55.8418 11.0755C55.6026 11.7172 55.5008 12.3997 55.5429 13.0811C55.5008 13.7626 55.6026 14.4451 55.8418 15.0868C56.081 15.7285 56.4527 16.3157 56.9339 16.8123C57.4151 17.3088 57.9957 17.7042 58.6399 17.974C59.2841 18.2438 59.9782 18.3824 60.6794 18.3811C63.5662 18.3811 65.7543 16.2811 65.7543 13.0811Z" fill="#1D1D1B"/>
<path d="M93.7246 3.42176V22.7418H88.475V20.1418C87.7597 21.1024 86.8137 21.8781 85.7196 22.401C84.6255 22.9239 83.4165 23.1783 82.1982 23.1418C76.9487 23.1418 73.0449 19.0018 73.0449 13.0618C73.0449 7.12176 77.0206 3.00176 82.1674 3.00176C83.4084 2.9753 84.637 3.24708 85.7443 3.79302C86.8517 4.33897 87.8037 5.14225 88.5161 6.13176V3.42176H93.7246ZM88.5161 13.0818C88.5582 12.4004 88.4565 11.7178 88.2173 11.0761C87.978 10.4344 87.6064 9.8472 87.1251 9.35065C86.6439 8.85411 86.0633 8.45874 85.4192 8.18892C84.775 7.9191 84.0809 7.78053 83.3796 7.78176C80.4621 7.78176 78.3047 9.92176 78.3047 13.0818C78.3047 16.2418 80.4929 18.3818 83.3796 18.3818C84.0809 18.383 84.775 18.2444 85.4192 17.9746C86.0633 17.7048 86.6439 17.3094 87.1251 16.8129C87.6064 16.3163 87.978 15.7291 88.2173 15.0874C88.4565 14.4457 88.5582 13.7632 88.5161 13.0818Z" fill="#1D1D1B"/>
<path d="M113.579 16.74C113.579 20.74 110.405 22.32 106.285 22.32H95.7246V3H105.422C109.439 3 112.614 4 112.614 7.88C112.614 9.88 111.514 10.94 110.014 11.88C111.098 12.1573 112.048 12.7952 112.699 13.6829C113.35 14.5706 113.662 15.6522 113.579 16.74ZM104.97 6.94H100.861V10.66H104.97C106.758 10.66 107.343 10.03 107.343 8.83C107.343 7.63 106.727 6.94 104.97 6.94ZM108.319 16.28C108.319 14.91 107.672 14.28 105.915 14.28H100.861V18.43H105.864C107.703 18.39 108.289 17.68 108.289 16.28H108.319Z" fill="#1D1D1B"/>
<path d="M115.595 13.0849C115.566 11.7442 115.818 10.4119 116.336 9.1691C116.853 7.9263 117.625 6.79904 118.604 5.85598C119.584 4.91292 120.75 4.1738 122.032 3.68365C123.315 3.19349 124.686 2.96257 126.063 3.00493C130.953 3.00493 135.309 5.84493 136.059 10.7649H130.696C130.399 9.8121 129.78 8.98515 128.938 8.41865C128.097 7.85215 127.084 7.57946 126.063 7.64493C122.889 7.64493 120.844 9.88493 120.926 13.0849C121.009 16.2849 122.981 18.5349 126.063 18.5349C127.096 18.5995 128.12 18.3211 128.969 17.7453C129.818 17.1695 130.442 16.3303 130.737 15.3649H136.1C135.298 20.4649 130.881 23.1649 126.063 23.1649C124.686 23.2087 123.314 22.9788 122.031 22.4892C120.748 21.9995 119.581 21.2605 118.601 20.3171C117.621 19.3738 116.85 18.2459 116.333 17.0025C115.816 15.759 115.565 14.426 115.595 13.0849Z" fill="#1D1D1B"/>
<path d="M157.29 3V22.32H152.071V15.47L152.4 9.74L144.12 22.32H138.1V3H143.318V9.85L143.061 15.51L151.28 3H157.29Z" fill="#1D1D1B"/>
<path d="M176.836 7.74H170.672V22.32H165.453V7.74H159.29V3H176.867V7.74H176.836Z" fill="#1D1D1B"/>
<path d="M198.057 3V22.32H192.838V15.47L193.167 9.74L184.887 22.32H178.867V3H184.085V9.85L183.829 15.51L192.047 3H198.057Z" fill="#1D1D1B"/>
<path d="M222.804 4.56016C221.763 3.56044 220.358 3 218.896 3C217.433 3 216.028 3.56044 214.987 4.56016L212.244 7.20016L209.491 4.56016C208.449 3.56044 207.045 3 205.582 3C204.119 3 202.715 3.56044 201.673 4.56016C201.161 5.05139 200.754 5.63676 200.477 6.28224C200.2 6.92773 200.057 7.62046 200.057 8.32016C200.057 9.01986 200.2 9.71259 200.477 10.3581C200.754 11.0036 201.161 11.5889 201.673 12.0802L204.426 14.7302L212.244 22.2602L222.804 12.0802C223.316 11.5889 223.723 11.0036 224 10.3581C224.278 9.71259 224.42 9.01986 224.42 8.32016C224.42 7.62046 224.278 6.92773 224 6.28224C223.723 5.63676 223.316 5.05139 222.804 4.56016Z" fill="#FF5B00"/>
<path d="M204.743 15.0636L202.033 12.4139C201.53 11.9227 201.13 11.3375 200.857 10.6921C200.583 10.0467 200.443 9.35402 200.443 8.65441C200.443 7.9548 200.583 7.26217 200.857 6.61677C201.13 5.97137 201.53 5.38608 202.033 4.89491C203.059 3.89533 204.441 3.33496 205.88 3.33496C207.32 3.33496 208.702 3.89533 209.727 4.89491L212.437 7.53456L204.743 15.0636Z" fill="#FF8150"/>
</svg>
