<svg width="226" height="48" viewBox="0 0 226 48" fill="none" xmlns="http://www.w3.org/2000/svg">
<g clip-path="url(#clip0_4001_644)">
<path fill-rule="evenodd" clip-rule="evenodd" d="M64.9087 33.997V14.875H80.4523V33.997H76.6555V18.53H68.7045V33.997H64.9087ZM91.5583 22.978H89.4036C87.6083 22.978 86.7102 23.618 86.7102 24.87C86.7102 26.097 87.5833 26.71 89.3275 26.71C90.0975 26.71 90.8404 26.66 91.5583 26.532V22.978ZM95.0728 20.064V33.996H91.5583V29.162C90.8775 29.286 90.1566 29.449 89.2855 29.474L86.3768 33.996H82.4268L85.9012 28.982C84.0789 28.215 83.1197 26.89 83.1197 24.819C83.1197 21.981 85.1963 20.064 89.3015 20.064H95.0728ZM118.825 21.24C119.901 22.288 120.44 23.72 120.44 25.586V33.996H116.824V26.25C116.824 24.129 115.696 23.004 114.028 23.004C112.205 23.004 110.95 24.308 110.95 26.353V33.997H107.333V26.277C107.333 24.206 106.23 23.004 104.512 23.004C102.742 23.004 101.46 24.308 101.46 26.379V33.997H97.8433V20.064H101.383V22.058C102.178 20.601 103.819 19.656 105.64 19.681C107.384 19.681 109 20.525 109.744 22.135C110.771 20.601 112.668 19.681 114.746 19.681C116.414 19.681 117.772 20.19 118.825 21.24ZM148.759 29.88C149.476 29.113 149.836 28.168 149.836 27.044C149.836 25.918 149.476 24.973 148.759 24.205C148.041 23.439 147.116 23.055 145.963 23.055C144.835 23.055 143.91 23.439 143.194 24.205C142.475 24.973 142.115 25.918 142.115 27.044C142.115 28.168 142.476 29.114 143.194 29.881C143.911 30.648 144.835 31.031 145.963 31.031C147.116 31.031 148.041 30.648 148.759 29.881M151.529 21.828C152.837 23.234 153.479 24.973 153.479 27.018C153.479 29.063 152.812 30.801 151.503 32.208C150.195 33.613 148.554 34.328 146.578 34.328C144.861 34.328 143.275 33.58 142.192 32.256V39.723H138.576V20.064H142.166V21.892C143.315 20.464 144.835 19.707 146.604 19.707C148.579 19.707 150.22 20.422 151.529 21.828ZM162.277 31.006C163.379 31.006 164.277 30.622 165.02 29.855C165.765 29.063 166.15 28.117 166.15 27.018C166.15 25.918 165.765 24.973 165.021 24.206C164.277 23.439 163.379 23.056 162.277 23.056C161.173 23.056 160.25 23.439 159.506 24.206C158.763 24.973 158.404 25.919 158.404 27.018C158.404 28.117 158.763 29.063 159.506 29.855C160.25 30.622 161.173 31.005 162.277 31.005M156.89 21.828C158.302 20.396 160.097 19.681 162.277 19.681C164.456 19.681 166.252 20.396 167.663 21.828C169.073 23.234 169.766 24.973 169.766 27.018C169.766 29.088 169.073 30.827 167.663 32.233C166.252 33.638 164.456 34.355 162.277 34.355C160.097 34.355 158.302 33.638 156.89 32.233C155.479 30.827 154.787 29.089 154.787 27.018C154.787 24.973 155.479 23.234 156.89 21.828ZM179.949 20.064H183.566V33.997H179.949V29.307C178.891 29.91 177.744 30.213 176.845 30.213C175.179 30.213 173.947 29.906 172.844 29.165C171.743 28.373 171.127 26.89 171.127 24.742V20.064H174.717V24.487C174.717 26.123 175.563 26.941 177.257 26.941C178.206 26.941 179.015 26.809 179.95 26.436V20.064H179.949ZM195.52 33.997L189.954 27.563V33.997H186.337V20.043H189.954V25.571L195.032 20.064H199.598L193.365 26.517L199.957 33.997H195.52Z" fill="#EB2316"/>
<path fill-rule="evenodd" clip-rule="evenodd" d="M209.487 24.1801C208.743 23.3871 207.818 23.0041 206.69 23.0041C205.537 23.0041 204.612 23.3871 203.868 24.1801C203.151 24.9731 202.791 25.9181 202.791 27.0171C202.791 28.1421 203.151 29.0881 203.894 29.8811C204.638 30.6731 205.562 31.0561 206.69 31.0561C207.818 31.0561 208.743 30.6731 209.487 29.8811C210.229 29.0881 210.615 28.1421 210.615 27.0171C210.615 25.9181 210.229 24.9731 209.487 24.1801ZM210.564 20.0641H214V33.9961H210.564V32.1561C209.362 33.6081 207.87 34.3291 206.1 34.3291C204.1 34.3291 202.433 33.6391 201.124 32.2331C199.816 30.8271 199.175 29.0631 199.175 26.9671C199.175 24.8701 199.842 23.1321 201.15 21.7771C202.459 20.3971 204.126 19.7071 206.1 19.7071C207.844 19.7071 209.383 20.4971 210.564 21.8911V20.0641ZM130.445 16.5621C130.445 15.3611 131.394 14.4661 132.624 14.4661C133.83 14.4661 134.754 15.4121 134.754 16.5621C134.754 17.8151 133.83 18.7351 132.624 18.7351C131.394 18.7351 130.445 17.8151 130.445 16.5621ZM125.982 25.6121H133.087C132.754 23.7961 131.445 22.6981 129.599 22.6981C127.776 22.6981 126.418 23.7971 125.982 25.6121ZM127.033 14.4661C128.239 14.4661 129.188 15.4121 129.188 16.5621C129.188 17.8151 128.265 18.7351 127.033 18.7351C125.802 18.7351 124.879 17.8151 124.879 16.5621C124.879 15.4121 125.828 14.4661 127.033 14.4661ZM136.472 28.2961H125.982C126.495 30.2641 127.854 31.2611 130.06 31.2611C131.573 31.2611 133.258 30.6961 134.536 29.6861L135.992 31.9691C134.227 33.6161 132.215 34.3031 129.906 34.3031C127.443 34.3031 125.571 33.5881 124.263 32.1821C122.955 30.7761 122.313 29.0371 122.313 27.0181C122.313 24.8961 122.98 23.1581 124.34 21.7781C125.7 20.3971 127.444 19.7061 129.599 19.7061C131.625 19.7061 133.317 20.3451 134.625 21.5981C135.934 22.8511 136.601 24.5381 136.601 26.7101C136.601 27.1961 136.55 27.7341 136.472 28.2961Z" fill="#EB2316"/>
<path fill-rule="evenodd" clip-rule="evenodd" d="M35.5748 0C22.5754 0 12 10.562 12 23.545C12 36.528 22.5754 47.09 35.5748 47.09C48.5732 47.09 59.1495 36.528 59.1495 23.545C59.1495 10.562 48.5732 0 35.5748 0Z" fill="white"/>
<path fill-rule="evenodd" clip-rule="evenodd" d="M47.4719 6.65698C45.6726 11.266 41.5764 12.225 35.6429 12.225C35.0061 12.225 34.3753 12.215 33.7666 12.206C33.1778 12.198 32.6211 12.189 32.0754 12.189C31.5908 12.189 31.1022 12.195 30.6206 12.216C31.4517 10.178 32.7783 8.79298 34.6667 7.95298C37.299 6.78298 40.7214 6.77098 43.7412 6.76198C45.0568 6.75698 46.3164 6.75198 47.4719 6.65698Z" fill="#008F32"/>
<path fill-rule="evenodd" clip-rule="evenodd" d="M49.3201 8.13603C46.6588 13.926 40.7273 14.506 35.6429 14.506C34.5265 14.506 33.4571 14.479 32.4669 14.473L31.1862 19.475C37.7445 14.135 46.4175 19.429 45.4903 27.487C44.8655 32.914 40.9916 36.463 36.8934 37.483C32.4288 38.595 27.4826 36.931 25.2648 32.387C25.0295 31.907 24.62 30.945 24.4638 30.431L29.1717 29.223C29.2548 29.494 29.396 29.756 29.5442 29.995C32.6961 35.072 39.0832 32.533 39.8041 27.266C40.538 21.908 33.0105 19.054 29.5802 25.316L25.4049 23.539L25.3329 23.507L27.3464 15.434C27.4705 14.86 27.8891 13.257 27.9612 12.994C30.237 4.63603 37.5993 4.50403 43.5048 4.48203C41.0627 3.46703 38.3853 2.90503 35.5748 2.90503C24.1604 2.90503 14.9087 12.145 14.9087 23.545C14.9087 34.945 24.1604 44.185 35.5748 44.185C46.9892 44.185 56.2409 34.945 56.2409 23.545C56.2409 17.417 53.5655 11.916 49.3201 8.13603Z" fill="#EB2316"/>
</g>
<defs>
<clipPath id="clip0_4001_644">
<rect width="226" height="47.09" fill="white"/>
</clipPath>
</defs>
</svg>
