<svg width="561" height="65" viewBox="0 0 561 65" fill="none" xmlns="http://www.w3.org/2000/svg">
<g clip-path="url(#clip0_1108_1695)">
<path d="M110.867 11.4336C96.4427 11.4336 88.9996 20.2089 88.9996 33.1003C88.7421 38.6837 90.6051 44.1601 94.2213 48.4499C103.592 43.441 111.584 36.2384 117.503 27.4692L114.618 25.697C110.382 31.0083 104.921 35.2335 98.6929 38.0167C97.6346 35.8249 97.324 33.3517 97.8079 30.9697C98.2918 28.5878 99.5441 26.4263 101.376 24.8109C105.927 21.6203 111.234 19.6509 116.781 19.0941C119.666 18.6368 121.57 18.6939 122.407 22.5814C123.734 28.4982 123.936 36.5018 120.474 41.7326C118.869 44.0529 116.582 45.8272 113.924 46.8142C111.266 47.8013 108.365 47.9532 105.617 47.2493C103.889 49.1832 102.038 51.0067 100.078 52.7089C103.47 54.1675 107.141 54.8794 110.838 54.7955C125.263 54.7955 132.706 46.0202 132.706 33.1288C132.706 20.2375 125.292 11.4336 110.867 11.4336Z" fill="white"/>
<path d="M40.8215 13.0342H36.4076C27.0893 13.0342 19.0981 16.0641 14.5111 29.0127L13.7899 31.0707C8.65474 45.9058 5.39479 49.0786 0 50.3935L1.06742 56.5677C8.1643 55.9388 15.492 55.167 22.1561 36.7304L25.041 28.8983C27.9259 22.0096 30.2916 20.0087 35.571 20.0087H36.5807V53.3377H46.7356V18.6939C46.8293 17.9106 46.7391 17.1165 46.4719 16.3735C46.2046 15.6306 45.7676 14.9589 45.1951 14.4109C44.6225 13.863 43.9298 13.4536 43.1711 13.2148C42.4124 12.976 41.6083 12.9142 40.8215 13.0342Z" fill="white"/>
<path d="M63.2085 35.7301H83.6625V29.0128H63.2085V20.0089H84.7588V13.0344H58.7946C58.0134 12.9367 57.22 13.0174 56.4751 13.2701C55.7301 13.5229 55.0534 13.9411 54.4966 14.4927C53.9399 15.0444 53.5178 15.7149 53.2627 16.453C53.0076 17.1911 52.9262 17.9772 53.0248 18.7512V53.3378H86.0858V45.7345H63.2085V35.7301Z" fill="white"/>
<path d="M259.065 13.1771V13.0342H224.59V20.0087H236.88V53.3376H247.006V20.0087H255.661C256.163 20.0154 256.659 19.905 257.11 19.6866C257.561 19.4681 257.954 19.1476 258.257 18.751C258.777 17.9293 259.118 17.0088 259.257 16.0488C259.396 15.0888 259.331 14.1106 259.065 13.1771Z" fill="white"/>
<path d="M209.589 16.4644L193.289 35.6443L190.837 39.2173L191.212 35.3012V13.2058C190.17 12.9789 189.106 12.8639 188.039 12.8628C186.423 12.8628 181.086 13.2344 181.086 18.2938V53.1662C182.026 53.426 182.995 53.57 183.971 53.595C185.342 53.5165 186.677 53.131 187.877 52.4676C189.076 51.8042 190.108 50.8801 190.895 49.7647L206.935 31.0708L209.502 27.3835L209.214 31.5853V53.3377H219.369V13.3202C218.393 13.0363 217.385 12.8731 216.368 12.8342C215.028 12.8613 213.714 13.2048 212.535 13.8362C211.356 14.4675 210.346 15.3686 209.589 16.4644Z" fill="white"/>
<path d="M167.123 32.1284H166.546C168.56 31.8121 170.397 30.8013 171.732 29.2743C173.067 27.7473 173.815 25.8022 173.845 23.7819C173.845 16.5216 169.287 13.1201 159.42 13.1201H143.784C142.991 12.9992 142.18 13.0622 141.415 13.304C140.651 13.5458 139.953 13.96 139.377 14.5139C138.802 15.0678 138.363 15.7465 138.097 16.4965C137.83 17.2466 137.743 18.0477 137.841 18.8369V53.3378H160.92C176.845 53.3378 176.845 44.5339 176.845 41.6183C176.691 39.1269 175.613 36.7798 173.819 35.0281C172.024 33.2764 169.639 32.2437 167.123 32.1284ZM147.996 20.0088H160.92C161.53 19.9849 162.139 20.0859 162.708 20.3055C163.277 20.525 163.794 20.8585 164.228 21.2849C164.661 21.7114 165 22.2218 165.226 22.7842C165.451 23.3466 165.556 23.949 165.536 24.5537C165.614 25.1651 165.548 25.786 165.343 26.368C165.139 26.95 164.801 27.4774 164.357 27.9089C163.913 28.3405 163.375 28.6647 162.784 28.8562C162.192 29.0476 161.565 29.1012 160.949 29.0128H147.996V20.0088ZM161.555 45.7344H147.996V35.73H161.324C162.048 35.6582 162.78 35.7432 163.467 35.9792C164.155 36.2153 164.783 36.5967 165.307 37.097C165.831 37.5973 166.239 38.2046 166.503 38.8767C166.767 39.5488 166.88 40.2698 166.834 40.9895C166.834 44.9912 164.036 45.7344 161.555 45.7344Z" fill="white"/>
<path fill-rule="evenodd" clip-rule="evenodd" d="M287 65V0H292V65H287Z" fill="white"/>
<path d="M320.571 13.2915H334.65C344.487 13.2915 350.084 17.6077 350.084 26.0685V26.2972C350.084 34.8724 344.141 38.7884 334.938 38.7884H329.774V53.3377H320.687L320.571 13.2915ZM334.303 32.4714C338.775 32.4714 341.141 30.3276 341.141 26.3544V26.1257C341.141 21.8667 338.66 20.1802 334.303 20.1802H329.659V32.4714H334.303Z" fill="white"/>
<path d="M355.046 13.2915H364.191V29.6701H380.404V13.2915H389.463V53.3091H380.289V36.8161H364.076V53.3377H354.931L355.046 13.2915Z" fill="white"/>
<path d="M407.696 13.2915H419.611L432.708 53.3091H423.159L420.274 44.4195H405.648L402.763 53.3091H394.108L407.696 13.2915ZM407.696 38.0167H418.312L413.119 20.6948L407.696 38.0167Z" fill="white"/>
<path d="M437.584 13.2915H452.008C461.557 13.2915 467.615 17.1789 467.615 25.4683V25.7255C467.731 28.1902 466.959 30.6155 465.438 32.5684C463.916 34.5214 461.743 35.8749 459.307 36.3874L469.981 53.3948H460.259L450.595 37.9595H446.642V53.3948H437.555L437.584 13.2915ZM451.835 31.7282C456.393 31.7282 458.73 29.8131 458.73 26.0114V25.7255C458.73 21.638 456.22 20.2374 451.835 20.2374H446.671V31.671L451.835 31.7282Z" fill="white"/>
<path d="M475.03 13.2915H487.117L496.58 38.2167L505.898 13.2915H517.755V53.3091H508.668V25.2396L497.474 53.3377H494.589L483.338 25.2396V53.3377H475.145L475.03 13.2915Z" fill="white"/>
<path d="M535.959 13.2915H547.874L561 53.3091H551.451L548.566 44.4195H533.911L531.026 53.3091H522.371L535.959 13.2915ZM535.959 38.0167H546.633L541.325 20.6948L535.959 38.0167Z" fill="white"/>
</g>
<defs>
<clipPath id="clip0_1108_1695">
<rect width="561" height="65" fill="white"/>
</clipPath>
</defs>
</svg>
