<svg width="54" height="54" viewBox="0 0 54 54" fill="none" xmlns="http://www.w3.org/2000/svg">
<g clip-path="url(#clip0_490_10439)">
<mask id="mask0_490_10439" style="mask-type:luminance" maskUnits="userSpaceOnUse" x="0" y="-1" width="54" height="55">
<path d="M43.0862 53.8544H10.7725C4.82197 53.8544 0 49.0324 0 43.0857V10.772C0 4.82149 4.82197 -0.000488281 10.7725 -0.000488281H43.0862C49.0367 -0.000488281 53.8587 4.82149 53.8587 10.772V43.0857C53.8549 49.0324 49.0329 53.8544 43.0862 53.8544Z" fill="white"/>
</mask>
<g mask="url(#mask0_490_10439)">
<path d="M49.6482 -0.000488281H4.20673C1.88342 -0.000488281 0 1.88293 0 4.20624V49.6477C0 51.971 1.88342 53.8544 4.20673 53.8544H49.6482C51.9715 53.8544 53.8549 51.971 53.8549 49.6477V4.20624C53.8549 1.88293 51.9715 -0.000488281 49.6482 -0.000488281Z" fill="#FF7700"/>
</g>
<path fill-rule="evenodd" clip-rule="evenodd" d="M34.1175 24.0761C32.4956 25.6662 30.2429 26.6674 27.7499 26.6674C25.287 26.6674 23.0044 25.6662 21.3825 24.0761C19.7606 22.486 18.7394 20.2775 18.7394 17.8334C18.7394 15.3894 19.7606 13.1809 21.3825 11.5908C23.0044 10.0007 25.257 8.99951 27.7499 8.99951C30.2429 8.99951 32.4956 10.0007 34.1175 11.5908C35.7394 13.1809 36.7606 15.3894 36.7606 17.8334C36.7606 20.2775 35.7394 22.486 34.1175 24.0761ZM27.7499 13.7993C26.6386 13.7993 25.6174 14.241 24.8666 14.9771C24.1457 15.7133 23.6651 16.7145 23.6651 17.804C23.6651 18.8935 24.1157 19.8947 24.8666 20.6308C25.5874 21.367 26.6086 21.8087 27.7499 21.8087C28.8613 21.8087 29.8825 21.367 30.6334 20.6308C31.3843 19.9241 31.8348 18.923 31.8348 17.804C31.8348 16.7145 31.3843 15.7133 30.6334 14.9771C29.9125 14.241 28.8913 13.7993 27.7499 13.7993Z" fill="#FAFAFA"/>
<path d="M36.6996 26.9601L39.3427 30.4936C39.4929 30.6703 39.4628 30.9059 39.2225 31.0531C36.9999 32.8493 34.4169 34.0272 31.7137 34.6456L37.3003 44.304C37.4505 44.5985 37.2703 44.9224 36.9399 44.9224H31.4734C31.2932 44.9224 31.143 44.8046 31.083 44.6574L27.1784 36.1179L23.2738 44.6574C23.2137 44.834 23.0635 44.9224 22.8833 44.9224H17.4169C17.1165 44.9224 16.9063 44.569 17.0565 44.304L22.643 34.6456C19.9399 34.0272 17.3568 32.8199 15.1342 31.0531C14.984 30.9059 14.954 30.6703 15.0741 30.4936L17.7172 26.9601C17.8674 26.7834 18.1678 26.7539 18.348 26.9012C20.8409 28.9919 23.9045 30.3464 27.2084 30.3464C30.5123 30.3464 33.5759 28.9919 36.0688 26.9012C36.249 26.7245 36.5494 26.7539 36.6996 26.9601Z" fill="#FAFAFA"/>
</g>
<defs>
<clipPath id="clip0_490_10439">
<rect width="53.8549" height="53.8549" fill="white" transform="translate(0 -0.000488281)"/>
</clipPath>
</defs>
</svg>
