<svg width="54" height="54" viewBox="0 0 54 54" fill="none" xmlns="http://www.w3.org/2000/svg">
<g clip-path="url(#clip0_490_10455)">
<mask id="mask0_490_10455" style="mask-type:luminance" maskUnits="userSpaceOnUse" x="0" y="-1" width="54" height="55">
<path d="M43.0862 53.8544H10.7725C4.82197 53.8544 0 49.0324 0 43.0857V10.772C0 4.82149 4.82197 -0.000488281 10.7725 -0.000488281H43.0862C49.0367 -0.000488281 53.8587 4.82149 53.8587 10.772V43.0857C53.8549 49.0324 49.0329 53.8544 43.0862 53.8544Z" fill="white"/>
</mask>
<g mask="url(#mask0_490_10455)">
<path d="M53.8549 -0.000488281H0V53.8544H53.8549V-0.000488281Z" fill="#005BFF"/>
</g>
<path d="M5.72652 36.0029C3.70121 36.8388 1.44032 35.4899 1.12493 33.2556C0.912142 31.7357 1.7481 30.2347 3.13124 29.6648C5.15654 28.8288 7.41744 30.1777 7.73282 32.412C7.94181 33.932 7.10585 35.4329 5.72652 36.0029ZM3.38963 26.4957C-0.524191 27.1303 -2.82308 31.2493 -1.39435 35.0719C-0.338 37.899 2.57266 39.6393 5.46813 39.1681C9.38195 38.5373 11.6808 34.4145 10.2521 30.5919C9.19575 27.7648 6.28509 26.0283 3.38963 26.4957Z" fill="white"/>
<path d="M12.1367 24.269C11.2551 24.5046 10.7801 25.5039 11.2133 26.3817C11.5287 27.0239 12.2811 27.3203 12.965 27.1379L16.9283 26.0777L12.9764 35.9914C12.8473 36.3182 13.1398 36.6564 13.478 36.5652L23.1486 33.9737C23.8325 33.7914 24.3341 33.1568 24.2847 32.4424C24.2201 31.4659 23.3082 30.8389 22.4304 31.0745L17.6046 32.3664L21.5526 22.4603C21.6818 22.1335 21.3855 21.7915 21.0473 21.8827L12.1367 24.269Z" fill="white"/>
<path d="M50.7583 13.8613C50.1352 14.1805 49.8464 14.9252 50.0288 15.6092L51.3169 20.4084L41.9275 16.2894C41.6008 16.145 41.255 16.4452 41.35 16.7948L44.006 26.7047C44.1884 27.3887 44.8116 27.8902 45.5108 27.8522C46.4873 27.799 47.1143 26.8757 46.8711 25.9789L45.5754 21.138L54.9647 25.257C55.2915 25.4014 55.6373 25.1012 55.5423 24.7516L52.8786 14.8036C52.6354 13.9031 51.6323 13.4167 50.7583 13.8613Z" fill="white"/>
<path d="M30.5999 19.0024C25.8957 20.2602 22.8293 24.06 23.7488 27.4874C24.6684 30.9149 29.2244 32.6704 33.9248 31.4088C38.6251 30.1473 41.6954 26.3513 40.7758 22.9238C39.8563 19.4964 35.3003 17.7409 30.5999 19.0024ZM31.3751 21.8979C34.6239 21.0277 37.5194 22.1221 37.9374 23.6838C38.3554 25.2455 36.3985 27.6432 33.1496 28.5134C29.9008 29.3835 27.0053 28.2892 26.5873 26.7275C26.1655 25.1619 28.1262 22.7681 31.3751 21.8979Z" fill="white"/>
</g>
<defs>
<clipPath id="clip0_490_10455">
<rect width="53.8549" height="53.8549" fill="white" transform="translate(0 -0.000488281)"/>
</clipPath>
</defs>
</svg>
