<svg width="55" height="54" viewBox="0 0 55 54" fill="none" xmlns="http://www.w3.org/2000/svg">
<g clip-path="url(#clip0_490_10423)">
<mask id="mask0_490_10423" style="mask-type:luminance" maskUnits="userSpaceOnUse" x="0" y="-1" width="55" height="55">
<path d="M43.6506 53.8544H11.337C5.38643 53.8544 0.564453 49.0324 0.564453 43.0857V10.772C0.564453 4.82149 5.38643 -0.000488281 11.337 -0.000488281H43.6506C49.6012 -0.000488281 54.4231 4.82149 54.4231 10.772V43.0857C54.4193 49.0324 49.5974 53.8544 43.6506 53.8544Z" fill="white"/>
</mask>
<g mask="url(#mask0_490_10423)">
<path d="M50.2126 -0.000488281H4.77118C2.44787 -0.000488281 0.564453 1.88293 0.564453 4.20624V49.6477C0.564453 51.971 2.44787 53.8544 4.77119 53.8544H50.2126C52.5359 53.8544 54.4193 51.971 54.4193 49.6477V4.20624C54.4193 1.88293 52.5359 -0.000488281 50.2126 -0.000488281Z" fill="#2BACEE"/>
<path fill-rule="evenodd" clip-rule="evenodd" d="M15.4682 25.6856C22.902 22.5103 27.859 20.417 30.3392 19.4056C37.4209 16.5179 38.8924 16.0163 39.8515 15.9997C40.0624 15.996 40.5341 16.0473 40.8396 16.2903C41.0976 16.4956 41.1685 16.7728 41.2025 16.9674C41.2365 17.162 41.2788 17.6052 41.2451 17.9515C40.8614 21.9046 39.2009 31.4977 38.3561 35.9253C37.9987 37.7987 37.2948 38.4269 36.6134 38.4884C35.1326 38.622 34.0081 37.5289 32.5739 36.6072C30.3295 35.1648 29.0616 34.267 26.8831 32.8595C24.3655 31.233 25.9975 30.339 27.4323 28.8779C27.8078 28.4956 34.3324 22.6773 34.4587 22.1495C34.4745 22.0835 34.4892 21.8375 34.3401 21.7075C34.191 21.5776 33.9709 21.622 33.8121 21.6574C33.587 21.7075 30.0016 24.0308 23.056 28.6273C22.0384 29.3124 21.1166 29.6463 20.2907 29.6288C19.3802 29.6095 17.6288 29.1241 16.3268 28.7091C14.7299 28.2002 13.4606 27.9311 13.5712 27.0668C13.6287 26.6166 14.2611 26.1562 15.4682 25.6856Z" fill="#FAFAFA"/>
</g>
</g>
<defs>
<clipPath id="clip0_490_10423">
<rect width="53.8549" height="53.8549" fill="white" transform="translate(0.564453 -0.000488281)"/>
</clipPath>
</defs>
</svg>
