<svg width="54" height="54" viewBox="0 0 54 54" fill="none" xmlns="http://www.w3.org/2000/svg">
<g clip-path="url(#clip0_490_10431)">
<mask id="mask0_490_10431" style="mask-type:luminance" maskUnits="userSpaceOnUse" x="0" y="-1" width="54" height="55">
<path d="M43.0862 53.8544H10.7725C4.82197 53.8544 0 49.0324 0 43.0857V10.772C0 4.82149 4.82197 -0.000488281 10.7725 -0.000488281H43.0862C49.0367 -0.000488281 53.8587 4.82149 53.8587 10.772V43.0857C53.8549 49.0324 49.0329 53.8544 43.0862 53.8544Z" fill="white"/>
</mask>
<g mask="url(#mask0_490_10431)">
<path d="M49.6482 -0.000488281H4.20673C1.88342 -0.000488281 0 1.88293 0 4.20624V49.6477C0 51.971 1.88342 53.8544 4.20673 53.8544H49.6482C51.9715 53.8544 53.8549 51.971 53.8549 49.6477V4.20624C53.8549 1.88293 51.9715 -0.000488281 49.6482 -0.000488281Z" fill="#0077FF"/>
<path d="M28.53 37.812C16.9062 37.812 10.2763 29.9995 10 16.9995H15.8225C16.0138 26.5412 20.3062 30.5828 23.7061 31.4162V16.9995H29.1889V25.2286C32.5463 24.8745 36.0734 21.1245 37.2634 16.9995H42.7461C41.8323 22.0829 38.0073 25.8328 35.2873 27.3745C38.0073 28.6245 42.3638 31.8953 44.0213 37.812H37.9861C36.6898 33.8537 33.4601 30.7912 29.1889 30.3745V37.812H28.53Z" fill="#FAFAFA"/>
</g>
</g>
<defs>
<clipPath id="clip0_490_10431">
<rect width="53.8549" height="53.8549" fill="white" transform="translate(0 -0.000488281)"/>
</clipPath>
</defs>
</svg>
