<svg width="54" height="54" viewBox="0 0 54 54" fill="none" xmlns="http://www.w3.org/2000/svg">
<g clip-path="url(#clip0_490_10474)">
<mask id="mask0_490_10474" style="mask-type:luminance" maskUnits="userSpaceOnUse" x="0" y="-1" width="54" height="55">
<path d="M43.0862 53.8544H10.7725C4.82197 53.8544 0 49.0324 0 43.0857V10.772C0 4.82149 4.82197 -0.000488281 10.7725 -0.000488281H43.0862C49.0367 -0.000488281 53.8587 4.82149 53.8587 10.772V43.0857C53.8549 49.0324 49.0329 53.8544 43.0862 53.8544Z" fill="white"/>
</mask>
<g mask="url(#mask0_490_10474)">
<path d="M49.6482 -0.000488281H4.20673C1.88342 -0.000488281 0 1.88293 0 4.20624V49.6477C0 51.971 1.88342 53.8544 4.20673 53.8544H49.6482C51.9715 53.8544 53.8549 51.971 53.8549 49.6477V4.20624C53.8549 1.88293 51.9715 -0.000488281 49.6482 -0.000488281Z" fill="url(#paint0_linear_490_10474)"/>
</g>
<path d="M11.5798 36.0878L6.6626 17.7673H9.88812L13.6662 31.8384L17.7152 17.7661L20.7219 17.7673L24.7852 31.9132L28.5802 17.7707L31.8056 17.7661L26.8864 36.0846L23.1476 36.0807L19.2198 22.3992L15.2883 36.0842L11.5798 36.0878Z" fill="#FAFAFA"/>
<path d="M47.4373 30.8484C47.4373 32.3477 46.9083 33.5936 45.8283 34.5861C44.7482 35.5786 43.4776 36.0854 41.9109 36.0854H34.0547V17.7767H41.339C42.8426 17.7767 44.1126 18.2836 45.1503 19.2338C46.2096 20.2052 46.7177 21.4089 46.7177 22.8449C46.7177 24.4498 46.082 25.6746 44.8543 26.5827C46.4633 27.4274 47.4373 28.9478 47.4373 30.8484ZM37.0826 20.6065V25.4212H41.3598C42.6942 25.4212 43.7105 24.3653 43.7105 23.0139C43.7105 21.6623 42.6942 20.6065 41.3598 20.6065H37.0826ZM41.9317 33.2557C43.3292 33.2557 44.4307 32.1365 44.4307 30.7005C44.4307 29.2645 43.3292 28.1453 41.9317 28.1453H37.0826V33.2768H41.9317V33.2557Z" fill="#FAFAFA"/>
</g>
<defs>
<linearGradient id="paint0_linear_490_10474" x1="-2.27142e-07" y1="32.1726" x2="53.8554" y2="32.216" gradientUnits="userSpaceOnUse">
<stop stop-color="#C811AA"/>
<stop offset="1" stop-color="#62117E"/>
</linearGradient>
<clipPath id="clip0_490_10474">
<rect width="53.8549" height="53.8549" fill="white" transform="translate(0 -0.000488281)"/>
</clipPath>
</defs>
</svg>
