<svg width="54" height="54" viewBox="0 0 54 54" fill="none" xmlns="http://www.w3.org/2000/svg">
<g clip-path="url(#clip0_490_10484)">
<mask id="mask0_490_10484" style="mask-type:luminance" maskUnits="userSpaceOnUse" x="0" y="-1" width="54" height="55">
<path d="M43.0862 53.8544H10.7725C4.82197 53.8544 0 49.0324 0 43.0857V10.772C0 4.82149 4.82197 -0.000488281 10.7725 -0.000488281H43.0862C49.0367 -0.000488281 53.8587 4.82149 53.8587 10.772V43.0857C53.8549 49.0324 49.0329 53.8544 43.0862 53.8544Z" fill="white"/>
</mask>
<g mask="url(#mask0_490_10484)">
<path d="M53.8549 -0.000488281H0V53.8544H53.8549V-0.000488281Z" fill="#FED42B"/>
<path d="M23.5483 16.074L13.7596 12.9648L0 29.6186V43.9995L14.1646 26.7691L12.4094 38.522L22.3332 41.6312L34.1264 23.8705C33.5568 27.2306 32.6175 34.8385 40.6647 37.078C45.4278 38.4036 49.9495 36.2025 54 32.3943V18.8775C50.0382 24.4471 46.1752 28.4401 44.166 27.926C40.788 27.0617 43.8324 17.0031 45.7959 10.5162L45.8263 10.4153L34.8458 6.99951L21.793 26.7693L23.5483 16.074Z" fill="black"/>
</g>
</g>
<defs>
<clipPath id="clip0_490_10484">
<rect width="53.8549" height="53.8549" fill="white" transform="translate(0 -0.000488281)"/>
</clipPath>
</defs>
</svg>
