<svg width="54" height="54" viewBox="0 0 54 54" fill="none" xmlns="http://www.w3.org/2000/svg">
<g clip-path="url(#clip0_490_10447)">
<mask id="mask0_490_10447" style="mask-type:luminance" maskUnits="userSpaceOnUse" x="0" y="-1" width="54" height="55">
<path d="M43.0862 53.8544H10.7725C4.82197 53.8544 0 49.0324 0 43.0857V10.772C0 4.82149 4.82197 -0.000488281 10.7725 -0.000488281H43.0862C49.0367 -0.000488281 53.8587 4.82149 53.8587 10.772V43.0857C53.8549 49.0324 49.0329 53.8544 43.0862 53.8544Z" fill="white"/>
</mask>
<g mask="url(#mask0_490_10447)">
<path d="M49.6482 -0.000488281H4.20673C1.88342 -0.000488281 0 1.88293 0 4.20624V49.6477C0 51.971 1.88342 53.8544 4.20673 53.8544H49.6482C51.9715 53.8544 53.8549 51.971 53.8549 49.6477V4.20624C53.8549 1.88293 51.9715 -0.000488281 49.6482 -0.000488281Z" fill="#FF0302"/>
</g>
<path d="M20 36.9995V15.9995L37 26.4995L20 36.9995Z" fill="#FEFEFE"/>
</g>
<defs>
<clipPath id="clip0_490_10447">
<rect width="53.8549" height="53.8549" fill="white" transform="translate(0 -0.000488281)"/>
</clipPath>
</defs>
</svg>
