<svg width="108" height="109" viewBox="0 0 108 109" fill="none" xmlns="http://www.w3.org/2000/svg">
<rect x="1.32474" y="0.675325" width="105.91" height="106.701" rx="31.7403" fill="white"/>
<rect x="1.32474" y="0.675325" width="105.91" height="106.701" rx="31.7403" stroke="#425CC7" stroke-width="1.35065"/>
<path d="M57.5298 62.6337C57.5298 62.6337 61.207 66.2848 67.3096 65.7893C69.1612 65.6328 71.3258 64.7722 72.4211 64.2767C73.047 63.9898 73.699 63.8072 74.3771 63.7029C76.5156 63.39 80.8709 63.1813 82.7486 65.9197" stroke="#425CC7" stroke-width="1.35065" stroke-miterlimit="10" stroke-linecap="round" stroke-linejoin="round"/>
<path d="M58.7192 78.6469C59.97 78.1288 60.564 76.6947 60.0459 75.4439C59.5277 74.193 58.0937 73.599 56.8428 74.1171C55.5919 74.6353 54.9979 76.0693 55.5161 77.3202C56.0342 78.5711 57.4683 79.1651 58.7192 78.6469Z" stroke="#425CC7" stroke-width="1.35065" stroke-miterlimit="10" stroke-linecap="round" stroke-linejoin="round"/>
<path d="M75.0813 70.1184C75.0813 70.979 74.4032 71.6571 73.5426 71.6571C72.682 71.6571 72.0039 70.979 72.0039 70.1184C72.0039 69.2578 72.682 68.5797 73.5426 68.5797C74.4032 68.5797 75.0813 69.2578 75.0813 70.1184Z" stroke="#425CC7" stroke-width="1.35065" stroke-miterlimit="10" stroke-linecap="round" stroke-linejoin="round"/>
<path d="M69.0046 76.3771C69.0046 77.2377 68.3265 77.9158 67.4659 77.9158C66.6053 77.9158 65.9272 77.2377 65.9272 76.3771C65.9272 75.5165 66.6053 74.8384 67.4659 74.8384C68.3004 74.8384 69.0046 75.5425 69.0046 76.3771Z" stroke="#425CC7" stroke-width="1.35065" stroke-miterlimit="10" stroke-linecap="round" stroke-linejoin="round"/>
<path d="M41.3087 21.6104C41.3087 21.6104 39.0137 36.9972 49.8366 39.9181C52.8097 40.0485 54.8178 38.1969 56.5651 34.8587C58.6254 30.9207 62.6677 28.3388 67.1273 28.391C72.3693 28.4692 78.3936 31.2598 82.2534 38.8749C88.9818 52.1754 83.9746 80.8628 62.0418 85.7136C56.8781 86.8611 48.8456 87.4348 41.1 81.2279C35.7798 77.7593 33.537 82.1928 33.1719 83.8098" stroke="#222222" stroke-width="1.35065" stroke-miterlimit="10" stroke-linecap="round" stroke-linejoin="round"/>
<path d="M24.5657 80.1845C24.5657 80.1845 25.0873 67.7446 40.2916 69.9874C45.6379 71.1871 52.914 74.9947 57.0607 65.6583C58.7819 59.7904 56.0174 52.3578 46.8636 49.9324C40.0047 47.7156 30.9551 36.1103 34.0847 21.7666" stroke="#222222" stroke-width="1.35065" stroke-miterlimit="10" stroke-linecap="round" stroke-linejoin="round"/>
<path d="M74.3252 37.675C74.3252 37.675 79.8019 42.2651 78.8108 54.6528" stroke="#222222" stroke-width="1.35065" stroke-miterlimit="10" stroke-linecap="round" stroke-linejoin="round"/>
</svg>
