<svg width="108" height="109" viewBox="0 0 108 109" fill="none" xmlns="http://www.w3.org/2000/svg">
<rect x="1.32474" y="0.779207" width="105.91" height="106.701" rx="31.7403" fill="white"/>
<rect x="1.32474" y="0.779207" width="105.91" height="106.701" rx="31.7403" stroke="#425CC7" stroke-width="1.35065"/>
<g clip-path="url(#clip0_1111_2289)">
<path d="M67.3048 83.9052C67.4041 83.8839 67.4979 83.8425 67.5807 83.7836C67.6634 83.7248 67.7333 83.6497 67.7861 83.5628L71.5853 77.4886C71.661 77.3716 71.7006 77.2349 71.6993 77.0955C71.6991 76.8929 71.6222 76.698 71.484 76.5502C71.3376 76.4082 71.1431 76.3267 70.9394 76.3219H63.341C63.206 76.3223 63.074 76.3619 62.9611 76.436C62.7897 76.5434 62.6672 76.7138 62.6199 76.9105C62.5725 77.1073 62.6041 77.3148 62.7078 77.4886L66.507 83.5755C66.5629 83.6693 66.6413 83.7478 66.735 83.8038C66.9041 83.9116 67.1089 83.948 67.3048 83.9052ZM64.772 77.8436H69.6224L67.1909 81.7368L64.772 77.8436Z" fill="#425CC7"/>
<path d="M34.2643 44.8219C31.5669 48.6136 27.0458 54.9795 26.7799 62.2458C26.4759 68.5864 29.5153 75.8907 34.6949 81.2676C36.9703 83.7283 39.7255 85.6957 42.7903 87.048C45.855 88.4003 49.1642 89.1089 52.5132 89.1299H52.7792C53.4504 89.1299 54.3749 89.1299 54.7294 88.7875C54.7908 88.7119 54.8359 88.6245 54.862 88.5307C54.8882 88.4368 54.8948 88.3387 54.8814 88.2422C54.8621 88.0437 54.767 87.8604 54.616 87.7305C54.465 87.6005 54.2697 87.534 54.0709 87.5447C52.9244 87.6335 51.7728 87.6335 50.6263 87.5447H50.411L50.2844 87.3799C46.4133 82.5202 44.2549 76.5157 44.1449 70.3004C44.035 64.0851 45.9797 58.0078 49.6765 53.0139L50.0691 52.494L50.4743 53.0012C52.1694 55.0731 53.5714 57.3688 54.6408 59.8237C54.726 59.9981 54.8736 60.134 55.0542 60.2045C55.2349 60.2749 55.4354 60.2748 55.6159 60.2041C55.7096 60.1666 55.7949 60.1107 55.8669 60.0398C55.9388 59.9689 55.9958 59.8843 56.0347 59.791C56.0736 59.6978 56.0936 59.5977 56.0935 59.4966C56.0933 59.3955 56.073 59.2955 56.0338 59.2023C54.7127 56.1048 52.8899 53.2469 50.639 50.744C50.5592 50.6575 50.4605 50.5908 50.3506 50.549C50.2408 50.5072 50.1227 50.4914 50.0058 50.5031C49.9055 50.5088 49.8075 50.5355 49.7181 50.5814C49.6287 50.6272 49.5498 50.6912 49.4865 50.7694C42.3313 59.0375 39.6592 74.5085 47.5743 86.0991L48.3341 87.2277L47.0677 86.8726C34.3783 83.5628 28.0463 70.4378 28.3122 62.2458C28.5528 55.4994 32.7446 49.5647 35.5307 45.6715C37.1241 43.5086 38.8542 41.45 40.7103 39.5085C43.7877 36.5031 48.828 30.3147 48.1568 22.3128L48.0682 21.273L48.942 21.8436C54.1722 25.3436 54.6408 29.3509 55.0081 33.5737C55.0892 36.6755 55.9611 39.7051 57.5409 42.3744C58.0981 43.4777 62.6698 48.0556 64.2528 47.7132C64.5188 47.6498 64.6707 47.3328 64.6961 46.7494C63.5943 41.0302 65.19 37.6824 66.2411 36.1987L66.5703 35.7295L67.0009 36.1226C73.484 42.2111 77.402 50.5477 77.9553 59.4306C77.9682 59.6235 78.0539 59.8042 78.195 59.9361C78.3361 60.068 78.5221 60.1412 78.7152 60.1407C78.8144 60.1391 78.9123 60.1177 79.0032 60.0778C79.094 60.0379 79.176 59.9802 79.2444 59.9082C79.3128 59.8362 79.3662 59.7513 79.4014 59.6584C79.4366 59.5655 79.4531 59.4665 79.4497 59.3672C79.1515 54.5472 77.9022 49.8342 75.7742 45.5005C73.6462 41.1669 70.6815 37.2985 67.0516 34.119C66.9131 33.9977 66.7353 33.9309 66.5513 33.9309C66.3674 33.9309 66.1896 33.9977 66.0511 34.119C65.8991 34.2458 62.3405 37.2639 62.8344 44.4541V45.5194L61.9733 44.9107C57.3382 41.6389 56.9077 37.7965 56.5024 33.7386C56.4351 30.8618 55.7255 28.0367 54.4255 25.4705C52.7332 22.78 50.3256 20.6151 47.4729 19.2186C47.3405 19.1493 47.1914 19.1185 47.0424 19.1299C46.9433 19.1429 46.848 19.1767 46.7629 19.2292C46.6778 19.2816 46.6047 19.3515 46.5485 19.4342C46.4333 19.5959 46.3836 19.7953 46.4092 19.9922C47.9162 29.148 43.7624 33.8147 38.9627 39.2168C37.367 40.9668 35.7714 42.7549 34.2643 44.8219Z" fill="black"/>
<path d="M70.8886 64.9088H63.2902C63.1552 64.9092 63.0232 64.9488 62.9103 65.0229C62.7389 65.1303 62.6165 65.3007 62.5691 65.4974C62.5218 65.6942 62.5533 65.9017 62.657 66.0755L66.4562 72.1624C66.5121 72.2563 66.5905 72.3347 66.6842 72.3907C66.8548 72.4948 67.0581 72.531 67.2541 72.4922C67.3533 72.4708 67.4471 72.4294 67.5299 72.3706C67.6126 72.3117 67.6825 72.2366 67.7353 72.1498L71.5345 66.0755C71.6102 65.9585 71.6498 65.8218 71.6485 65.6824C71.6485 65.4794 71.5689 65.2845 71.4267 65.1398C71.2846 64.9951 71.0913 64.9121 70.8886 64.9088ZM67.0894 70.3237L64.6706 66.4306H69.5209L67.0894 70.3237Z" fill="#425CC7"/>
<path d="M67.0895 89.0538C73.8774 89.0538 81.3619 84.4632 81.7798 74.4071C81.7765 70.5101 80.229 66.7737 77.4771 64.0181C74.7253 61.2625 70.9939 59.713 67.1022 59.7096C65.1726 59.7079 63.2615 60.0873 61.4785 60.8259C59.6954 61.5646 58.0753 62.6481 56.7108 64.0144C55.3464 65.3807 54.2644 67.003 53.5267 68.7884C52.789 70.5739 52.4102 72.4875 52.4119 74.4197C52.8171 84.4632 60.3142 89.0538 67.0895 89.0538ZM67.0895 61.2947C73.1809 61.2947 79.8929 65.4034 80.2601 74.3944C80.2601 77.8922 78.8725 81.2467 76.4025 83.72C73.9326 86.1933 70.5826 87.5828 67.0895 87.5828C63.5964 87.5828 60.2464 86.1933 57.7765 83.72C55.3065 81.2467 53.9189 77.8922 53.9189 74.3944C54.2988 65.4034 60.9728 61.2947 67.0895 61.2947Z" fill="#425CC7"/>
</g>
<defs>
<clipPath id="clip0_1111_2289">
<rect width="55" height="70" fill="white" transform="translate(26.7798 19.1299)"/>
</clipPath>
</defs>
</svg>
