<svg width="108" height="109" viewBox="0 0 108 109" fill="none" xmlns="http://www.w3.org/2000/svg">
<rect x="0.974031" y="0.831086" width="105.91" height="106.701" rx="31.7403" fill="white"/>
<rect x="0.974031" y="0.831086" width="105.91" height="106.701" rx="31.7403" stroke="#425CC7" stroke-width="1.35065"/>
<g clip-path="url(#clip0_1111_2309)">
<mask id="path-2-inside-1_1111_2309" fill="white">
<path d="M79.949 51.5144C79.949 50.1646 79.4858 48.8714 78.6396 47.8312C78.5397 40.9154 75.5343 34.3323 70.3551 29.7221C69.9636 29.3735 69.3631 29.4083 69.0146 29.7999C68.6657 30.1917 68.7007 30.7919 69.0924 31.1405C73.7099 35.2511 76.4579 41.0597 76.7238 47.203C76.0023 47.1523 75.2841 47.0446 74.5765 46.8816C73.0031 41.8888 70.3308 38.6482 66.4197 36.984C62.8779 35.4771 58.6675 35.3544 53.929 35.3544C49.1763 35.3544 44.955 35.4771 41.4247 36.9845C37.4751 38.6709 34.8822 41.8284 33.2946 46.8993C32.6381 47.065 31.9306 47.1673 31.1335 47.2118C31.3018 43.2439 32.4954 39.4018 34.611 36.0437C34.8362 35.6861 34.7981 35.2227 34.5174 34.9068C33.113 33.3862 32.7663 30.9575 33.946 30.0696C34.8222 29.3741 36.3674 29.6496 37.6202 30.7245C37.9832 31.036 38.521 31.0288 38.8758 30.7081C39.2305 30.3872 39.2911 29.8525 39.0173 29.4605C37.6496 27.5005 37.5783 25.1713 38.855 24.158C39.477 23.6644 40.3553 23.5384 41.3278 23.8029C42.6152 24.1361 43.9254 25.2052 44.6936 26.4632C44.9334 26.8486 45.4125 27.0105 45.8368 26.8492C48.4215 25.8683 51.1442 25.371 53.929 25.371C58.0638 25.371 62.1145 26.4894 65.6433 28.6051C66.0932 28.8746 66.6763 28.7288 66.9462 28.2789C67.2159 27.829 67.0699 27.2458 66.62 26.9761C62.7961 24.6835 58.4076 23.4717 53.929 23.4717C51.1643 23.4717 48.4555 23.9246 45.8658 24.8188C44.8137 23.4205 43.3472 22.3799 41.8269 21.9704C40.2565 21.5427 38.7817 21.7915 37.6743 22.6703C36.2068 23.835 35.7218 25.8447 36.2405 27.9156C34.9667 27.6195 33.7122 27.8303 32.7651 28.5821C30.8969 30.0648 30.8647 33.1685 32.6486 35.613C30.4596 39.3105 29.2814 43.5129 29.2195 47.8296C28.3726 48.87 27.9091 50.1639 27.9091 51.5142C27.9091 54.2067 29.7436 56.499 32.2554 57.1637C32.0793 57.9255 31.9873 58.7106 31.9873 59.5059C31.9873 65.2475 36.6585 69.9187 42.4002 69.9187C42.6992 69.9187 42.9976 69.905 43.2948 69.8793C43.7469 70.1416 44.2076 70.3869 44.6763 70.6142C40.5439 73.1659 37.5743 77.3703 36.6183 82.1779C36.4022 83.2623 36.6819 84.3765 37.3859 85.2348C38.0963 86.1006 39.1454 86.5971 40.2646 86.5971H62.1073C62.6317 86.5971 63.0569 86.172 63.0569 85.6474C63.0569 85.123 62.6319 84.6978 62.1073 84.6978H40.2646C39.7164 84.6978 39.2025 84.4544 38.8544 84.0301C38.5125 83.6133 38.3765 83.0737 38.481 82.5493C39.1892 78.9969 41.1213 75.8175 43.8641 73.533C44.3502 75.4835 45.3945 77.2598 46.8965 78.6455C48.8169 80.4174 51.3144 81.393 53.9289 81.393C56.5435 81.393 59.0409 80.4172 60.9614 78.6455C62.4634 77.2598 63.5077 75.4836 63.9938 73.533C66.7366 75.8175 68.6686 78.9969 69.3769 82.5493C69.4815 83.0736 69.3454 83.6133 69.0035 84.0301C68.6554 84.4544 68.1415 84.6978 67.5933 84.6978H66.5388C66.0143 84.6978 65.5891 85.1228 65.5891 85.6474C65.5891 86.1719 66.0142 86.5971 66.5388 86.5971H67.5933C68.7126 86.5971 69.7618 86.1005 70.472 85.2348C71.1759 84.3765 71.4557 83.2623 71.2396 82.1779C70.2837 77.3703 67.314 73.1658 63.1816 70.6142C63.6504 70.3869 64.1111 70.1418 64.5631 69.8793C64.86 69.9049 65.1582 69.9187 65.4569 69.9187C71.1987 69.9187 75.8698 65.2475 75.8698 59.5059C75.8698 58.711 75.7778 57.9258 75.6016 57.164C78.114 56.4997 79.949 54.2072 79.949 51.5144ZM29.8084 51.5144C29.8084 50.6472 30.0913 49.8143 30.6112 49.1305C31.4332 49.1129 32.1808 49.0471 32.878 48.927C32.7722 49.79 32.718 50.66 32.718 51.5275C32.718 52.6965 32.8155 53.8689 33.0058 55.018C32.9526 55.1294 32.9017 55.2419 32.8524 55.3551C31.1007 54.9454 29.8084 53.3713 29.8084 51.5144ZM62.305 72.3058C61.678 76.3787 58.1033 79.4942 53.929 79.4942C49.7549 79.4942 46.1802 76.3787 45.553 72.3059C45.9892 72.0312 46.4404 71.7771 46.9055 71.545C49.1498 72.3316 51.5241 72.7387 53.929 72.7387C56.3341 72.7387 58.7084 72.3316 60.9527 71.545C61.4177 71.777 61.8688 72.0311 62.305 72.3058ZM65.4571 68.0196C64.0631 68.0196 62.6809 67.6756 61.4601 67.0251C60.9969 66.7784 60.422 66.954 60.1754 67.4166C59.9288 67.8794 60.1041 68.4546 60.5669 68.7013C60.9297 68.8946 61.3042 69.0653 61.6874 69.2137C59.2546 70.2809 56.6134 70.8393 53.929 70.8393C51.2446 70.8393 48.6034 70.2808 46.1703 69.2135C46.55 69.0665 46.9212 68.8976 47.2808 68.7065C47.7439 68.4603 47.9199 67.8853 47.6736 67.4223C47.4274 66.9591 46.8524 66.7831 46.3894 67.0294C45.1704 67.6773 43.7909 68.0197 42.4001 68.0197C37.7057 68.0197 33.8866 64.2006 33.8866 59.5062C33.8866 57.0649 34.9373 54.7374 36.7691 53.1205C37.1623 52.7735 37.1998 52.1734 36.8527 51.7801C36.5056 51.3869 35.9055 51.3493 35.5123 51.6965C35.2048 51.9679 34.9161 52.2562 34.6455 52.5583C34.6273 52.2148 34.6171 51.871 34.6171 51.5274C34.6171 50.3542 34.7243 49.1755 34.936 48.021C34.9463 47.9951 34.9553 47.9685 34.9631 47.9416C37.8827 37.9731 44.0758 37.2539 53.9289 37.2539C58.4554 37.2539 62.4637 37.365 65.6759 38.7318C69.2001 40.2313 71.495 43.1398 72.8953 47.8815C73.1244 49.0801 73.2409 50.3065 73.2409 51.5274C73.2409 51.8713 73.2306 52.2154 73.2124 52.5591C72.9489 52.2648 72.6681 51.9837 72.3697 51.7187C71.9773 51.3704 71.3771 51.4057 71.0291 51.7981C70.6808 52.1902 70.7164 52.7904 71.1085 53.1386C72.9275 54.7542 73.9707 57.0751 73.9707 59.506C73.9707 64.2005 70.1515 68.0196 65.4571 68.0196ZM75.0047 55.3552C74.9557 55.2424 74.9051 55.1303 74.8521 55.0193C75.0426 53.87 75.1402 52.6971 75.1402 51.5274C75.1402 50.6502 75.0848 49.7706 74.9765 48.8984C75.7272 49.0298 76.4858 49.1075 77.2461 49.1292C77.7665 49.8133 78.0498 50.6467 78.0498 51.5143C78.0496 53.3716 76.7568 54.9462 75.0047 55.3552Z"/>
</mask>
<path d="M79.949 51.5144C79.949 50.1646 79.4858 48.8714 78.6396 47.8312C78.5397 40.9154 75.5343 34.3323 70.3551 29.7221C69.9636 29.3735 69.3631 29.4083 69.0146 29.7999C68.6657 30.1917 68.7007 30.7919 69.0924 31.1405C73.7099 35.2511 76.4579 41.0597 76.7238 47.203C76.0023 47.1523 75.2841 47.0446 74.5765 46.8816C73.0031 41.8888 70.3308 38.6482 66.4197 36.984C62.8779 35.4771 58.6675 35.3544 53.929 35.3544C49.1763 35.3544 44.955 35.4771 41.4247 36.9845C37.4751 38.6709 34.8822 41.8284 33.2946 46.8993C32.6381 47.065 31.9306 47.1673 31.1335 47.2118C31.3018 43.2439 32.4954 39.4018 34.611 36.0437C34.8362 35.6861 34.7981 35.2227 34.5174 34.9068C33.113 33.3862 32.7663 30.9575 33.946 30.0696C34.8222 29.3741 36.3674 29.6496 37.6202 30.7245C37.9832 31.036 38.521 31.0288 38.8758 30.7081C39.2305 30.3872 39.2911 29.8525 39.0173 29.4605C37.6496 27.5005 37.5783 25.1713 38.855 24.158C39.477 23.6644 40.3553 23.5384 41.3278 23.8029C42.6152 24.1361 43.9254 25.2052 44.6936 26.4632C44.9334 26.8486 45.4125 27.0105 45.8368 26.8492C48.4215 25.8683 51.1442 25.371 53.929 25.371C58.0638 25.371 62.1145 26.4894 65.6433 28.6051C66.0932 28.8746 66.6763 28.7288 66.9462 28.2789C67.2159 27.829 67.0699 27.2458 66.62 26.9761C62.7961 24.6835 58.4076 23.4717 53.929 23.4717C51.1643 23.4717 48.4555 23.9246 45.8658 24.8188C44.8137 23.4205 43.3472 22.3799 41.8269 21.9704C40.2565 21.5427 38.7817 21.7915 37.6743 22.6703C36.2068 23.835 35.7218 25.8447 36.2405 27.9156C34.9667 27.6195 33.7122 27.8303 32.7651 28.5821C30.8969 30.0648 30.8647 33.1685 32.6486 35.613C30.4596 39.3105 29.2814 43.5129 29.2195 47.8296C28.3726 48.87 27.9091 50.1639 27.9091 51.5142C27.9091 54.2067 29.7436 56.499 32.2554 57.1637C32.0793 57.9255 31.9873 58.7106 31.9873 59.5059C31.9873 65.2475 36.6585 69.9187 42.4002 69.9187C42.6992 69.9187 42.9976 69.905 43.2948 69.8793C43.7469 70.1416 44.2076 70.3869 44.6763 70.6142C40.5439 73.1659 37.5743 77.3703 36.6183 82.1779C36.4022 83.2623 36.6819 84.3765 37.3859 85.2348C38.0963 86.1006 39.1454 86.5971 40.2646 86.5971H62.1073C62.6317 86.5971 63.0569 86.172 63.0569 85.6474C63.0569 85.123 62.6319 84.6978 62.1073 84.6978H40.2646C39.7164 84.6978 39.2025 84.4544 38.8544 84.0301C38.5125 83.6133 38.3765 83.0737 38.481 82.5493C39.1892 78.9969 41.1213 75.8175 43.8641 73.533C44.3502 75.4835 45.3945 77.2598 46.8965 78.6455C48.8169 80.4174 51.3144 81.393 53.9289 81.393C56.5435 81.393 59.0409 80.4172 60.9614 78.6455C62.4634 77.2598 63.5077 75.4836 63.9938 73.533C66.7366 75.8175 68.6686 78.9969 69.3769 82.5493C69.4815 83.0736 69.3454 83.6133 69.0035 84.0301C68.6554 84.4544 68.1415 84.6978 67.5933 84.6978H66.5388C66.0143 84.6978 65.5891 85.1228 65.5891 85.6474C65.5891 86.1719 66.0142 86.5971 66.5388 86.5971H67.5933C68.7126 86.5971 69.7618 86.1005 70.472 85.2348C71.1759 84.3765 71.4557 83.2623 71.2396 82.1779C70.2837 77.3703 67.314 73.1658 63.1816 70.6142C63.6504 70.3869 64.1111 70.1418 64.5631 69.8793C64.86 69.9049 65.1582 69.9187 65.4569 69.9187C71.1987 69.9187 75.8698 65.2475 75.8698 59.5059C75.8698 58.711 75.7778 57.9258 75.6016 57.164C78.114 56.4997 79.949 54.2072 79.949 51.5144ZM29.8084 51.5144C29.8084 50.6472 30.0913 49.8143 30.6112 49.1305C31.4332 49.1129 32.1808 49.0471 32.878 48.927C32.7722 49.79 32.718 50.66 32.718 51.5275C32.718 52.6965 32.8155 53.8689 33.0058 55.018C32.9526 55.1294 32.9017 55.2419 32.8524 55.3551C31.1007 54.9454 29.8084 53.3713 29.8084 51.5144ZM62.305 72.3058C61.678 76.3787 58.1033 79.4942 53.929 79.4942C49.7549 79.4942 46.1802 76.3787 45.553 72.3059C45.9892 72.0312 46.4404 71.7771 46.9055 71.545C49.1498 72.3316 51.5241 72.7387 53.929 72.7387C56.3341 72.7387 58.7084 72.3316 60.9527 71.545C61.4177 71.777 61.8688 72.0311 62.305 72.3058ZM65.4571 68.0196C64.0631 68.0196 62.6809 67.6756 61.4601 67.0251C60.9969 66.7784 60.422 66.954 60.1754 67.4166C59.9288 67.8794 60.1041 68.4546 60.5669 68.7013C60.9297 68.8946 61.3042 69.0653 61.6874 69.2137C59.2546 70.2809 56.6134 70.8393 53.929 70.8393C51.2446 70.8393 48.6034 70.2808 46.1703 69.2135C46.55 69.0665 46.9212 68.8976 47.2808 68.7065C47.7439 68.4603 47.9199 67.8853 47.6736 67.4223C47.4274 66.9591 46.8524 66.7831 46.3894 67.0294C45.1704 67.6773 43.7909 68.0197 42.4001 68.0197C37.7057 68.0197 33.8866 64.2006 33.8866 59.5062C33.8866 57.0649 34.9373 54.7374 36.7691 53.1205C37.1623 52.7735 37.1998 52.1734 36.8527 51.7801C36.5056 51.3869 35.9055 51.3493 35.5123 51.6965C35.2048 51.9679 34.9161 52.2562 34.6455 52.5583C34.6273 52.2148 34.6171 51.871 34.6171 51.5274C34.6171 50.3542 34.7243 49.1755 34.936 48.021C34.9463 47.9951 34.9553 47.9685 34.9631 47.9416C37.8827 37.9731 44.0758 37.2539 53.9289 37.2539C58.4554 37.2539 62.4637 37.365 65.6759 38.7318C69.2001 40.2313 71.495 43.1398 72.8953 47.8815C73.1244 49.0801 73.2409 50.3065 73.2409 51.5274C73.2409 51.8713 73.2306 52.2154 73.2124 52.5591C72.9489 52.2648 72.6681 51.9837 72.3697 51.7187C71.9773 51.3704 71.3771 51.4057 71.0291 51.7981C70.6808 52.1902 70.7164 52.7904 71.1085 53.1386C72.9275 54.7542 73.9707 57.0751 73.9707 59.506C73.9707 64.2005 70.1515 68.0196 65.4571 68.0196ZM75.0047 55.3552C74.9557 55.2424 74.9051 55.1303 74.8521 55.0193C75.0426 53.87 75.1402 52.6971 75.1402 51.5274C75.1402 50.6502 75.0848 49.7706 74.9765 48.8984C75.7272 49.0298 76.4858 49.1075 77.2461 49.1292C77.7665 49.8133 78.0498 50.6467 78.0498 51.5143C78.0496 53.3716 76.7568 54.9462 75.0047 55.3552Z" fill="#222222" stroke="white" stroke-width="0.54026" mask="url(#path-2-inside-1_1111_2309)"/>
<path d="M57.406 57.9665C57.0558 57.6613 56.855 57.2208 56.855 56.7577C56.855 56.2948 57.0558 55.8544 57.4059 55.5491C57.8014 55.2046 57.8426 54.6047 57.4981 54.2093C57.1535 53.8137 56.5536 53.7726 56.1583 54.1171C55.639 54.5695 55.2707 55.1591 55.0876 55.8079H52.9182C52.7352 55.1591 52.3668 54.5695 51.8475 54.1171C51.4522 53.7726 50.8521 53.8137 50.5077 54.2093C50.1632 54.6047 50.2045 55.2046 50.5999 55.5491C50.9501 55.8543 51.1508 56.2947 51.1508 56.7577C51.1508 57.2207 50.95 57.6612 50.5998 57.9665C50.2045 58.3111 50.1632 58.911 50.5077 59.3064C50.6955 59.5218 50.959 59.6321 51.224 59.6321C51.4454 59.6321 51.6676 59.5552 51.8476 59.3983C52.3669 58.9458 52.7352 58.3562 52.9182 57.7074H55.0877C55.2708 58.3562 55.639 58.9458 56.1583 59.3983C56.3382 59.5551 56.5606 59.6321 56.7819 59.6321C57.0469 59.6321 57.3104 59.5218 57.4982 59.3064C57.8426 58.9108 57.8014 58.311 57.406 57.9665Z" fill="#425CC7"/>
<path d="M46.9869 49.3083C46.4267 49.6449 45.6843 49.6449 45.1242 49.3083C44.6745 49.0382 44.0911 49.1838 43.8211 49.6335C43.5511 50.0831 43.6967 50.6665 44.1462 50.9366C44.4735 51.1332 44.8289 51.275 45.198 51.3625C45.1395 51.4857 45.1059 51.6231 45.1059 51.7686V53.2881C45.1059 53.8126 45.5311 54.2378 46.0555 54.2378C46.58 54.2378 47.0052 53.8127 47.0052 53.2881V51.7686C47.0052 51.6231 46.9715 51.4857 46.913 51.3625C47.2821 51.275 47.6374 51.1332 47.9649 50.9366C48.4145 50.6665 48.56 50.0831 48.2899 49.6335C48.0198 49.184 47.4367 49.0386 46.9869 49.3083Z" fill="#425CC7"/>
<path d="M62.8013 49.3083C62.2408 49.6449 61.4987 49.6449 60.9384 49.3083C60.4886 49.0382 59.9053 49.1839 59.6353 49.6335C59.3652 50.0831 59.511 50.6665 59.9605 50.9365C60.2879 51.1332 60.6432 51.275 61.0123 51.3625C60.9538 51.4857 60.9202 51.6231 60.9202 51.7686V53.2881C60.9202 53.8125 61.3452 54.2377 61.8698 54.2377C62.3943 54.2377 62.8195 53.8127 62.8195 53.2881V51.7686C62.8195 51.6231 62.7858 51.4857 62.7273 51.3625C63.0964 51.275 63.4517 51.1332 63.7792 50.9365C64.2288 50.6665 64.3745 50.0831 64.1044 49.6335C63.8341 49.1838 63.2509 49.0385 62.8013 49.3083Z" fill="#425CC7"/>
</g>
<defs>
<clipPath id="clip0_1111_2309">
<rect width="64.8312" height="64.8312" fill="white" transform="translate(21.5134 21.7661)"/>
</clipPath>
</defs>
</svg>
