<svg width="108" height="109" viewBox="0 0 108 109" fill="none" xmlns="http://www.w3.org/2000/svg">
<rect x="0.974031" y="0.675325" width="105.91" height="106.701" rx="31.7403" fill="white"/>
<rect x="0.974031" y="0.675325" width="105.91" height="106.701" rx="31.7403" stroke="#425CC7" stroke-width="1.35065"/>
<path d="M36.1673 35.6066C36.8599 37.4484 38.0926 39.0381 39.7039 40.1675C41.3153 41.297 43.2301 41.9135 45.1977 41.9363H71.0019C72.9659 41.9093 74.8762 41.2908 76.4833 40.1616C78.0905 39.0325 79.32 37.4451 80.0113 35.6066H36.1673Z" stroke="#425CC7" stroke-width="1.5" stroke-linecap="round" stroke-linejoin="round"/>
<path d="M58.1843 42.5745L58.1843 88.4919" stroke="#425CC7" stroke-width="1.5" stroke-linecap="round" stroke-linejoin="round"/>
<path d="M53.8691 22.7149C52.1403 20.9083 49.9902 19.5589 47.6115 18.788C45.2327 18.0171 42.6999 17.8487 40.24 18.2979C37.7802 18.7471 35.4703 19.7999 33.5176 21.3618C31.5649 22.9237 30.0304 24.9459 29.0519 27.247C28.0733 29.5481 27.6812 32.0561 27.9108 34.546C28.1403 37.036 28.9844 39.43 30.3672 41.5134C31.75 43.5968 33.6284 45.3043 35.8337 46.4829C38.0391 47.6614 40.5025 48.2741 43.003 48.266H71.1703C72.279 48.343 73.3171 48.8377 74.0752 49.6503C74.8332 50.4628 75.2548 51.5327 75.2548 52.644C75.2548 53.7553 74.8332 54.8252 74.0752 55.6378C73.3171 56.4504 72.279 56.9451 71.1703 57.0221H49.5437C48.9433 56.9804 48.3406 57.0627 47.7733 57.2638C47.2059 57.4649 46.686 57.7806 46.2459 58.1912C45.8057 58.6019 45.4548 59.0986 45.2148 59.6507C44.9749 60.2027 44.851 60.7982 44.851 61.4002C44.851 62.0021 44.9749 62.5976 45.2148 63.1497C45.4548 63.7017 45.8057 64.1985 46.2459 64.6091C46.686 65.0197 47.2059 65.3354 47.7733 65.5366C48.3406 65.7377 48.9433 65.8199 49.5437 65.7782H64.8617C65.9703 65.8552 67.0084 66.35 67.7665 67.1625C68.5246 67.9751 68.9462 69.045 68.9462 70.1563C68.9462 71.2676 68.5246 72.3375 67.7665 73.1501C67.0084 73.9626 65.9703 74.4574 64.8617 74.5344H54.0801C53.4796 74.4927 52.8769 74.5749 52.3096 74.776C51.7422 74.9772 51.2223 75.2929 50.7822 75.7035C50.342 76.1141 49.9911 76.6109 49.7511 77.1629C49.5112 77.715 49.3873 78.3105 49.3873 78.9124C49.3873 79.5144 49.5112 80.1099 49.7511 80.6619C49.9911 81.214 50.342 81.7107 50.7822 82.1214C51.2223 82.532 51.7422 82.8477 52.3096 83.0488C52.8769 83.2499 53.4796 83.3322 54.0801 83.2905H63.5747C64.733 83.2905 65.8439 83.7506 66.663 84.5697C67.482 85.3888 67.9422 86.4997 67.9422 87.658V90" stroke="black" stroke-width="1.5" stroke-linecap="round" stroke-linejoin="round"/>
<path d="M51.8016 89.0508H64.44" stroke="#425CC7" stroke-width="1.5" stroke-linecap="round" stroke-linejoin="round"/>
<path d="M53.8697 27.7154V22.6938H58.8913" stroke="black" stroke-width="1.5" stroke-linecap="round" stroke-linejoin="round"/>
<path d="M58.1843 46.248L58.1843 51.7581" stroke="#425CC7" stroke-width="1.5" stroke-linecap="round" stroke-linejoin="round"/>
<path d="M58.1843 62.7783L58.1843 68.2884" stroke="#425CC7" stroke-width="1.5" stroke-linecap="round" stroke-linejoin="round"/>
<path d="M58.1843 81.1453L58.1843 86.6554" stroke="#425CC7" stroke-width="1.5" stroke-linecap="round" stroke-linejoin="round"/>
</svg>
