<svg width="108" height="109" viewBox="0 0 108 109" fill="none" xmlns="http://www.w3.org/2000/svg">
<rect x="0.974031" y="0.779207" width="105.91" height="106.701" rx="31.7403" fill="white"/>
<rect x="0.974031" y="0.779207" width="105.91" height="106.701" rx="31.7403" stroke="#425CC7" stroke-width="1.35065"/>
<path d="M82.2049 86.5454H25.6533C23.3745 86.5454 21.5134 84.6844 21.5134 82.4056L24.1151 25.854C24.1151 23.5752 25.976 21.7142 28.2548 21.7142H79.6222C81.901 21.7142 83.7621 23.5752 83.7621 25.854L86.3446 82.4056C86.3446 84.6654 84.4836 86.5454 82.2049 86.5454Z" stroke="#222222" stroke-width="1.35065" stroke-miterlimit="10" stroke-linecap="round" stroke-linejoin="round"/>
<path d="M44.7947 68.429C44.8137 69.4735 44.9656 70.6129 44.9656 70.6129C44.9656 70.6129 45.6113 73.8791 43.3135 75.7401C42.5919 76.2528 39.9143 77.9239 37.4646 75.4553C36.9709 74.9235 35.9834 73.1385 35.9454 71.4484C35.7365 70.1001 35.6796 67.9543 34.8441 65.4666C33.9326 63.2448 32.9071 60.3204 32.9071 60.3204C32.9071 60.3204 31.5968 57.7188 32.5273 54.2057C32.5273 54.2057 32.5842 53.9588 32.6982 53.541C33.1729 51.9079 34.7681 47.8251 38.8509 47.92C40.0283 47.8631 42.2501 48.3568 44.0541 51.699C44.8137 53.1232 45.1555 54.2626 45.2694 56.6364C45.2694 59.8836 44.8896 61.3648 44.8896 61.3648C44.8896 61.3648 44.4719 65.8654 44.7947 68.429Z" stroke="#222222" stroke-width="1.35065" stroke-miterlimit="10" stroke-linecap="round" stroke-linejoin="round"/>
<path d="M74.9126 60.3204C74.9126 60.3204 73.8871 63.2448 72.9756 65.4666C72.14 67.9543 72.0831 70.1001 71.8742 71.4484C71.8552 73.1385 70.8487 74.9046 70.355 75.4553C67.9053 77.9049 65.2277 76.2338 64.5061 75.7401C62.2083 73.8791 62.854 70.6129 62.854 70.6129C62.854 70.6129 63.0059 69.4735 63.0249 68.429C63.3477 65.8654 62.93 61.3838 62.93 61.3838C62.93 61.3838 62.5502 59.8836 62.5502 56.6554C62.6641 54.2816 62.9869 53.1422 63.7655 51.718C65.5695 48.3568 67.7913 47.8631 68.9687 47.939C73.0515 47.8631 74.6467 51.9269 75.1215 53.56C75.2354 53.9588 75.2923 54.2247 75.2923 54.2247C76.2418 57.7188 74.9126 60.3204 74.9126 60.3204Z" stroke="#222222" stroke-width="1.35065" stroke-miterlimit="10" stroke-linecap="round" stroke-linejoin="round"/>
<path d="M66.8798 38.2352C66.8988 31.4369 61.3348 25.9488 54.3845 25.9108C47.7381 25.8729 42.1361 31.5128 42.1361 38.2162L66.8798 38.2352Z" stroke="#425CC7" stroke-width="1.35065" stroke-miterlimit="10" stroke-linecap="round" stroke-linejoin="round"/>
<path d="M43.5791 32.5001L45.0413 33.7345" stroke="#425CC7" stroke-width="1.35065" stroke-miterlimit="10" stroke-linecap="round" stroke-linejoin="round"/>
<path d="M46.2756 29.5187L47.7569 31.1898" stroke="#425CC7" stroke-width="1.35065" stroke-miterlimit="10" stroke-linecap="round" stroke-linejoin="round"/>
<path d="M49.9027 27.1639L50.9662 29.0819" stroke="#425CC7" stroke-width="1.35065" stroke-miterlimit="10" stroke-linecap="round" stroke-linejoin="round"/>
<path d="M54.5173 26.3094V28.2464" stroke="#425CC7" stroke-width="1.35065" stroke-miterlimit="10" stroke-linecap="round" stroke-linejoin="round"/>
<path d="M59.7205 27.5057L58.5431 29.1958" stroke="#425CC7" stroke-width="1.35065" stroke-miterlimit="10" stroke-linecap="round" stroke-linejoin="round"/>
<path d="M63.9742 30.3164L61.9993 32.0635" stroke="#425CC7" stroke-width="1.35065" stroke-miterlimit="10" stroke-linecap="round" stroke-linejoin="round"/>
<path d="M65.9682 33.5825L63.4805 34.8738" stroke="#425CC7" stroke-width="1.35065" stroke-miterlimit="10" stroke-linecap="round" stroke-linejoin="round"/>
<path d="M52.9601 37.7033C52.9601 36.8108 53.6817 36.0702 54.5932 36.0702C55.4857 36.0702 56.2264 36.7918 56.2264 37.7033" stroke="#425CC7" stroke-width="1.35065" stroke-miterlimit="10" stroke-linecap="round" stroke-linejoin="round"/>
<path d="M54.5933 36.0702L56.0554 30.924" stroke="#425CC7" stroke-width="1.35065" stroke-miterlimit="10" stroke-linecap="round" stroke-linejoin="round"/>
<path d="M54.2705 40.609V41.7484" stroke="#425CC7" stroke-width="1.35065" stroke-linecap="round" stroke-linejoin="round"/>
<path d="M54.2708 44.0651V80.0318" stroke="#425CC7" stroke-width="1.35065" stroke-linecap="round" stroke-linejoin="round" stroke-dasharray="16.5 16.5"/>
<path d="M54.2708 81.1902V82.3296" stroke="#425CC7" stroke-width="1.35065" stroke-linecap="round" stroke-linejoin="round"/>
</svg>
