<svg width="108" height="109" viewBox="0 0 108 109" fill="none" xmlns="http://www.w3.org/2000/svg">
<rect x="0.675325" y="0.779207" width="105.91" height="106.701" rx="31.7403" fill="white"/>
<rect x="0.675325" y="0.779207" width="105.91" height="106.701" rx="31.7403" stroke="#425CC7" stroke-width="1.35065"/>
<path d="M78.0922 21.7142C78.0922 30.1183 74.4905 38.4023 74.4905 44.5252C74.4905 54.61 82.8945 58.0917 82.8945 86.5454" stroke="#222222" stroke-width="1.35065" stroke-miterlimit="10" stroke-linejoin="round"/>
<path d="M30.0692 21.7142C30.0692 30.1183 33.6709 38.4023 33.6709 44.5252C33.6709 54.61 25.2668 58.0917 25.2668 86.5454" stroke="#222222" stroke-width="1.35065" stroke-miterlimit="10" stroke-linejoin="round"/>
<path d="M31.2698 31.3187C38.8334 31.3187 49.5185 27.7169 54.0807 27.7169C58.6429 27.7169 69.3281 31.3187 76.8917 31.3187" stroke="#222222" stroke-width="1.35065" stroke-miterlimit="10" stroke-linejoin="round"/>
<path d="M26.1072 73.339C26.1072 73.339 40.274 76.9407 54.0806 76.9407C67.8873 76.9407 82.0541 73.339 82.0541 73.339" stroke="#222222" stroke-width="1.35065" stroke-miterlimit="10" stroke-linejoin="round"/>
<path d="M43.7559 48.1273C45.7968 44.5255 49.7588 42.1244 54.0808 42.1244C60.684 42.1244 66.0866 47.527 66.0866 54.1302C66.0866 54.8505 65.9665 55.5708 65.8465 56.2912" stroke="#425CC7" stroke-width="1.35065" stroke-miterlimit="10" stroke-linejoin="round"/>
<path d="M42.3151 51.9694C42.195 52.6897 42.075 53.41 42.075 54.1304C42.075 60.7336 47.4775 66.1362 54.0807 66.1362C58.5229 66.1362 62.2447 63.735 64.4057 60.2533" stroke="#425CC7" stroke-width="1.35065" stroke-miterlimit="10" stroke-linejoin="round"/>
<path d="M70.8886 51.7286L66.0862 56.5309L61.2839 51.7286" stroke="#222222" stroke-width="1.35065" stroke-miterlimit="10" stroke-linejoin="round"/>
<path d="M37.2727 56.5309L42.075 51.7286L46.8773 56.5309" stroke="#222222" stroke-width="1.35065" stroke-miterlimit="10" stroke-linejoin="round"/>
</svg>
