<svg width="108" height="109" viewBox="0 0 108 109" fill="none" xmlns="http://www.w3.org/2000/svg">
<rect x="0.974031" y="0.675325" width="105.91" height="106.701" rx="31.7403" fill="white"/>
<rect x="0.974031" y="0.675325" width="105.91" height="106.701" rx="31.7403" stroke="#425CC7" stroke-width="1.35065"/>
<path d="M53.9289 86.4415C71.8316 86.4415 86.3446 71.9286 86.3446 54.0259C86.3446 36.1233 71.8316 21.6104 53.9289 21.6104C36.0263 21.6104 21.5134 36.1233 21.5134 54.0259C21.5134 71.9286 36.0263 86.4415 53.9289 86.4415Z" stroke="#222222" stroke-width="1.35065" stroke-miterlimit="10"/>
<path d="M53.9288 81.3049C68.9847 81.3049 81.1899 69.0997 81.1899 54.0439C81.1899 38.988 68.9847 26.7828 53.9288 26.7828C38.873 26.7828 26.6678 38.988 26.6678 54.0439C26.6678 69.0997 38.873 81.3049 53.9288 81.3049Z" stroke="#222222" stroke-width="1.35065" stroke-miterlimit="10"/>
<path d="M68.3218 30.8849L53.929 54.0441L61.1163 80.3432" stroke="#222222" stroke-width="1.35065" stroke-miterlimit="10"/>
<path d="M26.6504 54.0441H54.0203" stroke="#222222" stroke-width="1.35065" stroke-miterlimit="10"/>
<path d="M42.8756 38.9071C42.0225 38.9071 41.5325 39.379 41.5325 40.3772V43.9528C41.5325 44.951 42.0226 45.4229 42.8937 45.4229C44.0553 45.4229 44.1643 44.588 44.2006 44.0617C44.2187 43.6624 44.5817 43.5353 45.0173 43.5353C45.5981 43.5353 45.8703 43.6987 45.8703 44.3521C45.8703 45.8948 44.5998 46.893 42.8212 46.893C41.2058 46.893 39.8809 46.0944 39.8809 43.9709V40.3954C39.8809 38.2537 41.224 37.4733 42.8393 37.4733C44.618 37.4733 45.8885 38.4171 45.8885 39.9053C45.8885 40.5769 45.6162 40.7221 45.0536 40.7221C44.5817 40.7221 44.2368 40.5769 44.2186 40.1957C44.1824 39.7783 44.0916 38.9071 42.8756 38.9071Z" fill="#425CC7"/>
<path d="M51.66 43.1363V46.2762C51.66 46.5666 51.3152 46.8026 50.8615 46.8026C50.444 46.8026 50.1173 46.5666 50.1173 46.2762V45.9132C49.6635 46.4396 49.0465 46.9296 48.1753 46.9296C47.2678 46.9296 46.5055 46.3851 46.5055 45.2235C46.5055 43.7534 47.7215 43.336 49.482 43.336H50.0085V43.1726C50.0085 42.6281 49.718 41.9929 48.8831 41.9929C47.903 41.9929 47.7397 42.3922 47.4312 42.3922C47.0682 42.3922 46.8685 41.9384 46.8685 41.5754C46.8685 41.0491 48.012 40.6498 48.9195 40.6498C50.916 40.6498 51.66 41.8477 51.66 43.1363ZM50.0265 44.189H49.827C48.9739 44.189 48.1571 44.2797 48.1571 44.9876C48.1571 45.4595 48.4476 45.6773 48.8287 45.6773C49.3551 45.6773 50.0085 45.0783 50.0085 44.4431V44.189H50.0265Z" fill="#425CC7"/>
<path d="M65.7084 59.1806H69.3928C69.7195 59.1806 69.9191 59.5617 69.9191 59.9066C69.9191 60.2514 69.7195 60.6326 69.3928 60.6326H64.0749C63.7301 60.6326 63.5848 60.4329 63.5848 60.1788C63.5848 60.0155 63.6574 59.7977 63.7663 59.598L67.5596 52.7374H64.329C64.0023 52.7374 63.8208 52.3925 63.8208 52.0114C63.8208 51.6484 63.966 51.2854 64.329 51.2854H69.1931C69.5198 51.2854 69.6832 51.485 69.6832 51.7391C69.6832 51.9206 69.6106 52.1203 69.4835 52.3381L65.7084 59.1806Z" fill="#425CC7"/>
<path d="M72.3687 60.1242C72.3687 60.3783 71.9875 60.6506 71.5338 60.6506C71.0437 60.6506 70.717 60.3783 70.717 60.1242V55.0785C70.717 54.77 71.0437 54.5704 71.5338 54.5704C71.9331 54.5704 72.2598 54.77 72.2598 55.0785V55.4597C72.4957 54.9697 73.1129 54.4796 73.9659 54.4796C75.1457 54.4796 76.162 55.6593 76.162 57.075V60.1061C76.162 60.4509 75.7446 60.6324 75.3272 60.6324C74.946 60.6324 74.5104 60.4509 74.5104 60.1061V57.075C74.5104 56.4942 74.0204 55.9316 73.4033 55.9316C72.8769 55.9316 72.3505 56.3672 72.3505 57.075V60.1242H72.3687Z" fill="#425CC7"/>
<path d="M40.6981 66.7851C40.5529 67.0392 40.3351 67.1118 40.1354 67.1118C39.9358 67.1118 39.718 67.0392 39.5909 66.7851L38.1209 64.0263V69.6346C38.1209 69.9795 37.7034 70.161 37.286 70.161C36.8685 70.161 36.451 69.9795 36.451 69.6346V61.6306C36.451 61.0135 36.8685 60.7957 37.286 60.7957C37.8849 60.7957 38.1572 60.9227 38.5746 61.685L40.1536 64.5527L41.7327 61.685C42.1501 60.9227 42.4405 60.7957 43.0394 60.7957C43.4568 60.7957 43.8743 61.0135 43.8743 61.6306V69.6346C43.8743 69.9795 43.4568 70.161 43.0394 70.161C42.622 70.161 42.2046 69.9795 42.2046 69.6346V64.1352L40.6981 66.7851Z" fill="#425CC7"/>
<path d="M46.6687 68.4001C46.5779 68.4727 46.5235 68.5453 46.5235 68.6542C46.5235 69.4891 50.3713 68.5816 50.3713 70.9774C50.3713 72.3931 49.01 72.992 47.5762 72.992C46.0697 72.992 44.7449 72.3386 44.7449 71.1952C44.7449 70.5418 45.1622 70.1062 45.6704 69.8339C45.3437 69.6887 45.1259 69.4346 45.1259 69.0172C45.1259 68.5453 45.3982 68.273 45.7794 68.0189C45.2893 67.6378 44.9808 67.057 44.9808 66.3855V66.1132C44.9808 64.879 45.9791 64.0078 47.4673 64.0078C48.03 64.0078 48.5382 64.153 48.9193 64.3708C49.2097 63.6993 49.4638 63.4996 49.6997 63.4996C50.1172 63.4996 50.3532 63.8082 50.3532 64.0078C50.3532 64.153 50.2624 64.2801 50.1535 64.3708C49.9901 64.4797 49.7361 64.6068 49.5546 64.8609C49.845 65.2057 50.0083 65.6413 50.0083 66.1132V66.3855C50.0083 67.6196 48.9556 68.5271 47.4673 68.5271C47.1951 68.5271 46.9046 68.4908 46.6687 68.4001ZM46.9954 70.1243C46.578 70.324 46.3057 70.6144 46.3057 71.0137C46.3057 71.5945 46.8684 71.9212 47.5399 71.9212C48.2115 71.9212 48.7559 71.5763 48.7559 71.0318C48.7741 70.3058 47.8122 70.2151 46.9954 70.1243ZM48.4293 66.1132C48.4293 65.4961 48.1025 65.0061 47.5036 65.0061C46.9228 65.0061 46.5961 65.5143 46.5961 66.1132V66.3673C46.5961 67.0207 46.9228 67.5107 47.5218 67.5107C48.0844 67.5107 48.4293 67.0389 48.4293 66.3673V66.1132Z" fill="#425CC7"/>
</svg>
