<svg width="108" height="109" viewBox="0 0 108 109" fill="none" xmlns="http://www.w3.org/2000/svg">
<rect x="0.974031" y="0.727327" width="105.91" height="106.701" rx="31.7403" fill="white"/>
<rect x="0.974031" y="0.727327" width="105.91" height="106.701" rx="31.7403" stroke="#425CC7" stroke-width="1.35065"/>
<g clip-path="url(#clip0_1111_2279)">
<path d="M31.5873 79.9955C31.9397 79.7302 32.3466 79.5462 32.7787 79.4568C33.2108 79.3674 33.6574 79.3747 34.0863 79.4783L44.4109 81.8656C52.0265 83.6462 59.9451 83.6956 67.5824 82.01C75.2197 80.3246 82.3806 76.9472 88.5369 72.1273L98.294 64.5176C98.7861 64.0465 99.1022 63.4214 99.1897 62.7461C99.2772 62.0708 99.131 61.386 98.7752 60.8052C98.4194 60.2244 97.8756 59.7826 97.2339 59.5532C96.5922 59.3238 95.8912 59.3205 95.2474 59.544L77.595 67.5018L77.4158 67.1337C77.1163 66.5505 76.661 66.0616 76.1004 65.721C75.5398 65.3804 74.8959 65.2014 74.2398 65.204H74.1402C67.0713 65.4029 62.123 65.4228 60.8885 65.2636C58.9296 64.4897 57.0353 63.5617 55.2234 62.4884C49.4979 59.431 43.0095 58.0935 36.5403 58.6371C30.0712 59.1807 23.8975 61.5822 18.7636 65.5521C15.3188 68.208 11.4159 71.4309 9.36494 73.1518L8.67796 73.7188L8.61822 73.7984C8.4869 73.9307 8.41321 74.1094 8.41321 74.2958C8.41321 74.4821 8.4869 74.6608 8.61822 74.7931L21.5115 86.889C21.6379 86.9924 21.7962 87.0489 21.9596 87.0489C22.1229 87.0489 22.2813 86.9924 22.4076 86.889L31.5873 79.9955ZM10.1814 74.2858L10.4203 74.0769C12.2722 72.5351 16.1451 69.3221 19.58 66.6463C24.5032 62.8414 30.423 60.5408 36.6256 60.0219C42.8281 59.503 49.0484 60.788 54.5364 63.7218C58.2998 65.7113 59.9227 66.4971 60.7192 66.6065C62.5113 66.8353 69.9287 66.6762 74.19 66.5568C74.7214 66.5447 75.2386 66.7288 75.6427 67.0738C76.0468 67.4188 76.3095 67.9005 76.3804 68.4269C76.3804 68.4965 76.3804 68.5363 76.3804 68.5761C76.4048 69.0327 76.2854 69.4856 76.0389 69.8709C75.7925 70.2563 75.4314 70.5549 75.0064 70.7247C71.91 71.9482 65.1896 73.7089 55.0939 71.9283C54.9121 71.8992 54.726 71.9422 54.5754 72.0481C54.4248 72.154 54.3215 72.3145 54.2875 72.4953C54.2717 72.5854 54.2739 72.6778 54.2939 72.7671C54.314 72.8564 54.3514 72.9408 54.4041 73.0157C54.4568 73.0905 54.5237 73.1542 54.6011 73.2032C54.6785 73.2521 54.7647 73.2854 54.855 73.301C64.8112 75.0617 71.6113 73.5795 75.564 72.0178C76.1777 71.7784 76.712 71.3719 77.1062 70.8444C77.5005 70.3169 77.7388 69.6896 77.7942 69.0337V68.8646L95.805 60.7476C96.1241 60.5997 96.4841 60.5644 96.826 60.6475C97.1678 60.7306 97.4713 60.9272 97.6867 61.2052C97.8225 61.3664 97.9235 61.5538 97.9834 61.7558C98.0434 61.9577 98.061 62.1699 98.0352 62.3789C97.9748 62.7737 97.7644 63.13 97.4478 63.3737L87.6807 70.9734C81.6905 75.6656 74.7222 78.9542 67.2901 80.5966C59.858 82.2391 52.1516 82.1934 44.7394 80.463L34.4049 78.1155C33.7766 77.9718 33.1246 77.9659 32.4938 78.0981C31.8631 78.2304 31.2684 78.4976 30.7509 78.8814L22.0392 85.4765L10.1814 74.2858Z" fill="#010101"/>
<path d="M36.1274 33.0943C36.1772 33.0943 40.5878 36.9538 41.8323 40.8631C42.4848 42.7676 43.5162 44.5205 44.8645 46.0163C46.2128 47.5121 47.8501 48.7199 49.6778 49.5669C51.1173 50.1762 52.6645 50.4908 54.2278 50.492C56.3351 50.4326 58.4095 49.9558 60.331 49.0895L60.6297 48.9601L60.7292 49.2586C62.1011 53.1743 62.8634 57.2772 62.9893 61.424C62.9893 61.424 62.9893 61.424 62.9893 61.4937C63.0041 61.6635 63.0817 61.8217 63.2068 61.9375C63.3319 62.0534 63.4957 62.1185 63.6663 62.1203C63.8512 62.1203 64.0284 62.047 64.1591 61.9164C64.2898 61.7858 64.3633 61.6087 64.3633 61.424C64.55 56.0571 65.5572 50.7502 67.3501 45.6875L67.4597 45.3891L67.7484 45.5184C70.2458 46.6803 72.959 47.3071 75.7134 47.3586C77.67 47.3603 79.6069 46.9679 81.4083 46.2048C87.2327 43.7577 90.369 38.1873 91.2551 35.2628C92.8082 30.3488 98.3041 25.5244 98.5331 25.3155C98.6057 25.2607 98.6638 25.189 98.7023 25.1066C98.7456 25.0265 98.7724 24.9385 98.7813 24.8479C98.7902 24.7572 98.7809 24.6657 98.754 24.5787C98.7271 24.4917 98.6832 24.4108 98.6248 24.341C98.5663 24.2711 98.4945 24.2135 98.4136 24.1716C97.876 23.8831 85.0225 17.2782 73.8516 24.1716C63.049 30.8661 65.8866 43.0117 66.2948 44.3745V44.464V44.5535C65.2504 47.3217 64.4574 50.1781 63.9252 53.0882L63.6663 54.5107L63.3477 53.1081C62.9601 51.4192 62.4612 49.7577 61.8543 48.1345V48.045V47.9555C62.3023 46.1849 64.1542 37.103 55.8109 31.9404C46.9199 26.4296 36.7248 31.6818 36.2966 31.9404C36.2237 31.9847 36.1568 32.0382 36.0975 32.0996C35.9701 32.2357 35.9017 32.4167 35.9073 32.6031C35.9129 32.7894 35.992 32.966 36.1274 33.0943ZM74.5684 25.4051C82.9715 20.2026 92.639 23.2664 96.4124 24.8281L96.8306 24.9972L96.502 25.3155C94.5804 27.1856 91.1654 30.9059 89.911 34.8649C89.1244 37.3616 86.2172 42.6635 80.8508 44.9216C79.2159 45.5954 77.462 45.9337 75.6935 45.9163C73.1087 45.8638 70.5655 45.2565 68.2362 44.1357L67.9674 44.0164L68.0769 43.7478C71.9499 34.7256 78.2224 29.7818 86.7449 29.1154C86.929 29.1003 87.1002 29.0148 87.2228 28.8766C87.3416 28.7331 87.3998 28.5489 87.3849 28.3631C87.37 28.1774 87.2833 28.0048 87.1431 27.8819C86.9989 27.768 86.8192 27.7081 86.6354 27.7128C78.1825 28.3793 71.8105 32.9749 67.7185 41.3704L67.2605 42.2955L67.151 41.3008C66.6831 37.3418 67.0913 30.0305 74.5684 25.4051ZM38.2978 32.587C41.2051 31.4331 48.6623 29.1751 55.0841 33.154C57.0624 34.3351 58.6646 36.053 59.7044 38.1079C60.7443 40.1628 61.179 42.4704 60.9582 44.7624L60.8985 45.8268L60.3907 44.8818C57.1052 38.6448 52.147 35.223 45.6555 34.7157C45.4752 34.7022 45.2967 34.7593 45.1577 34.8748C45.0166 34.9963 44.9275 35.1672 44.9088 35.3523C44.895 35.5381 44.9553 35.7218 45.0765 35.8634C45.1977 36.005 45.3701 36.0931 45.5559 36.1083C52.147 36.6156 57.0255 40.4155 60.0522 47.3885L60.1717 47.6571L59.9029 47.7764C58.1256 48.6094 56.1908 49.0537 54.2278 49.0795C52.8608 49.079 51.5074 48.8085 50.2453 48.2837C48.6113 47.511 47.1469 46.422 45.9369 45.08C44.7269 43.7379 43.7954 42.1694 43.1963 40.4652C42.2007 37.4114 39.6519 34.4968 38.2182 33.0843L37.8996 32.766L38.2978 32.587Z" fill="#425CC7"/>
</g>
<defs>
<clipPath id="clip0_1111_2279">
<rect width="91" height="66" fill="white" transform="translate(8.42908 21.078)"/>
</clipPath>
</defs>
</svg>
