<svg width="108" height="109" viewBox="0 0 108 109" fill="none" xmlns="http://www.w3.org/2000/svg">
<rect x="0.675325" y="0.675325" width="105.91" height="106.701" rx="31.7403" fill="white"/>
<rect x="0.675325" y="0.675325" width="105.91" height="106.701" rx="31.7403" stroke="#425CC7" stroke-width="1.35065"/>
<path fill-rule="evenodd" clip-rule="evenodd" d="M61.7924 32.4581C63.4908 32.4581 64.8604 31.0885 64.8604 29.3901V24.6784C64.8422 22.9983 63.4908 21.6286 61.7924 21.6104H31.9884C30.29 21.6104 28.9021 22.98 28.8838 24.6784V29.3536C28.8838 31.0519 30.2535 32.4216 31.9519 32.4216L61.7924 32.4581Z" stroke="#222222" stroke-width="1.35065" stroke-miterlimit="10" stroke-linecap="round" stroke-linejoin="round"/>
<path d="M66.4675 53.7152V46.1911C66.5223 41.443 67.6911 34.9599 62.395 32.4762" stroke="#222222" stroke-width="1.35065" stroke-miterlimit="10" stroke-linecap="round" stroke-linejoin="round"/>
<path d="M31.13 32.4584C25.8705 35.4534 26.4914 41.973 26.8384 47.2325V81.2003C26.8201 82.4604 27.2949 83.6658 28.135 84.5971C28.975 85.4189 30.1986 85.839 31.8787 85.7842H43.384H58.5782" stroke="#222222" stroke-width="1.35065" stroke-miterlimit="10" stroke-linecap="round" stroke-linejoin="round"/>
<path d="M66.0291 45.8264H26.8018" stroke="#222222" stroke-width="1.35065" stroke-miterlimit="10" stroke-linecap="round" stroke-linejoin="round"/>
<path d="M62.4132 75.4478H26.8018" stroke="#222222" stroke-width="1.35065" stroke-miterlimit="10" stroke-linecap="round" stroke-linejoin="round"/>
<path fill-rule="evenodd" clip-rule="evenodd" d="M60.3312 64.472C58.8337 62.8102 58.9616 60.2352 60.6235 58.7194C62.2853 57.2219 64.8603 57.3498 66.3761 59.0116C69.4624 62.4449 72.5122 65.86 75.6167 69.2933C77.1143 70.9552 76.9864 73.5119 75.3246 75.0094C73.6627 76.5069 71.106 76.3608 69.6085 74.7172C66.5039 71.2839 63.4358 67.9054 60.3312 64.472Z" stroke="#425CC7" stroke-width="1.35065" stroke-miterlimit="10" stroke-linecap="round" stroke-linejoin="round"/>
<path d="M71.1058 64.5267L65.3167 69.7497" stroke="#425CC7" stroke-width="1.35065" stroke-miterlimit="10" stroke-linecap="round" stroke-linejoin="round"/>
<path fill-rule="evenodd" clip-rule="evenodd" d="M63.3811 86.4415C61.1349 86.4598 59.3086 84.6518 59.2721 82.4055C59.2538 80.1593 61.0618 78.3331 63.3081 78.2965C67.9284 78.26 72.5123 78.2417 77.1326 78.2052C79.3606 78.187 81.1868 79.9767 81.2051 82.2229C81.2234 84.4509 79.4337 86.2771 77.1874 86.2954C72.5853 86.3502 68.0197 86.405 63.3811 86.4415Z" stroke="#425CC7" stroke-width="1.35065" stroke-miterlimit="10" stroke-linecap="round" stroke-linejoin="round"/>
<path d="M70.5767 78.4243L70.6315 86.2223" stroke="#425CC7" stroke-width="1.35065" stroke-miterlimit="10" stroke-linecap="round" stroke-linejoin="round"/>
<path d="M36.28 22.5238V32.4402" stroke="#222222" stroke-width="1.35065" stroke-miterlimit="10" stroke-linecap="round" stroke-linejoin="round"/>
<path d="M46.8721 22.5238V32.4402" stroke="#222222" stroke-width="1.35065" stroke-miterlimit="10" stroke-linecap="round" stroke-linejoin="round"/>
<path d="M56.9893 21.6288V32.44" stroke="#222222" stroke-width="1.35065" stroke-miterlimit="10" stroke-linecap="round" stroke-linejoin="round"/>
</svg>
