<svg width="108" height="109" viewBox="0 0 108 109" fill="none" xmlns="http://www.w3.org/2000/svg">
<rect x="0.675325" y="0.831086" width="105.91" height="106.701" rx="31.7403" fill="white"/>
<rect x="0.675325" y="0.831086" width="105.91" height="106.701" rx="31.7403" stroke="#425CC7" stroke-width="1.35065"/>
<path d="M47.6343 44.363C47.6343 52.9939 47.6343 69.5593 47.6504 76.2956C47.6504 76.2956 47.4076 78.6597 50.2089 78.7731C52.5245 78.8702 53.2856 77.8015 53.2694 75.8907C53.2209 70.4175 53.1075 60.8799 53.1237 59.552" stroke="#425CC7" stroke-width="1.35065" stroke-miterlimit="10" stroke-linecap="round" stroke-linejoin="round"/>
<path d="M58.4353 44.444C58.4353 54.7913 58.4353 65.7377 58.4353 76.0688C58.4353 76.0688 58.662 78.5625 56.1035 78.7407C54.6138 78.6921 53.2698 78.514 53.2698 76.166" stroke="#425CC7" stroke-width="1.35065" stroke-miterlimit="10" stroke-linecap="round" stroke-linejoin="round"/>
<path d="M56.8967 39.5699C57.9007 39.6023 58.9209 39.5052 59.9086 39.7967C61.868 40.3796 63.8435 42.1122 63.8597 44.1526C63.9083 49.1886 63.8435 53.5607 63.8435 58.5967C63.8435 60.6694 62.4185 61.1876 60.9612 61.1714C59.1638 61.0904 58.4189 59.6816 58.4189 58.3538" stroke="#425CC7" stroke-width="1.35065" stroke-miterlimit="10" stroke-linecap="round" stroke-linejoin="round"/>
<path d="M47.667 58.1919C47.6184 60.5884 46.161 61.1552 44.4608 60.977C43.5216 60.9608 42.3395 60.3293 42.3233 58.5481C42.3071 53.5121 42.2909 49.1886 42.3395 44.1688C42.3557 41.8694 44.6713 39.9262 46.9545 39.6509C47.8127 39.5538 48.6709 39.6185 49.513 39.5699" stroke="#425CC7" stroke-width="1.35065" stroke-miterlimit="10" stroke-linecap="round" stroke-linejoin="round"/>
<path d="M53.0589 38.2421C50.7433 38.2421 48.8649 36.3961 48.8487 34.0805C48.8325 31.7811 50.6947 29.9027 53.0103 29.8703C55.3583 29.8542 57.2367 31.7163 57.2367 34.0643C57.2367 36.3799 55.3745 38.2421 53.0589 38.2421Z" stroke="#425CC7" stroke-width="1.35065" stroke-miterlimit="10" stroke-linecap="round" stroke-linejoin="round"/>
<path d="M48.104 55.682H58.4351" stroke="#425CC7" stroke-width="1.35065" stroke-miterlimit="10" stroke-linecap="round" stroke-linejoin="round"/>
<path d="M42.323 47.9092H47.6343" stroke="#425CC7" stroke-width="1.35065" stroke-miterlimit="10" stroke-linecap="round" stroke-linejoin="round"/>
<path d="M58.4346 47.9092H63.8754" stroke="#425CC7" stroke-width="1.35065" stroke-miterlimit="10" stroke-linecap="round" stroke-linejoin="round"/>
<path d="M53.6397 86.5973C35.7456 86.5973 21.2334 72.0851 21.2334 54.191C21.2334 45.2718 24.8568 35.8695 32.085 30.0349" stroke="#222222" stroke-width="1.35065" stroke-miterlimit="10" stroke-linecap="round" stroke-linejoin="round"/>
<path d="M52.2891 21.7661C70.1831 21.7661 84.6953 36.2783 84.6953 54.1724C84.6953 62.9801 80.9233 71.9178 73.9366 77.9197" stroke="#222222" stroke-width="1.35065" stroke-miterlimit="10" stroke-linecap="round" stroke-linejoin="round"/>
<path d="M85.5686 76.8232L73.9923 78.4956L73.2676 68.8146" stroke="#222222" stroke-width="1.35065" stroke-miterlimit="10" stroke-linecap="round" stroke-linejoin="round"/>
<path d="M32.0665 40.1619V30.0349L21.2148 31.3356" stroke="#222222" stroke-width="1.35065" stroke-miterlimit="10" stroke-linecap="round" stroke-linejoin="round"/>
</svg>
