<svg width="108" height="109" viewBox="0 0 108 109" fill="none" xmlns="http://www.w3.org/2000/svg">
<rect x="1.32474" y="0.831086" width="105.91" height="106.701" rx="31.7403" fill="white"/>
<rect x="1.32474" y="0.831086" width="105.91" height="106.701" rx="31.7403" stroke="#425CC7" stroke-width="1.35065"/>
<path d="M71.7999 21.7843C71.7999 21.7843 72.0186 31.4808 82.918 32.6108C83.7746 49.7983 86.1258 72.5265 55.542 86.5973C43.5672 79.5072 23.0444 70.7039 26.2522 32.5561C26.2522 32.5561 35.0191 33.9596 37.3703 21.7661H71.7999V21.7843Z" stroke="#222222" stroke-width="1.35065" stroke-miterlimit="10" stroke-linecap="round" stroke-linejoin="round"/>
<path d="M35.6746 44.6295C35.6746 44.6295 38.4112 45.579 38.9138 49.2762C39.4165 52.9622 39.3159 53.4984 39.3159 53.4984C39.3159 53.4984 38.7574 59.2843 42.2089 62.088C42.3653 62.222 42.5664 62.289 42.7786 62.2779C44.119 62.2332 46.0849 62.2779 46.8221 62.3002C47.0232 62.3114 47.2242 62.2444 47.3918 62.1215C48.2518 61.496 50.3518 60.2785 50.4076 55.7994C50.5082 52.8505 50.8097 48.4831 52.3065 48.1257" stroke="#425CC7" stroke-width="1.35065" stroke-miterlimit="10" stroke-linecap="round" stroke-linejoin="round"/>
<path d="M46.3529 62.0546C46.3529 62.0546 43.5605 58.994 43.5828 54.3362C43.6052 49.9576 43.1249 46.9641 40.8797 45.2104C40.6005 44.9982 40.2877 44.853 39.9415 44.7972C37.9644 44.4397 35.6746 44.6296 35.6746 44.6296" stroke="#425CC7" stroke-width="1.35065" stroke-miterlimit="10" stroke-linecap="round" stroke-linejoin="round"/>
<path d="M44.8337 59.0498C44.8337 59.0498 46.822 57.2738 46.4869 52.8282C46.1518 48.3938 48.3076 44.5848 49.7708 44.5402C50.8766 44.5737 53.8032 47.8911 53.3005 52.6048C53.2558 56.4025 53.0883 59.2285 56.0148 61.7641C56.1711 61.8981 56.3499 61.9763 56.5509 61.9986C58.1929 62.1662 60.1811 62.1215 61.1306 62.0768C61.4992 62.0656 61.8343 61.8869 62.0577 61.5965C62.806 60.6471 64.4033 58.3237 64.515 55.9334C64.6491 52.8058 64.0012 49.2538 66.3022 48.081" stroke="#425CC7" stroke-width="1.35065" stroke-miterlimit="10" stroke-linecap="round" stroke-linejoin="round"/>
<path d="M49.771 44.5514L54.5294 44.7636C54.8533 44.7748 55.1437 44.92 55.3559 45.1657C56.0708 45.9923 57.6011 48.2039 57.6122 51.9905C57.4 55.8888 58.1596 59.8429 60.5052 62.0992" stroke="#425CC7" stroke-width="1.35065" stroke-miterlimit="10" stroke-linecap="round" stroke-linejoin="round"/>
<path d="M58.8633 58.9826C58.8633 58.9826 60.5946 57.7316 60.226 52.1914C60.2819 48.0474 61.801 44.9086 63.6999 44.6071C65.5987 44.2943 66.9726 48.3489 67.0396 50.7616C67.1066 53.1073 66.5593 58.9044 69.8544 61.6969C70.0443 61.8533 70.2788 61.9426 70.5246 61.9426C72.2447 61.9873 75.1712 61.9538 75.1712 61.9538" stroke="#425CC7" stroke-width="1.35065" stroke-miterlimit="10" stroke-linecap="round" stroke-linejoin="round"/>
<path d="M64.1018 44.5961L68.1229 44.7189C68.4134 44.7078 68.6926 44.8083 68.916 45.0094C69.6979 45.6907 71.3511 47.6566 71.5633 52.1245C71.4628 54.5707 71.7308 59.7982 74.7132 61.954" stroke="#425CC7" stroke-width="1.35065" stroke-miterlimit="10" stroke-linecap="round" stroke-linejoin="round"/>
<path d="M41.1038 43.8475C43.8962 39.5024 48.7774 36.6206 54.3288 36.6206C59.3553 36.6206 63.8232 38.9774 66.7051 42.6411" stroke="#222222" stroke-width="1.35065" stroke-miterlimit="10" stroke-linecap="round" stroke-linejoin="round"/>
<path d="M67.0175 61.6187C64.158 65.5169 59.5449 68.0525 54.3285 68.0525C50.2515 68.0525 46.5432 66.4999 43.7507 63.9643" stroke="#222222" stroke-width="1.35065" stroke-miterlimit="10" stroke-linecap="round" stroke-linejoin="round"/>
</svg>
