<svg width="108" height="109" viewBox="0 0 108 109" fill="none" xmlns="http://www.w3.org/2000/svg">
<rect x="0.675325" y="0.727327" width="105.91" height="106.701" rx="31.7403" fill="white"/>
<rect x="0.675325" y="0.727327" width="105.91" height="106.701" rx="31.7403" stroke="#425CC7" stroke-width="1.35065"/>
<path d="M33.4287 42.0041L35.8155 43.8484L39.7391 40.3406" stroke="#222222" stroke-width="1.35065" stroke-miterlimit="10" stroke-linecap="round" stroke-linejoin="round"/>
<path d="M64.5287 42.0944H44.9104" stroke="#222222" stroke-width="1.35065" stroke-miterlimit="10" stroke-linecap="round" stroke-linejoin="round"/>
<path d="M33.4287 51.2256L35.8155 53.088L39.7391 49.5802" stroke="#222222" stroke-width="1.35065" stroke-miterlimit="10" stroke-linecap="round" stroke-linejoin="round"/>
<path d="M64.5287 51.334H44.9104" stroke="#222222" stroke-width="1.35065" stroke-miterlimit="10" stroke-linecap="round" stroke-linejoin="round"/>
<path d="M33.4287 60.4648L35.8155 62.3091L39.7391 58.8013" stroke="#222222" stroke-width="1.35065" stroke-miterlimit="10" stroke-linecap="round" stroke-linejoin="round"/>
<path d="M56.8803 60.5552H44.9104" stroke="#222222" stroke-width="1.35065" stroke-miterlimit="10" stroke-linecap="round" stroke-linejoin="round"/>
<path d="M52.1609 84.2241H30.4271C29.071 84.2241 27.968 83.0849 27.968 81.6565V33.1622C27.968 31.7518 29.071 30.5946 30.4271 30.5946H36.8641" stroke="#222222" stroke-width="1.35065" stroke-miterlimit="10" stroke-linecap="round" stroke-linejoin="round"/>
<path d="M59.1406 30.6124H66.7348C68.0909 30.6124 69.1939 31.7154 69.1939 33.0715V54.5884" stroke="#222222" stroke-width="1.35065" stroke-miterlimit="10" stroke-linecap="round" stroke-linejoin="round"/>
<path d="M53.4988 26.9421C53.4988 24.031 51.1301 21.6624 48.219 21.6624C45.3079 21.6624 42.9393 24.031 42.9393 26.9421H38.0754C37.4606 26.9421 36.9724 27.4484 36.9724 28.0451V32.692C36.9724 33.3068 37.4787 33.795 38.0754 33.795H57.766C58.3808 33.795 58.869 33.3068 58.869 32.692L58.9052 28.0993C58.9052 27.4846 58.417 26.9964 57.8022 26.9783L53.4988 26.9421Z" stroke="#222222" stroke-width="1.35065" stroke-miterlimit="10" stroke-linecap="round" stroke-linejoin="round"/>
<path d="M47.9662 29.0394C48.875 29.0394 49.6116 28.3027 49.6116 27.394C49.6116 26.4852 48.875 25.7485 47.9662 25.7485C47.0575 25.7485 46.3208 26.4852 46.3208 27.394C46.3208 28.3027 47.0575 29.0394 47.9662 29.0394Z" stroke="#222222" stroke-width="1.35065" stroke-miterlimit="10" stroke-linecap="round" stroke-linejoin="round"/>
<path d="M62.395 58.3495C63.3533 58.91 63.9139 59.579 64.6552 60.5193C65.5412 61.6584 66.8069 64.5695 67.0781 66.1064" stroke="#425CC7" stroke-width="1.35065" stroke-miterlimit="10" stroke-linecap="round" stroke-linejoin="round"/>
<path d="M68.4342 65.6003C68.5065 65.5642 68.5788 65.528 68.6512 65.5099C69.6818 65.1664 70.7305 65.0217 71.8154 64.9133C72.9726 64.8048 74.0937 64.9313 75.1966 65.2568C76.842 65.745 78.0535 66.8299 78.8853 68.3125C79.5904 69.5782 79.934 70.9344 80.1148 72.3628C80.2233 73.2126 80.2233 74.0624 80.169 74.9123C80.0605 76.4673 79.6628 77.9861 79.0118 79.4145C78.4694 80.6079 77.8004 81.747 77.0229 82.7958C75.7572 84.4773 74.2202 85.7973 72.1228 86.2855C71.1102 86.5205 70.0977 86.5386 69.0671 86.3578C68.4161 86.2493 67.7833 86.0143 67.1143 86.0323C66.5176 86.0504 65.9571 86.2493 65.3785 86.3578C63.5161 86.7194 61.8164 86.3578 60.2795 85.291C58.9053 84.3327 57.8927 83.0489 57.0429 81.6205C56.0123 79.9208 55.3071 78.0946 54.9455 76.1237C54.7466 75.0027 54.7285 73.8816 54.8008 72.7606C54.9093 71.3141 55.2167 69.8856 55.8676 68.5838C56.7536 66.7756 58.1097 65.5099 60.1349 65.076C61.6356 64.7505 63.1183 64.8771 64.5829 65.1845C64.9264 65.2568 65.2519 65.3472 65.5954 65.4557C65.6678 65.4738 65.7582 65.5099 65.8305 65.5642L67.1866 66.3417L68.4342 65.6003Z" stroke="#425CC7" stroke-width="1.35065" stroke-miterlimit="10" stroke-linecap="round" stroke-linejoin="round"/>
<path d="M75.1968 69.162C75.1968 69.162 77.692 73.1218 76.0285 78.058" stroke="#425CC7" stroke-width="1.35065" stroke-miterlimit="10" stroke-linecap="round" stroke-linejoin="round"/>
<path d="M66.9697 63.0149C67.9099 62.9607 69.5192 62.7798 70.4232 62.4905C71.6528 62.0928 72.6473 61.3333 73.4609 60.3389C73.9672 59.7241 74.365 59.0551 74.7266 58.3499C74.817 58.1872 74.8351 58.0968 74.6181 58.0968C73.5694 58.0968 72.5026 58.0606 71.4539 58.3137C70.0074 58.6935 68.8321 59.4709 67.8918 60.6282C67.4579 61.1525 67.0782 61.8758 66.7166 62.4725" stroke="#425CC7" stroke-width="1.35065" stroke-miterlimit="10" stroke-linecap="round" stroke-linejoin="round"/>
<path d="M37.9126 73.8995L40.1547 76.0512L44.1145 72.5072" stroke="#425CC7" stroke-width="1.35065" stroke-miterlimit="10" stroke-linecap="round" stroke-linejoin="round"/>
<path d="M47.193 75.266C47.7449 71.8652 45.4355 68.661 42.0347 68.109C38.634 67.5571 35.4297 69.8666 34.8778 73.2673C34.3258 76.6681 36.6353 79.8723 40.036 80.4243C43.4368 80.9762 46.6411 78.6668 47.193 75.266Z" stroke="#425CC7" stroke-width="1.35065" stroke-miterlimit="10" stroke-linecap="round" stroke-linejoin="round"/>
</svg>
