<svg width="108" height="109" viewBox="0 0 108 109" fill="none" xmlns="http://www.w3.org/2000/svg">
<rect x="1.32474" y="0.727327" width="105.91" height="106.701" rx="31.7403" fill="white"/>
<rect x="1.32474" y="0.727327" width="105.91" height="106.701" rx="31.7403" stroke="#425CC7" stroke-width="1.35065"/>
<path d="M56.2636 86.4755C56.7879 86.2043 57.3664 86.2404 57.9269 86.1319C65.9538 84.7037 71.9018 80.3468 75.6441 73.0249C77.7593 68.8848 78.4282 64.4193 77.8497 59.7731C77.2169 54.7653 75.174 50.4264 71.8114 46.7202C68.2499 42.7971 64.8511 38.7475 61.8319 34.3905C59.5721 31.1363 57.4568 27.7736 55.9382 24.0856C55.7393 23.5974 55.5766 23.1093 55.3778 22.6212C55.1427 22.0065 54.6727 21.6811 54.0399 21.663C53.371 21.645 52.8648 21.9884 52.6298 22.6212C48.9417 28.9488 44.422 37.1204 39.0526 43.5384C37.6425 45.2378 36.0515 46.7564 34.7318 48.5462C31.1884 53.3009 29.4889 58.6522 30.0855 64.582C31.0076 74.0011 35.9792 80.5456 44.422 84.4868C46.6999 85.5354 49.1044 86.0958 51.5812 86.367C51.6897 86.3851 51.8343 86.3127 51.8886 86.4935C52.0151 86.4935 52.1417 86.4935 52.2682 86.4935C52.3405 86.4031 52.449 86.4393 52.5394 86.4212C52.6117 86.4212 52.684 86.4212 52.7563 86.4212C52.8287 86.4212 52.901 86.4212 52.9733 86.4212C53.0637 86.4212 53.1722 86.4031 53.2445 86.4935C53.823 86.4935 54.4196 86.4935 54.9981 86.4935C55.1427 86.367 55.3054 86.4574 55.4501 86.4212C55.5586 86.4212 55.667 86.4031 55.7393 86.4935C55.9382 86.4754 56.1009 86.4755 56.2636 86.4755Z" stroke="#222222" stroke-width="1.35065" stroke-miterlimit="10" stroke-linecap="round" stroke-linejoin="round"/>
<path d="M41.6016 57.3866V67.2395" stroke="#425CC7" stroke-width="1.35065" stroke-miterlimit="10" stroke-linecap="round" stroke-linejoin="round"/>
<path d="M52.1233 49.0524L43.554 53.9879" stroke="#425CC7" stroke-width="1.35065" stroke-miterlimit="10" stroke-linecap="round" stroke-linejoin="round"/>
<path d="M64.5615 54.042L56.0645 49.1427" stroke="#425CC7" stroke-width="1.35065" stroke-miterlimit="10" stroke-linecap="round" stroke-linejoin="round"/>
<path d="M66.4236 66.7877V57.5133" stroke="#425CC7" stroke-width="1.35065" stroke-miterlimit="10" stroke-linecap="round" stroke-linejoin="round"/>
<path d="M55.8838 75.5197L64.7605 70.4034" stroke="#425CC7" stroke-width="1.35065" stroke-miterlimit="10" stroke-linecap="round" stroke-linejoin="round"/>
<path d="M43.6807 70.6384L51.9246 75.3932" stroke="#425CC7" stroke-width="1.35065" stroke-miterlimit="10" stroke-linecap="round" stroke-linejoin="round"/>
<path d="M54.1121 50.3359C55.3202 50.3359 56.2996 49.3565 56.2996 48.1484C56.2996 46.9402 55.3202 45.9608 54.1121 45.9608C52.9039 45.9608 51.9246 46.9402 51.9246 48.1484C51.9246 49.3565 52.9039 50.3359 54.1121 50.3359Z" stroke="#425CC7" stroke-width="1.35065" stroke-miterlimit="10" stroke-linecap="round" stroke-linejoin="round"/>
<path d="M68.5476 55.727C68.8253 54.5512 68.0972 53.373 66.9214 53.0953C65.7457 52.8177 64.5674 53.5458 64.2898 54.7216C64.0122 55.8973 64.7403 57.0755 65.916 57.3532C67.0918 57.6308 68.27 56.9027 68.5476 55.727Z" stroke="#425CC7" stroke-width="1.35065" stroke-miterlimit="10" stroke-linecap="round" stroke-linejoin="round"/>
<path d="M66.4236 71.1627C67.6318 71.1627 68.6112 70.1833 68.6112 68.9751C68.6112 67.767 67.6318 66.7876 66.4236 66.7876C65.2155 66.7876 64.2361 67.767 64.2361 68.9751C64.2361 70.1833 65.2155 71.1627 66.4236 71.1627Z" stroke="#425CC7" stroke-width="1.35065" stroke-miterlimit="10" stroke-linecap="round" stroke-linejoin="round"/>
<path d="M55.8282 77.1393C56.1058 75.9635 55.3777 74.7853 54.2019 74.5077C53.0262 74.2301 51.848 74.9581 51.5703 76.1339C51.2927 77.3097 52.0208 78.4879 53.1965 78.7655C54.3723 79.0431 55.5505 78.315 55.8282 77.1393Z" stroke="#425CC7" stroke-width="1.35065" stroke-miterlimit="10" stroke-linecap="round" stroke-linejoin="round"/>
<path d="M55.8282 77.1393C56.1058 75.9635 55.3777 74.7853 54.2019 74.5077C53.0262 74.2301 51.848 74.9581 51.5703 76.1339C51.2927 77.3097 52.0208 78.4879 53.1965 78.7655C54.3723 79.0431 55.5505 78.315 55.8282 77.1393Z" stroke="#425CC7" stroke-width="1.35065" stroke-miterlimit="10" stroke-linecap="round" stroke-linejoin="round"/>
<path d="M43.7891 69.626C43.7891 70.0418 43.6806 70.4215 43.4637 70.765C43.084 71.3977 42.379 71.8135 41.6016 71.8135C40.3903 71.8135 39.4141 70.8373 39.4141 69.626C39.4141 68.4147 40.3903 67.4385 41.6016 67.4385C42.8129 67.4385 43.7891 68.4328 43.7891 69.626Z" stroke="#425CC7" stroke-width="1.35065" stroke-miterlimit="10" stroke-linecap="round" stroke-linejoin="round"/>
<path d="M41.6016 57.1697C42.8097 57.1697 43.7891 56.1903 43.7891 54.9822C43.7891 53.7741 42.8097 52.7947 41.6016 52.7947C40.3934 52.7947 39.4141 53.7741 39.4141 54.9822C39.4141 56.1903 40.3934 57.1697 41.6016 57.1697Z" stroke="#425CC7" stroke-width="1.35065" stroke-miterlimit="10" stroke-linecap="round" stroke-linejoin="round"/>
</svg>
