<svg width="80" height="80" viewBox="0 0 80 80" fill="none" xmlns="http://www.w3.org/2000/svg">
<rect x="0.5" y="0.5" width="78.4142" height="79" rx="23.5" fill="white"/>
<rect x="0.5" y="0.5" width="78.4142" height="79" rx="23.5" stroke="#E94260"/>
<path d="M41.1758 63.9866C41.5639 63.7859 41.9923 63.8126 42.4072 63.7323C48.3503 62.6749 52.754 59.449 55.5248 54.028C57.0908 50.9628 57.5861 47.6566 57.1578 44.2166C56.6893 40.5089 55.1767 37.2964 52.6871 34.5525C50.0502 31.6479 47.5338 28.6496 45.2984 25.4237C43.6253 23.0144 42.0592 20.5247 40.9348 17.7941C40.7876 17.4327 40.6671 17.0713 40.5199 16.7099C40.3459 16.2548 39.9979 16.0139 39.5294 16.0005C39.0341 15.9871 38.6594 16.2414 38.4853 16.7099C35.7548 21.3947 32.4084 27.4449 28.433 32.1967C27.389 33.4549 26.2111 34.5792 25.2339 35.9044C22.6104 39.4247 21.3522 43.3867 21.7939 47.7771C22.4766 54.7508 26.1575 59.5963 32.4084 62.5143C34.095 63.2906 35.8752 63.7055 37.709 63.9063C37.7893 63.9197 37.8964 63.8661 37.9365 64C38.0302 64 38.1239 64 38.2176 64C38.2712 63.9331 38.3515 63.9599 38.4184 63.9465C38.472 63.9465 38.5255 63.9465 38.579 63.9465C38.6326 63.9465 38.6861 63.9465 38.7397 63.9465C38.8066 63.9465 38.8869 63.9331 38.9404 64C39.3688 64 39.8105 64 40.2388 64C40.3459 63.9063 40.4664 63.9732 40.5734 63.9465C40.6537 63.9465 40.7341 63.9331 40.7876 64C40.9348 63.9866 41.0553 63.9866 41.1758 63.9866Z" stroke="#222222" stroke-miterlimit="10" stroke-linecap="round" stroke-linejoin="round"/>
<path d="M30.3203 42.4497V49.7447" stroke="#E94260" stroke-miterlimit="10" stroke-linecap="round" stroke-linejoin="round"/>
<path d="M38.1105 36.2791L31.7659 39.9333" stroke="#E94260" stroke-miterlimit="10" stroke-linecap="round" stroke-linejoin="round"/>
<path d="M47.3196 39.9735L41.0285 36.3461" stroke="#E94260" stroke-miterlimit="10" stroke-linecap="round" stroke-linejoin="round"/>
<path d="M48.6983 49.4101V42.5435" stroke="#E94260" stroke-miterlimit="10" stroke-linecap="round" stroke-linejoin="round"/>
<path d="M40.8947 55.8751L47.4668 52.0871" stroke="#E94260" stroke-miterlimit="10" stroke-linecap="round" stroke-linejoin="round"/>
<path d="M31.8596 52.2611L37.9633 55.7815" stroke="#E94260" stroke-miterlimit="10" stroke-linecap="round" stroke-linejoin="round"/>
<path d="M39.5829 37.2295C40.4774 37.2295 41.2025 36.5044 41.2025 35.6099C41.2025 34.7154 40.4774 33.9903 39.5829 33.9903C38.6884 33.9903 37.9633 34.7154 37.9633 35.6099C37.9633 36.5044 38.6884 37.2295 39.5829 37.2295Z" stroke="#E94260" stroke-miterlimit="10" stroke-linecap="round" stroke-linejoin="round"/>
<path d="M50.2709 41.2208C50.4765 40.3503 49.9374 39.478 49.0669 39.2724C48.1964 39.0669 47.324 39.6059 47.1185 40.4765C46.9129 41.347 47.452 42.2193 48.3225 42.4249C49.193 42.6304 50.0654 42.0914 50.2709 41.2208Z" stroke="#E94260" stroke-miterlimit="10" stroke-linecap="round" stroke-linejoin="round"/>
<path d="M48.6983 52.6493C49.5928 52.6493 50.3179 51.9242 50.3179 51.0297C50.3179 50.1352 49.5928 49.4101 48.6983 49.4101C47.8038 49.4101 47.0787 50.1352 47.0787 51.0297C47.0787 51.9242 47.8038 52.6493 48.6983 52.6493Z" stroke="#E94260" stroke-miterlimit="10" stroke-linecap="round" stroke-linejoin="round"/>
<path d="M40.8535 57.0743C41.0591 56.2038 40.52 55.3315 39.6495 55.1259C38.779 54.9204 37.9066 55.4594 37.7011 56.3299C37.4955 57.2005 38.0346 58.0728 38.9051 58.2783C39.7756 58.4839 40.648 57.9448 40.8535 57.0743Z" stroke="#E94260" stroke-miterlimit="10" stroke-linecap="round" stroke-linejoin="round"/>
<path d="M40.8535 57.0743C41.0591 56.2038 40.52 55.3315 39.6495 55.1259C38.779 54.9204 37.9066 55.4594 37.7011 56.3299C37.4955 57.2005 38.0346 58.0728 38.9051 58.2783C39.7756 58.4839 40.648 57.9448 40.8535 57.0743Z" stroke="#E94260" stroke-miterlimit="10" stroke-linecap="round" stroke-linejoin="round"/>
<path d="M31.94 51.5115C31.94 51.8194 31.8596 52.1005 31.699 52.3548C31.4179 52.8233 30.8959 53.1312 30.3203 53.1312C29.4235 53.1312 28.7007 52.4084 28.7007 51.5115C28.7007 50.6147 29.4235 49.8919 30.3203 49.8919C31.2172 49.8919 31.94 50.6281 31.94 51.5115Z" stroke="#E94260" stroke-miterlimit="10" stroke-linecap="round" stroke-linejoin="round"/>
<path d="M30.3203 42.2891C31.2148 42.2891 31.94 41.564 31.94 40.6695C31.94 39.775 31.2148 39.0499 30.3203 39.0499C29.4259 39.0499 28.7007 39.775 28.7007 40.6695C28.7007 41.564 29.4259 42.2891 30.3203 42.2891Z" stroke="#E94260" stroke-miterlimit="10" stroke-linecap="round" stroke-linejoin="round"/>
</svg>
