<svg width="80" height="80" viewBox="0 0 80 80" fill="none" xmlns="http://www.w3.org/2000/svg">
<rect x="0.5" y="0.5" width="78.4142" height="79" rx="23.5" fill="white"/>
<rect x="0.5" y="0.5" width="78.4142" height="79" rx="23.5" stroke="#E94260"/>
<path d="M58.2463 32.7702C59.1405 33.1416 60.0485 33.4718 60.9153 33.8708C61.2867 34.0359 61.3693 33.8845 61.4243 33.5681C61.6307 32.1373 61.4105 30.7891 60.6814 29.5372C60.5576 29.3308 60.4475 29.2345 60.1861 29.2758C58.0812 29.5372 56.334 28.8355 54.9583 27.2121C54.7381 26.9507 54.5455 26.9507 54.2704 27.047C52.0692 27.8175 50.7209 29.3308 50.2394 31.6558C49.9918 32.8527 49.7029 34.0221 49.4002 35.2053C49.3039 35.5905 49.3314 35.8106 49.7579 35.9619C50.5971 36.2508 51.4088 36.6223 52.248 36.9525" stroke="#222222" stroke-miterlimit="10" stroke-linecap="round" stroke-linejoin="round"/>
<path d="M52.0416 46.5002C52.5782 46.7341 53.1422 46.9267 53.6788 47.1743C53.9402 47.2844 54.0502 47.2156 54.1878 46.9817C56.9531 42.4004 59.8009 37.6816 61.3417 33.912" stroke="#222222" stroke-miterlimit="10" stroke-linecap="round" stroke-linejoin="round"/>
<path d="M46.9238 56.8183C47.1852 56.9422 48.107 57.7126 48.4096 57.121C50.0605 54.1631 52.5507 49.8158 54.2566 46.8304" stroke="#222222" stroke-miterlimit="10" stroke-linecap="round" stroke-linejoin="round"/>
<path d="M46.0709 49.7469C45.4656 52.4159 44.365 56.9146 43.7459 59.5836C43.6221 60.1201 43.4845 60.6429 43.3882 61.1795C43.2782 61.7848 43.5671 62.3351 44.0898 62.5552C44.6264 62.7753 45.2592 62.5827 45.5756 62.0462C46.2085 60.9731 47.6943 58.3592 48.3134 57.2861" stroke="#222222" stroke-miterlimit="10" stroke-linecap="round" stroke-linejoin="round"/>
<path d="M49.3726 35.4804C48.7673 38.1769 47.708 42.6068 47.0751 45.2895C46.7312 46.7616 46.4148 48.2336 46.0433 49.6919C45.9608 50.0221 46.0571 50.1322 46.346 50.2422C46.8 50.4073 47.2402 50.5999 47.6804 50.7788" stroke="#222222" stroke-miterlimit="10" stroke-linecap="round" stroke-linejoin="round"/>
<path d="M53.9401 42.1253C53.1284 41.7814 52.3029 41.4374 51.4775 41.1348" stroke="#222222" stroke-miterlimit="10" stroke-linecap="round" stroke-linejoin="round"/>
<path d="M56.4852 20.8287L56.5403 25.6713" stroke="#222222" stroke-miterlimit="10" stroke-linecap="round" stroke-linejoin="round"/>
<path d="M60.7088 20.4297L57.7922 27.6661" stroke="#222222" stroke-miterlimit="10" stroke-linecap="round" stroke-linejoin="round"/>
<path d="M63.2679 23.6489L60.0761 27.1021" stroke="#222222" stroke-miterlimit="10" stroke-linecap="round" stroke-linejoin="round"/>
<path d="M37.5824 44.6295C40.499 46.583 42.3975 49.7197 42.3975 53.2692C42.3975 59.1987 37.1009 64.0001 30.5523 64.0001C24.0037 64.0001 18.7071 59.1987 18.7071 53.2692C18.7071 49.7335 20.358 46.7619 23.2746 44.8083" stroke="#E94260" stroke-miterlimit="10" stroke-linecap="round" stroke-linejoin="round"/>
<path d="M29.6031 44.148C29.6031 44.148 27.7458 40.0345 27.4294 39.5942C27.0992 39.154 26.5627 37.0903 28.5163 37.6819C29.4243 38.5762 30.5249 39.7593 31.2403 41.9605C32.4372 42.0843 33.2488 41.6441 35.0511 42.0706C36.8396 42.5108 36.8396 42.5108 36.8396 42.5108C36.8396 42.5108 38.463 42.7172 39.3985 41.9605C40.3477 41.2038 37.9677 46.4867 33.2488 45.2486C34.6246 46.8169 35.0648 48.0551 35.1336 49.0181C34.377 48.5366 33.469 48.0276 32.7123 48.1652C31.8456 48.1652 30.4698 47.5598 30.5524 46.5693C29.9333 47.7799 28.874 48.5779 28.1173 48.6329C27.3606 48.6879 26.205 49.4308 25.9849 50.105C25.9849 48.7567 26.8378 46.7619 27.966 45.6338C27.966 45.6338 23.4397 47.4222 21.7476 42.1944C22.1053 42.5521 22.8344 43.4326 24.6091 42.5521C26.2738 41.878 27.3194 42.0018 28.475 41.9467" stroke="#E94260" stroke-miterlimit="10" stroke-linecap="round" stroke-linejoin="round"/>
<path d="M30.4698 61.7576C25.4346 61.7576 21.3348 58.3044 21.3348 54.0396" stroke="#E94260" stroke-miterlimit="10" stroke-linecap="round" stroke-linejoin="round"/>
<path d="M36.6193 16C36.6193 16 36.6744 20.7326 31.0063 24.9561C27.1129 27.859 28.1585 33.6371 30.2083 35.1917C32.4508 36.5262 33.4276 37.4205 38.9031 36.994C44.3786 36.5675 50.5832 33.0731 47.6666 26.7446C46.0983 24.0069 43.2367 22.7549 43.2367 22.7549C43.2367 22.7549 37.9538 20.595 36.6193 16Z" stroke="#222222" stroke-miterlimit="10" stroke-linejoin="round"/>
<path d="M35.5465 25.6028C35.5465 25.6028 34.4046 34.9579 38.5181 36.6638C42.6729 38.3972 41.3521 28.1892 40.5955 26.442C39.8388 24.7085 38.0091 21.7919 37.844 18.4901" stroke="#222222" stroke-miterlimit="10" stroke-linecap="round" stroke-linejoin="round"/>
<path d="M32.3133 33.1281C32.3133 33.1281 30.7037 28.1754 33.125 25.19C34.8997 22.3284 35.2437 21.4204 35.34 20.141" stroke="#222222" stroke-miterlimit="10" stroke-linecap="round" stroke-linejoin="round"/>
<path d="M38.9034 37.2691L37.2662 39.7455" stroke="#222222" stroke-miterlimit="10" stroke-linecap="round" stroke-linejoin="round"/>
<path d="M39.9352 37.1178L42.3978 39.0439" stroke="#222222" stroke-miterlimit="10" stroke-linecap="round" stroke-linejoin="round"/>
<path d="M39.7012 39.718L39.3573 37.2004" stroke="#222222" stroke-miterlimit="10" stroke-linecap="round" stroke-linejoin="round"/>
<path d="M42.1638 36.1686C42.1638 36.1686 45.5481 32.8255 44.8465 28.5056" stroke="#222222" stroke-miterlimit="10" stroke-linecap="round" stroke-linejoin="round"/>
<path d="M39.5223 20.3474C39.5223 20.3474 40.0863 22.0121 41.0906 22.8375C42.0949 23.6492 43.6083 25.1075 44.131 26.2769" stroke="#222222" stroke-miterlimit="10" stroke-linecap="round" stroke-linejoin="round"/>
<path d="M33.5241 35.3018C33.5241 35.3018 34.157 36.5538 36.028 37.0078" stroke="#222222" stroke-miterlimit="10" stroke-linecap="round" stroke-linejoin="round"/>
</svg>
