<svg width="80" height="80" viewBox="0 0 80 80" fill="none" xmlns="http://www.w3.org/2000/svg">
<rect x="0.5" y="0.5" width="78.4142" height="79" rx="23.5" fill="white"/>
<rect x="0.5" y="0.5" width="78.4142" height="79" rx="23.5" stroke="#E94260"/>
<path d="M24.7501 31.0607L26.5172 32.4262L29.4222 29.8291" stroke="#222222" stroke-miterlimit="10" stroke-linecap="round" stroke-linejoin="round"/>
<path d="M47.776 31.1275H33.2509" stroke="#222222" stroke-miterlimit="10" stroke-linecap="round" stroke-linejoin="round"/>
<path d="M24.7501 37.8882L26.5172 39.267L29.4222 36.6699" stroke="#222222" stroke-miterlimit="10" stroke-linecap="round" stroke-linejoin="round"/>
<path d="M47.776 37.9684H33.2509" stroke="#222222" stroke-miterlimit="10" stroke-linecap="round" stroke-linejoin="round"/>
<path d="M24.7501 44.7287L26.5172 46.0942L29.4222 43.4971" stroke="#222222" stroke-miterlimit="10" stroke-linecap="round" stroke-linejoin="round"/>
<path d="M42.1133 44.7956H33.2509" stroke="#222222" stroke-miterlimit="10" stroke-linecap="round" stroke-linejoin="round"/>
<path d="M38.6192 62.3197H22.5278C21.5237 62.3197 20.7071 61.4763 20.7071 60.4187V24.5143C20.7071 23.4701 21.5237 22.6133 22.5278 22.6133H27.2936" stroke="#222222" stroke-miterlimit="10" stroke-linecap="round" stroke-linejoin="round"/>
<path d="M43.7867 22.6265H49.4093C50.4133 22.6265 51.2299 23.4431 51.2299 24.4471V40.3779" stroke="#222222" stroke-miterlimit="10" stroke-linecap="round" stroke-linejoin="round"/>
<path d="M39.6097 19.9091C39.6097 17.7537 37.856 16 35.7007 16C33.5453 16 31.7916 17.7537 31.7916 19.9091H28.1905C27.7353 19.9091 27.3738 20.2839 27.3738 20.7257V24.1662C27.3738 24.6214 27.7487 24.9828 28.1905 24.9828H42.7691C43.2243 24.9828 43.5857 24.6214 43.5857 24.1662L43.6125 20.7658C43.6125 20.3107 43.251 19.9492 42.7959 19.9358L39.6097 19.9091Z" stroke="#222222" stroke-miterlimit="10" stroke-linecap="round" stroke-linejoin="round"/>
<path d="M35.5134 21.4619C36.1862 21.4619 36.7316 20.9165 36.7316 20.2436C36.7316 19.5708 36.1862 19.0254 35.5134 19.0254C34.8405 19.0254 34.2951 19.5708 34.2951 20.2436C34.2951 20.9165 34.8405 21.4619 35.5134 21.4619Z" stroke="#222222" stroke-miterlimit="10" stroke-linecap="round" stroke-linejoin="round"/>
<path d="M46.1964 43.1626C46.9059 43.5776 47.3209 44.0729 47.8697 44.7691C48.5257 45.6125 49.4628 47.7678 49.6636 48.9057" stroke="#E94260" stroke-miterlimit="10" stroke-linecap="round" stroke-linejoin="round"/>
<path d="M50.6676 48.531C50.7211 48.5042 50.7747 48.4774 50.8282 48.4641C51.5913 48.2097 52.3677 48.1026 53.171 48.0223C54.0278 47.942 54.8578 48.0357 55.6744 48.2766C56.8926 48.6381 57.7896 49.4413 58.4054 50.5391C58.9275 51.4762 59.1818 52.4802 59.3157 53.5378C59.396 54.167 59.396 54.7962 59.3559 55.4254C59.2755 56.5767 58.981 57.7012 58.4991 58.7588C58.0975 59.6424 57.6021 60.4858 57.0265 61.2622C56.0894 62.5072 54.9515 63.4845 53.3986 63.8459C52.6489 64.02 51.8992 64.0334 51.1361 63.8995C50.6542 63.8192 50.1856 63.6451 49.6903 63.6585C49.2485 63.6719 48.8335 63.8192 48.4052 63.8995C47.0263 64.1672 45.7679 63.8995 44.6299 63.1096C43.6125 62.4001 42.8628 61.4496 42.2336 60.392C41.4706 59.1336 40.9485 57.7816 40.6807 56.3223C40.5335 55.4923 40.5201 54.6623 40.5736 53.8323C40.654 52.7613 40.8815 51.7038 41.3635 50.7399C42.0194 49.4012 43.0235 48.464 44.5229 48.1428C45.634 47.9018 46.7317 47.9955 47.8161 48.2231C48.0705 48.2766 48.3114 48.3436 48.5658 48.4239C48.6193 48.4373 48.6863 48.4641 48.7398 48.5042L49.7439 49.0799L50.6676 48.531Z" stroke="#E94260" stroke-miterlimit="10" stroke-linecap="round" stroke-linejoin="round"/>
<path d="M55.6745 51.168C55.6745 51.168 57.5219 54.0998 56.2903 57.7545" stroke="#E94260" stroke-miterlimit="10" stroke-linecap="round" stroke-linejoin="round"/>
<path d="M49.5832 46.6168C50.2794 46.5766 51.4708 46.4427 52.1402 46.2285C53.0505 45.934 53.7868 45.3718 54.3892 44.6355C54.7641 44.1803 55.0586 43.685 55.3263 43.1629C55.3933 43.0424 55.4067 42.9754 55.246 42.9754C54.4696 42.9754 53.6797 42.9487 52.9033 43.1361C51.8323 43.4172 50.9621 43.9929 50.266 44.8496C49.9447 45.2379 49.6636 45.7734 49.3958 46.2152" stroke="#E94260" stroke-miterlimit="10" stroke-linecap="round" stroke-linejoin="round"/>
<path d="M28.0701 54.6756L29.7301 56.2687L32.6619 53.6448" stroke="#E94260" stroke-miterlimit="10" stroke-linecap="round" stroke-linejoin="round"/>
<path d="M34.9409 55.6872C35.3495 53.1694 33.6397 50.797 31.1218 50.3883C28.6039 49.9797 26.2315 51.6896 25.8229 54.2074C25.4143 56.7253 27.1241 59.0977 29.642 59.5063C32.1599 59.915 34.5323 58.2051 34.9409 55.6872Z" stroke="#E94260" stroke-miterlimit="10" stroke-linecap="round" stroke-linejoin="round"/>
</svg>
