<svg width="80" height="80" viewBox="0 0 80 80" fill="none" xmlns="http://www.w3.org/2000/svg">
<rect x="0.5" y="0.5" width="78.4142" height="79" rx="23.5" fill="white"/>
<rect x="0.5" y="0.5" width="78.4142" height="79" rx="23.5" stroke="#E94260"/>
<path fill-rule="evenodd" clip-rule="evenodd" d="M45.7501 24.0315C47.0075 24.0315 48.0216 23.0174 48.0216 21.76V18.2715C48.0081 17.0276 47.0075 16.0135 45.7501 16H23.6837C22.4262 16 21.3986 17.0141 21.3851 18.2715V21.7329C21.3851 22.9904 22.3992 24.0045 23.6566 24.0045L45.7501 24.0315Z" stroke="#222222" stroke-miterlimit="10" stroke-linecap="round" stroke-linejoin="round"/>
<path d="M49.2116 39.7699V34.1993C49.2521 30.6838 50.1175 25.8838 46.1964 24.0449" stroke="#222222" stroke-miterlimit="10" stroke-linecap="round" stroke-linejoin="round"/>
<path d="M23.0481 24.0317C19.1541 26.2492 19.6138 31.0762 19.8707 34.9703V60.1195C19.8572 61.0525 20.2087 61.9449 20.8307 62.6345C21.4526 63.2429 22.3585 63.5539 23.6025 63.5133H32.1208H43.3704" stroke="#222222" stroke-miterlimit="10" stroke-linecap="round" stroke-linejoin="round"/>
<path d="M48.8869 33.9292H19.8436" stroke="#222222" stroke-miterlimit="10" stroke-linecap="round" stroke-linejoin="round"/>
<path d="M46.2097 55.8604H19.8436" stroke="#222222" stroke-miterlimit="10" stroke-linecap="round" stroke-linejoin="round"/>
<path fill-rule="evenodd" clip-rule="evenodd" d="M44.6683 47.7342C43.5596 46.5038 43.6543 44.5973 44.8847 43.475C46.1151 42.3663 48.0216 42.461 49.1438 43.6914C51.4289 46.2333 53.6869 48.7618 55.9855 51.3038C57.0942 52.5342 56.9996 54.4271 55.7692 55.5359C54.5387 56.6446 52.6458 56.5364 51.5371 55.3195C49.2385 52.7775 46.9669 50.2761 44.6683 47.7342Z" stroke="#E94260" stroke-miterlimit="10" stroke-linecap="round" stroke-linejoin="round"/>
<path d="M52.6457 47.7746L48.3595 51.6416" stroke="#E94260" stroke-miterlimit="10" stroke-linecap="round" stroke-linejoin="round"/>
<path fill-rule="evenodd" clip-rule="evenodd" d="M46.9264 64C45.2633 64.0135 43.9112 62.6749 43.8842 61.0118C43.8707 59.3487 45.2093 57.9966 46.8724 57.9696C50.2932 57.9425 53.687 57.929 57.1078 57.902C58.7574 57.8884 60.1095 59.2135 60.123 60.8766C60.1366 62.5262 58.8115 63.8783 57.1484 63.8918C53.7411 63.9324 50.3608 63.9729 46.9264 64Z" stroke="#E94260" stroke-miterlimit="10" stroke-linecap="round" stroke-linejoin="round"/>
<path d="M52.254 58.0641L52.2945 63.8376" stroke="#E94260" stroke-miterlimit="10" stroke-linecap="round" stroke-linejoin="round"/>
<path d="M26.8611 16.6763V24.0182" stroke="#222222" stroke-miterlimit="10" stroke-linecap="round" stroke-linejoin="round"/>
<path d="M34.7033 16.6763V24.0182" stroke="#222222" stroke-miterlimit="10" stroke-linecap="round" stroke-linejoin="round"/>
<path d="M42.1939 16.0137V24.0182" stroke="#222222" stroke-miterlimit="10" stroke-linecap="round" stroke-linejoin="round"/>
</svg>
