<svg width="80" height="80" viewBox="0 0 80 80" fill="none" xmlns="http://www.w3.org/2000/svg">
<rect x="0.5" y="0.5" width="78.4142" height="79" rx="23.5" fill="white"/>
<rect x="0.5" y="0.5" width="78.4142" height="79" rx="23.5" stroke="#E94260"/>
<path d="M53.7827 56.0367H27.2151C25.6225 56.0367 24.3318 54.7461 24.3318 53.1534V26.5859C24.3318 24.9933 25.6225 23.7026 27.2151 23.7026H53.7827C55.3753 23.7026 56.6659 24.9933 56.6659 26.5859V53.1534C56.6659 54.7461 55.3753 56.0367 53.7827 56.0367Z" stroke="#222222" stroke-miterlimit="10" stroke-linecap="round" stroke-linejoin="round"/>
<path d="M40.8627 33.6566C40.8627 33.6566 43.389 29.9495 47.6865 31.6521C48.7437 32.064 49.6362 32.7916 50.2815 33.7253C51.1602 35.0159 51.6133 36.6223 51.1053 38.4347C50.8581 39.2859 50.405 40.0685 49.8146 40.7413C47.0823 43.8168 40.8765 50.1463 40.8765 50.1463L31.9245 41.1669C30.6613 39.9038 29.9748 38.1601 30.1121 36.3752C30.2082 35.1944 30.6338 33.8763 31.7597 32.723C34.5469 29.7299 39.6133 31.3912 40.8627 33.6566Z" stroke="#E94260" stroke-miterlimit="10" stroke-linecap="round" stroke-linejoin="round"/>
<path d="M24.222 43.9681H22.2998C21.4211 43.9681 20.7071 43.2542 20.7071 42.3754V37.1718C20.7071 36.2931 21.4211 35.5791 22.2998 35.5791H24.1122" stroke="#222222" stroke-miterlimit="10" stroke-linecap="round" stroke-linejoin="round"/>
<path d="M56.666 35.5654H58.5882C59.4669 35.5654 60.1808 36.2794 60.1808 37.1581V42.3618C60.1808 43.2405 59.4669 43.9544 58.5882 43.9544H56.7758" stroke="#222222" stroke-miterlimit="10" stroke-linecap="round" stroke-linejoin="round"/>
<path d="M27.4898 23.7025L30.6202 17.3867C31.0458 16.5355 31.9108 16 32.8582 16H48.1534C49.0733 16 49.9109 16.4943 50.3502 17.3043L53.8514 23.6888" stroke="#222222" stroke-miterlimit="10" stroke-linecap="round" stroke-linejoin="round"/>
<path d="M53.8374 56.2974L50.707 62.6132C50.2813 63.4644 49.4164 63.9999 48.469 63.9999H33.1738C32.2539 63.9999 31.4164 63.5056 30.977 62.6955L27.4759 56.3111" stroke="#222222" stroke-miterlimit="10" stroke-linecap="round" stroke-linejoin="round"/>
<path d="M54.1396 42.1694H45.9154H45.6134L45.4074 42.3891L44.4737 43.3502L42.5378 39.6431L41.8925 38.4074L41.2747 39.6568L39.5172 43.2129L37.2793 36.6362L35.7964 42.0321H27.4898" stroke="#E94260" stroke-miterlimit="10" stroke-linecap="round" stroke-linejoin="round"/>
</svg>
