<svg width="80" height="80" viewBox="0 0 80 80" fill="none" xmlns="http://www.w3.org/2000/svg">
<rect x="0.5" y="0.5" width="78.4142" height="79" rx="23.5" fill="white"/>
<rect x="0.5" y="0.5" width="78.4142" height="79" rx="23.5" stroke="#E94260"/>
<path d="M39.707 64C52.9619 64 63.7071 53.2548 63.7071 40C63.7071 26.7452 52.9619 16 39.707 16C26.4522 16 15.7071 26.7452 15.7071 40C15.7071 53.2548 26.4522 64 39.707 64Z" stroke="#222222" stroke-miterlimit="10"/>
<path d="M39.7069 60.197C50.8541 60.197 59.8906 51.1605 59.8906 40.0133C59.8906 28.8662 50.8541 19.8297 39.7069 19.8297C28.5598 19.8297 19.5233 28.8662 19.5233 40.0133C19.5233 51.1605 28.5598 60.197 39.7069 60.197Z" stroke="#222222" stroke-miterlimit="10"/>
<path d="M50.3633 22.8666L39.7071 40.0133L45.0285 59.4848" stroke="#222222" stroke-miterlimit="10"/>
<path d="M19.5104 40.0135H39.7747" stroke="#222222" stroke-miterlimit="10"/>
<path d="M31.5234 28.8061C30.8918 28.8061 30.529 29.1555 30.529 29.8946V32.5419C30.529 33.2809 30.8918 33.6303 31.5368 33.6303C32.3968 33.6303 32.4775 33.0122 32.5044 32.6225C32.5178 32.3269 32.7866 32.2328 33.1091 32.2328C33.5391 32.2328 33.7406 32.3537 33.7406 32.8375C33.7406 33.9797 32.8 34.7188 31.4831 34.7188C30.2871 34.7188 29.3061 34.1275 29.3061 32.5553V29.908C29.3061 28.3224 30.3006 27.7445 31.4965 27.7445C32.8134 27.7445 33.7541 28.4433 33.7541 29.5452C33.7541 30.0424 33.5525 30.1499 33.1359 30.1499C32.7865 30.1499 32.5312 30.0424 32.5178 29.7602C32.4909 29.4511 32.4237 28.8061 31.5234 28.8061Z" fill="#E94260"/>
<path d="M38.0272 31.9374V34.2621C38.0272 34.4771 37.7719 34.6518 37.436 34.6518C37.1269 34.6518 36.885 34.4771 36.885 34.2621V33.9934C36.5491 34.3831 36.0922 34.7459 35.4472 34.7459C34.7753 34.7459 34.2109 34.3428 34.2109 33.4828C34.2109 32.3943 35.1112 32.0852 36.4147 32.0852H36.8045V31.9643C36.8045 31.5611 36.5894 31.0908 35.9713 31.0908C35.2456 31.0908 35.1247 31.3865 34.8963 31.3865C34.6275 31.3865 34.4797 31.0505 34.4797 30.7817C34.4797 30.3921 35.3263 30.0964 35.9982 30.0964C37.4763 30.0964 38.0272 30.9833 38.0272 31.9374ZM36.8178 32.7168H36.6701C36.0385 32.7168 35.4338 32.784 35.4338 33.3081C35.4338 33.6574 35.6488 33.8187 35.931 33.8187C36.3207 33.8187 36.8045 33.3752 36.8045 32.9049V32.7168H36.8178Z" fill="#E94260"/>
<path d="M48.4284 43.8164H51.1562C51.3981 43.8164 51.5459 44.0985 51.5459 44.3539C51.5459 44.6092 51.3981 44.8914 51.1562 44.8914H47.219C46.9636 44.8914 46.8561 44.7436 46.8561 44.5554C46.8561 44.4345 46.9099 44.2732 46.9905 44.1254L49.799 39.0459H47.4071C47.1652 39.0459 47.0308 38.7906 47.0308 38.5084C47.0308 38.2396 47.1383 37.9709 47.4071 37.9709H51.0084C51.2503 37.9709 51.3712 38.1187 51.3712 38.3068C51.3712 38.4412 51.3175 38.589 51.2234 38.7503L48.4284 43.8164Z" fill="#E94260"/>
<path d="M53.3595 44.5151C53.3595 44.7032 53.0773 44.9048 52.7414 44.9048C52.3786 44.9048 52.1367 44.7032 52.1367 44.5151V40.7794C52.1367 40.5509 52.3786 40.4031 52.7414 40.4031C53.037 40.4031 53.2789 40.5509 53.2789 40.7794V41.0616C53.4536 40.6988 53.9105 40.3359 54.5421 40.3359C55.4156 40.3359 56.168 41.2094 56.168 42.2575V44.5017C56.168 44.757 55.859 44.8914 55.5499 44.8914C55.2677 44.8914 54.9452 44.757 54.9452 44.5017V42.2575C54.9452 41.8275 54.5824 41.411 54.1255 41.411C53.7358 41.411 53.3461 41.7335 53.3461 42.2575V44.5151H53.3595Z" fill="#E94260"/>
<path d="M29.9111 49.4466C29.8036 49.6347 29.6423 49.6885 29.4945 49.6885C29.3467 49.6885 29.1854 49.6347 29.0914 49.4466L28.003 47.4041V51.5564C28.003 51.8117 27.6939 51.9461 27.3848 51.9461C27.0757 51.9461 26.7667 51.8117 26.7667 51.5564V45.6303C26.7667 45.1734 27.0757 45.0121 27.3848 45.0121C27.8283 45.0121 28.0298 45.1062 28.3389 45.6706L29.508 47.7938L30.6771 45.6706C30.9862 45.1062 31.2011 45.0121 31.6446 45.0121C31.9536 45.0121 32.2627 45.1734 32.2627 45.6303V51.5564C32.2627 51.8117 31.9536 51.9461 31.6446 51.9461C31.3355 51.9461 31.0265 51.8117 31.0265 51.5564V47.4847L29.9111 49.4466Z" fill="#E94260"/>
<path d="M34.3316 50.6424C34.2645 50.6961 34.2242 50.7499 34.2242 50.8305C34.2242 51.4487 37.073 50.7768 37.073 52.5506C37.073 53.5987 36.0651 54.0422 35.0035 54.0422C33.8882 54.0422 32.9073 53.5584 32.9073 52.7118C32.9073 52.2281 33.2163 51.9055 33.5926 51.704C33.3507 51.5965 33.1894 51.4083 33.1894 51.0993C33.1894 50.7499 33.391 50.5483 33.6732 50.3602C33.3104 50.078 33.082 49.648 33.082 49.1508V48.9492C33.082 48.0354 33.8211 47.3904 34.923 47.3904C35.3395 47.3904 35.7158 47.4979 35.998 47.6592C36.213 47.162 36.4011 47.0142 36.5758 47.0142C36.8849 47.0142 37.0596 47.2426 37.0596 47.3904C37.0596 47.4979 36.9924 47.592 36.9117 47.6592C36.7908 47.7398 36.6027 47.8339 36.4683 48.022C36.6833 48.2773 36.8043 48.5998 36.8043 48.9492V49.1508C36.8043 50.0646 36.0249 50.7365 34.923 50.7365C34.7214 50.7365 34.5063 50.7096 34.3316 50.6424ZM34.5736 51.919C34.2645 52.0668 34.0629 52.2818 34.0629 52.5774C34.0629 53.0074 34.4795 53.2493 34.9767 53.2493C35.4739 53.2493 35.877 52.994 35.877 52.5909C35.8904 52.0534 35.1783 51.9862 34.5736 51.919ZM35.6351 48.9492C35.6351 48.4923 35.3933 48.1295 34.9498 48.1295C34.5198 48.1295 34.2779 48.5058 34.2779 48.9492V49.1373C34.2779 49.6211 34.5198 49.9839 34.9633 49.9839C35.3798 49.9839 35.6351 49.6345 35.6351 49.1373V48.9492Z" fill="#E94260"/>
</svg>
