<svg width="80" height="80" viewBox="0 0 80 80" fill="none" xmlns="http://www.w3.org/2000/svg">
<rect x="0.5" y="0.5" width="78.4142" height="79" rx="23.5" fill="white"/>
<rect x="0.5" y="0.5" width="78.4142" height="79" rx="23.5" stroke="#E94260"/>
<path d="M42.1133 46.373C42.1133 46.373 44.8359 49.0763 49.3541 48.7094C50.7251 48.5936 52.3277 47.9564 53.1387 47.5895C53.6021 47.3771 54.0848 47.2419 54.5868 47.1647C56.1701 46.933 59.3947 46.7785 60.785 48.806" stroke="#E94260" stroke-miterlimit="10" stroke-linecap="round" stroke-linejoin="round"/>
<path d="M42.9939 58.229C43.9201 57.8454 44.3598 56.7836 43.9762 55.8575C43.5926 54.9314 42.5308 54.4916 41.6047 54.8752C40.6786 55.2588 40.2388 56.3206 40.6224 57.2467C41.006 58.1729 42.0678 58.6127 42.9939 58.229Z" stroke="#E94260" stroke-miterlimit="10" stroke-linecap="round" stroke-linejoin="round"/>
<path d="M55.1081 51.9146C55.1081 52.5518 54.6061 53.0538 53.9689 53.0538C53.3317 53.0538 52.8297 52.5518 52.8297 51.9146C52.8297 51.2774 53.3317 50.7754 53.9689 50.7754C54.6061 50.7754 55.1081 51.2774 55.1081 51.9146Z" stroke="#E94260" stroke-miterlimit="10" stroke-linecap="round" stroke-linejoin="round"/>
<path d="M50.6091 56.5484C50.6091 57.1856 50.107 57.6876 49.4698 57.6876C48.8326 57.6876 48.3306 57.1856 48.3306 56.5484C48.3306 55.9112 48.8326 55.4092 49.4698 55.4092C50.0877 55.4092 50.6091 55.9305 50.6091 56.5484Z" stroke="#E94260" stroke-miterlimit="10" stroke-linecap="round" stroke-linejoin="round"/>
<path d="M30.1034 16C30.1034 16 28.4042 27.3922 36.4174 29.5548C38.6186 29.6513 40.1054 28.2804 41.399 25.8089C42.9244 22.8933 45.9173 20.9817 49.2191 21.0203C53.1002 21.0782 57.5605 23.1443 60.4182 28.7824C65.3999 38.6299 61.6926 59.8696 45.4539 63.461C41.6308 64.3106 35.6836 64.7354 29.9489 60.1399C26.0099 57.5718 24.3494 60.8543 24.079 62.0515" stroke="#222222" stroke-miterlimit="10" stroke-linecap="round" stroke-linejoin="round"/>
<path d="M17.7071 59.3674C17.7071 59.3674 18.0933 50.1571 29.3503 51.8177C33.3086 52.7059 38.6958 55.525 41.7659 48.6124C43.0403 44.268 40.9935 38.7649 34.2161 36.9692C29.1379 35.328 22.4377 26.7356 24.7548 16.1157" stroke="#222222" stroke-miterlimit="10" stroke-linecap="round" stroke-linejoin="round"/>
<path d="M54.5483 27.894C54.5483 27.894 58.6031 31.2924 57.8694 40.4641" stroke="#222222" stroke-miterlimit="10" stroke-linecap="round" stroke-linejoin="round"/>
</svg>
