<svg width="80" height="80" viewBox="0 0 80 80" fill="none" xmlns="http://www.w3.org/2000/svg">
<rect x="0.5" y="0.5" width="78.4142" height="79" rx="23.5" fill="white"/>
<rect x="0.5" y="0.5" width="78.4142" height="79" rx="23.5" stroke="#E94260"/>
<g clip-path="url(#clip0_2003_3045)">
<mask id="path-2-inside-1_2003_3045" fill="white">
<path d="M58.9719 38.0251C58.9719 37.0258 58.6289 36.0683 58.0024 35.2981C57.9284 30.1778 55.7033 25.3037 51.8687 21.8904C51.5789 21.6323 51.1343 21.6581 50.8762 21.9481C50.6179 22.2381 50.6438 22.6825 50.9339 22.9406C54.3525 25.984 56.3871 30.2846 56.584 34.8331C56.0498 34.7955 55.518 34.7158 54.9942 34.595C53.8292 30.8985 51.8507 28.4992 48.955 27.2671C46.3327 26.1513 43.2154 26.0605 39.7071 26.0605C36.1883 26.0605 33.0629 26.1513 30.4491 27.2674C27.5249 28.516 25.6051 30.8537 24.4297 34.6081C23.9436 34.7309 23.4198 34.8066 22.8297 34.8395C22.9543 31.9018 23.8379 29.0571 25.4043 26.5709C25.5711 26.3061 25.5429 25.963 25.335 25.7291C24.2953 24.6032 24.0386 22.8051 24.9119 22.1477C25.5607 21.6328 26.7047 21.8368 27.6323 22.6326C27.9011 22.8632 28.2992 22.8579 28.5619 22.6204C28.8245 22.3829 28.8694 21.987 28.6667 21.6967C27.654 20.2456 27.6013 18.5211 28.5465 17.7708C29.007 17.4054 29.6573 17.3121 30.3774 17.508C31.3305 17.7546 32.3006 18.5461 32.8694 19.4776C33.0469 19.7629 33.4016 19.8828 33.7157 19.7634C35.6294 19.0371 37.6453 18.669 39.7071 18.669C42.7684 18.669 45.7675 19.497 48.3802 21.0634C48.7133 21.2629 49.145 21.155 49.3448 20.8219C49.5445 20.4888 49.4364 20.057 49.1033 19.8573C46.2721 18.1599 43.0229 17.2627 39.7071 17.2627C37.6602 17.2627 35.6546 17.5981 33.7372 18.2601C32.9582 17.2248 31.8725 16.4544 30.7469 16.1512C29.5842 15.8345 28.4923 16.0187 27.6723 16.6694C26.5859 17.5317 26.2268 19.0197 26.6108 20.553C25.6677 20.3337 24.7389 20.4898 24.0376 21.0464C22.6544 22.1442 22.6306 24.4421 23.9514 26.2519C22.3307 28.9895 21.4584 32.1009 21.4125 35.2969C20.7855 36.0673 20.4423 37.0252 20.4423 38.025C20.4423 40.0185 21.8006 41.7156 23.6603 42.2078C23.5299 42.7718 23.4618 43.3531 23.4618 43.9419C23.4618 48.1929 26.9203 51.6513 31.1714 51.6513C31.3927 51.6513 31.6137 51.6412 31.8337 51.6222C32.1684 51.8164 32.5095 51.998 32.8565 52.1663C29.797 54.0556 27.5984 57.1684 26.8905 60.7279C26.7305 61.5308 26.9376 62.3557 27.4589 62.9911C27.9848 63.6322 28.7615 63.9998 29.5902 63.9998H45.7621C46.1504 63.9998 46.4653 63.6851 46.4653 63.2967C46.4653 62.9084 46.1505 62.5936 45.7621 62.5936H29.5902C29.1843 62.5936 28.8038 62.4134 28.5461 62.0992C28.2929 61.7907 28.1923 61.3911 28.2696 61.0029C28.7939 58.3727 30.2245 56.0188 32.2552 54.3273C32.6151 55.7715 33.3883 57.0866 34.5003 58.1126C35.9221 59.4244 37.7713 60.1468 39.707 60.1468C41.6429 60.1468 43.4919 59.4243 44.9138 58.1126C46.0259 57.0866 46.799 55.7716 47.1589 54.3273C49.1896 56.0188 50.6201 58.3727 51.1445 61.0029C51.2219 61.391 51.1212 61.7907 50.868 62.0992C50.6103 62.4134 50.2298 62.5936 49.8239 62.5936H49.0432C48.6549 62.5936 48.3401 62.9083 48.3401 63.2967C48.3401 63.685 48.6548 63.9998 49.0432 63.9998H49.8239C50.6526 63.9998 51.4294 63.6321 51.9553 62.9911C52.4764 62.3557 52.6836 61.5308 52.5236 60.7279C51.8159 57.1684 49.6171 54.0555 46.5576 52.1663C46.9047 51.998 47.2457 51.8165 47.5804 51.6222C47.8003 51.6411 48.021 51.6513 48.2422 51.6513C52.4933 51.6513 55.9517 48.1929 55.9517 43.9419C55.9517 43.3533 55.8836 42.772 55.7532 42.208C57.6133 41.7162 58.9719 40.0188 58.9719 38.0251ZM21.8486 38.0251C21.8486 37.3831 22.058 36.7664 22.4429 36.2601C23.0516 36.2471 23.6051 36.1983 24.1213 36.1095C24.0429 36.7484 24.0028 37.3925 24.0028 38.0348C24.0028 38.9003 24.0749 39.7683 24.2159 40.6191C24.1765 40.7016 24.1388 40.7849 24.1023 40.8687C22.8054 40.5654 21.8486 39.3999 21.8486 38.0251ZM45.9086 53.4187C45.4443 56.4343 42.7977 58.7409 39.7071 58.7409C36.6166 58.7409 33.97 56.4343 33.5056 53.4188C33.8286 53.2155 34.1626 53.0273 34.507 52.8555C36.1686 53.4378 37.9265 53.7392 39.7071 53.7392C41.4878 53.7392 43.2457 53.4378 44.9073 52.8555C45.2516 53.0272 45.5856 53.2154 45.9086 53.4187ZM48.2423 50.2453C47.2102 50.2453 46.1868 49.9906 45.283 49.509C44.94 49.3263 44.5144 49.4564 44.3318 49.7988C44.1493 50.1415 44.279 50.5674 44.6217 50.75C44.8903 50.8932 45.1676 51.0196 45.4513 51.1294C43.65 51.9196 41.6946 52.333 39.7071 52.333C37.7196 52.333 35.7641 51.9195 33.9627 51.1292C34.2438 51.0204 34.5186 50.8953 34.7849 50.7539C35.1277 50.5716 35.258 50.1459 35.0757 49.8031C34.8934 49.4601 34.4677 49.3298 34.1249 49.5121C33.2223 49.9919 32.201 50.2454 31.1713 50.2454C27.6956 50.2454 24.868 47.4178 24.868 43.9421C24.868 42.1346 25.6459 40.4114 27.0022 39.2143C27.2933 38.9573 27.321 38.513 27.0641 38.2218C26.8071 37.9307 26.3627 37.9029 26.0716 38.16C25.844 38.3609 25.6303 38.5743 25.4299 38.798C25.4164 38.5437 25.4088 38.2891 25.4088 38.0347C25.4088 37.1661 25.4882 36.2934 25.645 35.4387C25.6526 35.4195 25.6592 35.3998 25.665 35.3799C27.8266 27.9993 32.4119 27.4668 39.707 27.4668C43.0584 27.4668 46.026 27.5491 48.4043 28.5611C51.0135 29.6713 52.7127 31.8247 53.7495 35.3354C53.919 36.2228 54.0053 37.1308 54.0053 38.0347C54.0053 38.2893 53.9977 38.5441 53.9842 38.7986C53.7891 38.5807 53.5813 38.3726 53.3603 38.1764C53.0698 37.9185 52.6254 37.9446 52.3678 38.2351C52.1099 38.5255 52.1362 38.9699 52.4265 39.2277C53.7733 40.4238 54.5457 42.1422 54.5457 43.942C54.5457 47.4177 51.718 50.2453 48.2423 50.2453ZM55.3112 40.8688C55.2749 40.7852 55.2374 40.7023 55.1983 40.6201C55.3393 39.7692 55.4115 38.9008 55.4115 38.0347C55.4115 37.3853 55.3705 36.734 55.2903 36.0883C55.8462 36.1856 56.4078 36.2431 56.9707 36.2592C57.356 36.7656 57.5657 37.3827 57.5657 38.0251C57.5656 39.4002 56.6084 40.566 55.3112 40.8688Z"/>
</mask>
<path d="M58.9719 38.0251C58.9719 37.0258 58.6289 36.0683 58.0024 35.2981C57.9284 30.1778 55.7033 25.3037 51.8687 21.8904C51.5789 21.6323 51.1343 21.6581 50.8762 21.9481C50.6179 22.2381 50.6438 22.6825 50.9339 22.9406C54.3525 25.984 56.3871 30.2846 56.584 34.8331C56.0498 34.7955 55.518 34.7158 54.9942 34.595C53.8292 30.8985 51.8507 28.4992 48.955 27.2671C46.3327 26.1513 43.2154 26.0605 39.7071 26.0605C36.1883 26.0605 33.0629 26.1513 30.4491 27.2674C27.5249 28.516 25.6051 30.8537 24.4297 34.6081C23.9436 34.7309 23.4198 34.8066 22.8297 34.8395C22.9543 31.9018 23.8379 29.0571 25.4043 26.5709C25.5711 26.3061 25.5429 25.963 25.335 25.7291C24.2953 24.6032 24.0386 22.8051 24.9119 22.1477C25.5607 21.6328 26.7047 21.8368 27.6323 22.6326C27.9011 22.8632 28.2992 22.8579 28.5619 22.6204C28.8245 22.3829 28.8694 21.987 28.6667 21.6967C27.654 20.2456 27.6013 18.5211 28.5465 17.7708C29.007 17.4054 29.6573 17.3121 30.3774 17.508C31.3305 17.7546 32.3006 18.5461 32.8694 19.4776C33.0469 19.7629 33.4016 19.8828 33.7157 19.7634C35.6294 19.0371 37.6453 18.669 39.7071 18.669C42.7684 18.669 45.7675 19.497 48.3802 21.0634C48.7133 21.2629 49.145 21.155 49.3448 20.8219C49.5445 20.4888 49.4364 20.057 49.1033 19.8573C46.2721 18.1599 43.0229 17.2627 39.7071 17.2627C37.6602 17.2627 35.6546 17.5981 33.7372 18.2601C32.9582 17.2248 31.8725 16.4544 30.7469 16.1512C29.5842 15.8345 28.4923 16.0187 27.6723 16.6694C26.5859 17.5317 26.2268 19.0197 26.6108 20.553C25.6677 20.3337 24.7389 20.4898 24.0376 21.0464C22.6544 22.1442 22.6306 24.4421 23.9514 26.2519C22.3307 28.9895 21.4584 32.1009 21.4125 35.2969C20.7855 36.0673 20.4423 37.0252 20.4423 38.025C20.4423 40.0185 21.8006 41.7156 23.6603 42.2078C23.5299 42.7718 23.4618 43.3531 23.4618 43.9419C23.4618 48.1929 26.9203 51.6513 31.1714 51.6513C31.3927 51.6513 31.6137 51.6412 31.8337 51.6222C32.1684 51.8164 32.5095 51.998 32.8565 52.1663C29.797 54.0556 27.5984 57.1684 26.8905 60.7279C26.7305 61.5308 26.9376 62.3557 27.4589 62.9911C27.9848 63.6322 28.7615 63.9998 29.5902 63.9998H45.7621C46.1504 63.9998 46.4653 63.6851 46.4653 63.2967C46.4653 62.9084 46.1505 62.5936 45.7621 62.5936H29.5902C29.1843 62.5936 28.8038 62.4134 28.5461 62.0992C28.2929 61.7907 28.1923 61.3911 28.2696 61.0029C28.7939 58.3727 30.2245 56.0188 32.2552 54.3273C32.6151 55.7715 33.3883 57.0866 34.5003 58.1126C35.9221 59.4244 37.7713 60.1468 39.707 60.1468C41.6429 60.1468 43.4919 59.4243 44.9138 58.1126C46.0259 57.0866 46.799 55.7716 47.1589 54.3273C49.1896 56.0188 50.6201 58.3727 51.1445 61.0029C51.2219 61.391 51.1212 61.7907 50.868 62.0992C50.6103 62.4134 50.2298 62.5936 49.8239 62.5936H49.0432C48.6549 62.5936 48.3401 62.9083 48.3401 63.2967C48.3401 63.685 48.6548 63.9998 49.0432 63.9998H49.8239C50.6526 63.9998 51.4294 63.6321 51.9553 62.9911C52.4764 62.3557 52.6836 61.5308 52.5236 60.7279C51.8159 57.1684 49.6171 54.0555 46.5576 52.1663C46.9047 51.998 47.2457 51.8165 47.5804 51.6222C47.8003 51.6411 48.021 51.6513 48.2422 51.6513C52.4933 51.6513 55.9517 48.1929 55.9517 43.9419C55.9517 43.3533 55.8836 42.772 55.7532 42.208C57.6133 41.7162 58.9719 40.0188 58.9719 38.0251ZM21.8486 38.0251C21.8486 37.3831 22.058 36.7664 22.4429 36.2601C23.0516 36.2471 23.6051 36.1983 24.1213 36.1095C24.0429 36.7484 24.0028 37.3925 24.0028 38.0348C24.0028 38.9003 24.0749 39.7683 24.2159 40.6191C24.1765 40.7016 24.1388 40.7849 24.1023 40.8687C22.8054 40.5654 21.8486 39.3999 21.8486 38.0251ZM45.9086 53.4187C45.4443 56.4343 42.7977 58.7409 39.7071 58.7409C36.6166 58.7409 33.97 56.4343 33.5056 53.4188C33.8286 53.2155 34.1626 53.0273 34.507 52.8555C36.1686 53.4378 37.9265 53.7392 39.7071 53.7392C41.4878 53.7392 43.2457 53.4378 44.9073 52.8555C45.2516 53.0272 45.5856 53.2154 45.9086 53.4187ZM48.2423 50.2453C47.2102 50.2453 46.1868 49.9906 45.283 49.509C44.94 49.3263 44.5144 49.4564 44.3318 49.7988C44.1493 50.1415 44.279 50.5674 44.6217 50.75C44.8903 50.8932 45.1676 51.0196 45.4513 51.1294C43.65 51.9196 41.6946 52.333 39.7071 52.333C37.7196 52.333 35.7641 51.9195 33.9627 51.1292C34.2438 51.0204 34.5186 50.8953 34.7849 50.7539C35.1277 50.5716 35.258 50.1459 35.0757 49.8031C34.8934 49.4601 34.4677 49.3298 34.1249 49.5121C33.2223 49.9919 32.201 50.2454 31.1713 50.2454C27.6956 50.2454 24.868 47.4178 24.868 43.9421C24.868 42.1346 25.6459 40.4114 27.0022 39.2143C27.2933 38.9573 27.321 38.513 27.0641 38.2218C26.8071 37.9307 26.3627 37.9029 26.0716 38.16C25.844 38.3609 25.6303 38.5743 25.4299 38.798C25.4164 38.5437 25.4088 38.2891 25.4088 38.0347C25.4088 37.1661 25.4882 36.2934 25.645 35.4387C25.6526 35.4195 25.6592 35.3998 25.665 35.3799C27.8266 27.9993 32.4119 27.4668 39.707 27.4668C43.0584 27.4668 46.026 27.5491 48.4043 28.5611C51.0135 29.6713 52.7127 31.8247 53.7495 35.3354C53.919 36.2228 54.0053 37.1308 54.0053 38.0347C54.0053 38.2893 53.9977 38.5441 53.9842 38.7986C53.7891 38.5807 53.5813 38.3726 53.3603 38.1764C53.0698 37.9185 52.6254 37.9446 52.3678 38.2351C52.1099 38.5255 52.1362 38.9699 52.4265 39.2277C53.7733 40.4238 54.5457 42.1422 54.5457 43.942C54.5457 47.4177 51.718 50.2453 48.2423 50.2453ZM55.3112 40.8688C55.2749 40.7852 55.2374 40.7023 55.1983 40.6201C55.3393 39.7692 55.4115 38.9008 55.4115 38.0347C55.4115 37.3853 55.3705 36.734 55.2903 36.0883C55.8462 36.1856 56.4078 36.2431 56.9707 36.2592C57.356 36.7656 57.5657 37.3827 57.5657 38.0251C57.5656 39.4002 56.6084 40.566 55.3112 40.8688Z" fill="#222222" stroke="white" stroke-width="0.4" mask="url(#path-2-inside-1_2003_3045)"/>
<path d="M42.2814 42.8022C42.0221 42.5762 41.8735 42.2501 41.8735 41.9072C41.8735 41.5645 42.0221 41.2384 42.2814 41.0124C42.5741 40.7573 42.6047 40.3132 42.3496 40.0204C42.0945 39.7275 41.6503 39.6971 41.3576 39.9522C40.9732 40.2871 40.7004 40.7236 40.5649 41.204H38.9588C38.8232 40.7236 38.5505 40.2871 38.166 39.9522C37.8733 39.6971 37.429 39.7275 37.174 40.0204C36.9189 40.3132 36.9495 40.7573 37.2423 41.0124C37.5016 41.2383 37.6502 41.5644 37.6502 41.9072C37.6502 42.25 37.5015 42.5761 37.2422 42.8022C36.9495 43.0574 36.9189 43.5015 37.174 43.7942C37.3131 43.9537 37.5082 44.0354 37.7044 44.0354C37.8683 44.0354 38.0328 43.9785 38.1661 43.8623C38.5506 43.5272 38.8232 43.0907 38.9588 42.6104H40.565C40.7005 43.0907 40.9732 43.5272 41.3576 43.8623C41.4909 43.9784 41.6555 44.0354 41.8194 44.0354C42.0156 44.0354 42.2107 43.9537 42.3497 43.7942C42.6047 43.5014 42.5741 43.0573 42.2814 42.8022Z" fill="#E94260"/>
<path d="M34.5673 36.3918C34.1525 36.641 33.6028 36.641 33.1882 36.3918C32.8552 36.1919 32.4233 36.2997 32.2234 36.6326C32.0234 36.9655 32.1313 37.3974 32.4641 37.5974C32.7064 37.743 32.9696 37.848 33.2428 37.9127C33.1995 38.004 33.1746 38.1057 33.1746 38.2134V39.3384C33.1746 39.7267 33.4894 40.0415 33.8777 40.0415C34.266 40.0415 34.5808 39.7268 34.5808 39.3384V38.2134C34.5808 38.1057 34.5559 38.004 34.5126 37.9127C34.7859 37.848 35.0489 37.743 35.2914 37.5974C35.6243 37.3974 35.732 36.9655 35.532 36.6326C35.3321 36.2998 34.9003 36.1921 34.5673 36.3918Z" fill="#E94260"/>
<path d="M46.276 36.3918C45.861 36.641 45.3116 36.641 44.8967 36.3918C44.5637 36.1919 44.1318 36.2998 43.9319 36.6326C43.732 36.9655 43.8399 37.3974 44.1727 37.5974C44.4151 37.743 44.6782 37.848 44.9515 37.9127C44.9082 38.004 44.8832 38.1057 44.8832 38.2134V39.3384C44.8832 39.7267 45.1979 40.0415 45.5863 40.0415C45.9747 40.0415 46.2895 39.7268 46.2895 39.3384V38.2134C46.2895 38.1057 46.2645 38.004 46.2212 37.9127C46.4945 37.848 46.7576 37.743 47 37.5974C47.3329 37.3974 47.4407 36.9655 47.2408 36.6326C47.0407 36.2997 46.6089 36.1921 46.276 36.3918Z" fill="#E94260"/>
</g>
<defs>
<clipPath id="clip0_2003_3045">
<rect width="48" height="48" fill="white" transform="translate(15.7071 16)"/>
</clipPath>
</defs>
</svg>
