<svg width="80" height="80" viewBox="0 0 80 80" fill="none" xmlns="http://www.w3.org/2000/svg">
<rect x="0.5" y="0.5" width="78.4142" height="79" rx="23.5" fill="white"/>
<rect x="0.5" y="0.5" width="78.4142" height="79" rx="23.5" stroke="#E94260"/>
<path d="M52.6786 16.0135C52.6786 16.0135 52.8406 23.1926 60.9103 24.0292C61.5445 36.7546 63.2853 53.5822 40.6415 64C31.7756 58.7506 16.5808 52.2328 18.9558 23.9887C18.9558 23.9887 25.4467 25.0278 27.1875 16H52.6786V16.0135Z" stroke="#222222" stroke-miterlimit="10" stroke-linecap="round" stroke-linejoin="round"/>
<path d="M25.9319 32.9277C25.9319 32.9277 27.9581 33.6307 28.3302 36.3681C28.7024 39.0972 28.628 39.4941 28.628 39.4941C28.628 39.4941 28.2145 43.778 30.7699 45.8537C30.8857 45.953 31.0345 46.0026 31.1917 45.9943C32.1841 45.9612 33.6396 45.9943 34.1854 46.0109C34.3343 46.0191 34.4831 45.9695 34.6072 45.8785C35.244 45.4154 36.7987 44.514 36.8401 41.1977C36.9145 39.0145 37.1378 35.7809 38.246 35.5163" stroke="#E94260" stroke-miterlimit="10" stroke-linecap="round" stroke-linejoin="round"/>
<path d="M33.8381 45.8289C33.8381 45.8289 31.7706 43.563 31.7871 40.1144C31.8037 36.8725 31.448 34.6562 29.7858 33.3578C29.579 33.2007 29.3475 33.0932 29.0911 33.0518C27.6273 32.7872 25.9319 32.9278 25.9319 32.9278" stroke="#E94260" stroke-miterlimit="10" stroke-linecap="round" stroke-linejoin="round"/>
<path d="M32.7133 43.6042C32.7133 43.6042 34.1854 42.2893 33.9373 38.9978C33.6892 35.7147 35.2853 32.8946 36.3687 32.8615C37.1874 32.8863 39.3541 35.3425 38.982 38.8325C38.9489 41.6442 38.8248 43.7365 40.9916 45.6138C41.1074 45.7131 41.2397 45.771 41.3886 45.7875C42.6042 45.9116 44.0763 45.8785 44.7792 45.8454C45.0522 45.8371 45.3002 45.7048 45.4656 45.4898C46.0197 44.7868 47.2023 43.0667 47.285 41.2969C47.3843 38.9813 46.9046 36.3515 48.6082 35.4831" stroke="#E94260" stroke-miterlimit="10" stroke-linecap="round" stroke-linejoin="round"/>
<path d="M36.3687 32.8699L39.8917 33.027C40.1315 33.0353 40.3465 33.1428 40.5036 33.3247C41.0329 33.9367 42.1659 35.5741 42.1742 38.3777C42.0171 41.2639 42.5794 44.1915 44.3161 45.862" stroke="#E94260" stroke-miterlimit="10" stroke-linecap="round" stroke-linejoin="round"/>
<path d="M43.1006 43.5546C43.1006 43.5546 44.3824 42.6283 44.1095 38.5264C44.1509 35.4583 45.2756 33.1344 46.6815 32.9111C48.0874 32.6795 49.1046 35.6816 49.1542 37.4679C49.2038 39.2046 48.7986 43.4967 51.2382 45.5642C51.3788 45.68 51.5525 45.7461 51.7344 45.7461C53.008 45.7792 55.1748 45.7544 55.1748 45.7544" stroke="#E94260" stroke-miterlimit="10" stroke-linecap="round" stroke-linejoin="round"/>
<path d="M46.979 32.9029L49.9562 32.9938C50.1712 32.9856 50.378 33.06 50.5434 33.2089C51.1223 33.7133 52.3462 35.1689 52.5034 38.4768C52.4289 40.288 52.6274 44.1583 54.8355 45.7544" stroke="#E94260" stroke-miterlimit="10" stroke-linecap="round" stroke-linejoin="round"/>
<path d="M29.9516 32.3487C32.0191 29.1317 35.6331 26.998 39.7432 26.998C43.4647 26.998 46.7728 28.743 48.9064 31.4555" stroke="#222222" stroke-miterlimit="10" stroke-linecap="round" stroke-linejoin="round"/>
<path d="M49.1377 45.5063C47.0206 48.3925 43.6051 50.2698 39.743 50.2698C36.7245 50.2698 33.9789 49.1203 31.9114 47.243" stroke="#222222" stroke-miterlimit="10" stroke-linecap="round" stroke-linejoin="round"/>
</svg>
