<svg width="84" height="75" viewBox="0 0 84 75" fill="none" xmlns="http://www.w3.org/2000/svg">
<g clip-path="url(#clip0_939_6584)">
<path d="M9.84779 39.105L8.61193 37.8384C6.72586 35.9128 5.22829 33.6254 4.20474 31.1067C3.18118 28.588 2.65168 25.8873 2.64646 23.1589C2.63593 17.6485 4.76156 12.3596 8.55575 8.45552C12.3499 4.55147 17.5019 2.35214 22.8782 2.34134C28.2545 2.33054 33.4149 4.50917 37.2239 8.39794L42.0176 13.3878L46.8112 8.39794C48.6724 6.40423 50.9032 4.81146 53.3729 3.71305C55.8426 2.61464 58.5014 2.03269 61.1935 2.00134C63.8855 1.96998 66.5565 2.48985 69.0499 3.53045C71.5433 4.57105 73.8089 6.11144 75.7138 8.06129C77.6187 10.0111 79.1246 12.3312 80.1432 14.8854C81.1617 17.4396 81.6725 20.1765 81.6454 22.9357C81.6183 25.6948 81.054 28.4207 79.9856 30.9534C78.9171 33.4861 77.366 35.7746 75.4232 37.6848L74.1874 38.9515L42.0176 72L19.8096 49.2384L9.84779 39.105Z" stroke="black" stroke-width="2.86979" stroke-miterlimit="10"/>
<path d="M31.3068 35.3433H52.7283" stroke="#E94260" stroke-width="2.86979" stroke-miterlimit="10" stroke-linecap="round"/>
<path d="M42.0176 24.3657V46.3597" stroke="#E94260" stroke-width="2.86979" stroke-miterlimit="10" stroke-linecap="round"/>
</g>
<defs>
<clipPath id="clip0_939_6584">
<rect width="83" height="75" fill="white" transform="translate(0.5)"/>
</clipPath>
</defs>
</svg>
