<svg width="74" height="71" viewBox="0 0 74 71" fill="none" xmlns="http://www.w3.org/2000/svg">
<path fill-rule="evenodd" clip-rule="evenodd" d="M40.8239 53.535C31.1587 53.535 23.3057 45.685 23.3057 36.0234C23.3057 26.3154 31.1587 18.4653 40.8239 18.4653C50.5355 18.4653 58.3885 26.3154 58.3885 36.0234C58.3885 45.685 50.5355 53.535 40.8239 53.535ZM40.8239 20.7414C32.4598 20.7414 25.5362 27.5695 25.5362 36.0234C25.5362 44.4308 32.4133 51.3054 40.8239 51.3054C49.2809 51.3054 56.1116 44.4308 56.1116 36.0234C56.1116 27.5695 49.2809 20.7414 40.8239 20.7414Z" fill="#E94260"/>
<path fill-rule="evenodd" clip-rule="evenodd" d="M40.8239 63.7076C27.999 63.7076 16.9862 55.0214 13.9659 42.5729C13.8265 42.0155 14.1517 41.3652 14.8023 41.2258C15.3599 41.0865 16.0104 41.4116 16.1498 42.0619C18.8914 53.4886 29.1142 61.478 40.8239 61.478C50.6285 61.478 59.6896 55.8111 63.8717 46.9856V44.338C63.8717 43.6877 64.3828 43.1767 65.0333 43.1767C65.6839 43.1767 66.195 43.6877 66.195 44.338V47.2178C66.195 47.4036 66.1021 47.543 66.0556 47.6823C61.5018 57.3904 51.5579 63.7076 40.8239 63.7076ZM61.92 20.9737C61.5948 20.9737 61.2695 20.8343 61.0372 20.5092C57.1804 15.4926 51.6043 12.1017 45.4242 10.9869C44.7736 10.8476 44.4019 10.2902 44.5413 9.68633C44.6342 9.03603 45.2383 8.66443 45.7959 8.80378C52.5801 10.0115 58.6209 13.7739 62.8494 19.255C63.2211 19.766 63.0817 20.4627 62.6635 20.8343C62.4312 20.9272 62.1988 20.9737 61.92 20.9737ZM21.1218 19.3015C20.843 19.3015 20.6107 19.255 20.3319 18.9763C19.8672 18.6047 19.8207 17.8151 20.2854 17.3506C23.9563 13.3094 28.6495 10.476 33.9468 9.12893C34.5044 8.98958 35.1549 9.31473 35.2943 9.96503C35.4337 10.5224 35.1085 11.1727 34.4579 11.3121C29.5324 12.5198 25.2109 15.1674 21.8653 18.837C21.7724 19.1621 21.4471 19.3015 21.1218 19.3015Z" fill="#E94260"/>
<path fill-rule="evenodd" clip-rule="evenodd" d="M72.6193 44.3597H62.7685C62.1416 44.3597 61.6491 43.8487 61.6491 43.1984V11.2873C61.6491 5.01659 66.5745 0 72.5297 0C73.1566 0 73.6491 0.510949 73.6491 1.16125V43.3378C73.6491 43.8487 73.2013 44.3597 72.6193 44.3597ZM63.8879 42.0836H71.5446V2.3225C67.2461 2.87989 63.8879 6.68879 63.8879 11.2873V42.0836Z" fill="#232323"/>
<path fill-rule="evenodd" clip-rule="evenodd" d="M72.6491 71H65.6491C65.0784 71 64.6491 70.4054 64.6491 69.7551V44.1612C64.6491 43.5109 65.132 43 65.7028 43C66.3174 43 66.8003 43.5109 66.8003 44.1612L66.6491 69H71.6491V44.1612C71.6491 43.5109 71.9369 43 72.5515 43C73.1662 43 73.6491 43.5109 73.6491 44.1612V69.7551C73.6491 70.5 73.2198 71 72.6491 71Z" fill="#232323"/>
<path fill-rule="evenodd" clip-rule="evenodd" d="M14.9881 71H7.64625C6.9957 71 6.48456 70.489 6.48456 69.8387V33.0504C2.72072 30.2634 0.350891 24.4107 0.350891 17.9078C0.350891 8.52488 5.22995 1 11.2242 1C17.3579 1 22.1905 8.43198 22.1905 17.9078C22.1905 24.4107 19.8207 30.2634 16.0568 33.0504V69.8387C16.1497 70.489 15.6386 71 14.9881 71ZM8.80793 68.7704H13.8729V32.4466C13.8729 32.075 14.0587 31.7498 14.384 31.4711C17.7296 29.288 20.0065 23.8069 20.0065 17.9078C20.0065 9.82548 16.0568 3.22959 11.3172 3.22959C6.5775 3.22959 2.58132 9.96483 2.58132 17.9078C2.58132 23.8998 4.85821 29.3809 8.20385 31.4711C8.52912 31.7034 8.71499 32.075 8.71499 32.4466V68.7704H8.80793Z" fill="#232323"/>
</svg>
