<svg width="82" height="81" viewBox="0 0 82 81" fill="none" xmlns="http://www.w3.org/2000/svg">
<path d="M41.3738 40.4998C45.2793 40.4998 48.4454 37.3643 48.4454 33.4965C48.4454 29.6287 45.2793 26.4932 41.3738 26.4932C37.4683 26.4932 34.3022 29.6287 34.3022 33.4965C34.3022 37.3643 37.4683 40.4998 41.3738 40.4998Z" stroke="#E94260" stroke-width="3" stroke-miterlimit="10"/>
<path d="M30.7849 50.9867C30.7849 48.2054 31.9005 45.5381 33.8863 43.5715C35.8721 41.6048 38.5654 40.5 41.3738 40.5C44.1821 40.5 46.8754 41.6048 48.8613 43.5715C50.8471 45.5381 51.9627 48.2054 51.9627 50.9867" stroke="#E94260" stroke-width="3" stroke-miterlimit="10" stroke-linecap="round"/>
<path d="M63.5883 9.00342C70.3372 13.7017 75.402 20.4043 78.0501 28.1417C80.6982 35.8791 80.7923 44.2503 78.3188 52.0442C75.8453 59.8381 70.9324 66.6507 64.2908 71.4966C57.6492 76.3424 49.6232 78.9703 41.3738 79.0001" stroke="#232323" stroke-width="3" stroke-miterlimit="10" stroke-linecap="round"/>
<path d="M19.1593 71.9967C12.4104 67.2984 7.34561 60.5958 4.6975 52.8584C2.04939 45.1209 1.95529 36.7498 4.42881 28.9559C6.90232 21.162 11.8152 14.3494 18.4568 9.50353C25.0984 4.65766 33.1244 2.02978 41.3738 2" stroke="#232323" stroke-width="3" stroke-miterlimit="10" stroke-linecap="round"/>
<path d="M62.8395 25.99V8.5H80.5" stroke="#232323" stroke-width="3" stroke-miterlimit="10" stroke-linecap="round"/>
<path d="M19.1605 54.5068V71.9968H1.5" stroke="#232323" stroke-width="3" stroke-miterlimit="10" stroke-linecap="round"/>
</svg>
