<svg width="74" height="70" viewBox="0 0 74 70" fill="none" xmlns="http://www.w3.org/2000/svg">
<path d="M27.2047 50.7828C27.2047 50.7828 23.5191 38.7297 30.276 31.4643C33.1523 28.9859 36.312 26.8832 39.6839 25.2034C39.6793 22.1559 40.515 19.1705 42.0928 16.598C43.6705 14.0256 45.9247 11.9732 48.5902 10.6821C51.2557 9.39096 54.2218 8.91484 57.1396 9.3097C60.0575 9.70457 62.8058 10.954 65.0615 12.9111C67.3172 14.8682 68.9864 17.4515 69.8729 20.3574C70.7594 23.2633 70.8263 26.3709 70.0658 29.3149C69.3052 32.2588 67.7489 34.9167 65.5797 36.9759C63.4105 39.0352 60.7186 40.4103 57.8207 40.9394C51.9044 50.2136 38.9726 66.7532 21.1914 66.7532C11.7512 66.7532 2.505 38.1605 2.505 25.2034V9.63478C2.51063 7.70147 3.23062 5.84371 4.51719 4.44283C5.80376 3.04196 7.55931 2.20422 9.42351 2.10157C15.0165 1.80025 22.3553 2.10157 24.1011 6.01884C26.7521 11.7441 21.0298 22.0227 14.8549 22.0227C14.8549 27.0448 20.7711 37.9596 26.1378 43.9862" stroke="#E94260" stroke-width="2.5" stroke-miterlimit="10"/>
</svg>
