<svg width="138" height="138" viewBox="0 0 138 138" fill="none" xmlns="http://www.w3.org/2000/svg">
<path d="M66.5771 23.7297C72.5662 21.8156 79.1011 22.7329 84.3317 26.2219L102.79 38.534C108.02 42.023 111.378 47.7041 111.911 53.9689L113.793 76.0764C114.327 82.3413 111.978 88.5081 107.413 92.8313L91.3021 108.087C86.7366 112.41 80.451 114.419 74.2245 113.545L52.2525 110.46C46.026 109.586 40.5363 105.925 37.3375 100.512L26.0495 81.4103C22.8506 75.9973 22.2908 69.4222 24.5284 63.5463L32.4245 42.8114C34.6622 36.9355 39.4537 32.3983 45.4428 30.4842L66.5771 23.7297Z" fill="url(#paint0_linear_440_10557)"/>
<path d="M43.6128 54.4488L40.4536 65.0721L37.7219 64.2597L38.9946 59.98L35.7621 59.0187L34.4894 63.2984L31.7577 62.486L34.9169 51.8627L37.6486 52.6751L36.4165 56.8182L39.649 57.7795L40.8811 53.6364L43.6128 54.4488ZM49.4253 64.7008C49.9449 64.2496 50.3717 63.4626 50.7057 62.3395C51.0426 61.2064 51.1138 60.319 50.9192 59.6775C50.7377 59.0289 50.2574 58.5887 49.4783 58.357C48.6993 58.1253 48.0565 58.2315 47.5501 58.6756C47.0365 59.1065 46.6112 59.8885 46.2742 61.0217C45.9402 62.1447 45.8676 63.0371 46.0562 63.6989C46.2508 64.3404 46.7326 64.7755 47.5015 65.0042C48.2705 65.2328 48.9117 65.1317 49.4253 64.7008ZM43.458 64.8258C42.8579 63.7333 42.8557 62.1854 43.4515 60.1822C44.0472 58.1789 44.8949 56.8838 45.9945 56.2968C47.1042 55.7128 48.4836 55.666 50.1328 56.1565C51.7819 56.6469 52.9116 57.4399 53.5218 58.5354C54.125 59.6177 54.1272 61.1656 53.5284 63.179C52.9327 65.1822 52.085 66.4774 50.9854 67.0644C49.8757 67.6484 48.4963 67.6951 46.8471 67.2047C45.198 66.7143 44.0683 65.9213 43.458 64.8258ZM58.6475 61.1499L58.0202 63.2594L59.2191 63.6159C59.7452 63.7724 60.1416 63.7912 60.4082 63.6722C60.685 63.5563 60.879 63.3112 60.9903 62.9368C61.0986 62.5726 61.0686 62.2663 60.9002 62.018C60.7449 61.7626 60.4042 61.5567 59.878 61.4002C59.5341 61.2979 59.1239 61.2145 58.6475 61.1499ZM60.1794 67.5521C60.2968 67.1575 60.259 66.8214 60.0663 66.5439C59.8735 66.2663 59.4635 66.0342 58.8362 65.8477L57.3793 65.4144L56.7068 67.6757C57.1208 67.8759 57.5959 68.0557 58.1322 68.2152C58.7594 68.4017 59.2296 68.4314 59.5428 68.3043C59.8559 68.1772 60.0681 67.9264 60.1794 67.5521ZM63.8 63.376C63.466 64.499 62.8326 65.1476 61.8999 65.3217C63.0018 66.1339 63.3512 67.2179 62.948 68.5737C62.6411 69.6056 62.0538 70.2844 61.1861 70.61C60.3215 70.9255 59.1202 70.8546 57.5823 70.3972C56.2671 70.0061 54.8857 69.4301 53.4381 68.6692L56.4529 58.5316C58.0608 58.6794 59.4364 58.9233 60.5796 59.2633C62.0264 59.6935 62.9978 60.2412 63.4938 60.9063C63.9898 61.5713 64.0918 62.3946 63.8 63.376ZM75.5111 63.935L72.3518 74.5583L69.6504 73.7549L70.9232 69.4753C71.0495 69.0503 71.1674 68.6724 71.2768 68.3416C71.316 68.21 71.3596 68.0633 71.4077 67.9014C71.466 67.7426 71.5071 67.6227 71.5312 67.5417C71.5684 67.4537 71.5945 67.3844 71.6096 67.3338C71.2103 67.7877 70.7086 68.3267 70.1045 68.951L66.3572 72.7755L63.4586 71.9135L66.6178 61.2902L69.3192 62.0936L68.0465 66.3733C68.0224 66.4542 67.8979 66.8356 67.6731 67.5176C67.5637 67.8485 67.4593 68.1809 67.3601 68.5147C67.7593 68.0608 68.261 67.5218 68.8651 66.8975L72.6124 63.073L75.5111 63.935ZM85.9697 67.0453L82.8104 77.6686L80.0787 76.8562L81.3514 72.5765L78.1189 71.6152L76.8462 75.8949L74.1145 75.0825L77.2737 64.4592L80.0054 65.2716L78.7733 69.4147L82.0058 70.376L83.238 66.2329L85.9697 67.0453ZM91.1022 80.2501L89.0785 73.6686L93.7771 69.3671L96.8275 70.2743L92.195 74.2981L94.2593 80.743L91.1022 80.2501ZM87.737 67.5708L90.4687 68.3832L87.3094 79.0065L84.5777 78.1941L87.737 67.5708ZM104.843 72.658L104.962 84.2562L102.063 83.3942L102.085 80.543L98.8072 79.5682L97.2676 81.968L94.3689 81.1059L100.806 71.4575L104.843 72.658ZM102.143 74.3494L100.084 77.5527L102.117 78.1574L102.143 74.3494Z" fill="white"/>
<defs>
<linearGradient id="paint0_linear_440_10557" x1="21.2835" y1="61.988" x2="117.342" y2="75.4717" gradientUnits="userSpaceOnUse">
<stop stop-color="#E54463"/>
<stop offset="1" stop-color="#83051D"/>
</linearGradient>
</defs>
</svg>
