<svg width="462" height="56" viewBox="0 0 462 56" fill="none" xmlns="http://www.w3.org/2000/svg">
<g clip-path="url(#clip0_939_3293)">
<path d="M292.551 27.2551V26.7708C292.466 24.0787 292.937 21.3979 293.936 18.8961C294.935 16.3943 296.441 14.1254 298.358 12.2312C300.276 10.3371 302.564 8.85863 305.08 7.88824C307.596 6.91784 310.285 6.47643 312.98 6.59165C324.901 6.59165 333.388 14.6633 333.388 26.5286V26.9725C333.388 38.7773 325.305 47.3736 312.919 47.3736C300.533 47.3736 292.551 38.8782 292.551 27.2551ZM324.012 27.1542V26.7708C324.012 19.0623 319.971 13.7956 312.98 13.7956C305.988 13.7956 301.927 18.6991 301.927 26.7708V27.1945C301.927 35.2662 306.595 40.2908 313.081 40.2908C319.567 40.2908 324.012 35.1249 324.012 27.1542Z" fill="white"/>
<path d="M339.733 7.19678H350.18L365.294 33.2884V7.19678H373.275V46.8084H364.263L347.735 18.6989V46.9496H339.652L339.733 7.19678Z" fill="white"/>
<path d="M379.68 27.2557V26.7714C379.68 14.6639 388.106 6.59229 399.381 6.59229C408.918 6.59229 416.031 11.2335 416.96 21.0002H407.726C407.698 19.9646 407.456 18.946 407.018 18.0073C406.579 17.0687 405.951 16.2301 405.175 15.5433C404.398 14.8566 403.489 14.3365 402.502 14.0151C401.516 13.6938 400.475 13.5781 399.442 13.6752C393.178 13.6752 389.177 18.5585 389.177 26.7714V27.1952C389.177 35.4081 392.935 40.1501 399.482 40.1501C404.433 40.1501 407.868 37.6883 408.595 32.583H417.405C416.415 42.39 409.323 47.4348 399.603 47.4348C386.611 47.4348 379.68 39.4439 379.68 27.2557Z" fill="white"/>
<path d="M421.164 27.2565V26.7722C421.078 24.0801 421.549 21.3993 422.548 18.8975C423.547 16.3958 425.053 14.1268 426.97 12.2327C428.888 10.3386 431.176 8.8601 433.692 7.8897C436.208 6.9193 438.897 6.4779 441.592 6.59311C453.514 6.59311 462 14.6648 462 26.5301V26.974C462 38.7788 453.918 47.3751 441.531 47.3751C429.145 47.3751 421.164 38.8797 421.164 27.2565ZM452.624 27.1556V26.7722C452.624 19.0638 448.583 13.7971 441.592 13.7971C434.601 13.7971 430.539 18.7006 430.539 26.7722V27.196C430.539 35.2676 435.207 40.2922 441.693 40.2922C448.179 40.2922 452.624 35.1264 452.624 27.1556Z" fill="white"/>
</g>
<g clip-path="url(#clip1_939_3293)">
<path d="M108.334 5.13916C94.2335 5.13916 86.9631 13.8733 86.9631 26.7087C86.9631 32.937 88.6815 38.1965 92.0604 41.9626C101.071 36.6376 109.72 29.6153 114.81 21.0923L112.023 19.3295C106.392 26.0823 99.8217 30.5113 96.45 31.5748C94.6451 26.665 95.1649 21.8208 99.0925 18.4626C102.154 15.8475 107.042 13.9316 114.131 12.737C116.839 12.278 118.81 12.3509 119.647 16.2117C120.918 22.083 121.113 30.0669 117.749 35.2608C114.456 40.3454 108.796 41.8388 103.229 40.7534C101.475 42.8003 99.2874 44.8619 97.829 46.1804C100.753 47.528 104.255 48.2565 108.327 48.2565C122.42 48.2565 129.697 39.5296 129.697 26.7015C129.705 13.8733 122.427 5.13916 108.334 5.13916Z" fill="white"/>
<path d="M39.8753 6.85791H35.6011C26.4752 6.85791 18.7211 9.881 14.1654 22.7601L13.465 24.8362C8.52665 39.5656 5.29938 42.7344 0 44.0602L1.0541 50.1865C7.98516 49.56 15.1473 48.7878 21.6596 30.4599L24.4681 22.6508C27.2911 15.7888 29.5942 13.8074 34.7564 13.8074L35.7527 13.8292V46.9958H45.6584V12.4962C45.6584 8.77375 43.709 6.85791 39.8753 6.85791Z" fill="white"/>
<path d="M61.7372 29.4546H81.7001V22.7674H61.7372V13.8074H82.8192L82.8553 6.85791H57.6146C53.7809 6.85791 51.8387 8.76646 51.8387 12.4889V46.9958H84.1187V39.4855H61.7372V29.4546Z" fill="white"/>
<path d="M253.128 7.01089L253.085 6.85791H219.433V13.8074H231.44V46.9958H241.338V13.8074H249.792C250.875 13.771 251.735 13.3557 252.348 12.5617C253.294 11.3452 253.59 9.18168 253.128 7.01089Z" fill="white"/>
<path d="M204.777 10.2744L188.879 29.3599L186.503 32.9367L186.864 29.0249V7.06919C185.846 6.82151 184.778 6.69767 183.767 6.69767C182.171 6.69767 176.966 7.09104 176.966 12.1028V46.7919C178.049 47.076 178.995 47.2144 179.847 47.2144C182.236 47.2144 184.193 46.1144 186.604 43.4119L202.286 24.8217L204.784 21.143L204.517 25.3389V46.9886H214.422V7.11289C213.318 6.82151 212.343 6.68311 211.426 6.68311C208.87 6.68311 206.82 7.79036 204.777 10.2744Z" fill="white"/>
<path d="M157.927 39.4782L157.826 39.5H144.599V29.4546H157.624C160.995 29.4546 163.01 31.5016 163.01 34.6849C163.003 38.6841 160.266 39.4563 157.927 39.4782ZM144.599 13.8074H157.234C159.479 13.8074 161.754 15.3663 161.754 18.3311C161.754 21.2813 160.194 22.7455 157.241 22.7674H144.599V13.8074ZM163.299 25.856L162.735 25.7978C165.58 24.8872 169.854 23.1098 169.854 17.5079C169.854 10.2598 165.4 6.85791 155.833 6.85791H140.462C136.636 6.85791 134.686 8.76646 134.686 12.4889V46.9958H157.198C172.757 46.9958 172.757 38.2252 172.757 35.3333C172.764 29.2871 167.32 26.3223 163.299 25.856Z" fill="white"/>
</g>
<rect x="269.759" width="4.651" height="56" fill="white"/>
<defs>
<clipPath id="clip0_939_3293">
<rect width="169.448" height="40.8425" fill="white" transform="translate(292.552 6.59229)"/>
</clipPath>
<clipPath id="clip1_939_3293">
<rect width="253.345" height="45.0477" fill="white" transform="translate(0 5.13916)"/>
</clipPath>
</defs>
</svg>
